<?xml version="1.0" standalone="no"?>
<!DOCTYPE svg PUBLIC "-//W3C//DTD SVG 20010904//EN"
 "http://www.w3.org/TR/2001/REC-SVG-20010904/DTD/svg10.dtd">
<svg version="1.0" xmlns="http://www.w3.org/2000/svg"
 width="363.000000pt" height="364.000000pt" viewBox="0 0 363.000000 364.000000"
 preserveAspectRatio="xMidYMid meet">

<g transform="translate(0.000000,364.000000) scale(0.100000,-0.100000)"
fill="#000000" stroke="none">
<path d="M0 1820 l0 -1820 1815 0 1815 0 0 1820 0 1820 -1815 0 -1815 0 0
-1820z m420 1159 l0 -349 -72 0 -71 0 6 273 c4 151 4 276 1 280 -3 3 -21 -1
-39 -9 -59 -24 -66 -20 -63 32 2 34 8 50 23 58 10 6 37 22 60 35 43 26 96 39
133 33 l22 -4 0 -349z m343 347 c42 -17 83 -66 97 -114 13 -48 13 -416 0 -464
-13 -44 -52 -93 -91 -113 -36 -19 -142 -19 -177 -1 -37 19 -68 55 -87 98 -22
54 -22 442 0 496 20 46 51 81 90 98 39 17 127 18 168 0z m915 -104 c2 -92 6
-114 18 -119 27 -10 34 17 34 130 0 107 0 108 23 105 21 -3 22 -6 22 -121 0
-113 -1 -120 -24 -138 -29 -24 -72 -24 -101 -1 -21 17 -23 28 -25 133 -2 63
-1 118 2 122 3 5 15 7 26 5 21 -3 22 -9 25 -116z m251 101 c12 -11 22 -32 23
-53 3 -31 0 -35 -22 -35 -20 0 -26 6 -30 30 -3 18 -11 30 -20 30 -12 0 -16
-19 -18 -97 -3 -93 -2 -98 18 -98 15 0 20 6 20 28 0 35 6 41 31 35 24 -7 26
-59 2 -85 -21 -24 -74 -23 -104 1 -22 18 -24 26 -24 121 0 95 2 103 24 121 29
24 72 24 100 2z m-661 -9 c26 -18 31 -79 8 -109 -12 -16 -11 -28 4 -82 l17
-63 -27 0 c-26 0 -29 5 -42 57 -19 79 -38 81 -38 4 0 -58 -1 -61 -25 -61 l-25
0 0 135 0 135 53 0 c31 0 61 -6 75 -16z m169 -1 c3 -7 -9 -13 -29 -15 -30 -3
-33 -6 -36 -40 -3 -35 -1 -38 22 -38 19 0 26 -5 26 -20 0 -15 -7 -20 -25 -20
-22 0 -25 -4 -25 -39 0 -37 2 -40 32 -43 22 -2 34 -9 36 -20 3 -16 -5 -18 -57
-18 l-61 0 0 135 0 136 57 -3 c32 -2 58 -8 60 -15z m141 1 c20 -14 22 -23 22
-115 0 -123 -11 -139 -95 -139 l-55 0 0 135 0 135 53 0 c31 0 61 -6 75 -16z
m512 2 c0 -9 -12 -16 -27 -18 -25 -3 -28 -7 -28 -38 0 -29 4 -36 23 -38 32 -5
30 -42 -3 -42 -22 0 -25 -4 -25 -40 0 -38 2 -40 30 -40 23 0 30 -4 30 -20 0
-18 -7 -20 -55 -20 l-55 0 0 135 0 135 55 0 c41 0 55 -4 55 -14z m150 -6 c17
-17 20 -33 20 -115 0 -119 -11 -135 -95 -135 l-55 0 0 135 0 135 55 0 c42 0
60 -5 75 -20z m-1045 -550 l0 -135 -25 0 -25 0 -3 124 c-1 69 0 131 3 139 3 7
15 12 27 10 23 -3 23 -6 23 -138z m96 70 l28 -65 3 65 c3 57 5 65 23 65 19 0
20 -8 23 -137 2 -129 1 -138 -16 -138 -14 0 -26 19 -48 73 l-29 72 -3 -73 c-3
-69 -4 -73 -25 -70 -21 3 -22 8 -25 127 -1 69 0 131 3 139 11 29 39 5 66 -58z
m219 50 c0 -16 -7 -20 -30 -20 -27 0 -30 -3 -30 -34 0 -28 4 -35 25 -40 31 -8
33 -33 3 -38 -19 -2 -24 -10 -26 -45 -3 -42 -2 -43 27 -43 24 0 31 -4 31 -20
0 -18 -7 -20 -55 -20 l-55 0 0 140 0 140 55 0 c48 0 55 -2 55 -20z m150 0 c17
-17 20 -33 20 -119 0 -78 -3 -103 -16 -116 -13 -12 -14 -19 -4 -30 7 -8 9 -22
6 -31 -6 -15 -10 -14 -34 8 -15 14 -39 28 -54 32 -15 3 -32 16 -39 27 -13 25
-17 162 -6 202 13 47 91 63 127 27z m98 -98 c2 -92 6 -114 18 -119 27 -10 34
17 34 128 0 103 0 106 23 104 21 -2 22 -5 22 -119 0 -112 -1 -119 -24 -137
-30 -25 -76 -24 -101 1 -18 18 -20 33 -20 141 0 119 0 120 23 117 21 -3 22 -7
25 -116z m227 96 c16 -70 45 -223 45 -240 0 -33 -44 -20 -48 15 -3 21 -9 27
-26 27 -18 0 -25 -7 -29 -30 -6 -28 -33 -41 -49 -25 -4 5 36 227 47 263 3 6
16 12 29 12 18 0 27 -7 31 -22z m115 -98 l0 -120 36 0 c28 0 35 -3 32 -17 -2
-14 -15 -19 -61 -21 l-57 -3 0 141 0 140 25 0 25 0 0 -120z m130 -20 l0 -140
-25 0 -25 0 0 140 0 140 25 0 25 0 0 -140z m150 121 c0 -10 -9 -21 -20 -24
-19 -5 -20 -14 -20 -121 l0 -116 -25 0 -24 0 -3 118 c-3 113 -4 117 -25 120
-22 3 -30 21 -16 35 3 4 35 7 70 7 55 0 63 -2 63 -19z m65 -121 c0 -132 0
-135 -22 -138 -23 -3 -23 -3 -23 138 0 141 0 141 23 138 22 -3 22 -6 22 -138z
m145 120 c0 -16 -7 -20 -30 -20 -27 0 -30 -3 -30 -34 0 -28 4 -35 25 -40 14
-4 25 -13 25 -21 0 -9 -10 -15 -25 -15 -23 0 -25 -4 -25 -45 0 -43 1 -45 29
-45 27 0 47 -20 34 -34 -4 -3 -30 -6 -60 -6 l-53 0 0 140 0 140 55 0 c48 0 55
-2 55 -20z m132 3 c9 -10 19 -28 22 -40 6 -20 4 -23 -17 -23 -17 0 -26 7 -30
21 -7 26 -31 20 -35 -8 -2 -14 10 -31 37 -53 58 -45 71 -107 29 -142 -28 -24
-67 -23 -95 4 -29 28 -31 68 -3 68 13 0 24 -10 30 -26 11 -29 33 -28 38 2 2
12 -14 36 -43 64 -37 37 -45 50 -45 82 0 27 6 41 22 52 30 21 71 20 90 -1z
m-737 -743 c87 -87 157 -162 154 -165 -3 -3 -153 -4 -333 -3 l-328 3 159 161
c87 89 165 162 173 163 8 0 87 -71 175 -159z m785 -795 c0 -16 -325 -337 -333
-329 -9 9 -9 649 0 658 8 8 333 -313 333 -329z m-1580 -5 c0 -181 -3 -330 -8
-330 -4 0 -81 74 -171 164 l-164 165 35 38 c68 74 292 293 300 293 4 0 8 -148
8 -330z m970 220 l0 -110 -350 0 -350 0 0 110 0 110 350 0 350 0 0 -110z m-2
-432 l-3 -113 -345 0 -345 0 -3 99 c-1 55 0 106 2 113 4 10 74 13 351 13 l346
0 -3 -112z m-18 -416 c0 -4 -74 -81 -165 -172 l-165 -165 -165 165 c-91 91
-165 168 -165 172 0 5 149 8 330 8 182 0 330 -3 330 -8z"/>
<path d="M650 3210 c-24 -15 -28 -411 -5 -446 11 -17 24 -24 38 -22 40 6 47
41 47 238 0 195 -7 233 -45 238 -11 1 -27 -2 -35 -8z"/>
<path d="M1190 3255 c0 -32 3 -36 23 -33 17 2 22 10 22 33 0 23 -5 31 -22 33
-20 3 -23 -1 -23 -33z"/>
<path d="M1510 3278 c0 -7 -2 -49 -3 -93 -2 -74 -1 -80 18 -80 19 0 20 7 20
90 0 77 -2 90 -17 93 -10 2 -18 -2 -18 -10z"/>
<path d="M2160 3196 c0 -89 1 -96 20 -96 25 0 32 27 28 115 -3 64 -5 70 -25
73 -22 3 -23 1 -23 -92z"/>
<path d="M1585 2847 c-3 -7 -5 -52 -3 -98 3 -76 5 -84 23 -84 19 0 20 7 20 95
0 82 -2 95 -18 98 -9 2 -19 -3 -22 -11z"/>
<path d="M1946 2779 c-9 -47 -7 -59 8 -59 11 0 13 10 9 43 -7 53 -9 55 -17 16z"/>
</g>
</svg>
