<?xml version="1.0" encoding="UTF-8"?>
<svg version="1.1" xmlns="http://www.w3.org/2000/svg" width="363" height="364">
<path d="M0 0 C119.79 0 239.58 0 363 0 C363 120.12 363 240.24 363 364 C243.21 364 123.42 364 0 364 C0 243.88 0 123.76 0 0 Z " fill="#EE4129" transform="translate(0,0)"/>
<path d="M0 0 C15.84 0 31.68 0 48 0 C48.0309375 11.6015625 48.0309375 11.6015625 48.0625 23.4375 C48.071604 25.88212646 48.08070801 28.32675293 48.09008789 30.84545898 C48.09300691 32.77067001 48.0955555 34.69588165 48.09765625 36.62109375 C48.10277222 37.63079224 48.10788818 38.64049072 48.11315918 39.68078613 C48.11334045 41.11194763 48.11334045 41.11194763 48.11352539 42.57202148 C48.115746 43.40475082 48.11796661 44.23748016 48.12025452 45.09544373 C48 47 48 47 47 48 C44.3013095 48.07325436 41.63497444 48.09222351 38.9375 48.0625 C36.318125 48.041875 33.69875 48.02125 31 48 C31 42.39 31 36.78 31 31 C29.35 32.65 27.7 34.3 26 36 C24.89080124 36.98255076 23.77007358 37.95241475 22.6328125 38.90234375 C21.77042969 39.64967773 21.77042969 39.64967773 20.890625 40.41210938 C19.70197306 41.43903101 18.50106404 42.45191528 17.2890625 43.45117188 C15.31952952 45.11165785 15.31952952 45.11165785 13 48 C12.89959928 52.55937388 14.78037212 55.87270899 16.9375 59.8125 C23.48624627 72.67442612 24.15660308 88.32439242 20.03515625 102.203125 C13.55710278 119.70609212 2.25747547 132.15532843 -14.74609375 140.0703125 C-19.24755971 141.92706969 -23.06347045 143 -28 143 C-28 148.94 -28 154.88 -28 161 C-22.06 161 -16.12 161 -10 161 C-10 166.94 -10 172.88 -10 179 C-15.94 179 -21.88 179 -28 179 C-28 184.94 -28 190.88 -28 197 C-30.784375 197.020625 -33.56875 197.04125 -36.4375 197.0625 C-37.31591553 197.071604 -38.19433105 197.08070801 -39.09936523 197.09008789 C-41.06645974 197.09723091 -43.03353621 197.05031893 -45 197 C-46 196 -46 196 -46.09765625 192.18359375 C-46.09191138 190.60152953 -46.07889593 189.01948969 -46.0625 187.4375 C-46.041875 184.653125 -46.02125 181.86875 -46 179 C-51.94 179 -57.88 179 -64 179 C-64 173.06 -64 167.12 -64 161 C-58.06 161 -52.12 161 -46 161 C-46 155.06 -46 149.12 -46 143 C-47.2375 142.938125 -48.475 142.87625 -49.75 142.8125 C-64.26011114 141.12950905 -76.37880888 131.84647038 -85.70703125 121.109375 C-95.58942057 107.70838369 -99.90464343 90.63127161 -97.6015625 74.1484375 C-94.24138719 57.95850191 -85.32815331 44.00620608 -72.125 34.125 C-58.98067045 25.54724504 -42.54395119 21.3659218 -26.92871094 24.40283203 C-18.95512792 26.33576548 -11.74899612 29.1816566 -5.015625 33.9609375 C-3.09495887 35.18661382 -3.09495887 35.18661382 -1.1171875 34.78979492 C1.54932084 33.79508154 2.90518116 32.43582252 4.890625 30.40234375 C5.59960938 29.68369141 6.30859375 28.96503906 7.0390625 28.22460938 C7.76867187 27.46986328 8.49828125 26.71511719 9.25 25.9375 C9.99507813 25.17888672 10.74015625 24.42027344 11.5078125 23.63867188 C13.34536347 21.76578338 15.17358809 19.88375275 17 18 C11.39 17.67 5.78 17.34 0 17 C0 11.39 0 5.78 0 0 Z " fill="#FDFAF8" transform="translate(220,137)"/>
<path d="M0 0 C0.495 0.99 0.495 0.99 1 2 C1.763125 2 2.52625 2 3.3125 2 C9 2 9 2 11.15625 2.03515625 C12.31640625 2.04869141 12.31640625 2.04869141 13.5 2.0625 C14.66015625 2.07990234 14.66015625 2.07990234 15.84375 2.09765625 C18.18522404 2.08991544 18.18522404 2.08991544 21 1 C25.45272254 1.50888258 29.97317675 3.0336307 34 5 C34.495 5.99 34.495 5.99 35 7 C35.33 6.01 35.66 5.02 36 4 C37.03640625 3.95101563 38.0728125 3.90203125 39.140625 3.8515625 C40.51044208 3.77650403 41.88023248 3.70095753 43.25 3.625 C43.93191406 3.5940625 44.61382812 3.563125 45.31640625 3.53125 C49.07974765 3.31202623 51.69516682 2.73668617 55 1 C59.73181822 1.67597403 62.17376417 2.38032313 66 5.25 C68.37991048 8.5223769 68.60256734 10.04027178 68 14 C67.34 14.99 66.68 15.98 66 17 C65.62430144 20.75698557 65.8357765 21.75366476 68 25 C68.1953125 27.26171875 68.1953125 27.26171875 68.125 29.6875 C68.10695313 30.49574219 68.08890625 31.30398437 68.0703125 32.13671875 C68.04710937 32.75160156 68.02390625 33.36648437 68 34 C60.79518072 36.35542169 60.79518072 36.35542169 57 35 C56.01 35 55.02 35 54 35 C53.34 35 52.68 35 52 35 C51.67 37.97 51.34 40.94 51 44 C50.34 44 49.68 44 49 44 C49 45.32 49 46.64 49 48 C49.66 47.67 50.32 47.34 51 47 C52.9593604 46.91489795 54.92162794 46.89282344 56.8828125 46.90234375 C58.04941406 46.90556641 59.21601563 46.90878906 60.41796875 46.91210938 C61.64128906 46.92048828 62.86460937 46.92886719 64.125 46.9375 C65.35605469 46.94201172 66.58710938 46.94652344 67.85546875 46.95117188 C70.90369392 46.9629867 73.95182314 46.97945972 77 47 C77.99 51.455 77.99 51.455 79 56 C80.32 53.36 81.64 50.72 83 48 C84.32 48 85.64 48 87 48 C86.48808188 51.17389235 85.62983618 54.00731196 84.5 57 C82.46761404 62.85922002 82.27578781 68.84707895 82 75 C80.35 75 78.7 75 77 75 C76.97421875 74.17757812 76.9484375 73.35515625 76.921875 72.5078125 C76.53660645 64.92502704 75.31859665 58.83785264 72 52 C70.35 52 68.7 52 67 52 C67 59.59 67 67.18 67 75 C65.35 75 63.7 75 62 75 C62 67.41 62 59.82 62 52 C60.35 52 58.7 52 57 52 C57 60.25 57 68.5 57 77 C49.125 78.125 49.125 78.125 44.72265625 77.87890625 C43.79775391 77.83056641 42.87285156 77.78222656 41.91992188 77.73242188 C40.97697266 77.67634766 40.03402344 77.62027344 39.0625 77.5625 C38.09248047 77.51029297 37.12246094 77.45808594 36.12304688 77.40429688 C33.74829212 77.27561558 31.37406771 77.14070204 29 77 C28.67 75.02 28.34 73.04 28 71 C27.01 71 26.02 71 25 71 C24.855625 71.61875 24.71125 72.2375 24.5625 72.875 C24 75 24 75 23 77 C20.67843403 77.40729228 18.3431213 77.74438677 16 78 C16.495 76.02 16.495 76.02 17 74 C16.01 74 15.02 74 14 74 C14 74.66 14 75.32 14 76 C13.25234375 76.06058594 12.5046875 76.12117188 11.734375 76.18359375 C10.74953125 76.26738281 9.7646875 76.35117188 8.75 76.4375 C7.77546875 76.51871094 6.8009375 76.59992188 5.796875 76.68359375 C3.43538247 76.95074584 1.28098935 77.35371968 -1 78 C-0.79375 78.78375 -0.5875 79.5675 -0.375 80.375 C-0.25125 81.24125 -0.1275 82.1075 0 83 C-0.66 83.66 -1.32 84.32 -2 85 C-2.99 84.34 -3.98 83.68 -5 83 C-5 82.34 -5 81.68 -5 81 C-7.93720508 79.47700477 -10.9168649 78.19899698 -14 77 C-14 76.34 -14 75.68 -14 75 C-14.51046875 75.16371094 -15.0209375 75.32742187 -15.546875 75.49609375 C-18.81291828 76.16698481 -21.9186747 76.0933456 -25.25 76.0625 C-26.51328125 76.05347656 -27.7765625 76.04445313 -29.078125 76.03515625 C-30.52445312 76.01775391 -30.52445312 76.01775391 -32 76 C-32 75.01 -32 74.02 -32 73 C-32.66 73 -33.32 73 -34 73 C-35.00005304 69.99984088 -35.11575585 68.02576244 -35.09765625 64.89453125 C-35.09443359 63.91162109 -35.09121094 62.92871094 -35.08789062 61.91601562 C-35.07951172 60.89185547 -35.07113281 59.86769531 -35.0625 58.8125 C-35.05798828 57.77673828 -35.05347656 56.74097656 -35.04882812 55.67382812 C-35.0370401 53.11582734 -35.02058515 50.55794267 -35 48 C-34.34 48 -33.68 48 -33 48 C-33 47.34 -33 46.68 -33 46 C-30.03 45.505 -30.03 45.505 -27 45 C-27 44.01 -27 43.02 -27 42 C-27.66 42 -28.32 42 -29 42 C-29 41.34 -29 40.68 -29 40 C-28.34 40 -27.68 40 -27 40 C-27.495 38.515 -27.495 38.515 -28 37 C-27.01 36.34 -26.02 35.68 -25 35 C-24.01 35.66 -23.02 36.32 -22 37 C-22 35.35 -22 33.7 -22 32 C-23.11375 31.896875 -24.2275 31.79375 -25.375 31.6875 C-27.169375 31.3471875 -27.169375 31.3471875 -29 31 C-31.83791629 26.74312556 -31.36791418 23.06862918 -31.375 18.0625 C-31.39949219 17.15564453 -31.42398438 16.24878906 -31.44921875 15.31445312 C-31.4782573 8.73722151 -31.4782573 8.73722151 -29.3046875 5.38671875 C-26.53758565 3.72176764 -24.95455363 3.58133928 -21.75 3.75 C-20.85796875 3.78609375 -19.9659375 3.8221875 -19.046875 3.859375 C-18.03367187 3.92898437 -18.03367187 3.92898437 -17 4 C-17 4.66 -17 5.32 -17 6 C-16.34 6 -15.68 6 -15 6 C-14.67 5.01 -14.34 4.02 -14 3 C-10.70629079 1.35314539 -7.06997968 1.54605834 -3.43359375 1.28125 C-1.05456695 1.26165078 -1.05456695 1.26165078 0 0 Z " fill="#EB412B" transform="translate(127,26)"/>
<path d="M0 0 C8.34880709 7.65774252 13.56735573 17.96570763 14.20703125 29.171875 C14.67496359 43.25162491 11.61039011 54.17005738 1.890625 64.7734375 C-8.08368678 74.16517886 -19.32945941 78.01587942 -32.88671875 77.72265625 C-44.86972652 76.77662932 -53.95422234 72.42065573 -62.00390625 63.4765625 C-62.82890625 62.5896875 -63.65390625 61.7028125 -64.50390625 60.7890625 C-72.52907271 50.91582932 -75.22789516 38.9612494 -74.00390625 26.4765625 C-71.75606238 15.44169258 -67.1917184 8.05028874 -59.00390625 0.4765625 C-58.13765625 -0.3484375 -57.27140625 -1.1734375 -56.37890625 -2.0234375 C-39.69443614 -15.6822265 -16.24283618 -12.34835499 0 0 Z " fill="#ED412A" transform="translate(212.00390625,187.5234375)"/>
<path d="M0 0 C1.32 0.33 2.64 0.66 4 1 C4 1.66 4 2.32 4 3 C4.99 3 5.98 3 7 3 C6.98839844 4.07378906 6.97679687 5.14757812 6.96484375 6.25390625 C6.95545685 7.69010241 6.94635762 9.12630048 6.9375 10.5625 C6.92912109 11.26697266 6.92074219 11.97144531 6.91210938 12.69726562 C6.90888672 13.39658203 6.90566406 14.09589844 6.90234375 14.81640625 C6.89710693 15.45006104 6.89187012 16.08371582 6.88647461 16.73657227 C7.04226709 19.84270581 7.5601742 22.92121937 8 26 C8 30.95 8 35.9 8 41 C26.15 41 44.3 41 63 41 C63 36.05 63 31.1 63 26 C45.84 26 28.68 26 11 26 C11 24.02 11 22.04 11 20 C28.16 20 45.32 20 63 20 C65.1490712 10.04349839 65.1490712 10.04349839 65 4 C68.28696233 3.20046862 69.71023192 2.90341064 73 4 C73 5.65 73 7.3 73 9 C73.66 9 74.32 9 75 9 C77.05294089 12.07941134 77.25503554 12.75472668 77.265625 16.23828125 C77.26949219 17.46901367 77.26949219 17.46901367 77.2734375 18.72460938 C77.26570313 19.57861328 77.25796875 20.43261719 77.25 21.3125 C77.26160156 22.57610352 77.26160156 22.57610352 77.2734375 23.86523438 C77.25847794 28.64855462 76.83880896 32.51194405 75 37 C74.62875 37.94875 74.2575 38.8975 73.875 39.875 C73.58625 40.57625 73.2975 41.2775 73 42 C72.34 42 71.68 42 71 42 C70.62875 43.36125 70.62875 43.36125 70.25 44.75 C68.93848989 48.15992629 67.88352377 49.79495241 65 52 C63.68 52 62.36 52 61 52 C61.495 54.475 61.495 54.475 62 57 C50.61138607 64.66308331 39.63439788 67.56466203 25.8671875 65.5390625 C16.43457154 63.48849381 9.45500513 59.17222792 3 52 C2.175 51.195625 1.35 50.39125 0.5 49.5625 C-7.57427322 39.51451554 -8.03740216 26.56092261 -6.7109375 14.3359375 C-5.73877883 8.78891448 -3.24701041 4.54829321 0 0 Z " fill="#EC412A" transform="translate(147,199)"/>
<path d="M0 0 C10.56 0 21.12 0 32 0 C32 3.63 32 7.26 32 11 C25.07 11 18.14 11 11 11 C11 15.62 11 20.24 11 25 C12.98 24.34 14.96 23.68 17 23 C20.79417512 22.47169714 24.13892817 22.66731316 27.75 24.0625 C32.2140817 27.90657035 34.67910914 33.08950724 35.16113281 38.96362305 C35.59295136 60.02481977 35.59295136 60.02481977 30.34765625 65.828125 C25.06889633 70.60467731 20.81017675 71.29827159 13.79296875 71.21484375 C8.74479552 70.82652273 5.46978331 69.35061169 1.6875 65.875 C-1.47349566 60.48959998 -2 55.17574528 -2 49 C2.62 49 7.24 49 12 49 C12.33 52.63 12.66 56.26 13 60 C15.3431213 59.74438677 17.67843403 59.40729228 20 59 C21.88519529 55.22960943 21.18475994 50.64845405 21.1875 46.5 C21.20586914 45.03626953 21.20586914 45.03626953 21.22460938 43.54296875 C21.22654297 42.61097656 21.22847656 41.67898437 21.23046875 40.71875 C21.23663208 39.43387695 21.23663208 39.43387695 21.24291992 38.12304688 C21.19824733 35.78348731 21.19824733 35.78348731 19 34 C16.54290625 33.41649495 16.54290625 33.41649495 14 34 C13.57976563 34.82757813 13.15953125 35.65515625 12.7265625 36.5078125 C12.15679687 37.33023438 11.58703125 38.15265625 11 39 C8.08203125 39.48828125 8.08203125 39.48828125 4.8125 39.3125 C3.72582031 39.26738281 2.63914062 39.22226563 1.51953125 39.17578125 C0.27236328 39.08876953 0.27236328 39.08876953 -1 39 C-1.02966713 35.12501682 -1.04701744 31.25006376 -1.0625 27.375 C-1.07087891 26.29992187 -1.07925781 25.22484375 -1.08789062 24.1171875 C-1.11210946 15.97965755 -0.58361354 8.17058959 0 0 Z " fill="#FCF6F3" transform="translate(31,31)"/>
<path d="M0 0 C0 -0.66 0 -1.32 0 -2 C2.31 -2 4.62 -2 7 -2 C7 5.26 7 12.52 7 20 C7.99 20 8.98 20 10 20 C10 12.74 10 5.48 10 -2 C11.98 -2 13.96 -2 16 -2 C16.0582462 1.72910066 16.09367917 5.45808364 16.125 9.1875 C16.14175781 10.24259766 16.15851563 11.29769531 16.17578125 12.38476562 C16.18544922 13.91713867 16.18544922 13.91713867 16.1953125 15.48046875 C16.21102295 16.88655396 16.21102295 16.88655396 16.22705078 18.32104492 C15.98166713 21.21630812 15.20521619 23.37062697 14 26 C13.25234375 26.06058594 12.5046875 26.12117188 11.734375 26.18359375 C10.74953125 26.26738281 9.7646875 26.35117188 8.75 26.4375 C7.28820312 26.55931641 7.28820312 26.55931641 5.796875 26.68359375 C3.43538247 26.95074584 1.28098935 27.35371968 -1 28 C-0.79375 28.78375 -0.5875 29.5675 -0.375 30.375 C-0.25125 31.24125 -0.1275 32.1075 0 33 C-0.66 33.66 -1.32 34.32 -2 35 C-2.99 34.34 -3.98 33.68 -5 33 C-5 32.34 -5 31.68 -5 31 C-7.93720508 29.47700477 -10.9168649 28.19899698 -14 27 C-14 26.34 -14 25.68 -14 25 C-15.32 25.33 -16.64 25.66 -18 26 C-22.62 26 -27.24 26 -32 26 C-32 16.76 -32 7.52 -32 -2 C-6.02266484 -3.90659341 -6.02266484 -3.90659341 0 0 Z " fill="#CF5A4A" transform="translate(127,76)"/>
<path d="M0 0 C5.00069566 0.15046341 9.07560066 1.33443247 13.125 4.25 C15.35621003 7.52244138 15.59094623 9.11663907 15 13 C14.34 13.99 13.68 14.98 13 16 C12.74969023 18.58380177 12.74969023 18.58380177 13 21 C13.33 21.33 13.66 21.66 14 22 C14.0979057 23.49738124 14.12974864 24.99942892 14.125 26.5 C14.12886719 27.72203125 14.12886719 27.72203125 14.1328125 28.96875 C14 31 14 31 13 32 C7.47058824 32.23529412 7.47058824 32.23529412 5 31 C3.41687683 30.92771952 1.83072291 30.91619605 0.24609375 30.9375 C-0.69041016 30.94523437 -1.62691406 30.95296875 -2.59179688 30.9609375 C-4.06229492 30.98027344 -4.06229492 30.98027344 -5.5625 31 C-7.50124773 31.0253929 -9.44005854 31.04646542 -11.37890625 31.0625 C-12.2407251 31.07410156 -13.10254395 31.08570312 -13.99047852 31.09765625 C-16 31 -16 31 -17 30 C-17.04063832 28.33382885 -17.042721 26.66611905 -17 25 C-17.66 25 -18.32 25 -19 25 C-19.28875 25.639375 -19.5775 26.27875 -19.875 26.9375 C-21 29 -21 29 -23 30 C-26.63 30 -30.26 30 -34 30 C-34 21.42 -34 12.84 -34 4 C-23 4 -23 4 -18 6 C-17.67 5.01 -17.34 4.02 -17 3 C-15.94039062 2.95101563 -14.88078125 2.90203125 -13.7890625 2.8515625 C-12.40101503 2.77653291 -11.01299549 2.70098515 -9.625 2.625 C-8.57699219 2.57859375 -8.57699219 2.57859375 -7.5078125 2.53125 C-3.29814173 2.40500502 -3.29814173 2.40500502 0 0 Z " fill="#CF6050" transform="translate(180,27)"/>
<path d="M0 0 C1.084021 0.00523682 2.16804199 0.01047363 3.28491211 0.01586914 C4.45473633 0.0190918 5.62456055 0.02231445 6.82983398 0.02563477 C8.0615332 0.03401367 9.29323242 0.04239258 10.56225586 0.05102539 C12.41560547 0.05779297 12.41560547 0.05779297 14.30639648 0.06469727 C17.37089703 0.07652931 20.43530307 0.09301366 23.49975586 0.11352539 C24.15975586 3.08352539 24.81975586 6.05352539 25.49975586 9.11352539 C26.81975586 6.47352539 28.13975586 3.83352539 29.49975586 1.11352539 C30.81975586 1.11352539 32.13975586 1.11352539 33.49975586 1.11352539 C32.98783774 4.28741774 32.12959204 7.12083735 30.99975586 10.11352539 C28.9673699 15.97274541 28.77554367 21.96060434 28.49975586 28.11352539 C26.84975586 28.11352539 25.19975586 28.11352539 23.49975586 28.11352539 C23.47397461 27.29110352 23.44819336 26.46868164 23.42163086 25.62133789 C23.03636231 18.03855243 21.81835251 11.95137803 18.49975586 5.11352539 C16.84975586 5.11352539 15.19975586 5.11352539 13.49975586 5.11352539 C13.49975586 12.70352539 13.49975586 20.29352539 13.49975586 28.11352539 C11.84975586 28.11352539 10.19975586 28.11352539 8.49975586 28.11352539 C8.49975586 20.52352539 8.49975586 12.93352539 8.49975586 5.11352539 C6.84975586 5.11352539 5.19975586 5.11352539 3.49975586 5.11352539 C3.49975586 13.36352539 3.49975586 21.61352539 3.49975586 30.11352539 C-4.37524414 31.23852539 -4.37524414 31.23852539 -8.77758789 30.99243164 C-9.70249023 30.9440918 -10.62739258 30.89575195 -11.58032227 30.84594727 C-12.52327148 30.78987305 -13.4662207 30.73379883 -14.43774414 30.67602539 C-15.40776367 30.62381836 -16.3777832 30.57161133 -17.37719727 30.51782227 C-19.75195202 30.38914097 -22.12617643 30.25422743 -24.50024414 30.11352539 C-24.83024414 28.13352539 -25.16024414 26.15352539 -25.50024414 24.11352539 C-26.49024414 24.11352539 -27.48024414 24.11352539 -28.50024414 24.11352539 C-28.83024414 25.43352539 -29.16024414 26.75352539 -29.50024414 28.11352539 C-31.15024414 28.11352539 -32.80024414 28.11352539 -34.50024414 28.11352539 C-34.06358425 21.84971458 -33.14461174 15.71862248 -32.00024414 9.55102539 C-31.869646 8.83624023 -31.73904785 8.12145508 -31.60449219 7.38500977 C-30.62487835 2.2381596 -30.62487835 2.2381596 -29.50024414 1.11352539 C-27.83407299 1.07288707 -26.16636319 1.07080439 -24.50024414 1.11352539 C-24.02586914 2.24790039 -23.55149414 3.38227539 -23.06274414 4.55102539 C-21.86402331 7.87092705 -21.86402331 7.87092705 -20.50024414 9.11352539 C-19.72429575 12.42688166 -19.13519329 15.7694599 -18.50024414 19.11352539 C-18.17024414 13.17352539 -17.84024414 7.23352539 -17.50024414 1.11352539 C-15.52024414 1.11352539 -13.54024414 1.11352539 -11.50024414 1.11352539 C-11.50024414 9.03352539 -11.50024414 16.95352539 -11.50024414 25.11352539 C-9.19024414 25.11352539 -6.88024414 25.11352539 -4.50024414 25.11352539 C-4.47518799 24.39173096 -4.45013184 23.66993652 -4.42431641 22.92626953 C-4.30873112 19.6759904 -4.1858364 16.42602851 -4.06274414 13.17602539 C-4.02342773 12.0397168 -3.98411133 10.9034082 -3.94360352 9.73266602 C-3.90170898 8.65307617 -3.85981445 7.57348633 -3.81665039 6.46118164 C-3.77999268 5.46094971 -3.74333496 4.46071777 -3.70556641 3.43017578 C-3.41952767 0.20280173 -3.25673359 0.14787434 0 0 Z " fill="#DB6B5B" transform="translate(180.500244140625,72.886474609375)"/>
<path d="M0 0 C2.875 2.1875 2.875 2.1875 5 5 C5.3125 7.8125 5.3125 7.8125 5 10 C3.35 10 1.7 10 0 10 C0 8.02 0 6.04 0 4 C-1.32 4.33 -2.64 4.66 -4 5 C-4 11.27 -4 17.54 -4 24 C-2.68 24 -1.36 24 0 24 C0.33 21.69 0.66 19.38 1 17 C0.01 17 -0.98 17 -2 17 C-2 16.01 -2 15.02 -2 14 C0.64 14 3.28 14 6 14 C6.33 9.71 6.66 5.42 7 1 C10.96 1 14.92 1 19 1 C19 1.99 19 2.98 19 4 C17.02 4 15.04 4 13 4 C13 6.64 13 9.28 13 12 C15.31 12 17.62 12 20 12 C20.33 8.7 20.66 5.4 21 2 C22.65 1.67 24.3 1.34 26 1 C28.475 6.445 28.475 6.445 31 12 C31.33 8.37 31.66 4.74 32 1 C33.32 1 34.64 1 36 1 C36 9.58 36 18.16 36 27 C34.02 26.67 32.04 26.34 30 26 C30 24.68 30 23.36 30 22 C29.34 22 28.68 22 28 22 C27.67 23.98 27.34 25.96 27 28 C26.10692139 28.03758423 26.10692139 28.03758423 25.19580078 28.07592773 C22.50530864 28.19177494 19.8151766 28.31455196 17.125 28.4375 C15.71927734 28.49647461 15.71927734 28.49647461 14.28515625 28.55664062 C13.38925781 28.59853516 12.49335937 28.64042969 11.5703125 28.68359375 C10.32918701 28.73858032 10.32918701 28.73858032 9.06298828 28.79467773 C6.93820571 28.88238327 6.93820571 28.88238327 5 30 C2.81889266 29.66709414 0.65224687 29.23568403 -1.5 28.75 C-2.6653125 28.49734375 -3.830625 28.2446875 -5.03125 27.984375 C-8 27 -8 27 -10 24 C-10.45335153 20.70272481 -10.37029343 17.3876909 -10.375 14.0625 C-10.39949219 13.15564453 -10.42398438 12.24878906 -10.44921875 11.31445312 C-10.47853368 4.67462073 -10.47853368 4.67462073 -8.16015625 1.40625 C-5.15266297 -0.55161181 -3.52244461 -0.64697962 0 0 Z " fill="#D36557" transform="translate(106,30)"/>
<path d="M0 0 C18.15 0 36.3 0 55 0 C55 4.62 55 9.24 55 14 C36.85 14 18.7 14 0 14 C0 9.38 0 4.76 0 0 Z " fill="#FDF7F4" transform="translate(155,226)"/>
<path d="M0 0 C18.15 0 36.3 0 55 0 C55 4.62 55 9.24 55 14 C36.85 14 18.7 14 0 14 C0 9.38 0 4.76 0 0 Z " fill="#FEFEFC" transform="translate(155,203)"/>
<path d="M0 0 C0.33 0.66 0.66 1.32 1 2 C1.763125 2 2.52625 2 3.3125 2 C9 2 9 2 11.15625 2.03515625 C12.31640625 2.04869141 12.31640625 2.04869141 13.5 2.0625 C14.66015625 2.07990234 14.66015625 2.07990234 15.84375 2.09765625 C18.18522404 2.08991544 18.18522404 2.08991544 21 1 C25.58164209 1.52361624 29.73234323 3.33633719 34 5 C33.34 5.66 32.68 6.32 32 7 C31.34 6.67 30.68 6.34 30 6 C24.555 5.505 24.555 5.505 19 5 C19 13.58 19 22.16 19 31 C28.77845689 30.53442511 28.77845689 30.53442511 33 29 C33 29.66 33 30.32 33 31 C29.84685215 33.10209857 29.13896919 33.2434761 25.55078125 33.1953125 C24.27944336 33.18564453 24.27944336 33.18564453 22.98242188 33.17578125 C21.66081055 33.15064453 21.66081055 33.15064453 20.3125 33.125 C19.41982422 33.11597656 18.52714844 33.10695312 17.60742188 33.09765625 C15.40467686 33.07409748 13.20247412 33.04120329 11 33 C11.33 32.01 11.66 31.02 12 30 C12.99 30.33 13.98 30.66 15 31 C15 22.42 15 13.84 15 5 C13.68 5 12.36 5 11 5 C11 9.29 11 13.58 11 18 C7.89083741 13.85444988 6.68437364 10.81249612 5 6 C3.68 6 2.36 6 1 6 C0.67 9.96 0.34 13.92 0 18 C-0.33 17.34 -0.66 16.68 -1 16 C-3.31 16 -5.62 16 -8 16 C-8 13.36 -8 10.72 -8 8 C-6.02 8 -4.04 8 -2 8 C-2 7.01 -2 6.02 -2 5 C-5.96 5 -9.92 5 -14 5 C-14 13.58 -14 22.16 -14 31 C-14.33 31 -14.66 31 -15 31 C-15 26.71 -15 22.42 -15 18 C-17.64 18 -20.28 18 -23 18 C-23 18.99 -23 19.98 -23 21 C-22.01 21 -21.02 21 -20 21 C-20.33 23.31 -20.66 25.62 -21 28 C-22.32 28 -23.64 28 -25 28 C-26.65497356 24.69005287 -26.10084335 21.00877 -26.0625 17.375 C-26.05798828 16.57320312 -26.05347656 15.77140625 -26.04882812 14.9453125 C-26.03703168 12.96350994 -26.01909605 10.98174567 -26 9 C-24.35 8.67 -22.7 8.34 -21 8 C-21 9.98 -21 11.96 -21 14 C-19.35 14 -17.7 14 -16 14 C-17.28139327 8.28136948 -17.28139327 8.28136948 -21 4 C-19.68 4 -18.36 4 -17 4 C-17 4.66 -17 5.32 -17 6 C-16.34 6 -15.68 6 -15 6 C-14.67 5.01 -14.34 4.02 -14 3 C-10.70629079 1.35314539 -7.06997968 1.54605834 -3.43359375 1.28125 C-1.05456695 1.26165078 -1.05456695 1.26165078 0 0 Z " fill="#D55849" transform="translate(127,26)"/>
<path d="M0 0 C0.83050873 0.00444122 1.66101746 0.00888245 2.51669312 0.01345825 C3.92792953 0.01368484 3.92792953 0.01368484 5.36767578 0.01391602 C6.38542084 0.02423859 7.40316589 0.03456116 8.45175171 0.04519653 C9.49213593 0.04802643 10.53252014 0.05085632 11.60443115 0.05377197 C14.93646615 0.064992 18.26823507 0.09009989 21.60018921 0.11550903 C23.85539367 0.12553648 26.11060233 0.13466273 28.36581421 0.14285278 C33.90236375 0.16493725 39.43875748 0.19843265 44.97518921 0.24050903 C44.97518921 0.90050903 44.97518921 1.56050903 44.97518921 2.24050903 C29.46518921 2.24050903 13.95518921 2.24050903 -2.02481079 2.24050903 C-2.02481079 7.85050903 -2.02481079 13.46050903 -2.02481079 19.24050903 C3.91518921 19.24050903 9.85518921 19.24050903 15.97518921 19.24050903 C12.13545359 23.93351924 8.05622025 28.37595281 3.85018921 32.74050903 C3.33553101 33.29319458 2.8208728 33.84588013 2.2906189 34.41531372 C-1.44233448 38.23031003 -1.44233448 38.23031003 -4.03262329 38.27566528 C-4.69004517 37.93406372 -5.34746704 37.59246216 -6.02481079 37.24050903 C-6.94777954 36.77515747 -7.87074829 36.30980591 -8.82168579 35.83035278 C-9.79621704 35.28507935 -10.77074829 34.73980591 -11.77481079 34.17800903 C-12.75965454 33.63015747 -13.74449829 33.08230591 -14.75918579 32.51785278 C-15.50684204 32.09632935 -16.25449829 31.67480591 -17.02481079 31.24050903 C-17.02481079 30.91050903 -17.02481079 30.58050903 -17.02481079 30.24050903 C-11.27481079 30.11550903 -11.27481079 30.11550903 -9.02481079 31.24050903 C-6.99014636 23.31888219 -5.54251483 15.58153871 -4.75967407 7.44754028 C-4.02504796 0.47809919 -4.02504796 0.47809919 0 0 Z " fill="#E24631" transform="translate(222.02481079101563,134.75949096679688)"/>
<path d="M0 0 C1.6875 1.125 1.6875 1.125 2.6875 3.125 C2.92541118 6.22344329 2.87269028 9.33092128 2.875 12.4375 C2.88724609 13.29279297 2.89949219 14.14808594 2.91210938 15.02929688 C2.92272027 19.59551994 2.62509871 22.92048738 0.6875 27.125 C0.6875 28.445 0.6875 29.765 0.6875 31.125 C-1.25 30.3125 -1.25 30.3125 -3.3125 29.125 C-3.6425 28.135 -3.9725 27.145 -4.3125 26.125 C-5.075625 26.2075 -5.83875 26.29 -6.625 26.375 C-9.3125 26.125 -9.3125 26.125 -10.95336914 24.40063477 C-13.28230913 20.50121863 -12.7846806 16.49846424 -12.75 12.0625 C-12.76998047 11.15177734 -12.78996094 10.24105469 -12.81054688 9.30273438 C-12.80567259 2.68832665 -12.80567259 2.68832665 -10.47265625 0.0234375 C-6.79809019 -1.50486303 -3.7006935 -1.40026241 0 0 Z " fill="#FBD4CB" transform="translate(122.3125,74.875)"/>
<path d="M0 0 C11 0 11 0 15 3 C15.51757812 5.12890625 15.51757812 5.12890625 15.53125 7.5625 C15.53640625 8.44164062 15.5415625 9.32078125 15.546875 10.2265625 C15.52367187 11.59941406 15.52367187 11.59941406 15.5 13 C15.51546875 13.91523437 15.5309375 14.83046875 15.546875 15.7734375 C15.54171875 16.65257813 15.5365625 17.53171875 15.53125 18.4375 C15.52673828 19.24058594 15.52222656 20.04367188 15.51757812 20.87109375 C15 23 15 23 11 26 C7.37 26 3.74 26 0 26 C0 17.42 0 8.84 0 0 Z " fill="#FEEBE2" transform="translate(146,31)"/>
<path d="M0 0 C6.27 0 12.54 0 19 0 C19.66 2.64 20.32 5.28 21 8 C22.32 5.36 23.64 2.72 25 0 C26.32 0 27.64 0 29 0 C28.48808188 3.17389235 27.62983618 6.00731196 26.5 9 C24.46761404 14.85922002 24.27578781 20.84707895 24 27 C22.35 27 20.7 27 19 27 C18.97421875 26.17757812 18.9484375 25.35515625 18.921875 24.5078125 C18.53660645 16.92502704 17.31859665 10.83785264 14 4 C12.35 4 10.7 4 9 4 C9 11.59 9 19.18 9 27 C7.35 27 5.7 27 4 27 C4 19.41 4 11.82 4 4 C2.68 4 1.36 4 0 4 C0 2.68 0 1.36 0 0 Z " fill="#FDD8CD" transform="translate(185,74)"/>
<path d="M0 0 C11 0 11 0 15 3 C15.46913089 7.37855495 15.46943529 9.29584707 13 13 C13.19382182 15.17549 13.19382182 15.17549 13.875 17.4375 C14.7107172 20.56350547 15 22.6727884 15 26 C13.35 26 11.7 26 10 26 C8.70756464 21.8803623 7.73747375 18.33168317 8 14 C7.01 14 6.02 14 5 14 C5 17.96 5 21.92 5 26 C3.35 26 1.7 26 0 26 C0 17.42 0 8.84 0 0 Z " fill="#FEE6DD" transform="translate(178,31)"/>
<path d="M0 0 C15.84 0 31.68 0 48 0 C48.020625 7.734375 48.04125 15.46875 48.0625 23.4375 C48.071604 25.88212646 48.08070801 28.32675293 48.09008789 30.84545898 C48.09300691 32.77067001 48.0955555 34.69588165 48.09765625 36.62109375 C48.10277222 37.63079224 48.10788818 38.64049072 48.11315918 39.68078613 C48.11334045 41.11194763 48.11334045 41.11194763 48.11352539 42.57202148 C48.115746 43.40475082 48.11796661 44.23748016 48.12025452 45.09544373 C48 47 48 47 47 48 C44.3013095 48.07325436 41.63497444 48.09222351 38.9375 48.0625 C36.318125 48.041875 33.69875 48.02125 31 48 C30.67 42.06 30.34 36.12 30 30 C30.66 30 31.32 30 32 30 C32 35.61 32 41.22 32 47 C36.62 47 41.24 47 46 47 C45.67 32.48 45.34 17.96 45 3 C30.81 2.67 16.62 2.34 2 2 C2 6.29 2 10.58 2 15 C7.94 15 13.88 15 20 15 C20 15.99 20 16.98 20 18 C13.4 17.67 6.8 17.34 0 17 C0 11.39 0 5.78 0 0 Z " fill="#FAC6BD" transform="translate(220,137)"/>
<path d="M0 0 C0.33 0 0.66 0 1 0 C1 4.62 1 9.24 1 14 C19.15 14 37.3 14 56 14 C56 9.38 56 4.76 56 0 C58 2 58 2 58.1953125 4.8203125 C58.17210937 5.91085938 58.14890625 7.00140625 58.125 8.125 C58.10695313 9.22070312 58.08890625 10.31640625 58.0703125 11.4453125 C58.04710937 12.28835937 58.02390625 13.13140625 58 14 C54.11300476 15.78063469 50.8216033 16.36859913 46.5625 16.625 C45.58071777 16.68844604 45.58071777 16.68844604 44.57910156 16.75317383 C39.51532645 17.02265415 34.48690051 16.96809252 29.41796875 16.84765625 C28.06242736 16.82228256 26.706877 16.7973841 25.35131836 16.77294922 C22.63498241 16.7237515 19.92370446 16.63386981 17.20922852 16.52392578 C10.89625023 16.03495283 10.89625023 16.03495283 5.36523438 18.35791016 C4.2109765 20.19205631 4.2109765 20.19205631 3 23 C1.68 23 0.36 23 -1 23 C-1 23.66 -1 24.32 -1 25 C-0.01 25.66 0.98 26.32 2 27 C0.68 27.33 -0.64 27.66 -2 28 C-4.31 25.03 -6.62 22.06 -9 19 C-8.34 18.34 -7.68 17.68 -7 17 C-7 17.99 -7 18.98 -7 20 C-3.72226496 19.24849977 -3.72226496 19.24849977 -2 16 C-1.72525224 13.43379929 -1.53661287 10.94709995 -1.4375 8.375 C-1.12062682 1.12062682 -1.12062682 1.12062682 0 0 Z " fill="#DC4C38" transform="translate(154,226)"/>
<path d="M0 0 C2.875 2.1875 2.875 2.1875 5 5 C5.3125 7.8125 5.3125 7.8125 5 10 C3.35 10 1.7 10 0 10 C0 8.02 0 6.04 0 4 C-1.32 4.33 -2.64 4.66 -4 5 C-4 11.27 -4 17.54 -4 24 C-2.68 24 -1.36 24 0 24 C0.33 21.69 0.66 19.38 1 17 C0.01 17 -0.98 17 -2 17 C-2 16.01 -2 15.02 -2 14 C0.31 14 2.62 14 5 14 C5 18.29 5 22.58 5 27 C3.68 26.67 2.36 26.34 1 26 C0.34 26.66 -0.32 27.32 -1 28 C-4.5 27.8125 -4.5 27.8125 -8 27 C-10.83791629 22.74312556 -10.36791418 19.06862918 -10.375 14.0625 C-10.39949219 13.15564453 -10.42398438 12.24878906 -10.44921875 11.31445312 C-10.47853368 4.67462073 -10.47853368 4.67462073 -8.16015625 1.40625 C-5.15266297 -0.55161181 -3.52244461 -0.64697962 0 0 Z " fill="#FCEAE2" transform="translate(106,30)"/>
<path d="M0 0 C1.65 0 3.3 0 5 0 C5.11622939 3.74973906 5.1872595 7.49901464 5.25 11.25 C5.30027344 12.84521484 5.30027344 12.84521484 5.3515625 14.47265625 C5.36445313 15.49746094 5.37734375 16.52226563 5.390625 17.578125 C5.41157227 18.52075195 5.43251953 19.46337891 5.45410156 20.43457031 C4.86049864 23.78810767 3.66606837 24.94379329 1 27 C-2.71928903 27.531327 -4.94993916 27.6330154 -8.203125 25.671875 C-11.11480141 21.34233877 -10.41767103 16.8317221 -10.25 11.75 C-10.23195313 10.71875 -10.21390625 9.6875 -10.1953125 8.625 C-10.14822712 6.08238936 -10.0824805 3.54166838 -10 1 C-8.35 1 -6.7 1 -5 1 C-4.67 8.26 -4.34 15.52 -4 23 C-3.01 23 -2.02 23 -1 23 C-0.67 15.41 -0.34 7.82 0 0 Z " fill="#FCDED4" transform="translate(138,74)"/>
<path d="M0 0 C18.15 0 36.3 0 55 0 C55 4.62 55 9.24 55 14 C36.85 14 18.7 14 0 14 C0 9.38 0 4.76 0 0 Z M2 2 C2 4.97 2 7.94 2 11 C4.90439761 11.96813254 6.7281824 12.12144834 9.74682617 12.11352539 C10.70759567 12.11344986 11.66836517 12.11337433 12.6582489 12.11329651 C13.69270645 12.10813522 14.727164 12.10297394 15.79296875 12.09765625 C16.85413406 12.0962413 17.91529938 12.09482635 19.00862122 12.09336853 C22.40160935 12.08776606 25.79453177 12.07521314 29.1875 12.0625 C31.48632717 12.05748532 33.78515538 12.05292236 36.08398438 12.04882812 C41.72268162 12.03779583 47.36132966 12.02052952 53 12 C53 8.7 53 5.4 53 2 C36.17 2 19.34 2 2 2 Z " fill="#FEE5DD" transform="translate(155,203)"/>
<path d="M0 0 C2.475 0.495 2.475 0.495 5 1 C6.89798124 4.18142987 7.79373082 7.47054574 9 11 C9.33 7.37 9.66 3.74 10 0 C11.32 0 12.64 0 14 0 C14 8.58 14 17.16 14 26 C12.68 25.67 11.36 25.34 10 25 C8.734375 22.8203125 8.734375 22.8203125 7.75 20.125 C7.41484375 19.24070312 7.0796875 18.35640625 6.734375 17.4453125 C6 15 6 15 6 12 C5.34 12 4.68 12 4 12 C4 16.62 4 21.24 4 26 C2.68 26 1.36 26 0 26 C0 17.42 0 8.84 0 0 Z " fill="#FDDBD1" transform="translate(128,31)"/>
<path d="M0 0 C1.2065625 0.0309375 1.2065625 0.0309375 2.4375 0.0625 C4.11011416 4.70945847 5.17664087 9.28441262 6.0625 14.125 C6.1965625 14.81916016 6.330625 15.51332031 6.46875 16.22851562 C7.14920526 19.88422681 7.59700513 23.3431303 7.4375 27.0625 C6.1175 27.0625 4.7975 27.0625 3.4375 27.0625 C3.1075 25.0825 2.7775 23.1025 2.4375 21.0625 C0.7875 21.0625 -0.8625 21.0625 -2.5625 21.0625 C-2.8925 23.0425 -3.2225 25.0225 -3.5625 27.0625 C-4.8825 27.0625 -6.2025 27.0625 -7.5625 27.0625 C-7.12584011 20.79868919 -6.2068676 14.66759709 -5.0625 8.5 C-4.93190186 7.78521484 -4.80130371 7.07042969 -4.66674805 6.33398438 C-3.47732642 0.08481284 -3.47732642 0.08481284 0 0 Z " fill="#FDE8E2" transform="translate(153.5625,73.9375)"/>
<path d="M0 0 C3.90805809 3.90805809 4.89469144 9.08295435 5.19140625 14.484375 C5.18793758 17.66168062 5.13246994 20.82562776 5 24 C4.01 24 3.02 24 2 24 C1.67 24.66 1.34 25.32 1 26 C0.34 25.34 -0.32 24.68 -1 24 C-1.99 24.66 -2.98 25.32 -4 26 C-6.31 26 -8.62 26 -11 26 C-11 17.75 -11 9.5 -11 1 C-10.67 1 -10.34 1 -10 1 C-10 8.59 -10 16.18 -10 24 C-8.35 24 -6.7 24 -5 24 C-5 16.41 -5 8.82 -5 1 C-3.35 0.67 -1.7 0.34 0 0 Z " fill="#E24933" transform="translate(199,77)"/>
<path d="M0 0 C0.33 0 0.66 0 1 0 C1 4.62 1 9.24 1 14 C19.15 14 37.3 14 56 14 C56 14.66 56 15.32 56 16 C38.84 16 21.68 16 4 16 C4 17.98 4 19.96 4 22 C21.16 22 38.32 22 56 22 C56 22.33 56 22.66 56 23 C37.85 23 19.7 23 1 23 C0.67 21.35 0.34 19.7 0 18 C-0.33 17.01 -0.66 16.02 -1 15 C-1.09435979 13.00179272 -1.12990301 11.00042797 -1.125 9 C-1.12757813 7.948125 -1.13015625 6.89625 -1.1328125 5.8125 C-1 3 -1 3 0 0 Z " fill="#CC4F40" transform="translate(154,203)"/>
<path d="M0 0 C6.93 0 13.86 0 21 0 C21 0.66 21 1.32 21 2 C18.69 2.33 16.38 2.66 14 3 C14.66 3.66 15.32 4.32 16 5 C15.34 5 14.68 5 14 5 C14 5.99 14 6.98 14 8 C15.32 8.66 16.64 9.32 18 10 C17.34 10 16.68 10 16 10 C16 10.99 16 11.98 16 13 C15.02160156 12.98259766 15.02160156 12.98259766 14.0234375 12.96484375 C12.71246094 12.95130859 12.71246094 12.95130859 11.375 12.9375 C10.51648437 12.92589844 9.65796875 12.91429687 8.7734375 12.90234375 C5.44306701 12.95963604 5.44306701 12.95963604 0 14 C0 9.38 0 4.76 0 0 Z " fill="#EE412B" transform="translate(42,42)"/>
<path d="M0 0 C3.63 0 7.26 0 11 0 C11 1.32 11 2.64 11 4 C9.02 4 7.04 4 5 4 C5 6.31 5 8.62 5 11 C6.65 11 8.3 11 10 11 C10 12.32 10 13.64 10 15 C8.35 15 6.7 15 5 15 C5 17.97 5 20.94 5 24 C6.98 24 8.96 24 11 24 C11 24.99 11 25.98 11 27 C7.37 27 3.74 27 0 27 C0 18.09 0 9.18 0 0 Z " fill="#FEDED6" transform="translate(96,74)"/>
<path d="M0 0 C1.46954813 0.035544 2.93895662 0.07716937 4.40820312 0.12353516 C5.56781555 0.15539413 5.56781555 0.15539413 6.75085449 0.18789673 C8.38850096 0.23423625 10.0260757 0.28317057 11.66357422 0.33447266 C14.1785574 0.41226065 16.69366732 0.47941202 19.20898438 0.54541016 C20.79624272 0.59164545 22.38348319 0.63849961 23.97070312 0.68603516 C24.72798706 0.7058847 25.485271 0.72573425 26.26550293 0.7461853 C31.57443798 0.92258251 31.57443798 0.92258251 32.68945312 2.03759766 C32.76189366 4.05723964 32.77322501 6.07926889 32.75195312 8.10009766 C32.74292969 9.20482422 32.73390625 10.30955078 32.72460938 11.44775391 C32.71300781 12.30240234 32.70140625 13.15705078 32.68945312 14.03759766 C32.02945313 14.03759766 31.36945312 14.03759766 30.68945312 14.03759766 C30.68945312 10.40759766 30.68945312 6.77759766 30.68945312 3.03759766 C20.12945312 3.03759766 9.56945312 3.03759766 -1.31054688 3.03759766 C-1.31054688 7.65759766 -1.31054688 12.27759766 -1.31054688 17.03759766 C-1.45331353 21.49905564 -1.61273971 25.95391714 -1.81054688 30.41259766 C-1.85824219 31.54181641 -1.9059375 32.67103516 -1.95507812 33.83447266 C-2.07094671 36.56897132 -2.18945311 39.30332629 -2.31054688 42.03759766 C-2.97054688 42.03759766 -3.63054688 42.03759766 -4.31054688 42.03759766 C-4.33519325 36.21688143 -4.35338118 30.39619531 -4.36547852 24.57543945 C-4.37051955 22.59366324 -4.37735226 20.61189077 -4.38598633 18.63012695 C-4.39806202 15.78807657 -4.40377733 12.94607518 -4.40820312 10.10400391 C-4.41336441 9.21234024 -4.4185257 8.32067657 -4.42384338 7.4019928 C-4.42403864 5.28019164 -4.37264718 3.15848986 -4.31054688 1.03759766 C-3.31054688 0.03759766 -3.31054688 0.03759766 0 0 Z " fill="#DC6050" transform="translate(32.310546875,27.96240234375)"/>
<path d="M0 0 C3.96 0 7.92 0 12 0 C12 0.99 12 1.98 12 3 C9.69 3 7.38 3 5 3 C5 5.64 5 8.28 5 11 C6.65 11 8.3 11 10 11 C10 11.99 10 12.98 10 14 C8.35 14 6.7 14 5 14 C5 16.97 5 19.94 5 23 C7.31 23 9.62 23 12 23 C12 23.99 12 24.98 12 26 C8.04 26 4.08 26 0 26 C0 17.42 0 8.84 0 0 Z " fill="#FDD0CB" transform="translate(164,31)"/>
<path d="M0 0 C3.63 0 7.26 0 11 0 C11 0.99 11 1.98 11 3 C9.02 3 7.04 3 5 3 C5 5.64 5 8.28 5 11 C6.65 11 8.3 11 10 11 C10 11.99 10 12.98 10 14 C8.35 14 6.7 14 5 14 C5 16.97 5 19.94 5 23 C7.31 23 9.62 23 12 23 C12 23.99 12 24.98 12 26 C8.04 26 4.08 26 0 26 C0 17.42 0 8.84 0 0 Z " fill="#FEEDE7" transform="translate(114,31)"/>
<path d="M0 0 C-0.66 0.66 -1.32 1.32 -2 2 C-2.66 1.67 -3.32 1.34 -4 1 C-7.63 0.67 -11.26 0.34 -15 0 C-15 8.58 -15 17.16 -15 26 C-5.22154311 25.53442511 -5.22154311 25.53442511 -1 24 C-1 24.66 -1 25.32 -1 26 C-4.15314785 28.10209857 -4.86103081 28.2434761 -8.44921875 28.1953125 C-9.72055664 28.18564453 -9.72055664 28.18564453 -11.01757812 28.17578125 C-11.89865234 28.15902344 -12.77972656 28.14226563 -13.6875 28.125 C-14.58017578 28.11597656 -15.47285156 28.10695313 -16.39257812 28.09765625 C-18.59532314 28.07409748 -20.79752588 28.04120329 -23 28 C-22.505 26.515 -22.505 26.515 -22 25 C-21.01 25.33 -20.02 25.66 -19 26 C-19 17.42 -19 8.84 -19 0 C-20.32 -0.33 -21.64 -0.66 -23 -1 C-7.51748252 -3.00699301 -7.51748252 -3.00699301 0 0 Z " fill="#D35E4F" transform="translate(161,31)"/>
<path d="M0 0 C1.32 0.66 2.64 1.32 4 2 C4 8.6 4 15.2 4 22 C2.68 22.33 1.36 22.66 0 23 C-0.33 17.06 -0.66 11.12 -1 5 C-2.65 5 -4.3 5 -6 5 C-6 11.6 -6 18.2 -6 25 C-6.99 25 -7.98 25 -9 25 C-10.82433189 21.35133622 -10.27044726 17.07993877 -10.3125 13.0625 C-10.34150391 12.14275391 -10.37050781 11.22300781 -10.40039062 10.27539062 C-10.40876953 9.39173828 -10.41714844 8.50808594 -10.42578125 7.59765625 C-10.44036377 6.78820557 -10.45494629 5.97875488 -10.4699707 5.14477539 C-10 3 -10 3 -8.16088867 1.23217773 C-5.25484953 -0.42489825 -3.29958944 -0.34370723 0 0 Z " fill="#FEF1EB" transform="translate(120,74)"/>
<path d="M0 0 C10.66937676 5.1124097 16.65109405 14.2255479 21 25 C23.97330644 35.97420376 22.87016799 48.96680582 17.41796875 58.875 C14.43171056 63.76751886 11.43365456 68.32640051 7 72 C6.34 72 5.68 72 5 72 C4.67 70.68 4.34 69.36 4 68 C4.94875 67.9175 5.8975 67.835 6.875 67.75 C10.03720825 67.35220672 10.03720825 67.35220672 11.25 65.25 C11.4975 64.5075 11.745 63.765 12 63 C12.37125 62.0925 12.7425 61.185 13.125 60.25 C13.558125 59.13625 13.558125 59.13625 14 58 C14.66 58 15.32 58 16 58 C16.12375 57.29875 16.2475 56.5975 16.375 55.875 C17 53 17 53 18.02734375 50.42578125 C19.2896071 45.97997819 19.25428633 41.90669624 19.1875 37.3125 C19.18685547 36.45849609 19.18621094 35.60449219 19.18554688 34.72460938 C19.16037787 31.16459314 19.13548452 28.40645355 18 25 C17.34 25 16.68 25 16 25 C16 22.36 16 19.72 16 17 C15.01 17 14.02 17 13 17 C12.319375 15.2984375 12.319375 15.2984375 11.625 13.5625 C10.42904194 9.95278308 10.42904194 9.95278308 8 9 C8 8.34 8 7.68 8 7 C7.4225 6.71125 6.845 6.4225 6.25 6.125 C4.16666667 5.08333333 2.08333333 4.04166667 0 3 C0 2.01 0 1.02 0 0 Z " fill="#D46152" transform="translate(204,183)"/>
<path d="M0 0 C2.5625 0.3125 2.5625 0.3125 4.19995117 1.53320312 C5.9704794 3.84526364 5.93598328 5.2018875 5.92578125 8.09375 C5.92513672 9.01800781 5.92449219 9.94226563 5.92382812 10.89453125 C5.90771484 11.85746094 5.89160156 12.82039063 5.875 13.8125 C5.87983398 15.25689453 5.87983398 15.25689453 5.88476562 16.73046875 C5.82967923 23.91173115 5.82967923 23.91173115 3.5625 27.3125 C-0.0625 27.5 -0.0625 27.5 -3.4375 27.3125 C-4.5952506 23.83924819 -4.50616652 20.95182552 -4.4375 17.3125 C-3.7775 17.3125 -3.1175 17.3125 -2.4375 17.3125 C-2.1075 17.9725 -1.7775 18.6325 -1.4375 19.3125 C-0.7775 17.6625 -0.1175 16.0125 0.5625 14.3125 C1.2225 14.3125 1.8825 14.3125 2.5625 14.3125 C2.74085515 9.76444365 2.56035435 6.4330746 0.5625 2.3125 C0.005625 3.1375 -0.55125 3.9625 -1.125 4.8125 C-3.31381478 7.08451534 -4.4521687 7.31400949 -7.6640625 7.64453125 C-10.93419399 7.62672008 -14.17468771 7.52747299 -17.4375 7.3125 C-17.4375 6.9825 -17.4375 6.6525 -17.4375 6.3125 C-13.4775 6.3125 -9.5175 6.3125 -5.4375 6.3125 C-5.1075 4.9925 -4.7775 3.6725 -4.4375 2.3125 C-2.4375 0.3125 -2.4375 0.3125 0 0 Z " fill="#E14833" transform="translate(47.4375,63.6875)"/>
<path d="M0 0 C0.66 0 1.32 0 2 0 C2 4.62 2 9.24 2 14 C3.98 13.34 5.96 12.68 8 12 C11.79417512 11.47169714 15.13892817 11.66731316 18.75 13.0625 C23.2140817 16.90657035 25.67910914 22.08950724 26.16113281 27.96362305 C26.52457281 45.68977492 26.52457281 45.68977492 23 53 C22.01 53.66 21.02 54.32 20 55 C20.77130435 50.37217391 20.77130435 50.37217391 22.02734375 48.328125 C23.44418181 44.93681783 23.24964798 41.61112485 23.1875 38 C23.18685547 37.2884375 23.18621094 36.576875 23.18554688 35.84375 C23.15665127 32.40196257 22.93859734 29.30743824 22 26 C21.96111651 23.66699067 21.9551365 21.33290199 22 19 C21.4225 18.71125 20.845 18.4225 20.25 18.125 C18 17 18 17 16.25 15.9375 C12.89646338 14.54019308 9.60966975 14.36096697 6 14 C5.34 15.32 4.68 16.64 4 18 C3.67 17.34 3.34 16.68 3 16 C2.01 15.67 1.02 15.34 0 15 C0 10.05 0 5.1 0 0 Z " fill="#FDDBD2" transform="translate(40,42)"/>
<path d="M0 0 C1.65 0 3.3 0 5 0 C5 7.92 5 15.84 5 24 C6.98 24 8.96 24 11 24 C11 24.99 11 25.98 11 27 C7.37 27 3.74 27 0 27 C0 18.09 0 9.18 0 0 Z " fill="#FED6CC" transform="translate(164,74)"/>
<path d="M0 0 C18.15 0 36.3 0 55 0 C56.85663846 4.64159616 57.22901669 6.0858901 56.75 10.75 C56.66234375 11.71421875 56.5746875 12.6784375 56.484375 13.671875 C56.24460937 14.82429687 56.24460937 14.82429687 56 16 C55.01 16.495 55.01 16.495 54 17 C54 12.38 54 7.76 54 3 C35.85 3 17.7 3 -1 3 C-0.67 2.01 -0.34 1.02 0 0 Z " fill="#D05745" transform="translate(156,200)"/>
<path d="M0 0 C5.94 0 11.88 0 18 0 C18 0.33 18 0.66 18 1 C12.39 1 6.78 1 1 1 C1 6.28 1 11.56 1 17 C7.27 17 13.54 17 20 17 C20 22.61 20 28.22 20 34 C24.95 34 29.9 34 35 34 C35 28.72 35 23.44 35 18 C35.33 18 35.66 18 36 18 C36 23.94 36 29.88 36 36 C33.215625 36.020625 30.43125 36.04125 27.5625 36.0625 C26.68408447 36.071604 25.80566895 36.08070801 24.90063477 36.09008789 C22.93354026 36.09723091 20.96646379 36.05031893 19 36 C18 35 18 35 17.90234375 31.18359375 C17.90808862 29.60152953 17.92110407 28.01948969 17.9375 26.4375 C17.958125 23.653125 17.97875 20.86875 18 18 C12.06 18 6.12 18 0 18 C0 12.06 0 6.12 0 0 Z " fill="#F9C9BF" transform="translate(156,298)"/>
<path d="M0 0 C0.33 0 0.66 0 1 0 C3.06149392 5.02489144 3.4857159 9.6345337 3 15 C2 16 2 16 -0.9375 16.125 C-4 16 -4 16 -6 15 C-7.59447464 14.91599471 -9.19240545 14.89272533 -10.7890625 14.90234375 C-12.20058594 14.90717773 -12.20058594 14.90717773 -13.640625 14.91210938 C-15.11789063 14.92467773 -15.11789063 14.92467773 -16.625 14.9375 C-17.61757812 14.94201172 -18.61015625 14.94652344 -19.6328125 14.95117188 C-22.0886016 14.96297855 -24.54427104 14.979446 -27 15 C-27 14.67 -27 14.34 -27 14 C-23.04 14 -19.08 14 -15 14 C-15 13.01 -15 12.02 -15 11 C-17.31 11 -19.62 11 -22 11 C-22 8.03 -22 5.06 -22 2 C-20.35 2 -18.7 2 -17 2 C-18.32 2.33 -19.64 2.66 -21 3 C-21 5.31 -21 7.62 -21 10 C-19.02 10 -17.04 10 -15 10 C-15 9.01 -15 8.02 -15 7 C-14.34 7 -13.68 7 -13 7 C-13 9.31 -13 11.62 -13 14 C-11.35 14 -9.7 14 -8 14 C-8 10.04 -8 6.08 -8 2 C-7.01 2 -6.02 2 -5 2 C-3.86235649 6.26616316 -3 9.56486311 -3 14 C-1.35 14 0.3 14 2 14 C1.65775391 12.98679687 1.65775391 12.98679687 1.30859375 11.953125 C1.02113281 11.06109375 0.73367187 10.1690625 0.4375 9.25 C0.14746094 8.36828125 -0.14257812 7.4865625 -0.44140625 6.578125 C-1.01697435 3.92165684 -0.89248371 2.52968894 0 0 Z " fill="#D75849" transform="translate(191,43)"/>
<path d="M0 0 C2.64 0 5.28 0 8 0 C8 0.33 8 0.66 8 1 C6.35 1.33 4.7 1.66 3 2 C1.35 10.58 -0.3 19.16 -2 28 C-0.68 28 0.64 28 2 28 C2 28.66 2 29.32 2 30 C-0.31 30.33 -2.62 30.66 -5 31 C-4.67 29.68 -4.34 28.36 -4 27 C-4.99 26.67 -5.98 26.34 -7 26 C-6.67 25.34 -6.34 24.68 -6 24 C-5.84733388 22.26131256 -5.75067404 20.51752499 -5.68359375 18.7734375 C-5.64169922 17.7421875 -5.59980469 16.7109375 -5.55664062 15.6484375 C-5.51732422 14.56820312 -5.47800781 13.48796875 -5.4375 12.375 C-5.39431641 11.28703125 -5.35113281 10.1990625 -5.30664062 9.078125 C-5.2003547 6.3855483 -5.09831943 3.69287747 -5 1 C-4.34 1 -3.68 1 -3 1 C-2.67 4.96 -2.34 8.92 -2 13 C-1.855625 11.411875 -1.71125 9.82375 -1.5625 8.1875 C-1.29191216 5.21103374 -0.95027599 2.85082796 0 0 Z " fill="#D66858" transform="translate(148,73)"/>
<path d="M0 0 C2.33294775 -0.04241723 4.66702567 -0.04092937 7 0 C8 1 8 1 8.1328125 3.765625 C8.13023438 4.91546875 8.12765625 6.0653125 8.125 7.25 C8.12757812 8.38953125 8.13015625 9.5290625 8.1328125 10.703125 C8.01609587 13.60044376 7.66645245 16.18608964 7 19 C4.69 19 2.38 19 0 19 C0 16.36 0 13.72 0 11 C1.65 11 3.3 11 5 11 C5 9.68 5 8.36 5 7 C3.35 7 1.7 7 0 7 C0 4.69 0 2.38 0 0 Z " fill="#D14B3D" transform="translate(101,78)"/>
<path d="M0 0 C0.66 0 1.32 0 2 0 C2 5.61 2 11.22 2 17 C1.34 16.67 0.68 16.34 0 16 C-0.4140625 13.49609375 -0.4140625 13.49609375 -0.625 10.4375 C-0.69976562 9.42558594 -0.77453125 8.41367188 -0.8515625 7.37109375 C-0.90054688 6.58863281 -0.94953125 5.80617187 -1 5 C-2.13199353 5.9080162 -3.25532363 6.82683826 -4.375 7.75 C-5.00148437 8.26046875 -5.62796875 8.7709375 -6.2734375 9.296875 C-8.08860378 11.08740102 -8.90128789 12.72614363 -10 15 C-10.99 15.495 -10.99 15.495 -12 16 C-13.18203735 18.70179967 -13.22921701 20.40597281 -12.16796875 23.15625 C-11.42958404 24.72172995 -10.68212898 26.28296303 -9.92578125 27.83984375 C-8.85483727 30.33871304 -8.65227926 32.30516428 -9 35 C-10.83277232 32.25084152 -12.53717231 29.48661334 -14.1875 26.625 C-14.73792969 25.68914062 -15.28835937 24.75328125 -15.85546875 23.7890625 C-17.1892339 20.53886347 -17.23558055 19.2612963 -16 16 C-14.328125 13.90234375 -14.328125 13.90234375 -12.25 11.9375 C-11.52941406 11.25042969 -10.80882812 10.56335938 -10.06640625 9.85546875 C-7.78404651 7.80609091 -5.39464304 5.91571443 -3 4 C-2.443125 3.2575 -1.88625 2.515 -1.3125 1.75 C-0.879375 1.1725 -0.44625 0.595 0 0 Z " fill="#D2594A" transform="translate(249,168)"/>
<path d="M0 0 C0.33 0.66 0.66 1.32 1 2 C0.14075799 3.93256137 -0.81370184 5.82323271 -1.8125 7.6875 C-4.11601409 12.13456192 -5.862457 16.13958899 -7 21 C-7.33 21.99 -7.66 22.98 -8 24 C-8.51516144 32.35155955 -8.41250892 39.28476244 -5 47 C-5.33 47.99 -5.66 48.98 -6 50 C-11.50773982 37.03759837 -12.84427131 25.59564061 -8.28515625 12 C-6.30039602 7.36688189 -3.55574005 3.55574005 0 0 Z " fill="#D75747" transform="translate(149,192)"/>
<path d="M0 0 C0.33 0.66 0.66 1.32 1 2 C1.763125 2 2.52625 2 3.3125 2 C9 2 9 2 11.15625 2.03515625 C12.31640625 2.04869141 12.31640625 2.04869141 13.5 2.0625 C14.66015625 2.07990234 14.66015625 2.07990234 15.84375 2.09765625 C18.18522404 2.08991544 18.18522404 2.08991544 21 1 C23.6875 1.4375 23.6875 1.4375 26 2 C26 2.33 26 2.66 26 3 C20.91902274 4.04225175 16.16309352 4.07822869 11 4 C11 8.62 11 13.24 11 18 C8.73393611 14.97858147 7.53205026 13.28642374 6.3125 9.9375 C6.06113281 9.26589844 5.80976563 8.59429687 5.55078125 7.90234375 C5 6 5 6 5 3 C-4.405 3.495 -4.405 3.495 -14 4 C-11.41331224 1.41331224 -10.03108979 1.65770694 -6.4375 1.4375 C-2.90583192 1.50202788 -2.90583192 1.50202788 0 0 Z " fill="#E5442F" transform="translate(127,26)"/>
<path d="M0 0 C1.32 0 2.64 0 4 0 C4 8.58 4 17.16 4 26 C2.68 26 1.36 26 0 26 C0 17.42 0 8.84 0 0 Z " fill="#FEEEEB" transform="translate(178,75)"/>
<path d="M0 0 C1.98 0 3.96 0 6 0 C5.360625 0.61875 4.72125 1.2375 4.0625 1.875 C3.04137159 2.91637741 2.02059173 3.95809661 1 5 C-0.03447266 6.00546875 -0.03447266 6.00546875 -1.08984375 7.03125 C-10.66738269 16.85436686 -15.38944157 28.64885832 -18 42 C-18.33 42 -18.66 42 -19 42 C-19.02689216 40.52093108 -19.04634621 39.04172517 -19.0625 37.5625 C-19.07990234 36.32693359 -19.07990234 36.32693359 -19.09765625 35.06640625 C-19 33 -19 33 -18 32 C-17.75354802 30.66975319 -17.52814172 29.33558743 -17.3125 28 C-16.31803353 23.24022537 -14.27771378 19.94116217 -11.4375 16.04296875 C-10.06503141 14.09242236 -9.00824673 12.15706633 -8 10 C-7.34 10.33 -6.68 10.66 -6 11 C-5.566875 10.071875 -5.566875 10.071875 -5.125 9.125 C-4 7 -4 7 -2 5 C-1.29289322 3.35008418 -0.62056011 1.68437744 0 0 Z " fill="#D55C4D" transform="translate(141,172)"/>
<path d="M0 0 C3.63 0 7.26 0 11 0 C11.99 0.99 12.98 1.98 14 3 C13.01 3 12.02 3 11 3 C11.061875 4.423125 11.061875 4.423125 11.125 5.875 C11 9 11 9 9 11 C7.68 11 6.36 11 5 11 C5 8.03 5 5.06 5 2 C4.01 1.67 3.02 1.34 2 1 C1.67 9.25 1.34 17.5 1 26 C0.67 26 0.34 26 0 26 C0 17.42 0 8.84 0 0 Z " fill="#FDD6CC" transform="translate(178,31)"/>
<path d="M0 0 C2.475 0.495 2.475 0.495 5 1 C5 6.94 5 12.88 5 19 C3.35 19.33 1.7 19.66 0 20 C0 13.4 0 6.8 0 0 Z " fill="#D25D50" transform="translate(151,34)"/>
<path d="M0 0 C2.475 0.495 2.475 0.495 5 1 C5 6.94 5 12.88 5 19 C3.68 19.33 2.36 19.66 1 20 C0 19 0 19 -0.11352539 17.14233398 C-0.10828857 16.35157471 -0.10305176 15.56081543 -0.09765625 14.74609375 C-0.09443359 13.89208984 -0.09121094 13.03808594 -0.08789062 12.15820312 C-0.07951172 11.26037109 -0.07113281 10.36253906 -0.0625 9.4375 C-0.05798828 8.53580078 -0.05347656 7.63410156 -0.04882812 6.70507812 C-0.03700225 4.46998686 -0.0205222 2.23502563 0 0 Z " fill="#D35441" transform="translate(115,78)"/>
<path d="M0 0 C0.99 0.33 1.98 0.66 3 1 C3.90913748 7.21850034 4.18301682 13.28156238 4.1875 19.5625 C4.19974609 20.46935547 4.21199219 21.37621094 4.22460938 22.31054688 C4.23614002 27.61080132 3.7399165 31.9865647 2 37 C1.34 37 0.68 37 0 37 C-0.144375 37.94875 -0.28875 38.8975 -0.4375 39.875 C-1 43 -1 43 -2 45 C-2.66 45 -3.32 45 -4 45 C-3.80664062 44.3709375 -3.61328125 43.741875 -3.4140625 43.09375 C-3.15367187 42.2378125 -2.89328125 41.381875 -2.625 40.5 C-2.36976563 39.6646875 -2.11453125 38.829375 -1.8515625 37.96875 C-1.57054687 36.9890625 -1.28953125 36.009375 -1 35 C-0.64035156 33.75089844 -0.28070313 32.50179687 0.08984375 31.21484375 C1.17485246 26.80296091 1.26472453 22.58689225 1.1875 18.0625 C1.18105469 17.27633301 1.17460937 16.49016602 1.16796875 15.68017578 C1.09788781 10.3967296 0.77509032 5.23185966 0 0 Z " fill="#D35342" transform="translate(240,203)"/>
<path d="M0 0 C0.56847656 0.46019531 1.13695312 0.92039063 1.72265625 1.39453125 C-1.21994749 0.98393538 -3.81594156 0.60484109 -6.53125 -0.6328125 C-9.97774805 -1.85354936 -12.87926117 -1.8349446 -16.52734375 -1.79296875 C-17.77 -1.78652344 -19.01265625 -1.78007812 -20.29296875 -1.7734375 C-23.16040498 -1.94449234 -23.16040498 -1.94449234 -24.27734375 -0.60546875 C-25.64883629 -0.44654043 -27.02515866 -0.32850565 -28.40234375 -0.23046875 C-31.63466165 0.07786046 -34.15992207 0.62130399 -37.08984375 2.01953125 C-40.45014534 3.46907311 -41.01369498 3.45645601 -44.27734375 2.39453125 C-42.24012345 1.40614692 -40.19734768 0.42920873 -38.15234375 -0.54296875 C-37.01539063 -1.08824219 -35.8784375 -1.63351563 -34.70703125 -2.1953125 C-24.37601478 -6.44303112 -9.41856886 -6.63984872 0 0 Z " fill="#D25645" transform="translate(201.27734375,181.60546875)"/>
<path d="M0 0 C0.33 0 0.66 0 1 0 C1 8.91 1 17.82 1 27 C-1.70879335 28.35439668 -4.00933268 28.06501451 -7 28 C-7.33 26.35 -7.66 24.7 -8 23 C-8.99 23 -9.98 23 -11 23 C-11.33 24.32 -11.66 25.64 -12 27 C-13 24 -13 24 -12 21 C-10.35 21 -8.7 21 -7 21 C-6.67 22.98 -6.34 24.96 -6 27 C-4.68 27 -3.36 27 -2 27 C-2.22816406 25.89140625 -2.45632812 24.7828125 -2.69140625 23.640625 C-2.98222051 22.17717262 -3.27256027 20.71362589 -3.5625 19.25 C-3.71396484 18.52039063 -3.86542969 17.79078125 -4.02148438 17.0390625 C-4.74557178 13.33442927 -5.09817231 10.60677678 -4 7 C-1.65509272 9.34490728 -1.5707986 14.99379402 -1 18 C-0.505 9.09 -0.505 9.09 0 0 Z " fill="#CC6455" transform="translate(163,74)"/>
<path d="M0 0 C2.875 2.1875 2.875 2.1875 5 5 C5.3125 7.8125 5.3125 7.8125 5 10 C3.35 10 1.7 10 0 10 C0 8.02 0 6.04 0 4 C-1.32 4.33 -2.64 4.66 -4 5 C-4 11.27 -4 17.54 -4 24 C-4.66 23.67 -5.32 23.34 -6 23 C-6 16.4 -6 9.8 -6 3 C-6.99 3.33 -7.98 3.66 -9 4 C-8.67 3.01 -8.34 2.02 -8 1 C-5.11138291 -0.44430855 -3.20352299 -0.37688506 0 0 Z " fill="#FCD1CB" transform="translate(106,30)"/>
<path d="M0 0 C3.90805809 3.90805809 4.89469144 9.08295435 5.19140625 14.484375 C5.18793758 17.66168062 5.13246994 20.82562776 5 24 C4.67 24 4.34 24 4 24 C3.67 21.03 3.34 18.06 3 15 C2.67 15 2.34 15 2 15 C2 12.03 2 9.06 2 6 C1.34 6 0.68 6 0 6 C0 5.01 0 4.02 0 3 C-0.99 3.495 -0.99 3.495 -2 4 C-2.33 10.27 -2.66 16.54 -3 23 C-3.66 23.33 -4.32 23.66 -5 24 C-5 16.41 -5 8.82 -5 1 C-3.35 0.67 -1.7 0.34 0 0 Z " fill="#D05D4E" transform="translate(199,77)"/>
<path d="M0 0 C0.33 0 0.66 0 1 0 C1.02529589 6.65689282 1.04284396 13.3137733 1.05493164 19.97070312 C1.05996926 22.23665836 1.06679952 24.50261033 1.07543945 26.76855469 C1.08752996 30.02019047 1.09323392 33.27178339 1.09765625 36.5234375 C1.10281754 37.54118256 1.10797882 38.55892761 1.11329651 39.60751343 C1.11340981 41.01874985 1.11340981 41.01874985 1.11352539 42.45849609 C1.115746 43.28900482 1.11796661 44.11951355 1.12025452 44.97518921 C1 47 1 47 0 49 C-2.1796875 49.37890625 -2.1796875 49.37890625 -4.875 49.5625 C-7.86796839 49.77628346 -10.1328687 50.04428957 -13 51 C-14.32 49.68 -15.64 48.36 -17 47 C-9.08 46.505 -9.08 46.505 -1 46 C-0.67 30.82 -0.34 15.64 0 0 Z " fill="#D24B3D" transform="translate(268,138)"/>
<path d="M0 0 C0.33 0 0.66 0 1 0 C1 8.91 1 17.82 1 27 C4.63 27 8.26 27 12 27 C12 26.01 12 25.02 12 24 C10.02 24 8.04 24 6 24 C6 23.67 6 23.34 6 23 C8.31 23 10.62 23 13 23 C13.33 17.39 13.66 11.78 14 6 C14.33 6 14.66 6 15 6 C15.07347656 7.77117187 15.07347656 7.77117187 15.1484375 9.578125 C15.22348879 11.13543937 15.29903561 12.69272991 15.375 14.25 C15.4059375 15.02730469 15.436875 15.80460937 15.46875 16.60546875 C15.72658242 22.07379907 15.72658242 22.07379907 18 27 C14 28 14 28 0 28 C0 18.76 0 9.52 0 0 Z " fill="#D06050" transform="translate(95,74)"/>
<path d="M0 0 C0.33 0 0.66 0 1 0 C1.33 5.28 1.66 10.56 2 16 C2.66 16 3.32 16 4 16 C4.33 15.34 4.66 14.68 5 14 C5 16.97 5 19.94 5 23 C7.31 23 9.62 23 12 23 C12 23.99 12 24.98 12 26 C8.04 26 4.08 26 0 26 C0 17.42 0 8.84 0 0 Z " fill="#FDDAD5" transform="translate(114,31)"/>
<path d="M0 0 C1.32 0 2.64 0 4 0 C4 7.59 4 15.18 4 23 C3.01 23 2.02 23 1 23 C-0.23402862 18.22907044 -0.11265112 13.57530554 -0.0625 8.6875 C-0.05798828 7.85154297 -0.05347656 7.01558594 -0.04882812 6.15429688 C-0.03710548 4.10283351 -0.01917203 2.05140727 0 0 Z " fill="#FFE2D8" transform="translate(129,75)"/>
<path d="M0 0 C0.66 0 1.32 0 2 0 C2 5.94 2 11.88 2 18 C7.94 18 13.88 18 20 18 C20 23.61 20 29.22 20 35 C19.67 35 19.34 35 19 35 C19 29.72 19 24.44 19 19 C17.73542969 19.10699219 16.47085938 19.21398437 15.16796875 19.32421875 C13.50787355 19.44614665 11.84771357 19.56719467 10.1875 19.6875 C9.35412109 19.76033203 8.52074219 19.83316406 7.66210938 19.90820312 C6.85966797 19.96298828 6.05722656 20.01777344 5.23046875 20.07421875 C4.12288208 20.16062622 4.12288208 20.16062622 2.99291992 20.2487793 C1 20 1 20 -0.7734375 18.74609375 C-2.31902529 16.54584617 -2.2313882 15.61971738 -1.85546875 12.98828125 C-1.75556641 12.23095703 -1.65566406 11.47363281 -1.55273438 10.69335938 C-1.43220703 9.90767578 -1.31167969 9.12199219 -1.1875 8.3125 C-1.07857422 7.51521484 -0.96964844 6.71792969 -0.85742188 5.89648438 C-0.58643601 3.92889137 -0.29514792 1.96411387 0 0 Z " fill="#D25444" transform="translate(154,298)"/>
<path d="M0 0 C0.804375 0.66 1.60875 1.32 2.4375 2 C6.43438034 4.72209596 10.33271604 4.37338272 15 4 C15 4.66 15 5.32 15 6 C14.25234375 6.06058594 13.5046875 6.12117188 12.734375 6.18359375 C11.74953125 6.26738281 10.7646875 6.35117188 9.75 6.4375 C8.28820312 6.55931641 8.28820312 6.55931641 6.796875 6.68359375 C4.43538247 6.95074584 2.28098935 7.35371968 0 8 C0.20625 8.78375 0.4125 9.5675 0.625 10.375 C0.74875 11.24125 0.8725 12.1075 1 13 C0.34 13.66 -0.32 14.32 -1 15 C-1.99 14.34 -2.98 13.68 -4 13 C-4 12.34 -4 11.68 -4 11 C-6.93720508 9.47700477 -9.9168649 8.19899698 -13 7 C-13 6.34 -13 5.68 -13 5 C-10.6875 4.75 -10.6875 4.75 -8 5 C-6.3125 7 -6.3125 7 -5 9 C-4.34 9 -3.68 9 -3 9 C-2.01 6.03 -1.02 3.06 0 0 Z " fill="#DD4D3A" transform="translate(126,96)"/>
<path d="M0 0 C6.93 0 13.86 0 21 0 C21 0.66 21 1.32 21 2 C14.73 2 8.46 2 2 2 C2 4.97 2 7.94 2 11 C6.62 11 11.24 11 16 11 C16 11.66 16 12.32 16 13 C15.02160156 12.98259766 15.02160156 12.98259766 14.0234375 12.96484375 C12.71246094 12.95130859 12.71246094 12.95130859 11.375 12.9375 C10.51648437 12.92589844 9.65796875 12.91429687 8.7734375 12.90234375 C5.44306701 12.95963604 5.44306701 12.95963604 0 14 C0 9.38 0 4.76 0 0 Z " fill="#D15747" transform="translate(42,42)"/>
<path d="M0 0 C4.29 0 8.58 0 13 0 C13.33 0.66 13.66 1.32 14 2 C9.71 2 5.42 2 1 2 C1 10.25 1 18.5 1 27 C0.34 27 -0.32 27 -1 27 C-2.00005304 23.99984088 -2.11575585 22.02576244 -2.09765625 18.89453125 C-2.09443359 17.91162109 -2.09121094 16.92871094 -2.08789062 15.91601562 C-2.07951172 14.89185547 -2.07113281 13.86769531 -2.0625 12.8125 C-2.05798828 11.77673828 -2.05347656 10.74097656 -2.04882812 9.67382812 C-2.0370401 7.11582734 -2.02058515 4.55794267 -2 2 C-1.34 2 -0.68 2 0 2 C0 1.34 0 0.68 0 0 Z " fill="#DC4833" transform="translate(94,72)"/>
<path d="M0 0 C1.65 0 3.3 0 5 0 C6.91626837 4.98229776 7.5547115 9.72684667 8 15 C7.34 14.67 6.68 14.34 6 14 C5.67 15.32 5.34 16.64 5 18 C3.68 18 2.36 18 1 18 C1.11389875 16.20759337 1.24147687 14.41605165 1.375 12.625 C1.47941406 11.12839844 1.47941406 11.12839844 1.5859375 9.6015625 C2 7 2 7 4 5 C4 4.34 4 3.68 4 3 C2.68 3 1.36 3 0 3 C-0.33 3.66 -0.66 4.32 -1 5 C-0.67 3.35 -0.34 1.7 0 0 Z " fill="#FBD9D1" transform="translate(151,74)"/>
<path d="M0 0 C2.31 0 4.62 0 7 0 C7 4.29 7 8.58 7 13 C5.68 12.67 4.36 12.34 3 12 C2.34 12.66 1.68 13.32 1 14 C-2.5625 13.75 -2.5625 13.75 -6 13 C-6.33 12.34 -6.66 11.68 -7 11 C-5.6078125 11.0309375 -5.6078125 11.0309375 -4.1875 11.0625 C-0.97713989 11.15769604 -0.97713989 11.15769604 2 10 C2.33 7.69 2.66 5.38 3 3 C2.01 3 1.02 3 0 3 C0 2.01 0 1.02 0 0 Z " fill="#FFDED0" transform="translate(104,44)"/>
<path d="M0 0 C1 3 1 3 0.07421875 5.0078125 C-0.38339844 5.70648438 -0.84101563 6.40515625 -1.3125 7.125 C-1.76238281 7.82882812 -2.21226562 8.53265625 -2.67578125 9.2578125 C-4 11 -4 11 -6 12 C-6.268125 12.763125 -6.53625 13.52625 -6.8125 14.3125 C-8.2872392 17.65006767 -10.05525113 18.89660795 -13 21 C-13.66 21.53625 -14.32 22.0725 -15 22.625 C-18.726759 25.18714682 -22.57962574 26.24222156 -27 27 C-24.16466854 23.95764434 -20.93564212 21.92224261 -17.44921875 19.6953125 C-11.76871258 15.76335129 -7.88537994 11.92399797 -4.125 6.1875 C-3.52171875 5.2912793 -3.52171875 5.2912793 -2.90625 4.37695312 C-1.92943347 2.92335709 -0.96353577 1.46243318 0 0 Z " fill="#DB513F" transform="translate(235,249)"/>
<path d="M0 0 C0.99 0.33 1.98 0.66 3 1 C3 1.66 3 2.32 3 3 C2.23558594 2.7834375 1.47117188 2.566875 0.68359375 2.34375 C-12.10031971 -0.97914447 -24.11957371 -0.68642038 -37 2 C-37 1.34 -37 0.68 -37 0 C-25.63300855 -4.79812705 -11.29485125 -4.95388213 0 0 Z " fill="#D65443" transform="translate(201,162)"/>
<path d="M0 0 C0.33 0 0.66 0 1 0 C1 2.97 1 5.94 1 9 C-6.20481928 11.35542169 -6.20481928 11.35542169 -10 10 C-10.99 10 -11.98 10 -13 10 C-13.33 9.34 -13.66 8.68 -14 8 C-15.19238281 8.02320313 -16.38476562 8.04640625 -17.61328125 8.0703125 C-19.17968124 8.08907178 -20.746088 8.10727181 -22.3125 8.125 C-23.09818359 8.14175781 -23.88386719 8.15851562 -24.69335938 8.17578125 C-25.45068359 8.18222656 -26.20800781 8.18867187 -26.98828125 8.1953125 C-28.03302612 8.21102295 -28.03302612 8.21102295 -29.09887695 8.22705078 C-31 8 -31 8 -34 6 C-33.67 4.35 -33.34 2.7 -33 1 C-32.34 1 -31.68 1 -31 1 C-30.67 2.65 -30.34 4.3 -30 6 C-23.07 6.33 -16.14 6.66 -9 7 C-8.67 6.01 -8.34 5.02 -8 4 C-7.67 4.99 -7.34 5.98 -7 7 C-5.02 7 -3.04 7 -1 7 C-0.67 4.69 -0.34 2.38 0 0 Z " fill="#E84331" transform="translate(194,51)"/>
<path d="M0 0 C0.66 0 1.32 0 2 0 C2 2.97 2 5.94 2 9 C3.98 9 5.96 9 8 9 C8 9.99 8 10.98 8 12 C6.35 12 4.7 12 3 12 C3 15.3 3 18.6 3 22 C4.32 22.33 5.64 22.66 7 23 C4.69 23 2.38 23 0 23 C0 15.41 0 7.82 0 0 Z " fill="#FEF2EA" transform="translate(166,33)"/>
<path d="M0 0 C11 0 11 0 15 3 C15.45410156 5.17651367 15.45410156 5.17651367 15.390625 7.66796875 C15.37773437 8.56064453 15.36484375 9.45332031 15.3515625 10.37304688 C15.31804687 11.30181641 15.28453125 12.23058594 15.25 13.1875 C15.23195312 14.12787109 15.21390625 15.06824219 15.1953125 16.03710938 C15.1481655 18.35909889 15.08238231 20.6790369 15 23 C14.34 23.33 13.68 23.66 13 24 C13 17.4 13 10.8 13 4 C12.01 4 11.02 4 10 4 C7.03 3.01 4.06 2.02 1 1 C1 9.25 1 17.5 1 26 C0.67 26 0.34 26 0 26 C0 17.42 0 8.84 0 0 Z " fill="#FDD2C8" transform="translate(146,31)"/>
<path d="M0 0 C1.98 0 3.96 0 6 0 C5.34 0.66 4.68 1.32 4 2 C3.62948007 4.3245339 3.62948007 4.3245339 3.5859375 7.0078125 C3.54726562 7.99394531 3.50859375 8.98007813 3.46875 9.99609375 C3.4378125 11.02863281 3.406875 12.06117187 3.375 13.125 C3.33632812 14.16527344 3.29765625 15.20554687 3.2578125 16.27734375 C3.16335234 18.85138311 3.07778786 21.42541155 3 24 C2.01 24 1.02 24 0 24 C0 16.08 0 8.16 0 0 Z " fill="#FEF5F2" transform="translate(190,76)"/>
<path d="M0 0 C1.32 0 2.64 0 4 0 C4 0.66 4 1.32 4 2 C5.670625 1.9690625 5.670625 1.9690625 7.375 1.9375 C11 2 11 2 13 3 C15.53636067 3.15247486 18.02488118 3.23820381 20.5625 3.25 C21.28469727 3.25394775 22.00689453 3.25789551 22.75097656 3.26196289 C27.64322641 3.20869075 31.69501356 2.5872439 36.203125 0.55859375 C38.45920861 -0.14275398 39.79217522 0.26243022 42 1 C40.43979133 1.65134925 38.87671421 2.29582964 37.3125 2.9375 C36.44238281 3.29714844 35.57226562 3.65679687 34.67578125 4.02734375 C24.56722846 7.70183958 12.96129016 6.78809626 3 3 C1.16015625 1.39453125 1.16015625 1.39453125 0 0 Z " fill="#D0584A" transform="translate(161,259)"/>
<path d="M0 0 C0.99 0.33 1.98 0.66 3 1 C3.01981934 1.62567871 3.03963867 2.25135742 3.06005859 2.89599609 C3.15514226 5.72276519 3.26488746 8.54877815 3.375 11.375 C3.4059375 12.35984375 3.436875 13.3446875 3.46875 14.359375 C3.50742188 15.30039063 3.54609375 16.24140625 3.5859375 17.2109375 C3.6173584 18.08024902 3.6487793 18.94956055 3.68115234 19.84521484 C3.81229433 22.20961794 3.81229433 22.20961794 6 24 C4.02 24 2.04 24 0 24 C0 16.08 0 8.16 0 0 Z " fill="#FEF6F3" transform="translate(165,76)"/>
<path d="M0 0 C0.66 0 1.32 0 2 0 C2 4.62 2 9.24 2 14 C3.98 13.34 5.96 12.68 8 12 C13.05670936 11.29590123 16.84705146 11.8852886 21 15 C20.67 15.66 20.34 16.32 20 17 C19.175 16.690625 18.35 16.38125 17.5 16.0625 C13.60873845 14.88122417 10.03833047 14.41775832 6 14 C5.34 15.32 4.68 16.64 4 18 C3.67 17.34 3.34 16.68 3 16 C2.01 15.67 1.02 15.34 0 15 C0 10.05 0 5.1 0 0 Z " fill="#F9D3C9" transform="translate(40,42)"/>
<path d="M0 0 C5.91039739 7.11896605 6.27301999 16.34588149 6.3125 25.25 C6.31789795 25.9939502 6.3232959 26.73790039 6.32885742 27.50439453 C6.2635716 32.6171259 5.39645246 37.08181684 4 42 C2.85880206 38.03002434 3.18612843 34.50126346 3.5625 30.4375 C4.20370793 22.18604317 3.20383783 15.00400453 0.875 7.0625 C0 4 0 4 0 0 Z " fill="#FCCFC7" transform="translate(236,196)"/>
<path d="M0 0 C-0.639375 0.309375 -1.27875 0.61875 -1.9375 0.9375 C-3.93610821 1.8345163 -3.93610821 1.8345163 -5 3 C-5.08669432 4.4887186 -5.10703494 5.981445 -5.09765625 7.47265625 C-5.09443359 8.37177734 -5.09121094 9.27089844 -5.08789062 10.19726562 C-5.07951172 11.14279297 -5.07113281 12.08832031 -5.0625 13.0625 C-5.05798828 14.01189453 -5.05347656 14.96128906 -5.04882812 15.93945312 C-5.0370011 18.29303065 -5.02052025 20.64648477 -5 23 C-5.99 23 -6.98 23 -8 23 C-9.70096219 19.59807562 -9.3523829 15.87602241 -9.4375 12.125 C-9.48326172 11.30902344 -9.52902344 10.49304688 -9.57617188 9.65234375 C-9.62046289 7.29143984 -9.57548532 5.29181542 -9 3 C-4.23972354 -1.41324118 -4.23972354 -1.41324118 0 0 Z " fill="#FEF4EE" transform="translate(119,76)"/>
<path d="M0 0 C2.64 0 5.28 0 8 0 C8 2.97 8 5.94 8 9 C5.36 9 2.72 9 0 9 C0 6.03 0 3.06 0 0 Z " fill="#DC4732" transform="translate(119,45)"/>
<path d="M0 0 C0.66 0 1.32 0 2 0 C2 8.25 2 16.5 2 25 C1.01 24.67 0.02 24.34 -1 24 C-2.125 18.25 -2.125 18.25 -1 16 C-1.66 16 -2.32 16 -3 16 C-3 15.01 -3 14.02 -3 13 C-2.01 13 -1.02 13 0 13 C0 8.71 0 4.42 0 0 Z " fill="#FEF6EF" transform="translate(139,32)"/>
<path d="M0 0 C1.85625 0.6496875 1.85625 0.6496875 3.75 1.3125 C9.42217216 3.21227058 15.18714573 4.59689724 21 6 C21 11.94 21 17.88 21 24 C15.06 24 9.12 24 3 24 C3 23.67 3 23.34 3 23 C8.61 23 14.22 23 20 23 C19.67 18.05 19.34 13.1 19 8 C16.9890625 7.87625 16.9890625 7.87625 14.9375 7.75 C10.04986988 7.22660024 7.10984177 5.63029873 3 3 C2.01 2.67 1.02 2.34 0 2 C0 1.34 0 0.68 0 0 Z " fill="#CB584C" transform="translate(153,274)"/>
<path d="M0 0 C1.32 0 2.64 0 4 0 C4 1.65 4 3.3 4 5 C3.34 4.34 2.68 3.68 2 3 C1.34 5.31 0.68 7.62 0 10 C0.66 10 1.32 10 2 10 C2 10.99 2 11.98 2 13 C2.99 13 3.98 13 5 13 C4.67 15.31 4.34 17.62 4 20 C2.68 20 1.36 20 0 20 C-1.64838944 16.70322112 -1.14272738 13.05683956 -1.125 9.4375 C-1.12886719 8.64408203 -1.13273437 7.85066406 -1.13671875 7.03320312 C-1.12663067 1.12663067 -1.12663067 1.12663067 0 0 Z " fill="#D05447" transform="translate(102,34)"/>
<path d="M0 0 C0.65484375 0.47050781 1.3096875 0.94101563 1.984375 1.42578125 C15.36300955 10.55273109 28.34275342 11.08763288 44 9 C41.07229434 11.5178686 39.26020127 12.38591723 35.40234375 12.43359375 C34.52344482 12.44495361 33.6445459 12.45631348 32.73901367 12.46801758 C31.81451416 12.45794678 30.89001465 12.44787598 29.9375 12.4375 C28.99173096 12.43065186 28.04596191 12.42380371 27.0715332 12.41674805 C20.07919179 12.25609448 14.2235502 11.3611508 8 8 C7.19820312 7.57976562 6.39640625 7.15953125 5.5703125 6.7265625 C1.59216249 4.45530038 1.59216249 4.45530038 0 3 C0 2.01 0 1.02 0 0 Z " fill="#FDE0D8" transform="translate(153,254)"/>
<path d="M0 0 C2.64 0 5.28 0 8 0 C8 0.33 8 0.66 8 1 C6.35 1.33 4.7 1.66 3 2 C2.01 7.28 1.02 12.56 0 18 C-0.66 18 -1.32 18 -2 18 C-2.33 18.66 -2.66 19.32 -3 20 C-4 19 -4 19 -4.11352539 17.23413086 C-4.10828857 16.48526611 -4.10305176 15.73640137 -4.09765625 14.96484375 C-4.09443359 14.15595703 -4.09121094 13.34707031 -4.08789062 12.51367188 C-4.07951172 11.66353516 -4.07113281 10.81339844 -4.0625 9.9375 C-4.05798828 9.08349609 -4.05347656 8.22949219 -4.04882812 7.34960938 C-4.03700373 5.23304337 -4.01906769 3.11651315 -4 1 C-3.67 1 -3.34 1 -3 1 C-2.67 4.96 -2.34 8.92 -2 13 C-1.855625 11.411875 -1.71125 9.82375 -1.5625 8.1875 C-1.29191216 5.21103374 -0.95027599 2.85082796 0 0 Z " fill="#D75A48" transform="translate(148,73)"/>
<path d="M0 0 C3.3 0 6.6 0 10 0 C10 0.33 10 0.66 10 1 C9.43410156 1.12117188 8.86820313 1.24234375 8.28515625 1.3671875 C7.18494141 1.61855469 7.18494141 1.61855469 6.0625 1.875 C5.33160156 2.03742187 4.60070312 2.19984375 3.84765625 2.3671875 C1.79299706 2.82961523 1.79299706 2.82961523 1 5 C0.91573906 6.6674606 0.89274857 8.33825187 0.90234375 10.0078125 C0.90556641 10.99394531 0.90878906 11.98007812 0.91210938 12.99609375 C0.92048828 14.02863281 0.92886719 15.06117187 0.9375 16.125 C0.94201172 17.16527344 0.94652344 18.20554687 0.95117188 19.27734375 C0.96298048 21.85161962 0.97944925 24.42578146 1 27 C0.01 26.67 -0.98 26.34 -2 26 C-2.99437232 20.64999682 -2.89628117 16.11891825 -2.125 10.75 C-2.03347656 10.04359375 -1.94195312 9.3371875 -1.84765625 8.609375 C-1.44474028 5.61304218 -0.95826378 2.87479134 0 0 Z " fill="#DD6858" transform="translate(96,29)"/>
<path d="M0 0 C1.32 0 2.64 0 4 0 C4.33 0.99 4.66 1.98 5 3 C4.01 3.33 3.02 3.66 2 4 C1.67 8.29 1.34 12.58 1 17 C-0.32 17 -1.64 17 -3 17 C-3.40368295 10.54107286 -2.5915262 5.93891422 0 0 Z " fill="#FBE1DD" transform="translate(151,77)"/>
<path d="M0 0 C0.99 0 1.98 0 3 0 C3 7.26 3 14.52 3 22 C2.01 22 1.02 22 0 22 C0 14.74 0 7.48 0 0 Z " fill="#E14533" transform="translate(134,74)"/>
<path d="M0 0 C0 0.66 0 1.32 0 2 C-2.19435701 4.11745198 -3.52389051 4.94589665 -6.578125 5.29296875 C-7.90070313 5.24076172 -7.90070313 5.24076172 -9.25 5.1875 C-10.8175 5.125625 -12.385 5.06375 -14 5 C-14 10.28 -14 15.56 -14 21 C-8.39 21 -2.78 21 3 21 C3 21.33 3 21.66 3 22 C-2.94 22 -8.88 22 -15 22 C-15 16.06 -15 10.12 -15 4 C-2.25 0 -2.25 0 0 0 Z " fill="#CA5544" transform="translate(207,276)"/>
<path d="M0 0 C2.64 0 5.28 0 8 0 C8 2.64 8 5.28 8 8 C5.36 8 2.72 8 0 8 C0 5.36 0 2.72 0 0 Z " fill="#E6432F" transform="translate(169,34)"/>
<path d="M0 0 C2.5625 0.3125 2.5625 0.3125 4.19995117 1.53100586 C5.97552639 3.85252035 5.93594414 5.2264394 5.92578125 8.12890625 C5.92513672 9.05767578 5.92449219 9.98644531 5.92382812 10.94335938 C5.90771484 11.91080078 5.89160156 12.87824219 5.875 13.875 C5.87983398 15.33196289 5.87983398 15.33196289 5.88476562 16.81835938 C5.82952009 24.04547991 5.82952009 24.04547991 3.5625 26.3125 C3.5625 18.7225 3.5625 11.1325 3.5625 3.3125 C1.9125 3.3125 0.2625 3.3125 -1.4375 3.3125 C-1.89769531 3.96734375 -2.35789062 4.6221875 -2.83203125 5.296875 C-4.4375 7.3125 -4.4375 7.3125 -7.57421875 7.703125 C-8.74597656 7.65671875 -9.91773438 7.6103125 -11.125 7.5625 C-12.89423828 7.50835937 -12.89423828 7.50835937 -14.69921875 7.453125 C-16.05466797 7.38351563 -16.05466797 7.38351563 -17.4375 7.3125 C-17.4375 6.9825 -17.4375 6.6525 -17.4375 6.3125 C-13.4775 6.3125 -9.5175 6.3125 -5.4375 6.3125 C-5.1075 4.9925 -4.7775 3.6725 -4.4375 2.3125 C-2.4375 0.3125 -2.4375 0.3125 0 0 Z " fill="#D36557" transform="translate(47.4375,63.6875)"/>
<path d="M0 0 C1.32 0 2.64 0 4 0 C4.25 6.625 4.25 6.625 2 10 C2.19382182 12.17549 2.19382182 12.17549 2.875 14.4375 C3.7107172 17.56350547 4 19.6727884 4 23 C2.35 23 0.7 23 -1 23 C-0.67 22.01 -0.34 21.02 0 20 C0 20.66 0 21.32 0 22 C0.66 22 1.32 22 2 22 C1.67 20.7625 1.34 19.525 1 18.25 C0.20108841 15.25408155 0 13.19892281 0 10 C-0.66 9.67 -1.32 9.34 -2 9 C-1.67 8.67 -1.34 8.34 -1 8 C-0.76924918 6.65252916 -0.58846937 5.29622435 -0.4375 3.9375 C-0.293125 2.638125 -0.14875 1.33875 0 0 Z " fill="#FDDDD3" transform="translate(189,34)"/>
<path d="M0 0 C0.66 0 1.32 0 2 0 C3.85776765 3.13498292 4.20140476 5.37471432 4 9 C3.01 9 2.02 9 1 9 C1 13.62 1 18.24 1 23 C0.34 23 -0.32 23 -1 23 C-1.02911321 19.9166866 -1.04683682 16.83340875 -1.0625 13.75 C-1.07087891 12.87730469 -1.07925781 12.00460938 -1.08789062 11.10546875 C-1.09111328 10.26113281 -1.09433594 9.41679688 -1.09765625 8.546875 C-1.10551147 7.38430176 -1.10551147 7.38430176 -1.11352539 6.19824219 C-1.00036998 4.00716402 -0.60552448 2.10362139 0 0 Z " fill="#FEF6EF" transform="translate(130,33)"/>
<path d="M0 0 C-3.23529832 1.05128687 -5.39722097 0.91901775 -8.6875 0.125 C-9.47511719 -0.05804688 -10.26273438 -0.24109375 -11.07421875 -0.4296875 C-13 -1 -13 -1 -14 -2 C-15.70563778 -2.15740605 -17.41727244 -2.25093392 -19.12890625 -2.31640625 C-20.16337891 -2.35830078 -21.19785156 -2.40019531 -22.26367188 -2.44335938 C-23.35228516 -2.48267578 -24.44089844 -2.52199219 -25.5625 -2.5625 C-26.65498047 -2.60568359 -27.74746094 -2.64886719 -28.87304688 -2.69335938 C-31.58189564 -2.79982068 -34.29083992 -2.90183516 -37 -3 C-37 -3.33 -37 -3.66 -37 -4 C-23.44977227 -6.51235225 -12.67347311 -4.66303873 0 0 Z " fill="#FDD7D0" transform="translate(207,166)"/>
<path d="M0 0 C1.32 0.33 2.64 0.66 4 1 C4 7.93 4 14.86 4 22 C3.67 22 3.34 22 3 22 C2.67 19.36 2.34 16.72 2 14 C1.34 14.99 0.68 15.98 0 17 C0 11.39 0 5.78 0 0 Z " fill="#FEE9E1" transform="translate(147,32)"/>
<path d="M0 0 C0.99 0 1.98 0 3 0 C3.185625 0.9590625 3.185625 0.9590625 3.375 1.9375 C3.684375 2.9584375 3.684375 2.9584375 4 4 C4.66 4.33 5.32 4.66 6 5 C6 5.66 6 6.32 6 7 C11.94 7.33 17.88 7.66 24 8 C24 7.34 24 6.68 24 6 C25.65 5.67 27.3 5.34 29 5 C25.97462651 8.23401994 24.0865007 9.82723243 19.546875 10.203125 C13.53942759 10.30380848 9.21667622 10.08742062 4 7 C0 2.79487179 0 2.79487179 0 0 Z " fill="#FDD9CE" transform="translate(31,92)"/>
<path d="M0 0 C3.875 0.875 3.875 0.875 5 2 C5.07325168 4.86267567 5.09238205 7.700719 5.0625 10.5625 C5.05798828 11.36880859 5.05347656 12.17511719 5.04882812 13.00585938 C5.03700518 15.00393756 5.01906914 17.00197783 5 19 C4.01 19.33 3.02 19.66 2 20 C1.93941406 18.72382812 1.87882813 17.44765625 1.81640625 16.1328125 C1.73200432 14.46352984 1.64735614 12.79425963 1.5625 11.125 C1.52318359 10.28324219 1.48386719 9.44148438 1.44335938 8.57421875 C1.40146484 7.76855469 1.35957031 6.96289062 1.31640625 6.1328125 C1.26141968 5.01737061 1.26141968 5.01737061 1.20532227 3.87939453 C1.10044135 1.91135688 1.10044135 1.91135688 0 0 Z " fill="#FEF7F4" transform="translate(155,33)"/>
<path d="M0 0 C0.66 0 1.32 0 2 0 C2.33 1.98 2.66 3.96 3 6 C3.66 6 4.32 6 5 6 C5.33 4.02 5.66 2.04 6 0 C6.33 0 6.66 0 7 0 C7 6.27 7 12.54 7 19 C6.34 18.67 5.68 18.34 5 18 C4.4375 15.78515625 4.4375 15.78515625 4 13.0625 C3.4451989 9.07684725 3.4451989 9.07684725 1 6 C0.60235737 4.01178687 0.26224651 2.01055661 0 0 Z " fill="#D84A37" transform="translate(156,74)"/>
<path d="M0 0 C1.66666667 0 3.33333333 0 5 0 C5 3.96 5 7.92 5 12 C3.35 12 1.7 12 0 12 C0 8.04 0 4.08 0 0 Z " fill="#FEDFD7" transform="translate(204,89)"/>
<path d="M0 0 C1.65 0 3.3 0 5 0 C3.68 0.33 2.36 0.66 1 1 C1 3.31 1 5.62 1 8 C2.98 8 4.96 8 7 8 C7 7.01 7 6.02 7 5 C7.66 5 8.32 5 9 5 C9 7.31 9 9.62 9 12 C10.65 12 12.3 12 14 12 C14 12.33 14 12.66 14 13 C7.73 13 1.46 13 -5 13 C-5 12.67 -5 12.34 -5 12 C-1.04 12 2.92 12 7 12 C7 11.01 7 10.02 7 9 C4.69 9 2.38 9 0 9 C0 6.03 0 3.06 0 0 Z " fill="#D26E5D" transform="translate(169,45)"/>
<path d="M0 0 C5.01905098 0.65296391 8.9595194 1.25085397 13.125 4.25 C15.36082293 7.52920696 15.67650214 9.1101127 15 13 C13.46875 14.6796875 13.46875 14.6796875 12 16 C12.06960937 15.07767578 12.06960937 15.07767578 12.140625 14.13671875 C12.17671875 13.32847656 12.2128125 12.52023438 12.25 11.6875 C12.29640625 10.88699219 12.3428125 10.08648437 12.390625 9.26171875 C12.19657203 6.87609585 12.19657203 6.87609585 10.3125 5.25 C7.666792 3.81988757 5.73933156 3.50916655 2.75 3.3125 C1.85796875 3.24675781 0.9659375 3.18101563 0.046875 3.11328125 C-0.62859375 3.07589844 -1.3040625 3.03851562 -2 3 C-1.34 2.01 -0.68 1.02 0 0 Z " fill="#DA4932" transform="translate(180,27)"/>
<path d="M0 0 C0.33 0 0.66 0 1 0 C1 10.23 1 20.46 1 31 C-3.46523698 24.30214452 -2.79960361 13.93668313 -1.55078125 6.2265625 C-1.08643457 4.13864907 -0.5511211 2.06670411 0 0 Z " fill="#F9CFC5" transform="translate(124,205)"/>
<path d="M0 0 C0.99 0.33 1.98 0.66 3 1 C2.01 2.485 2.01 2.485 1 4 C0.34 4 -0.32 4 -1 4 C-1.165 4.721875 -1.33 5.44375 -1.5 6.1875 C-3.64241518 10.20452846 -6.9186479 12.10075695 -11 14 C-11.99 14 -12.98 14 -14 14 C-9.38 9.38 -4.76 4.76 0 0 Z " fill="#FBDBD2" transform="translate(237,155)"/>
<path d="M0 0 C1.32 0 2.64 0 4 0 C3.21824485 4.84688192 1.60155722 9.3766367 0 14 C-0.33 12.68 -0.66 11.36 -1 10 C-1.66 10 -2.32 10 -3 10 C-2.69201674 8.51988629 -2.378482 7.04092675 -2.0625 5.5625 C-1.88847656 4.73878906 -1.71445313 3.91507812 -1.53515625 3.06640625 C-1 1 -1 1 0 0 Z " fill="#FDDDD6" transform="translate(210,74)"/>
<path d="M0 0 C-0.33 2.64 -0.66 5.28 -1 8 C-2.98 8 -4.96 8 -7 8 C-7 5.69 -7 3.38 -7 1 C-4.50935112 0.31292445 -2.62113708 0 0 0 Z " fill="#E44432" transform="translate(177,45)"/>
<path d="M0 0 C0.33 0 0.66 0 1 0 C1.33 7.59 1.66 15.18 2 23 C3.32 22.67 4.64 22.34 6 22 C8.75 23.375 8.75 23.375 11 25 C11 25.33 11 25.66 11 26 C4.80551053 26.47649919 4.80551053 26.47649919 1.78125 24.6875 C-1.10059705 20.33945006 -0.41773433 15.83364049 -0.25 10.75 C-0.23195313 9.71875 -0.21390625 8.6875 -0.1953125 7.625 C-0.14822712 5.08238936 -0.0824805 2.54166838 0 0 Z " fill="#FDD1C9" transform="translate(128,75)"/>
<path d="M0 0 C0.6015625 1.8203125 0.6015625 1.8203125 1 4 C-0.625 6.875 -0.625 6.875 -3 10 C-3.42152344 10.5671875 -3.84304687 11.134375 -4.27734375 11.71875 C-5.5625 13.375 -5.5625 13.375 -8 16 C-8.99 16 -9.98 16 -11 16 C-10.67 17.32 -10.34 18.64 -10 20 C-11.98 19.67 -13.96 19.34 -16 19 C-14.19690908 17.12478545 -12.40551483 15.31614782 -10.3515625 13.71484375 C-5.40386028 9.83662302 -2.71827469 5.63697516 0 0 Z " fill="#FCE2D7" transform="translate(221,240)"/>
<path d="M0 0 C0.66 0 1.32 0 2 0 C2.67057887 1.7902061 3.3363469 3.58221489 4 5.375 C4.556875 6.87160156 4.556875 6.87160156 5.125 8.3984375 C6 11 6 11 6 13 C5.34 13 4.68 13 4 13 C4 11.68 4 10.36 4 9 C3.34 9 2.68 9 2 9 C1.67 10.98 1.34 12.96 1 15 C-0.65 15 -2.3 15 -4 15 C-2.68 14.67 -1.36 14.34 0 14 C0 9.38 0 4.76 0 0 Z " fill="#D77A6F" transform="translate(132,43)"/>
<path d="M0 0 C-0.62390625 0.23460938 -1.2478125 0.46921875 -1.890625 0.7109375 C-4.60255941 2.36823075 -4.88975997 3.6141599 -5.75 6.625 C-5.99234375 7.44226563 -6.2346875 8.25953125 -6.484375 9.1015625 C-6.65453125 9.72804688 -6.8246875 10.35453125 -7 11 C-10.00617269 7.99382731 -9.59585316 5.17618402 -10 1 C-6.21812119 -0.83691257 -4.05431692 -1.15837626 0 0 Z " fill="#D4584A" transform="translate(214,73)"/>
<path d="M0 0 C0.66 1.32 1.32 2.64 2 4 C1.01 4 0.02 4 -1 4 C-1.33 4.66 -1.66 5.32 -2 6 C-4.93782469 5.85924795 -7.87515171 5.7126162 -10.8125 5.5625 C-11.64587891 5.52318359 -12.47925781 5.48386719 -13.33789062 5.44335938 C-14.14033203 5.40146484 -14.94277344 5.35957031 -15.76953125 5.31640625 C-16.50792236 5.27974854 -17.24631348 5.24309082 -18.00708008 5.20532227 C-20 5 -20 5 -23 4 C-23 3.34 -23 2.68 -23 2 C-21.8553125 2.2475 -21.8553125 2.2475 -20.6875 2.5 C-13.29309007 3.50263185 -6.5055076 4.21978871 0 0 Z " fill="#CF5142" transform="translate(59,98)"/>
<path d="M0 0 C-0.33 0.66 -0.66 1.32 -1 2 C-3.1796875 2.37890625 -3.1796875 2.37890625 -5.875 2.5625 C-8.86796839 2.77628346 -11.1328687 3.04428957 -14 4 C-15.32 2.68 -16.64 1.36 -18 0 C-15.3753399 -0.19430855 -12.75053235 -0.38073238 -10.125 -0.5625 C-9.00544922 -0.64661133 -9.00544922 -0.64661133 -7.86328125 -0.73242188 C-2.2265625 -1.11328125 -2.2265625 -1.11328125 0 0 Z " fill="#DB4933" transform="translate(269,185)"/>
<path d="M0 0 C0.33 0 0.66 0 1 0 C1.57446809 20.53191489 1.57446809 20.53191489 -2 30 C-3.32 29.67 -4.64 29.34 -6 29 C-5.54625 28.484375 -5.0925 27.96875 -4.625 27.4375 C-0.80408075 21.70612112 -0.63342835 15.24394964 -0.375 8.5625 C-0.31699219 7.32209961 -0.31699219 7.32209961 -0.2578125 6.05664062 C-0.16446908 4.03808927 -0.08119039 2.01907669 0 0 Z " fill="#D0594A" transform="translate(66,68)"/>
<path d="M0 0 C2.475 0.495 2.475 0.495 5 1 C5.33 2.65 5.66 4.3 6 6 C5.34 5.67 4.68 5.34 4 5 C4 4.01 4 3.02 4 2 C3.34 2 2.68 2 2 2 C1.67 9.92 1.34 17.84 1 26 C0.67 26 0.34 26 0 26 C0 17.42 0 8.84 0 0 Z " fill="#FDC9C0" transform="translate(128,31)"/>
<path d="M0 0 C1.65 0.33 3.3 0.66 5 1 C5.33 1.99 5.66 2.98 6 4 C6.99 4 7.98 4 9 4 C9 5.65 9 7.3 9 9 C7.35 9 5.7 9 4 9 C4 7.02 4 5.04 4 3 C2.35 2.67 0.7 2.34 -1 2 C-0.67 1.34 -0.34 0.68 0 0 Z " fill="#FEE0D7" transform="translate(102,31)"/>
<path d="M0 0 C1.32 0.33 2.64 0.66 4 1 C4 5.95 4 10.9 4 16 C-1.61 16 -7.22 16 -13 16 C-12.67 15.34 -12.34 14.68 -12 14 C-11.07316406 14.01160156 -10.14632812 14.02320313 -9.19140625 14.03515625 C-7.39509766 14.04869141 -7.39509766 14.04869141 -5.5625 14.0625 C-3.77005859 14.07990234 -3.77005859 14.07990234 -1.94140625 14.09765625 C0.88873341 14.33901792 0.88873341 14.33901792 2 13 C2.12487758 11.19072719 2.17570846 9.37603893 2.1875 7.5625 C2.20167969 6.57378906 2.21585938 5.58507812 2.23046875 4.56640625 C2.26150753 1.83415585 2.26150753 1.83415585 0 0 Z " fill="#DF4633" transform="translate(169,281)"/>
<path d="M0 0 C0.33 1.32 0.66 2.64 1 4 C0.38125 4.2475 -0.2375 4.495 -0.875 4.75 C-3.11738845 5.80962759 -3.11738845 5.80962759 -3.9375 7.875 C-5.36898744 10.73797489 -7.45441327 12.12430451 -10 14 C-10 9.84439769 -7.7179548 8.15900671 -5 5.3125 C-4.52304688 4.80138672 -4.04609375 4.29027344 -3.5546875 3.76367188 C-2.37640085 2.50290516 -1.18904747 1.25062314 0 0 Z " fill="#FDE3D9" transform="translate(143,175)"/>
<path d="M0 0 C0.33 0 0.66 0 1 0 C1.13277344 1.14597656 1.26554687 2.29195312 1.40234375 3.47265625 C1.58068188 5.00260968 1.75906996 6.53255729 1.9375 8.0625 C2.02451172 8.81466797 2.11152344 9.56683594 2.20117188 10.34179688 C2.73463639 14.90588219 3.32986298 19.45393534 4 24 C2.02441406 22.80541992 2.02441406 22.80541992 0 21 C-0.45410156 18.73168945 -0.45410156 18.73168945 -0.390625 16.11328125 C-0.37773438 15.17548828 -0.36484375 14.23769531 -0.3515625 13.27148438 C-0.31804687 12.29501953 -0.28453125 11.31855469 -0.25 10.3125 C-0.23195313 9.32443359 -0.21390625 8.33636719 -0.1953125 7.31835938 C-0.14815447 4.87793158 -0.08236042 2.43945231 0 0 Z " fill="#D85C4C" transform="translate(121,216)"/>
<path d="M0 0 C1.11375 0.495 1.11375 0.495 2.25 1 C-0.6748633 1.84191782 -3.25741656 2.11819313 -6.296875 2.09765625 C-7.14121094 2.09443359 -7.98554688 2.09121094 -8.85546875 2.08789062 C-9.72816406 2.07951172 -10.60085937 2.07113281 -11.5 2.0625 C-12.83224609 2.05573242 -12.83224609 2.05573242 -14.19140625 2.04882812 C-16.37767329 2.037074 -18.56380179 2.02064249 -20.75 2 C-14.40836064 -2.22775957 -7.29173304 -1.94446214 0 0 Z " fill="#FDE8DF" transform="translate(190.75,176)"/>
<path d="M0 0 C3.36704285 -0.2295711 5.41370268 -0.33943529 8.375 1.375 C8.91125 1.91125 9.4475 2.4475 10 3 C10 3.66 10 4.32 10 5 C11.65 5.33 13.3 5.66 15 6 C15.33 5.01 15.66 4.02 16 3 C16.99 3.33 17.98 3.66 19 4 C17.25 6.0625 17.25 6.0625 15 8 C11.3619019 7.6170423 8.39717137 5.69841732 5.25 3.9375 C4.26515625 3.38964844 3.2803125 2.84179688 2.265625 2.27734375 C1.51796875 1.85582031 0.7703125 1.43429688 0 1 C0 0.67 0 0.34 0 0 Z " fill="#D2594E" transform="translate(205,165)"/>
<path d="M0 0 C0.66 1.32 1.32 2.64 2 4 C3.98 4 5.96 4 8 4 C8 5.32 8 6.64 8 8 C5.36 8.66 2.72 9.32 0 10 C0 6.7 0 3.4 0 0 Z " fill="#FEFAF7" transform="translate(98,81)"/>
<path d="M0 0 C0.66 0 1.32 0 2 0 C2 4.29 2 8.58 2 13 C1.01 13 0.02 13 -1 13 C-1.02686553 11.02090602 -1.04633375 9.04171029 -1.0625 7.0625 C-1.07410156 5.96035156 -1.08570312 4.85820313 -1.09765625 3.72265625 C-1 1 -1 1 0 0 Z " fill="#FEF8F5" transform="translate(98,33)"/>
<path d="M0 0 C2.475 0.495 2.475 0.495 5 1 C5 2.98 5 4.96 5 7 C3.35 7.33 1.7 7.66 0 8 C0 5.36 0 2.72 0 0 Z " fill="#CD5C4F" transform="translate(183,34)"/>
<path d="M0 0 C0.33 0 0.66 0 1 0 C1.33 6.27 1.66 12.54 2 19 C1.34 19 0.68 19 0 19 C-0.66 19.66 -1.32 20.32 -2 21 C-2 20.01 -2 19.02 -2 18 C-3.98 18 -5.96 18 -8 18 C-8 17.67 -8 17.34 -8 17 C-5.69 17 -3.38 17 -1 17 C-0.67 11.39 -0.34 5.78 0 0 Z " fill="#E28174" transform="translate(109,80)"/>
<path d="M0 0 C0.99 0.495 0.99 0.495 2 1 C2.33 6.61 2.66 12.22 3 18 C2.01 18 1.02 18 0 18 C0 12.06 0 6.12 0 0 Z " fill="#FFF7F3" transform="translate(130,80)"/>
<path d="M0 0 C0.12246094 0.56847656 0.24492187 1.13695312 0.37109375 1.72265625 C1.03574212 4.12942643 1.97656042 6.19166796 3.0625 8.4375 C4.5889881 11.77703714 5.48192681 14.2650672 5 18 C3.14690206 15.2203531 1.49871292 12.41797685 -0.125 9.5 C-0.66382813 8.5409375 -1.20265625 7.581875 -1.7578125 6.59375 C-3 4 -3 4 -3 1 C-2.01 0.67 -1.02 0.34 0 0 Z " fill="#D35547" transform="translate(235,185)"/>
<path d="M0 0 C5.94 0 11.88 0 18 0 C18 0.33 18 0.66 18 1 C16.55367187 1.19916016 16.55367187 1.19916016 15.078125 1.40234375 C13.18320313 1.66724609 13.18320313 1.66724609 11.25 1.9375 C9.99703125 2.11152344 8.7440625 2.28554688 7.453125 2.46484375 C4.90017407 2.86049338 2.4813709 3.30446422 0 4 C0 2.68 0 1.36 0 0 Z " fill="#DD4831" transform="translate(114,58)"/>
<path d="M0 0 C0.66 0 1.32 0 2 0 C2.33 1.65 2.66 3.3 3 5 C9.27 5.33 15.54 5.66 22 6 C22 6.33 22 6.66 22 7 C18.72924117 7.0580476 15.45861476 7.09361165 12.1875 7.125 C11.25873047 7.14175781 10.32996094 7.15851562 9.37304688 7.17578125 C8.48037109 7.18222656 7.58769531 7.18867187 6.66796875 7.1953125 C5.84578857 7.20578613 5.0236084 7.21625977 4.17651367 7.22705078 C2 7 2 7 -1 5 C-0.67 3.35 -0.34 1.7 0 0 Z " fill="#D74A37" transform="translate(161,52)"/>
<path d="M0 0 C0.52207031 0.18175781 1.04414063 0.36351562 1.58203125 0.55078125 C7.65749813 2.62559043 13.79305783 4.36415169 20 6 C19.67 6.66 19.34 7.32 19 8 C12.53253875 7.7066911 8.44936725 6.48759504 3 3 C2.01 2.67 1.02 2.34 0 2 C0 1.34 0 0.68 0 0 Z " fill="#CF5443" transform="translate(153,274)"/>
<path d="M0 0 C0.53109375 0.27714844 1.0621875 0.55429688 1.609375 0.83984375 C2.31578125 1.20207031 3.0221875 1.56429687 3.75 1.9375 C4.79414063 2.47697266 4.79414063 2.47697266 5.859375 3.02734375 C7.95922839 3.98147421 9.71015585 4.70678825 12 5 C12.99 4.34 13.98 3.68 15 3 C14.34 4.65 13.68 6.3 13 8 C9.97580475 7.41196203 6.98241547 6.77321882 4 6 C4 5.34 4 4.68 4 4 C2.68 3.34 1.36 2.68 0 2 C0 1.34 0 0.68 0 0 Z " fill="#FDE2DA" transform="translate(208,167)"/>
<path d="M0 0 C0.33 0 0.66 0 1 0 C1.66 5.28 2.32 10.56 3 16 C1.68 16 0.36 16 -1 16 C-0.67 10.72 -0.34 5.44 0 0 Z " fill="#FEF8F5" transform="translate(148,40)"/>
<path d="M0 0 C1.1055189 0.93590504 2.20935453 1.87379858 3.3125 2.8125 C3.92738281 3.33457031 4.54226562 3.85664063 5.17578125 4.39453125 C6.85424679 5.87172469 8.43882034 7.40039131 10 9 C3.61657459 8.39779006 3.61657459 8.39779006 1.0625 6.75 C-0.35440053 4.41628148 -0.21718696 2.67863922 0 0 Z " fill="#D7533E" transform="translate(137,261)"/>
<path d="M0 0 C2.375 1 2.375 1 4 2 C3 4 3 4 1.1875 4.75 C-1 5 -1 5 -2.9375 3.9375 C-5.07804319 2.68648295 -5.07804319 2.68648295 -7.75 3.875 C-8.86375 4.431875 -8.86375 4.431875 -10 5 C-7.66350781 -0.17366129 -5.58437527 -0.33506252 0 0 Z " fill="#FCD5CA" transform="translate(120,74)"/>
<path d="M0 0 C0 0.99 0 1.98 0 3 C-2.31 3 -4.62 3 -7 3 C-7 5.64 -7 8.28 -7 11 C-7.33 11 -7.66 11 -8 11 C-8 8.03 -8 5.06 -8 2 C-8.66 1.67 -9.32 1.34 -10 1 C-6.52674819 -0.1577506 -3.63932552 -0.06866652 0 0 Z " fill="#FEE0D6" transform="translate(176,31)"/>
<path d="M0 0 C0.66 0.33 1.32 0.66 2 1 C0.71344735 2.81613362 -0.57939995 4.62780954 -1.875 6.4375 C-2.95394531 7.95150391 -2.95394531 7.95150391 -4.0546875 9.49609375 C-6 12 -6 12 -8 13 C-8 11.68 -8 10.36 -8 9 C-7.34 9 -6.68 9 -6 9 C-5.67 8.01 -5.34 7.02 -5 6 C-4.01 5.67 -3.02 5.34 -2 5 C-2.33 4.01 -2.66 3.02 -3 2 C-2.01 1.34 -1.02 0.68 0 0 Z " fill="#FDDBD5" transform="translate(232,251)"/>
<path d="M0 0 C0.66 0 1.32 0 2 0 C2 1.65 2 3.3 2 5 C3.98 5 5.96 5 8 5 C8 5.66 8 6.32 8 7 C5.03 7 2.06 7 -1 7 C-1.04254356 5.00045254 -1.04080783 2.99958364 -1 1 C-0.67 0.67 -0.34 0.34 0 0 Z " fill="#FEF4EC" transform="translate(98,93)"/>
<path d="M0 0 C1.485 0.99 1.485 0.99 3 2 C2.67 6.29 2.34 10.58 2 15 C1.34 15 0.68 15 0 15 C0 10.05 0 5.1 0 0 Z " fill="#FEF9F9" transform="translate(180,40)"/>
<path d="M0 0 C1.65 0 3.3 0 5 0 C5 1.65 5 3.3 5 5 C4.34 5 3.68 5 3 5 C3 6.65 3 8.3 3 10 C2.690625 9.360625 2.38125 8.72125 2.0625 8.0625 C1.1654837 6.06389179 1.1654837 6.06389179 0 5 C-0.04063832 3.33382885 -0.042721 1.66611905 0 0 Z " fill="#FDF7F4" transform="translate(204,84)"/>
<path d="M0 0 C1.32 0 2.64 0 4 0 C4 1.65 4 3.3 4 5 C3.34 4.34 2.68 3.68 2 3 C0.05909174 4.94090826 0.60080565 8.47293902 0.4375 11.0625 C0.35371094 12.35285156 0.26992187 13.64320312 0.18359375 14.97265625 C0.12300781 15.97167969 0.06242187 16.97070312 0 18 C-0.33 18 -0.66 18 -1 18 C-1.02684312 15.18743719 -1.04676188 12.37512759 -1.0625 9.5625 C-1.07087891 8.76005859 -1.07925781 7.95761719 -1.08789062 7.13085938 C-1.0965143 5.08704779 -1.0522815 3.04316098 -1 1 C-0.67 0.67 -0.34 0.34 0 0 Z " fill="#D16F62" transform="translate(102,34)"/>
<path d="M0 0 C1.65 0 3.3 0 5 0 C4.34 0.66 3.68 1.32 3 2 C3 3.32 3 4.64 3 6 C3.99 6.33 4.98 6.66 6 7 C6.33 5.68 6.66 4.36 7 3 C7 4.65 7 6.3 7 8 C4.69 8 2.38 8 0 8 C0 5.36 0 2.72 0 0 Z " fill="#CD4E3E" transform="translate(101,89)"/>
<path d="M0 0 C0.99 0.33 1.98 0.66 3 1 C1.515 2.299375 1.515 2.299375 0 3.625 C-2.53414634 6.12345413 -2.96317186 6.66854671 -3.375 10.375 C-3.189375 11.674375 -3.189375 11.674375 -3 13 C-4.5 11.75 -4.5 11.75 -6 10 C-6 8.68 -6 7.36 -6 6 C-5.34 6 -4.68 6 -4 6 C-4 5.34 -4 4.68 -4 4 C-3.34 4 -2.68 4 -2 4 C-1.34 2.68 -0.68 1.36 0 0 Z " fill="#FDE2DB" transform="translate(236,178)"/>
<path d="M0 0 C0.33 0 0.66 0 1 0 C2.28571429 8.42857143 2.28571429 8.42857143 1 13 C0.34 13 -0.32 13 -1 13 C-1 13.66 -1 14.32 -1 15 C-2.65 14.67 -4.3 14.34 -6 14 C-6 13.34 -6 12.68 -6 12 C-4.02 12 -2.04 12 0 12 C0 8.04 0 4.08 0 0 Z " fill="#DB4839" transform="translate(210,89)"/>
<path d="M0 0 C1.65 0 3.3 0 5 0 C4.01 0.495 4.01 0.495 3 1 C3 3.97 3 6.94 3 10 C2.01 9.34 1.02 8.68 0 8 C-0.40843923 5.28796348 -0.13336867 2.7562858 0 0 Z " fill="#FEEDEB" transform="translate(180,32)"/>
<path d="M0 0 C0.33 0 0.66 0 1 0 C1.06058594 0.80824219 1.12117187 1.61648437 1.18359375 2.44921875 C1.26738281 3.51785156 1.35117188 4.58648437 1.4375 5.6875 C1.51871094 6.74324219 1.59992188 7.79898438 1.68359375 8.88671875 C1.92704753 11.96474937 1.92704753 11.96474937 2.66015625 14.76953125 C2.77230469 15.50558594 2.88445312 16.24164063 3 17 C2.34 17.66 1.68 18.32 1 19 C0 18 0 18 -0.11352539 16.23413086 C-0.10828857 15.48526611 -0.10305176 14.73640137 -0.09765625 13.96484375 C-0.09443359 13.15595703 -0.09121094 12.34707031 -0.08789062 11.51367188 C-0.07951172 10.66353516 -0.07113281 9.81339844 -0.0625 8.9375 C-0.05798828 8.08349609 -0.05347656 7.22949219 -0.04882812 6.34960938 C-0.03700373 4.23304337 -0.01906769 2.11651315 0 0 Z " fill="#D84A36" transform="translate(144,74)"/>
<path d="M0 0 C2.31 0 4.62 0 7 0 C7 0.33 7 0.66 7 1 C5.35 1 3.7 1 2 1 C2.34786708 2.97536745 2.34786708 2.97536745 3 5 C3.66 5.33 4.32 5.66 5 6 C5 6.66 5 7.32 5 8 C3.35 8 1.7 8 0 8 C0 5.36 0 2.72 0 0 Z " fill="#D16052" transform="translate(169,34)"/>
<path d="M0 0 C0.66 0 1.32 0 2 0 C4.09350689 3.4019487 4.17942163 6.05272412 4 10 C3.34 9.67 2.68 9.34 2 9 C2 8.34 2 7.68 2 7 C1.34 7 0.68 7 0 7 C0 4.69 0 2.38 0 0 Z " fill="#DC5949" transform="translate(220,201)"/>
<path d="M0 0 C0.33 0.66 0.66 1.32 1 2 C-0.1446875 3.5778125 -0.1446875 3.5778125 -1.3125 5.1875 C-3.35863783 8.04744265 -5.24405042 10.95019284 -7 14 C-7.33 13.34 -7.66 12.68 -8 12 C-7.109375 9.94140625 -7.109375 9.94140625 -5.75 7.5625 C-5.09257812 6.38880859 -5.09257812 6.38880859 -4.421875 5.19140625 C-3.10696298 3.16485229 -1.77572107 1.62426251 0 0 Z " fill="#D26155" transform="translate(149,192)"/>
<path d="M0 0 C1.32 0.66 2.64 1.32 4 2 C1.42215154 4.64752004 -0.91648098 6.94432065 -4 9 C-4 7.35 -4 5.7 -4 4 C-3.34 4 -2.68 4 -2 4 C-2 3.34 -2 2.68 -2 2 C-1.34 2 -0.68 2 0 2 C0 1.34 0 0.68 0 0 Z " fill="#FCE0D7" transform="translate(150,186)"/>
<path d="M0 0 C0.66 0 1.32 0 2 0 C1.42655063 2.86724686 1.1385485 3.8614515 -1 6 C-4.5625 5.75 -4.5625 5.75 -8 5 C-8.33 4.34 -8.66 3.68 -9 3 C-8.071875 3.020625 -7.14375 3.04125 -6.1875 3.0625 C-2.97713989 3.15769604 -2.97713989 3.15769604 0 2 C0 1.34 0 0.68 0 0 Z " fill="#FCD9CF" transform="translate(106,52)"/>
<path d="M0 0 C1.65 0 3.3 0 5 0 C4.01 0.33 3.02 0.66 2 1 C2.18415432 3.94091587 2.18415432 3.94091587 3 7 C4.95163118 8.43637698 4.95163118 8.43637698 7 9 C4.69 9 2.38 9 0 9 C0 6.03 0 3.06 0 0 Z " fill="#CB6250" transform="translate(119,45)"/>
<path d="M0 0 C1.65 0 3.3 0 5 0 C5 1.98 5 3.96 5 6 C3.35 5.67 1.7 5.34 0 5 C0 3.35 0 1.7 0 0 Z " fill="#E7432A" transform="translate(121,35)"/>
<path d="M0 0 C0 3.19633438 -0.33810135 4.34096216 -2 7 C-3.9375 8.8125 -3.9375 8.8125 -6 10 C-6.99 9.67 -7.98 9.34 -9 9 C-6.03 6.03 -3.06 3.06 0 0 Z " fill="#D8695B" transform="translate(241,176)"/>
<path d="M0 0 C0.66 0 1.32 0 2 0 C2.103125 0.598125 2.20625 1.19625 2.3125 1.8125 C3.08876455 4.28243264 4.07088921 5.32251235 6 7 C3.69 6.67 1.38 6.34 -1 6 C-1.042721 4.33388095 -1.04063832 2.66617115 -1 1 C-0.67 0.67 -0.34 0.34 0 0 Z " fill="#FEF6F2" transform="translate(98,49)"/>
<path d="M0 0 C1.98 0.495 1.98 0.495 4 1 C3.01 2.485 3.01 2.485 2 4 C1.62687112 7.12919445 1.49469078 10.23569714 1.34375 13.3828125 C1.2303125 14.24648438 1.116875 15.11015625 1 16 C0.34 16.33 -0.32 16.66 -1 17 C-0.67 11.39 -0.34 5.78 0 0 Z " fill="#DC4735" transform="translate(193,317)"/>
<path d="M0 0 C4.875 4.625 4.875 4.625 6 8 C4.02 8 2.04 8 0 8 C0 5.36 0 2.72 0 0 Z " fill="#DA5542" transform="translate(131,253)"/>
<path d="M0 0 C0.33 0 0.66 0 1 0 C1.33 3.3 1.66 6.6 2 10 C0.68 10 -0.64 10 -2 10 C-2.33 8.35 -2.66 6.7 -3 5 C-2.01 5.33 -1.02 5.66 0 6 C0 4.02 0 2.04 0 0 Z " fill="#FED7CF" transform="translate(159,91)"/>
<path d="M0 0 C0.66 0.33 1.32 0.66 2 1 C1.67 2.98 1.34 4.96 1 7 C-0.32 6.67 -1.64 6.34 -3 6 C-2.625 3.5625 -2.625 3.5625 -2 1 C-1.34 0.67 -0.68 0.34 0 0 Z " fill="#EA4129" transform="translate(106,89)"/>
<path d="M0 0 C1.65 0 3.3 0 5 0 C5.33 1.65 5.66 3.3 6 5 C5.34 5 4.68 5 4 5 C4 4.34 4 3.68 4 3 C2.68 3 1.36 3 0 3 C-0.33 3.66 -0.66 4.32 -1 5 C-0.67 3.35 -0.34 1.7 0 0 Z " fill="#FDCCC0" transform="translate(151,74)"/>
<path d="M0 0 C0.66 0 1.32 0 2 0 C3.29243536 4.1196377 4.26252625 7.66831683 4 12 C3.34 12 2.68 12 2 12 C1.66430703 10.37548581 1.3315204 8.75037083 1 7.125 C0.814375 6.22007813 0.62875 5.31515625 0.4375 4.3828125 C0 2 0 2 0 0 Z " fill="#FEF7F1" transform="translate(187,44)"/>
<path d="M0 0 C2.4375 0.375 2.4375 0.375 5 1 C6.39935013 3.79870027 6.25265405 5.90498792 6 9 C4.484375 10.69140625 4.484375 10.69140625 3 12 C3.03480469 11.38511719 3.06960937 10.77023438 3.10546875 10.13671875 C3.13253906 9.32847656 3.15960938 8.52023438 3.1875 7.6875 C3.22230469 6.88699219 3.25710937 6.08648437 3.29296875 5.26171875 C2.93801608 2.52148416 2.10633718 1.70828921 0 0 Z " fill="#D55543" transform="translate(189,31)"/>
<path d="M0 0 C2.12161334 2.12161334 2.92986249 3.7733159 4.125 6.5 C4.47820312 7.2940625 4.83140625 8.088125 5.1953125 8.90625 C6 11 6 11 6 13 C5.34 13 4.68 13 4 13 C0.75400216 8.84512277 0.43173627 5.09448798 0 0 Z " fill="#D7695B" transform="translate(125,240)"/>
<path d="M0 0 C10.55808656 1.92710706 10.55808656 1.92710706 15 4 C11.82255978 5.01562016 9.62171611 4.96666643 6.375 4.25 C5.21097656 4.01023438 5.21097656 4.01023438 4.0234375 3.765625 C2 3 2 3 0 0 Z " fill="#FEE0D9" transform="translate(192,162)"/>
<path d="M0 0 C0.99 0 1.98 0 3 0 C3 2.64 3 5.28 3 8 C1.68 8 0.36 8 -1 8 C-0.67 5.36 -0.34 2.72 0 0 Z " fill="#FDF3F2" transform="translate(149,86)"/>
<path d="M0 0 C3.14158949 0.93398606 4.7325148 1.66794941 6.8125 4.25 C8.16280181 7.37701471 8.23523553 9.6282908 8 13 C7.731875 12.443125 7.46375 11.88625 7.1875 11.3125 C5.99300335 8.91066602 5.99300335 8.91066602 4.375 6.375 C3 4 3 4 3 2 C2.01 1.67 1.02 1.34 0 1 C0 0.67 0 0.34 0 0 Z " fill="#D15648" transform="translate(58,55)"/>
<path d="M0 0 C1.5 1.25 1.5 1.25 3 3 C3 4.32 3 5.64 3 7 C1.68 7.33 0.36 7.66 -1 8 C-1.125 2.25 -1.125 2.25 0 0 Z " fill="#DC492D" transform="translate(103,36)"/>
<path d="M0 0 C8.19256018 0.35010941 8.19256018 0.35010941 11.5625 3.0625 C12.036875 3.701875 12.51125 4.34125 13 5 C11.39402675 4.54803755 9.79027492 4.08817673 8.1875 3.625 C6.84751953 3.24214844 6.84751953 3.24214844 5.48046875 2.8515625 C3 2 3 2 0 0 Z " fill="#FAD6CC" transform="translate(157,275)"/>
<path d="M0 0 C5.61 0 11.22 0 17 0 C15.68 1.32 14.36 2.64 13 4 C13 3.01 13 2.02 13 1 C8.71 1 4.42 1 0 1 C0 0.67 0 0.34 0 0 Z " fill="#C65147" transform="translate(221,154)"/>
<path d="M0 0 C2.4294516 3.6441774 2.16179575 5.71241272 2 10 C1.01 10 0.02 10 -1 10 C-0.67 6.7 -0.34 3.4 0 0 Z " fill="#C48073" transform="translate(153,82)"/>
<path d="M0 0 C0.33 0 0.66 0 1 0 C1 2.97 1 5.94 1 9 C0.01 8.67 -0.98 8.34 -2 8 C-2.33 6.35 -2.66 4.7 -3 3 C-2.01 3 -1.02 3 0 3 C0 2.01 0 1.02 0 0 Z " fill="#FEEDE5" transform="translate(140,48)"/>
<path d="M0 0 C0.33 0 0.66 0 1 0 C1 4.29 1 8.58 1 13 C-2.375 8.5 -2.375 8.5 -3 5 C-2.34 5 -1.68 5 -1 5 C-0.67 3.35 -0.34 1.7 0 0 Z " fill="#C9645F" transform="translate(137,31)"/>
<path d="M0 0 C2.475 0.495 2.475 0.495 5 1 C5 1.66 5 2.32 5 3 C6.32 3.66 7.64 4.32 9 5 C9 5.66 9 6.32 9 7 C5.18315774 5.44499019 2.80804268 2.96404505 0 0 Z " fill="#FBDCD4" transform="translate(141,264)"/>
<path d="M0 0 C1 3 1 3 0.14453125 5.0078125 C-0.29503906 5.70648438 -0.73460937 6.40515625 -1.1875 7.125 C-1.61417969 7.82882812 -2.04085937 8.53265625 -2.48046875 9.2578125 C-4.25479631 11.2921315 -5.36997598 11.62830496 -8 12 C-4 6 -4 6 0 0 Z " fill="#D05C4C" transform="translate(235,249)"/>
<path d="M0 0 C1.98 0 3.96 0 6 0 C4.37660195 1.70884005 2.70680947 3.37446717 1 5 C0.34 5 -0.32 5 -1 5 C-0.67 3.35 -0.34 1.7 0 0 Z " fill="#DA5643" transform="translate(141,172)"/>
<path d="M0 0 C0 0.99 0 1.98 0 3 C-3.63 3 -7.26 3 -11 3 C-8.89427904 -1.21144191 -4.11694326 -0.07767817 0 0 Z " fill="#FDDAD0" transform="translate(176,54)"/>
<path d="M0 0 C3.3 0 6.6 0 10 0 C10 0.33 10 0.66 10 1 C8.741875 1.2475 7.48375 1.495 6.1875 1.75 C3.16442273 2.48837994 2.1940517 2.79382006 0 5.125 C-0.33 5.74375 -0.66 6.3625 -1 7 C-0.67 4.69 -0.34 2.38 0 0 Z " fill="#D55040" transform="translate(96,29)"/>
<path d="M0 0 C2.31 0 4.62 0 7 0 C7 0.66 7 1.32 7 2 C8.65 2.33 10.3 2.66 12 3 C12 3.66 12 4.32 12 5 C8 3.66666667 4 2.33333333 0 1 C0 0.67 0 0.34 0 0 Z " fill="#FBD6D0" transform="translate(193,178)"/>
<path d="M0 0 C0.66 0.33 1.32 0.66 2 1 C0.93106782 2.03590338 -0.15578488 3.05333942 -1.25 4.0625 C-2.15492188 4.91521484 -2.15492188 4.91521484 -3.078125 5.78515625 C-4.02945313 6.38650391 -4.02945313 6.38650391 -5 7 C-6.32 6.67 -7.64 6.34 -9 6 C-6.03 4.02 -3.06 2.04 0 0 Z " fill="#D26357" transform="translate(217,269)"/>
<path d="M0 0 C1.21386936 3.64160808 0.6674695 4.33165469 -0.9375 7.6875 C-1.31777344 8.49574219 -1.69804687 9.30398437 -2.08984375 10.13671875 C-2.39019531 10.75160156 -2.69054687 11.36648437 -3 12 C-4.27099045 8.18702864 -3.45398157 6.6732166 -2 3 C-1.34 2.01 -0.68 1.02 0 0 Z " fill="#FDD3CD" transform="translate(238,239)"/>
<path d="M0 0 C0 1.98 0 3.96 0 6 C-1.32 6 -2.64 6 -4 6 C-3.625 3.5625 -3.625 3.5625 -3 1 C-1 0 -1 0 0 0 Z " fill="#E8422C" transform="translate(107,79)"/>
<path d="M0 0 C1.32 0 2.64 0 4 0 C4.33 0.99 4.66 1.98 5 3 C3.02 3.66 1.04 4.32 -1 5 C-0.67 3.35 -0.34 1.7 0 0 Z " fill="#FCF7F7" transform="translate(151,77)"/>
<path d="M0 0 C1.32 0 2.64 0 4 0 C3.67 1.65 3.34 3.3 3 5 C2.01 5.33 1.02 5.66 0 6 C0 4.02 0 2.04 0 0 Z " fill="#FDD4CD" transform="translate(210,74)"/>
<path d="M0 0 C0.66 0 1.32 0 2 0 C2 0.66 2 1.32 2 2 C3.65 2 5.3 2 7 2 C7 2.66 7 3.32 7 4 C4.69 4.33 2.38 4.66 0 5 C0 3.35 0 1.7 0 0 Z " fill="#DB4C3A" transform="translate(143,99)"/>
<path d="M0 0 C1.65 0 3.3 0 5 0 C5 1.32 5 2.64 5 4 C3.35 4 1.7 4 0 4 C0 2.68 0 1.36 0 0 Z " fill="#FCCAB5" transform="translate(101,85)"/>
<path d="M0 0 C0.33 0 0.66 0 1 0 C1 3.96 1 7.92 1 12 C0.01 11.01 -0.98 10.02 -2 9 C-2 8.01 -2 7.02 -2 6 C-1.34 6 -0.68 6 0 6 C0 4.02 0 2.04 0 0 Z " fill="#CF5448" transform="translate(108,80)"/>
<path d="M0 0 C0.99 0 1.98 0 3 0 C2.7834375 0.7425 2.7834375 0.7425 2.5625 1.5 C1.78005593 4.97752922 1.41305236 8.45955123 1 12 C0.67 12 0.34 12 0 12 C0 8.04 0 4.08 0 0 Z " fill="#C9725F" transform="translate(183,45)"/>
<path d="M0 0 C0.99 0.33 1.98 0.66 3 1 C3 3.31 3 5.62 3 8 C2.01 8.495 2.01 8.495 1 9 C0.67 6.03 0.34 3.06 0 0 Z " fill="#FEF0EB" transform="translate(107,47)"/>
<path d="M0 0 C1.65 0 3.3 0 5 0 C5 1.98 5 3.96 5 6 C3.0625 5.25 3.0625 5.25 1 4 C0.25 1.875 0.25 1.875 0 0 Z " fill="#D64D3B" transform="translate(132,31)"/>
<path d="M0 0 C3.3 1.98 6.6 3.96 10 6 C7 7 7 7 5.17578125 6.22265625 C3.45052083 5.1484375 1.72526042 4.07421875 0 3 C0 2.01 0 1.02 0 0 Z " fill="#FBD5CA" transform="translate(153,254)"/>
<path d="M0 0 C0.33 0.99 0.66 1.98 1 3 C-2.80504787 4.79682816 -3.70600835 5.07349791 -8 4 C-5.36 2.68 -2.72 1.36 0 0 Z " fill="#D15A4A" transform="translate(165,180)"/>
<path d="M0 0 C0.99 0.99 1.98 1.98 3 3 C2.67 3.99 2.34 4.98 2 6 C-1.875 4.25 -1.875 4.25 -3 2 C-2.01 2 -1.02 2 0 2 C0 1.34 0 0.68 0 0 Z " fill="#F9C6BF" transform="translate(121,100)"/>
<path d="M0 0 C0.66 1.32 1.32 2.64 2 4 C1.01 4 0.02 4 -1 4 C-1.33 4.66 -1.66 5.32 -2 6 C-2.99 5.34 -3.98 4.68 -5 4 C-3.35 2.68 -1.7 1.36 0 0 Z " fill="#DD533E" transform="translate(59,98)"/>
<path d="M0 0 C2.64 0.66 5.28 1.32 8 2 C7.67 2.66 7.34 3.32 7 4 C3.9375 4.625 3.9375 4.625 1 5 C0.67 3.35 0.34 1.7 0 0 Z " fill="#D94A39" transform="translate(97,56)"/>
<path d="M0 0 C0.66 0 1.32 0 2 0 C2 1.32 2 2.64 2 4 C2.66 4 3.32 4 4 4 C3.67 4.66 3.34 5.32 3 6 C1.68 6 0.36 6 -1 6 C-0.67 4.02 -0.34 2.04 0 0 Z " fill="#DB4A35" transform="translate(134,52)"/>
<path d="M0 0 C0.99 0 1.98 0 3 0 C3.33 1.65 3.66 3.3 4 5 C2.35 5 0.7 5 -1 5 C-0.67 3.35 -0.34 1.7 0 0 Z " fill="#F0402A" transform="translate(122,47)"/>
<path d="M0 0 C2.5625 2.25 2.5625 2.25 5 5 C4.8125 7.3125 4.8125 7.3125 4 9 C0 2.25 0 2.25 0 0 Z " fill="#FCDBD1" transform="translate(129,247)"/>
<path d="M0 0 C0.66 0.33 1.32 0.66 2 1 C-0.97 3.475 -0.97 3.475 -4 6 C-4.33 4.68 -4.66 3.36 -5 2 C-2.625 0.9375 -2.625 0.9375 0 0 Z " fill="#D84F3B" transform="translate(230,160)"/>
</svg>
