<?xml version="1.0" standalone="no"?>
<!DOCTYPE svg PUBLIC "-//W3C//DTD SVG 20010904//EN"
 "http://www.w3.org/TR/2001/REC-SVG-20010904/DTD/svg10.dtd">
<svg version="1.0" xmlns="http://www.w3.org/2000/svg"
 width="366.000000pt" height="366.000000pt" viewBox="0 0 366.000000 366.000000"
 preserveAspectRatio="xMidYMid meet">

<g transform="translate(0.000000,366.000000) scale(0.100000,-0.100000)"
fill="#000000" stroke="none">
<path d="M0 1830 l0 -1830 1825 0 1825 0 0 1830 0 1830 -1825 0 -1825 0 0
-1830z m786 1504 c42 -20 72 -68 80 -128 l7 -46 -65 0 c-65 0 -66 0 -72 32 -8
39 -23 58 -47 58 -33 0 -49 -39 -49 -121 l0 -77 39 15 c81 32 167 -16 191
-108 16 -60 8 -173 -17 -230 -28 -64 -72 -92 -148 -97 -81 -5 -140 25 -175 88
-25 44 -25 49 -25 270 0 220 1 226 25 274 32 64 73 86 158 86 38 0 78 -7 98
-16z m497 -15 c17 -22 23 -75 9 -95 -11 -16 -48 -34 -71 -34 -19 0 -21 -6 -21
-60 0 -57 -1 -60 -25 -60 l-25 0 0 133 c0 74 3 137 8 141 15 16 106 -3 125
-25z m145 8 c3 -13 -4 -17 -27 -17 -29 0 -31 -2 -31 -40 0 -36 3 -40 25 -40
16 0 25 -6 25 -15 0 -9 -9 -15 -25 -15 -23 0 -25 -4 -25 -45 0 -43 1 -45 30
-45 23 0 30 -4 30 -20 0 -18 -7 -20 -55 -20 l-55 0 0 140 0 140 52 -3 c40 -2
54 -7 56 -20z m117 14 c5 -9 55 -245 55 -263 0 -22 -44 -2 -50 22 -4 16 -14
26 -28 28 -18 3 -23 -3 -28 -27 -5 -24 -12 -31 -30 -31 -13 0 -24 4 -24 9 0
17 50 253 55 262 4 5 15 9 25 9 10 0 21 -4 25 -9z m202 -18 c7 -9 13 -32 13
-51 0 -29 -3 -33 -22 -30 -18 2 -24 11 -26 36 -2 24 -8 32 -23 32 -17 0 -19
-8 -19 -100 0 -92 2 -100 19 -100 15 0 21 8 23 33 2 24 8 33 26 35 19 3 22 -1
22 -32 0 -67 -69 -99 -121 -57 -22 18 -24 26 -24 121 0 96 1 103 25 122 29 24
87 19 107 -9z m151 5 c3 -14 -3 -18 -27 -18 -29 0 -31 -2 -31 -40 0 -36 3 -40
25 -40 16 0 25 -6 25 -15 0 -9 -9 -15 -25 -15 -23 0 -25 -4 -25 -45 0 -43 1
-45 29 -45 27 0 47 -20 34 -34 -4 -3 -30 -6 -60 -6 l-53 0 0 139 0 139 52 -1
c41 -2 53 -6 56 -19z m312 -98 c5 -107 6 -115 25 -115 19 0 20 8 23 113 3 112
3 112 27 112 l25 0 0 -115 c0 -131 -11 -155 -72 -155 -65 0 -78 28 -78 163 0
107 3 120 30 115 12 -3 16 -25 20 -118z m238 104 c28 -19 30 -64 3 -64 -11 0
-21 9 -24 21 -3 12 -12 19 -19 17 -28 -10 -18 -40 26 -88 52 -55 60 -96 26
-130 -41 -41 -120 -12 -120 45 0 34 33 33 49 -1 13 -29 34 -28 39 2 2 12 -14
36 -43 64 -37 37 -45 50 -45 82 0 40 27 68 65 68 11 0 31 -7 43 -16z m170 -6
c2 -13 -3 -18 -17 -18 -20 0 -21 -5 -21 -120 l0 -120 -25 0 -24 0 -3 118 c-3
108 -5 117 -22 117 -24 0 -33 24 -15 36 8 5 39 8 69 7 43 -2 55 -7 58 -20z
m70 -120 l3 -138 -26 0 -25 0 0 141 c0 140 0 140 23 137 21 -3 22 -6 25 -140z
m158 117 c32 -32 30 -78 -3 -83 -20 -3 -23 1 -23 28 0 34 -26 52 -41 29 -5 -8
-8 -52 -7 -99 3 -77 5 -85 23 -85 15 0 21 8 23 33 3 28 7 33 25 30 30 -4 34
-47 7 -81 -27 -34 -80 -37 -110 -7 -17 17 -20 33 -20 118 0 102 3 112 35 130
32 18 64 14 91 -13z m162 3 c3 -15 -4 -18 -32 -18 -35 0 -36 -1 -36 -40 0 -36
3 -40 25 -40 16 0 25 -6 25 -15 0 -9 -9 -15 -25 -15 -23 0 -25 -4 -25 -45 0
-45 0 -45 36 -45 28 0 35 -3 32 -17 -2 -14 -15 -19 -61 -21 l-57 -3 0 134 c0
73 3 137 7 141 4 4 30 6 58 4 38 -2 51 -7 53 -20z m-2578 -338 l0 -350 -70 0
-70 0 0 280 c0 154 -2 280 -4 280 -2 0 -20 -7 -39 -15 -53 -22 -57 -20 -57 33
0 47 2 50 38 66 20 9 48 26 62 36 18 14 41 20 83 20 l57 0 0 -350z m1700 234
c0 -135 -7 -154 -55 -154 -39 0 -49 24 -15 35 18 6 20 15 20 121 l0 114 25 0
25 0 0 -116z m-170 -138 c0 -18 -7 -39 -15 -46 -20 -17 -32 -5 -15 15 8 10 9
15 1 15 -6 0 -11 11 -11 25 0 18 5 25 20 25 16 0 20 -7 20 -34z m-716 -184 c3
-5 14 -55 26 -113 11 -57 23 -114 26 -126 4 -19 0 -23 -20 -23 -18 0 -25 7
-29 30 -5 22 -12 30 -27 30 -15 0 -22 -8 -26 -30 -5 -23 -12 -30 -30 -30 -13
0 -24 4 -24 9 0 4 11 63 25 131 14 68 25 124 25 126 0 8 49 4 54 -4z m136 -59
c15 -35 29 -66 33 -69 3 -4 6 24 5 62 -2 64 0 69 20 72 22 3 22 1 22 -132 0
-127 -1 -136 -19 -136 -15 0 -26 18 -48 73 l-28 72 -3 -71 c-2 -62 -6 -73 -22
-77 -19 -5 -20 1 -20 135 0 127 2 139 17 136 11 -2 28 -28 43 -65z m242 37
c14 -18 18 -40 18 -109 0 -116 -10 -131 -91 -131 l-59 0 0 136 0 136 57 -4
c43 -4 61 -10 75 -28z m228 10 c26 -26 26 -60 1 -60 -10 0 -21 9 -24 20 -7 28
-37 26 -37 -3 0 -13 18 -39 45 -66 53 -51 61 -96 23 -131 -43 -40 -118 -10
-118 47 0 30 32 31 45 1 6 -13 17 -23 25 -23 31 0 20 36 -25 84 -34 37 -47 58
-47 82 -2 60 70 91 112 49z m170 0 c0 -13 -7 -20 -20 -20 -19 0 -20 -7 -20
-115 0 -123 3 -115 -47 -115 -9 0 -10 1 -11 128 -2 95 -3 102 -22 102 -19 0
-27 20 -13 33 3 4 35 7 70 7 56 0 63 -2 63 -20z m148 -3 c20 -21 21 -82 0
-103 -14 -14 -14 -21 3 -77 10 -34 19 -63 19 -65 0 -2 -12 -2 -27 0 -25 3 -30
9 -43 61 -8 31 -18 57 -22 57 -4 0 -8 -27 -8 -60 l0 -60 -30 0 -30 0 0 128 c0
71 3 132 8 136 13 14 112 0 130 -17z m173 4 c22 -18 24 -26 24 -120 0 -113 -7
-128 -67 -138 -30 -4 -41 -1 -62 20 -24 24 -26 33 -26 117 0 83 2 93 25 115
29 30 74 32 106 6z m117 -53 l31 -73 1 73 c0 69 1 73 21 70 20 -3 21 -9 20
-123 0 -66 0 -126 -1 -132 0 -7 -8 -13 -18 -13 -12 0 -25 20 -44 68 l-27 67 0
-67 c-1 -66 -2 -68 -26 -68 l-25 0 0 135 c0 125 1 135 19 135 13 0 27 -20 49
-72z m230 55 c12 -10 22 -31 24 -48 3 -26 0 -30 -22 -30 -20 0 -26 6 -28 28
-2 19 -9 27 -23 27 -17 0 -19 -8 -19 -95 0 -78 3 -97 16 -102 19 -7 34 13 34
45 0 13 -6 22 -16 22 -9 0 -14 7 -12 18 2 12 13 17 38 17 l35 0 0 -70 c0 -57
-3 -69 -15 -66 -18 4 -27 4 -60 -4 -18 -5 -34 0 -50 13 -24 19 -25 26 -25 122
0 95 2 103 24 121 29 24 72 24 99 2z m-1488 -558 l0 -135 -25 0 -25 0 0 135 0
135 25 0 25 0 0 -135z m98 73 l27 -63 5 60 c4 53 8 60 28 63 22 3 22 3 22
-132 0 -127 -1 -136 -19 -136 -15 0 -26 18 -48 73 l-28 72 -3 -72 c-3 -64 -5
-73 -22 -73 -10 0 -21 8 -24 18 -3 13 -1 237 3 250 1 1 8 2 17 2 10 0 26 -24
42 -62z m226 40 c9 -12 16 -30 16 -40 0 -25 -37 -23 -45 2 -8 24 -33 26 -42 4
-4 -10 10 -32 40 -62 50 -52 65 -89 47 -122 -27 -51 -110 -43 -129 12 -13 35
-13 33 16 42 17 6 22 2 25 -16 2 -15 10 -23 22 -23 34 0 28 23 -18 73 -56 59
-67 101 -37 131 29 29 85 28 105 -1z m166 2 c0 -13 -7 -20 -20 -20 -11 0 -20
-6 -21 -12 0 -7 0 -59 1 -115 l1 -103 -30 0 -31 0 0 115 c0 108 -1 115 -20
115 -13 0 -20 7 -20 20 0 18 7 20 70 20 63 0 70 -2 70 -20z m70 -115 l0 -135
-30 0 -30 0 0 135 0 135 30 0 30 0 0 -135z m150 115 c0 -13 -7 -20 -20 -20
-12 0 -20 -7 -20 -17 -1 -10 -1 -62 -1 -115 l0 -98 -30 0 -29 0 0 115 c0 108
-1 115 -20 115 -13 0 -20 7 -20 20 0 18 7 20 70 20 63 0 70 -2 70 -20z m60
-88 c0 -108 8 -136 36 -125 11 4 14 32 14 119 l0 114 25 0 25 0 0 -114 c0
-135 -12 -160 -75 -160 -63 0 -75 25 -75 160 l0 114 25 0 25 0 0 -108z m250
88 c0 -13 -7 -20 -20 -20 -19 0 -20 -7 -20 -115 l0 -115 -25 0 -25 0 0 115 c0
108 -1 115 -20 115 -13 0 -20 7 -20 20 0 18 7 20 65 20 58 0 65 -2 65 -20z
m70 -115 l0 -135 -25 0 -25 0 0 135 0 135 25 0 25 0 0 -135z m161 116 c20 -16
24 -30 27 -94 7 -126 -25 -178 -100 -162 -47 11 -58 38 -58 142 0 80 3 96 20
113 26 26 80 26 111 1z m118 -51 l26 -64 3 68 c3 63 4 67 25 64 21 -3 22 -8
25 -136 3 -132 2 -133 -19 -130 -16 2 -28 20 -48 68 l-26 64 -3 -67 c-3 -64
-4 -67 -27 -67 l-25 0 0 136 c0 132 0 135 21 132 16 -2 28 -20 48 -68z m207
62 c17 -11 36 -51 29 -62 -11 -17 -42 -11 -48 10 -7 27 -37 26 -37 -2 0 -12
19 -39 45 -65 36 -34 45 -49 45 -77 0 -44 -41 -80 -80 -71 -51 12 -81 77 -40
88 15 4 22 -1 26 -19 4 -15 13 -24 25 -24 33 0 21 38 -26 84 -50 49 -60 93
-28 128 16 18 68 24 89 10z m-106 -439 c0 -47 -34 -91 -81 -103 -22 -6 -43 -9
-46 -6 -3 3 -2 22 1 42 10 53 50 86 114 93 7 0 12 -10 12 -26z m-195 -43 c19
-36 19 -42 0 -87 l-15 -36 -29 27 c-38 36 -45 67 -26 111 13 32 17 35 35 25
11 -6 27 -24 35 -40z m-101 -92 c20 -28 20 -88 1 -114 -14 -18 -16 -18 -45 14
-32 35 -38 73 -19 116 10 20 15 23 30 16 10 -6 25 -20 33 -32z m154 -16 c-7
-10 -36 -42 -64 -72 -51 -55 -94 -125 -94 -154 0 -8 12 -24 26 -35 l27 -21
-32 0 c-36 0 -38 -9 -17 -88 10 -42 11 -52 0 -52 -11 0 -25 46 -36 122 -3 15
-7 15 -40 3 -101 -35 -126 -81 -137 -258 -10 -147 -29 -199 -103 -274 -58 -58
-145 -103 -259 -132 l-74 -19 -3 -80 -3 -80 78 -8 c77 -7 278 0 361 12 l42 7
0 52 c0 39 4 54 16 59 20 8 298 8 318 0 14 -5 16 -30 16 -174 0 -144 -2 -169
-16 -174 -31 -12 -309 -7 -322 6 -7 7 -12 33 -12 59 l0 47 -97 12 c-74 9 -201
9 -527 1 -236 -6 -455 -11 -487 -11 l-57 0 -4 50 c-1 28 -2 54 0 59 2 5 116 7
267 3 l265 -5 0 80 0 81 -47 7 c-83 12 -166 43 -243 91 -41 25 -94 56 -117 68
l-42 23 72 0 c81 1 137 18 202 63 25 17 67 41 93 52 l47 21 -42 12 c-86 26
-159 90 -196 174 -11 25 -35 103 -53 173 -40 153 -55 188 -102 229 l-35 31
105 -4 c100 -3 110 -6 190 -45 58 -29 113 -68 174 -122 126 -114 170 -136 264
-136 86 0 128 19 216 98 73 66 143 107 181 107 25 0 44 -10 75 -39 l42 -39 22
48 c23 50 154 201 167 193 4 -3 2 -12 -5 -21z m113 -28 c25 -13 28 -18 18 -30
-34 -41 -73 -47 -126 -21 -31 14 -29 24 10 47 39 24 59 25 98 4z m-86 -116
l28 -22 -23 -18 c-30 -24 -81 -23 -115 4 l-28 22 23 18 c30 24 81 23 115 -4z
m8 -769 c19 -26 11 -58 -17 -69 -34 -13 -328 -11 -356 3 -30 15 -37 49 -15 71
14 14 44 16 195 16 169 0 180 -1 193 -21z m-1579 -205 c10 -10 16 -33 16 -65
0 -69 -13 -89 -56 -89 -39 0 -54 24 -54 88 0 69 54 107 94 66z m1581 -298 c19
-28 10 -54 -22 -67 -13 -5 -95 -9 -181 -9 -167 0 -202 9 -202 50 0 45 20 50
210 50 178 0 180 0 195 -24z"/>
<path d="M652 2958 c-8 -8 -12 -45 -12 -100 0 -75 3 -91 20 -108 24 -24 30
-24 56 -6 16 12 20 29 22 99 5 99 -6 127 -46 127 -16 0 -33 -5 -40 -12z"/>
<path d="M1210 3287 c0 -14 -3 -33 -6 -42 -5 -13 -2 -16 17 -13 20 2 24 9 24
38 0 25 -5 36 -17 38 -13 3 -18 -3 -18 -21z"/>
<path d="M1510 3228 c0 -14 -3 -33 -6 -42 -4 -11 -1 -16 10 -16 18 0 22 45 6
70 -8 12 -10 9 -10 -12z"/>
<path d="M1211 2800 c-1 -14 -4 -35 -7 -47 -5 -17 -2 -23 10 -23 17 0 20 27 6
70 l-8 25 -1 -25z"/>
<path d="M1540 2771 c0 -79 3 -101 14 -101 28 0 37 27 34 112 -3 77 -4 83 -25
86 -23 3 -23 1 -23 -97z"/>
<path d="M2090 2830 c0 -29 4 -40 15 -40 23 0 41 46 25 65 -23 28 -40 18 -40
-25z"/>
<path d="M2267 2864 c-10 -10 -8 -166 2 -183 5 -8 16 -11 25 -8 24 9 19 190
-4 195 -9 1 -19 0 -23 -4z"/>
<path d="M2377 2423 c-4 -3 -7 -43 -7 -88 0 -60 4 -86 15 -95 27 -22 35 0 35
96 0 84 -2 94 -18 94 -10 0 -22 -3 -25 -7z"/>
<path d="M1610 810 l0 -80 30 0 30 0 0 80 0 80 -30 0 -30 0 0 -80z"/>
</g>
</svg>
