<?xml version="1.0" encoding="UTF-8"?>
<svg version="1.1" xmlns="http://www.w3.org/2000/svg" width="368" height="366">
<path d="M0 0 C121.44 0 242.88 0 368 0 C368 120.78 368 241.56 368 366 C246.56 366 125.12 366 0 366 C0 245.22 0 124.44 0 0 Z " fill="#D19F2A" transform="translate(0,0)"/>
<path d="M0 0 C0.76749492 0.00291284 1.53498984 0.00582568 2.32574219 0.00882679 C3.13513998 0.00797237 3.94453777 0.00711794 4.77846277 0.00623763 C7.51164669 0.00458035 10.24477027 0.01010822 12.97794861 0.01555592 C14.9288102 0.01583776 16.87967191 0.01568011 18.83053344 0.01511341 C24.14436356 0.01482533 29.45817131 0.02072377 34.7719962 0.02768737 C40.31870881 0.03391915 45.86542188 0.03452457 51.41213745 0.03571278 C61.92356821 0.03882662 72.43498863 0.04704071 82.94641483 0.05706227 C94.90993332 0.06822178 106.87345229 0.07373345 118.83697468 0.0787577 C143.45420285 0.08922328 168.07142183 0.10682373 192.68864197 0.12908131 C192.54010783 1.57571469 192.38813167 3.02199495 192.23469299 4.46811634 C192.15042871 5.27354972 192.06616443 6.0789831 191.97934669 6.90882355 C191.6569999 9.37074764 191.05649481 11.45785949 190.08707947 13.74236256 C189.60476867 14.89285084 189.60476867 14.89285084 189.11271423 16.06658131 C188.59342346 17.24220631 188.59342346 17.24220631 188.06364197 18.44158131 C187.70391296 19.2704485 187.34418396 20.09931568 186.97355407 20.95330006 C181.97865335 32.24707515 175.87779861 41.86472964 167.68864197 51.12908131 C167.13692322 51.76458912 166.58520447 52.40009693 166.01676697 53.05486256 C162.42322116 56.92415074 158.31106946 59.97661422 154.00114197 63.00408131 C153.44201111 63.39805104 152.88288025 63.79202076 152.30680603 64.19792897 C149.50193611 66.10957638 147.07659955 67.61800255 143.68864197 68.12908131 C143.68864197 68.78908131 143.68864197 69.44908131 143.68864197 70.12908131 C138.44689045 72.4711405 133.15601388 74.38101002 127.68864197 76.12908131 C127.54426697 77.26345631 127.39989197 78.39783131 127.25114197 79.56658131 C126.68864197 83.12908131 126.68864197 83.12908131 125.68864197 84.12908131 C123.69976703 84.22838663 121.7073378 84.25707593 119.71598572 84.25847584 C118.43796081 84.261628 117.15993591 84.26478016 115.84318298 84.26802784 C114.43750229 84.26623806 113.03182192 84.26418711 111.62614197 84.26189381 C110.19507083 84.26256689 108.76399981 84.26353695 107.33292907 84.26479298 C104.33006972 84.26626975 101.32724006 84.26411607 98.32438415 84.2594524 C94.46711625 84.25375511 90.60991793 84.25703423 86.75265259 84.26302487 C83.79650606 84.26663105 80.84037614 84.26549163 77.88422912 84.26289707 C76.46160127 84.26222796 75.03897194 84.26305568 73.61634582 84.26537663 C71.63133023 84.26790405 69.64630938 84.26337173 67.66129822 84.25847584 C65.96372375 84.25728245 65.96372375 84.25728245 64.23185486 84.25606495 C61.68864197 84.12908131 61.68864197 84.12908131 60.68864197 83.12908131 C60.64783414 81.12949767 60.6460984 79.12862877 60.68864197 77.12908131 C60.02477478 76.9473235 59.36090759 76.76556568 58.67692322 76.57830006 C53.90106819 75.21875009 49.87876303 73.84699768 45.68864197 71.12908131 C44.61356384 70.68435475 43.53848572 70.23962818 42.43082947 69.78142506 C25.13606919 62.46656994 13.24070543 47.66251279 3.68864197 32.12908131 C3.13305603 31.22802662 2.57747009 30.32697193 2.00504822 29.39861256 C0.27497449 26.41590386 -0.99349815 23.31390937 -2.31135803 20.12908131 C-2.84760803 19.07720631 -3.38385803 18.02533131 -3.93635803 16.94158131 C-6.08279986 12.0047651 -6.27775108 6.45578378 -6.31135803 1.12908131 C-4.5721692 -0.61010752 -2.31784498 0.00667185 0 0 Z " fill="#FEFDFC" transform="translate(86.31135803461075,233.8709186911583)"/>
<path d="M0 0 C0.66 0 1.32 0 2 0 C2 120.12 2 240.24 2 364 C122.45 364 242.9 364 367 364 C367 243.88 367 123.76 367 0 C367.33 0 367.66 0 368 0 C368 120.78 368 241.56 368 366 C246.56 366 125.12 366 0 366 C0 245.22 0 124.44 0 0 Z " fill="#DAC082" transform="translate(0,0)"/>
<path d="M0 0 C1.9496138 1.47567454 3.67599733 2.97157838 5.37109375 4.73046875 C6.03109375 5.39046875 6.69109375 6.05046875 7.37109375 6.73046875 C9.9294872 17.21988191 8.08108134 25.57363816 2.55834961 34.73876953 C0.4754352 37.91280547 -1.65544473 41.04657989 -3.81640625 44.16796875 C-5.27116763 46.28965486 -6.72313213 48.41326225 -8.171875 50.5390625 C-8.8114917 51.46517334 -9.4511084 52.39128418 -10.11010742 53.34545898 C-11.762981 55.72795301 -11.762981 55.72795301 -12.62890625 58.73046875 C-6.02890625 58.73046875 0.57109375 58.73046875 7.37109375 58.73046875 C7.37109375 62.36046875 7.37109375 65.99046875 7.37109375 69.73046875 C-4.83890625 69.73046875 -17.04890625 69.73046875 -29.62890625 69.73046875 C-29.62890625 58.29280773 -29.62890625 58.29280773 -25.25390625 52.60546875 C-24.33476845 51.32338256 -23.41818556 50.03946163 -22.50390625 48.75390625 C-21.79234375 47.77115723 -21.79234375 47.77115723 -21.06640625 46.76855469 C-18.6523212 43.34586753 -16.45652271 39.79149037 -14.25390625 36.23046875 C-13.84994629 35.5844873 -13.44598633 34.93850586 -13.02978516 34.27294922 C-11.88403535 32.43260347 -10.7555413 30.58256021 -9.62890625 28.73046875 C-9.24420166 28.11929199 -8.85949707 27.50811523 -8.46313477 26.87841797 C-6.36788543 23.4387054 -5.11300692 20.9094278 -5.31640625 16.85546875 C-5.34089844 16.09492187 -5.36539063 15.334375 -5.390625 14.55078125 C-5.44314294 12.71311634 -5.44314294 12.71311634 -6.62890625 11.73046875 C-8.96188058 11.68953938 -11.2959585 11.68805152 -13.62890625 11.73046875 C-14.28890625 15.69046875 -14.94890625 19.65046875 -15.62890625 23.73046875 C-20.24890625 23.73046875 -24.86890625 23.73046875 -29.62890625 23.73046875 C-30.19855445 15.75539391 -29.11956787 10.4236347 -24.62890625 3.73046875 C-18.4145271 -2.335949 -7.91864099 -3.82400939 0 0 Z " fill="#FCF9F2" transform="translate(59.62890625,30.26953125)"/>
<path d="M0 0 C2.8125 0.5625 2.8125 0.5625 5.8125 2.5625 C6 6.1875 6 6.1875 5.8125 9.5625 C5.1525 9.5625 4.4925 9.5625 3.8125 9.5625 C-0.12006858 18.83212595 -1.33481495 27.62575485 -0.1875 37.5625 C1.28360861 41.12464928 3.22523936 43.73115817 5.8125 46.5625 C12.07824669 53.8029184 14.96394595 60.58762081 14.9375 70.1875 C14.94136719 71.59902344 14.94136719 71.59902344 14.9453125 73.0390625 C14.8125 75.5625 14.8125 75.5625 13.8125 78.5625 C9.5225 78.5625 5.2325 78.5625 0.8125 78.5625 C0.83570313 77.46550781 0.85890625 76.36851562 0.8828125 75.23828125 C0.90157921 73.783861 0.91977844 72.32943336 0.9375 70.875 C0.95425781 70.15376953 0.97101563 69.43253906 0.98828125 68.68945312 C1.04998682 61.9326937 -0.22744992 58.25251212 -4.8125 53.375 C-8.1875 49.77270408 -8.1875 49.77270408 -8.1875 47.5625 C-8.8475 47.5625 -9.5075 47.5625 -10.1875 47.5625 C-10.39246094 47.00820312 -10.59742188 46.45390625 -10.80859375 45.8828125 C-11.07800781 45.15835938 -11.34742188 44.43390625 -11.625 43.6875 C-11.89183594 42.96820313 -12.15867188 42.24890625 -12.43359375 41.5078125 C-13.16666854 39.52601155 -13.16666854 39.52601155 -14.1875 37.5625 C-15.18335828 24.97200609 -14.15234568 13.69610866 -6.25 3.25 C-3.99540427 0.90243125 -3.35661198 0.59234329 0 0 Z " fill="#FCFAF4" transform="translate(141.1875,148.4375)"/>
<path d="M0 0 C5.97873264 0.11935764 5.97873264 0.11935764 7.08984375 1.23046875 C7.54570305 6.14520186 6.47376744 8.85634551 4.08984375 13.10546875 C0.11991348 21.34708171 -0.89389905 30.14003033 1.98046875 38.96484375 C4.01730729 42.90273159 6.68497693 45.9019153 9.71484375 49.10546875 C16.08750957 56.13067334 16.4335138 64.78252731 16.29296875 73.89453125 C16.08984375 76.23046875 16.08984375 76.23046875 15.08984375 77.23046875 C13.07020176 77.30290928 11.04817251 77.31424063 9.02734375 77.29296875 C7.92261719 77.28394531 6.81789062 77.27492188 5.6796875 77.265625 C4.82503906 77.25402344 3.97039062 77.24242187 3.08984375 77.23046875 C3.13625 76.21726562 3.18265625 75.2040625 3.23046875 74.16015625 C3.26801133 72.80862343 3.30440881 71.45705847 3.33984375 70.10546875 C3.39011719 69.10773438 3.39011719 69.10773438 3.44140625 68.08984375 C3.54299076 62.90903367 2.26861995 60.23922737 -0.91015625 56.23046875 C-1.48636719 55.5034375 -2.06257812 54.77640625 -2.65625 54.02734375 C-3.21441406 53.351875 -3.77257812 52.67640625 -4.34765625 51.98046875 C-12.04471642 41.97760822 -14.25783278 33.72143362 -12.91015625 21.23046875 C-11.56939631 15.40386836 -7.11181967 0.85807231 0 0 Z " fill="#FCF9F3" transform="translate(216.91015625,148.76953125)"/>
<path d="M0 0 C3.75 0.4375 3.75 0.4375 4.75 1.4375 C5.2058593 6.35223311 4.13392369 9.06337676 1.75 13.3125 C-2.21993027 21.55411296 -3.2337428 30.34706158 -0.359375 39.171875 C1.67746354 43.10976284 4.34513318 46.10894655 7.375 49.3125 C13.74766582 56.33770459 14.09367005 64.98955856 13.953125 74.1015625 C13.75 76.4375 13.75 76.4375 12.75 77.4375 C10.73035801 77.50994053 8.70832876 77.52127188 6.6875 77.5 C5.58277344 77.49097656 4.47804687 77.48195313 3.33984375 77.47265625 C2.48519531 77.46105469 1.63054687 77.44945312 0.75 77.4375 C0.83121094 76.38691406 0.91242188 75.33632812 0.99609375 74.25390625 C1.66145489 64.71196828 1.66145489 64.71196828 -2.4375 56.375 C-3.6895345 55.04455526 -4.9595075 53.73067544 -6.25 52.4375 C-7.19467163 51.22972354 -8.11415451 50.00156152 -9 48.75 C-9.36609375 48.25113281 -9.7321875 47.75226563 -10.109375 47.23828125 C-14.00166117 41.09326781 -14.79911407 36.46720866 -14.75 29.3125 C-14.74572998 28.37978271 -14.74145996 27.44706543 -14.73706055 26.48608398 C-14.55242841 18.976188 -13.18589906 12.92847166 -9.25 6.4375 C-8.86585938 5.76074219 -8.48171875 5.08398438 -8.0859375 4.38671875 C-5.81650356 1.02888281 -3.90082613 0.09039348 0 0 Z " fill="#FCFAF5" transform="translate(180.25,148.5625)"/>
<path d="M0 0 C7.92 0 15.84 0 24 0 C24 0.66 24 1.32 24 2 C24.9590625 2.2165625 24.9590625 2.2165625 25.9375 2.4375 C28 3 28 3 29 4 C29.35897436 10.46153846 29.35897436 10.46153846 27 14 C27.19458014 16.14177831 27.19458014 16.14177831 27.875 18.375 C28.71726408 21.68466588 29.22195387 24.55971498 29 28 C27.35 28 25.7 28 24 28 C23.66430703 26.37548581 23.3315204 24.75037083 23 23.125 C22.814375 22.22007813 22.62875 21.31515625 22.4375 20.3828125 C22 18 22 18 22 16 C21.34 16 20.68 16 20 16 C20 19.96 20 23.92 20 28 C13.4 28 6.8 28 0 28 C0 18.76 0 9.52 0 0 Z " fill="#DAB153" transform="translate(171,73)"/>
<path d="M0 0 C3.53444088 1.04220693 4.95074596 2.68933475 7.1328125 5.62890625 C7.72483492 8.76144851 7.60811798 11.76795168 7.4453125 14.94140625 C7.42275391 15.77736328 7.40019531 16.61332031 7.37695312 17.47460938 C7.3183186 19.52681774 7.22864465 21.57809827 7.1328125 23.62890625 C6.4728125 23.62890625 5.8128125 23.62890625 5.1328125 23.62890625 C4.4728125 24.94890625 3.8128125 26.26890625 3.1328125 27.62890625 C1.8953125 27.73203125 0.6578125 27.83515625 -0.6171875 27.94140625 C-1.66132813 28.02841797 -1.66132813 28.02841797 -2.7265625 28.1171875 C-4.8671875 27.62890625 -4.8671875 27.62890625 -7.10546875 25.67578125 C-9.49848039 21.5370915 -9.42211034 18.25953183 -9.3046875 13.56640625 C-9.31177734 12.76396484 -9.31886719 11.96152344 -9.32617188 11.13476562 C-9.28867104 7.65872633 -9.17497124 5.23324757 -7.58203125 2.10546875 C-5.24104552 0.08976806 -3.01214552 0.10040485 0 0 Z " fill="#F9F3E5" transform="translate(151.8671875,29.37109375)"/>
<path d="M0 0 C3.3 0 6.6 0 10 0 C10 0.66 10 1.32 10 2 C10.639375 2.144375 11.27875 2.28875 11.9375 2.4375 C14 3 14 3 15 4 C15.35897436 10.46153846 15.35897436 10.46153846 13 14 C13.19458014 16.14177831 13.19458014 16.14177831 13.875 18.375 C14.71726408 21.68466588 15.22195387 24.55971498 15 28 C13.35 28 11.7 28 10 28 C9.66430703 26.37548581 9.3315204 24.75037083 9 23.125 C8.814375 22.22007813 8.62875 21.31515625 8.4375 20.3828125 C8 18 8 18 8 16 C7.34 16 6.68 16 6 16 C6 19.96 6 23.92 6 28 C4.02 28 2.04 28 0 28 C0 18.76 0 9.52 0 0 Z " fill="#F4E8CD" transform="translate(185,73)"/>
<path d="M0 0 C3.96 0 7.92 0 12 0 C15 3 15 3 15.29296875 5.48046875 C15.25816406 6.37378906 15.22335938 7.26710938 15.1875 8.1875 C15.16042969 9.08855469 15.13335937 9.98960938 15.10546875 10.91796875 C15.07066406 11.60503906 15.03585938 12.29210938 15 13 C14.01 13 13.02 13 12 13 C12.2165625 13.59167969 12.433125 14.18335938 12.65625 14.79296875 C15.42179262 22.64147627 15.42179262 22.64147627 15 27 C13.35 26.67 11.7 26.34 10 26 C9.34 22.37 8.68 18.74 8 15 C7.34 15 6.68 15 6 15 C6 18.96 6 22.92 6 27 C4.02 27 2.04 27 0 27 C0 18.09 0 9.18 0 0 Z " fill="#F8F1E0" transform="translate(125,30)"/>
<path d="M0 0 C1.65 0 3.3 0 5 0 C5 3.96 5 7.92 5 12 C6.98 12 8.96 12 11 12 C11 8.37 11 4.74 11 1 C12.65 1 14.3 1 16 1 C16 9.91 16 18.82 16 28 C14.02 28 12.04 28 10 28 C10 24.04 10 20.08 10 16 C8.68 16 7.36 16 6 16 C6 19.96 6 23.92 6 28 C4.02 28 2.04 28 0 28 C0 18.76 0 9.52 0 0 Z " fill="#F6EED9" transform="translate(97,73)"/>
<path d="M0 0 C1.32 0 2.64 0 4 0 C5.65 3.63 7.3 7.26 9 11 C9.33 7.37 9.66 3.74 10 0 C11.32 0 12.64 0 14 0 C14 8.58 14 17.16 14 26 C10 25 10 25 8.734375 23.15234375 C7.82291667 21.1015625 6.91145833 19.05078125 6 17 C5.67 20.3 5.34 23.6 5 27 C3.35 27 1.7 27 0 27 C0 18.09 0 9.18 0 0 Z " fill="#F8F2E2" transform="translate(135,74)"/>
<path d="M0 0 C1.65 0 3.3 0 5 0 C5.33 7.92 5.66 15.84 6 24 C7.32 24 8.64 24 10 24 C10.33 16.41 10.66 8.82 11 1 C12.32 1 13.64 1 15 1 C15.11594584 4.93725326 15.18716464 8.87406923 15.25 12.8125 C15.30027344 14.49182617 15.30027344 14.49182617 15.3515625 16.20507812 C15.36445313 17.27822266 15.37734375 18.35136719 15.390625 19.45703125 C15.41157227 20.44678955 15.43251953 21.43654785 15.45410156 22.45629883 C15 25 15 25 13.19824219 26.82299805 C9.99956072 28.5356639 7.56369193 28.38876639 4 28 C1.38406847 26.16884793 1.03010545 25.09031634 0 22 C-0.08178114 20.29983156 -0.10749501 18.59663703 -0.09765625 16.89453125 C-0.09443359 15.91162109 -0.09121094 14.92871094 -0.08789062 13.91601562 C-0.07951172 12.89185547 -0.07113281 11.86769531 -0.0625 10.8125 C-0.05798828 9.77673828 -0.05347656 8.74097656 -0.04882812 7.67382812 C-0.0370401 5.11582734 -0.02058515 2.55794267 0 0 Z " fill="#FCF9F1" transform="translate(116,73)"/>
<path d="M0 0 C2.5 1.125 2.5 1.125 4 3 C4.25 6.1875 4.25 6.1875 4 9 C2.35 9 0.7 9 -1 9 C-1 7.02 -1 5.04 -1 3 C-2.32 3.33 -3.64 3.66 -5 4 C-5 9.94 -5 15.88 -5 22 C-3.68 22 -2.36 22 -1 22 C-0.67 20.02 -0.34 18.04 0 16 C-0.66 16 -1.32 16 -2 16 C-2 15.34 -2 14.68 -2 14 C-0.02 14 1.96 14 4 14 C4 17.96 4 21.92 4 26 C-7.625 26.25 -7.625 26.25 -11 24 C-11.38818359 21.89282227 -11.38818359 21.89282227 -11.3984375 19.31640625 C-11.40230469 18.38892578 -11.40617188 17.46144531 -11.41015625 16.50585938 C-11.39855469 15.53455078 -11.38695312 14.56324219 -11.375 13.5625 C-11.39240234 12.11133789 -11.39240234 12.11133789 -11.41015625 10.63085938 C-11.40628906 9.70208984 -11.40242187 8.77332031 -11.3984375 7.81640625 C-11.39505371 6.96506104 -11.39166992 6.11371582 -11.38818359 5.23657227 C-10.32723848 -0.87620648 -5.25118618 -0.76073522 0 0 Z " fill="#FBF7EF" transform="translate(164,74)"/>
<path d="M0 0 C3.96 0 7.92 0 12 0 C12 1.32 12 2.64 12 4 C10.02 4 8.04 4 6 4 C6 6.31 6 8.62 6 11 C7.32 11 8.64 11 10 11 C10 11.99 10 12.98 10 14 C8.35 14 6.7 14 5 14 C5 17.3 5 20.6 5 24 C7.31 24 9.62 24 12 24 C12 24.99 12 25.98 12 27 C8.04 27 4.08 27 0 27 C0 18.09 0 9.18 0 0 Z " fill="#F7EFDB" transform="translate(111,30)"/>
<path d="M0 0 C3.96 0 7.92 0 12 0 C11.23747983 3.81260086 10.3885378 6.81176698 9 10.375 C7.40487206 14.64601285 6.40280651 18.46842677 6 23 C7.98 23 9.96 23 12 23 C12 24.32 12 25.64 12 27 C8.04 27 4.08 27 0 27 C-0.36855661 21.15684205 0.81146003 16.95005448 3 11.5625 C3.28617187 10.83095703 3.57234375 10.09941406 3.8671875 9.34570312 C4.56760423 7.55964046 5.28233811 5.77920344 6 4 C4.02 4 2.04 4 0 4 C0 2.68 0 1.36 0 0 Z " fill="#F7EEDA" transform="translate(97,30)"/>
<path d="M0 0 C0.05787784 3.62493334 0.0935542 7.24974857 0.125 10.875 C0.14175781 11.90753906 0.15851563 12.94007812 0.17578125 14.00390625 C0.18222656 14.99003906 0.18867187 15.97617187 0.1953125 16.9921875 C0.20578613 17.90339355 0.21625977 18.81459961 0.22705078 19.75341797 C0 22 0 22 -2 24 C-2 23.01 -2 22.02 -2 21 C-4.31 21 -6.62 21 -9 21 C-9 17.7 -9 14.4 -9 11 C-7.35 11 -5.7 11 -4 11 C-4 10.01 -4 9.02 -4 8 C-5.32 8 -6.64 8 -8 8 C-8 5.69 -8 3.38 -8 1 C-1.125 0 -1.125 0 0 0 Z " fill="#D3A537" transform="translate(125,33)"/>
<path d="M0 0 C3.3 0 6.6 0 10 0 C10 0.99 10 1.98 10 3 C8.02 3 6.04 3 4 3 C4 5.64 4 8.28 4 11 C5.65 11 7.3 11 9 11 C9 11.99 9 12.98 9 14 C7.35 14 5.7 14 4 14 C4 17.3 4 20.6 4 24 C5.98 24 7.96 24 10 24 C10 24.66 10 25.32 10 26 C6.7 26 3.4 26 0 26 C0 17.42 0 8.84 0 0 Z " fill="#FDFBF8" transform="translate(172,74)"/>
<path d="M0 0 C2.17746353 3.2661953 2.25606429 4.24945834 2.265625 8.03515625 C2.26820312 9.00904297 2.27078125 9.98292969 2.2734375 10.98632812 C2.26570313 12.00146484 2.25796875 13.01660156 2.25 14.0625 C2.25773437 15.08150391 2.26546875 16.10050781 2.2734375 17.15039062 C2.27085938 18.12298828 2.26828125 19.09558594 2.265625 20.09765625 C2.26336914 20.98976807 2.26111328 21.88187988 2.25878906 22.80102539 C2 25 2 25 0 27 C0 25.68 0 24.36 0 23 C-1.98 23 -3.96 23 -6 23 C-6.36855661 17.15684205 -5.18853997 12.95005448 -3 7.5625 C-2.71382813 6.83095703 -2.42765625 6.09941406 -2.1328125 5.34570312 C-1.43239577 3.55964046 -0.71766189 1.77920344 0 0 Z " fill="#D4A538" transform="translate(109,30)"/>
<path d="M0 0 C1.98 0 3.96 0 6 0 C6 5.94 6 11.88 6 18 C4.02 18.99 4.02 18.99 2 20 C0 18 0 18 -0.22705078 16.12060547 C-0.21657715 15.37697754 -0.20610352 14.63334961 -0.1953125 13.8671875 C-0.18886719 13.06152344 -0.18242187 12.25585938 -0.17578125 11.42578125 C-0.15064453 10.16314453 -0.15064453 10.16314453 -0.125 8.875 C-0.11597656 8.02550781 -0.10695312 7.17601562 -0.09765625 6.30078125 C-0.07405647 4.20040116 -0.03818483 2.10016556 0 0 Z " fill="#D7AC47" transform="translate(148,34)"/>
<path d="M0 0 C2.64 0 5.28 0 8 0 C6.68 0.33 5.36 0.66 4 1 C4 4.3 4 7.6 4 11 C4.99 11.33 5.98 11.66 7 12 C6.01 12 5.02 12 4 12 C4 16.29 4 20.58 4 25 C2.68 25 1.36 25 0 25 C0 16.75 0 8.5 0 0 Z " fill="#FEFDFA" transform="translate(186,75)"/>
<path d="M0 0 C0.33 0 0.66 0 1 0 C1 4.29 1 8.58 1 13 C1.66 13 2.32 13 3 13 C3 11.68 3 10.36 3 9 C5.64 9 8.28 9 11 9 C11 13.62 11 18.24 11 23 C6.71 23 2.42 23 -2 23 C-2 22.67 -2 22.34 -2 22 C-0.56359829 21.80426392 0.87419504 21.61872184 2.3125 21.4375 C3.11300781 21.33308594 3.91351563 21.22867188 4.73828125 21.12109375 C7 21 7 21 10 22 C10 18.04 10 14.08 10 10 C8.02 10 6.04 10 4 10 C4 10.66 4 11.32 4 12 C4.66 12 5.32 12 6 12 C6 13.98 6 15.96 6 18 C4.34385343 18.38218767 2.67542976 18.71395102 1 19 C0 18 0 18 -0.11352539 16.23413086 C-0.10828857 15.48526611 -0.10305176 14.73640137 -0.09765625 13.96484375 C-0.09443359 13.15595703 -0.09121094 12.34707031 -0.08789062 11.51367188 C-0.07951172 10.66353516 -0.07113281 9.81339844 -0.0625 8.9375 C-0.05798828 8.08349609 -0.05347656 7.22949219 -0.04882812 6.34960938 C-0.03700373 4.23304337 -0.01906769 2.11651315 0 0 Z " fill="#E0BF72" transform="translate(158,78)"/>
<path d="M0 0 C1.65 0 3.3 0 5 0 C5 0.66 5 1.32 5 2 C4.01 2 3.02 2 2 2 C2 9.59 2 17.18 2 25 C-0.20192224 21.69711664 -0.23959968 20.72537273 -0.1953125 16.89453125 C-0.18886719 15.91162109 -0.18242188 14.92871094 -0.17578125 13.91601562 C-0.15902344 12.89185547 -0.14226562 11.86769531 -0.125 10.8125 C-0.11597656 9.77673828 -0.10695313 8.74097656 -0.09765625 7.67382812 C-0.0740786 5.11565315 -0.0411703 2.55794252 0 0 Z " fill="#F0DFBA" transform="translate(116,73)"/>
<path d="M0 0 C4.875 0.875 4.875 0.875 6 2 C6.04080783 3.99958364 6.04254356 6.00045254 6 8 C4.02 8 2.04 8 0 8 C0 5.36 0 2.72 0 0 Z " fill="#DAB256" transform="translate(190,77)"/>
<path d="M0 0 C2.475 0.495 2.475 0.495 5 1 C5.125 6.75 5.125 6.75 4 9 C2.68 9 1.36 9 0 9 C0 6.03 0 3.06 0 0 Z " fill="#D9B04F" transform="translate(130,33)"/>
<path d="M0 0 C0.33 0 0.66 0 1 0 C1 3.96 1 7.92 1 12 C4.63 12 8.26 12 12 12 C12 12.66 12 13.32 12 14 C7.71 14 3.42 14 -1 14 C-0.67 9.38 -0.34 4.76 0 0 Z " fill="#EAD5A1" transform="translate(143,213)"/>
<path d="M0 0 C0.66 0.33 1.32 0.66 2 1 C1.0479279 2.00596297 0.08812654 3.00461563 -0.875 4 C-1.40867187 4.556875 -1.94234375 5.11375 -2.4921875 5.6875 C-4 7 -4 7 -6 7 C-4.60667426 3.63279613 -3.0210714 2.0140476 0 0 Z " fill="#F3E7C9" transform="translate(40,30)"/>
</svg>
