<?xml version="1.0" encoding="UTF-8"?>
<svg version="1.1" xmlns="http://www.w3.org/2000/svg" width="365" height="365">
<path d="M0 0 C120.45 0 240.9 0 365 0 C365 120.45 365 240.9 365 365 C244.55 365 124.1 365 0 365 C0 244.55 0 124.1 0 0 Z " fill="#C12133" transform="translate(0,0)"/>
<path d="M0 0 C0 40.92 0 81.84 0 124 C-30 133 -30 133 -38 135 C-39.96051324 135.6216685 -41.91329181 136.26853143 -43.85546875 136.9453125 C-45.40717773 137.47705078 -45.40717773 137.47705078 -46.99023438 138.01953125 C-49.1346276 138.76096471 -51.27784803 139.50579828 -53.41992188 140.25390625 C-54.45052734 140.60582031 -55.48113281 140.95773437 -56.54296875 141.3203125 C-57.47133545 141.64273926 -58.39970215 141.96516602 -59.35620117 142.29736328 C-62.03737664 143.00993351 -64.24262521 143.05186375 -67 143 C-67.51124809 129.53602699 -67.90134776 116.07438255 -68.13986778 102.60265827 C-68.25439886 96.34545484 -68.40945961 90.09491736 -68.65966797 83.84155273 C-68.89995349 77.79788491 -69.03046954 71.76059183 -69.08729935 65.71251488 C-69.12774753 63.41400858 -69.20676451 61.11582733 -69.32606125 58.82006264 C-70.05492659 44.20309482 -70.05492659 44.20309482 -67 38 C-61.6038113 32.40769319 -54.61222848 29.2010681 -47.57196617 26.13844204 C-44.31673658 24.69756375 -41.33308419 22.98950314 -38.27734375 21.16796875 C-36.49838348 20.17271174 -34.71848069 19.17913699 -32.9375 18.1875 C-24.83119935 13.64141749 -16.87953836 8.92622444 -9 4 C-2.4017094 0 -2.4017094 0 0 0 Z " fill="#FEFAFB" transform="translate(235,158)"/>
<path d="M0 0 C3.37749111 0.84437278 5.32432557 1.60407174 8.24609375 3.30078125 C9.48576904 4.01536499 9.48576904 4.01536499 10.75048828 4.74438477 C11.63720215 5.26186279 12.52391602 5.77934082 13.4375 6.3125 C15.33975742 7.41160776 17.24210365 8.51056183 19.14453125 9.609375 C20.11729004 10.17333984 21.09004883 10.73730469 22.09228516 11.31835938 C25.72594053 13.41983866 29.3715888 15.49979941 33.01879883 17.57763672 C40.94204853 22.09184793 48.85171488 26.62975927 56.75 31.1875 C57.56678223 31.65744385 58.38356445 32.1273877 59.22509766 32.61157227 C59.97065918 33.04268311 60.7162207 33.47379395 61.484375 33.91796875 C62.14147461 34.29719482 62.79857422 34.6764209 63.47558594 35.06713867 C65 36 65 36 66 37 C66.09535213 38.36608326 66.1218867 39.73705455 66.12025452 41.10646057 C66.12231651 42.43375183 66.12231651 42.43375183 66.12442017 43.78785706 C66.11902725 45.25520546 66.11902725 45.25520546 66.11352539 46.75219727 C66.11367142 47.7764682 66.11381744 48.80073914 66.1139679 49.85604858 C66.11326828 53.25952229 66.10547363 56.66294204 66.09765625 60.06640625 C66.09579224 62.41910268 66.09436826 64.7717995 66.09336853 67.12449646 C66.08954199 73.33056705 66.07971055 79.5366144 66.06866455 85.74267578 C66.05845334 92.06998378 66.05387154 98.39729552 66.04882812 104.72460938 C66.0380884 117.14974982 66.02101036 129.57487298 66 142 C61.79912936 141.45731733 57.81321222 140.78097701 53.75830078 139.55712891 C52.3011113 139.1212999 52.3011113 139.1212999 50.81448364 138.67666626 C49.78515717 138.36313202 48.75583069 138.04959778 47.6953125 137.7265625 C46.07748367 137.23994644 46.07748367 137.23994644 44.42697144 136.74349976 C42.15193894 136.05824058 39.87762904 135.37057836 37.60400391 134.68066406 C34.14503949 133.63108075 30.68408313 132.5883053 27.22265625 131.546875 C25.00508865 130.87800083 22.78763687 130.20874253 20.5703125 129.5390625 C19.54503448 129.22957672 18.51975647 128.92009094 17.46340942 128.60122681 C15.99676346 128.15594131 15.99676346 128.15594131 14.50048828 127.70166016 C13.65334259 127.44486481 12.8061969 127.18806946 11.93338013 126.92349243 C7.93936034 125.66608736 3.97239668 124.32413223 0 123 C0 82.41 0 41.82 0 0 Z " fill="#FEFBFC" transform="translate(95,159)"/>
<path d="M0 0 C0.99 1.98 0.99 1.98 2 4 C2.66 3.01 3.32 2.02 4 1 C4.66 1 5.32 1 6 1 C6 43.24 6 85.48 6 129 C-22.88888889 139 -22.88888889 139 -31.0703125 141.1484375 C-34.03168821 142.00921071 -36.88811505 143.05881164 -39.76855469 144.15722656 C-60.56628421 152.01212397 -75.84155228 154.83528416 -97.1875 146.375 C-100.09249135 145.22765047 -102.85419706 144.62349808 -105.9375 144.125 C-110.75374731 143.32339625 -115.32304013 142.08927789 -120 140.6875 C-129.2740649 137.91816117 -138.6399615 135.46316803 -148 133 C-148.33 89.44 -148.66 45.88 -149 1 C-145.7 1.33 -142.4 1.66 -139 2 C-139.99 2.495 -139.99 2.495 -141 3 C-141 43.59 -141 84.18 -141 126 C-138.03 126.66 -135.06 127.32 -132 128 C-129.82838636 128.60095566 -127.66354206 129.22715744 -125.5078125 129.8828125 C-124.30511719 130.24632812 -123.10242188 130.60984375 -121.86328125 130.984375 C-120.01283203 131.54898438 -120.01283203 131.54898438 -118.125 132.125 C-103.76841285 136.48126233 -89.38578308 140.73754575 -75 145 C-75.33 110.02 -75.66 75.04 -76 39 C-74 40 -72 41 -70 42 C-69.67 40.68 -69.34 39.36 -69 38 C-67.02 38.495 -67.02 38.495 -65 39 C-65.99 39.495 -65.99 39.495 -67 40 C-67.33 74.65 -67.66 109.3 -68 145 C-59.66682387 142.61909253 -51.57647617 140.19465598 -43.3984375 137.42578125 C-37.88958724 135.60731317 -32.31961808 133.99558692 -26.75 132.375 C-25.75629395 132.08584717 -24.76258789 131.79669434 -23.73876953 131.4987793 C-20.828159 130.65748 -17.91491564 129.82625215 -15 129 C-13.98486328 128.7102832 -12.96972656 128.42056641 -11.92382812 128.12207031 C-10.94349609 127.84717773 -9.96316406 127.57228516 -8.953125 127.2890625 C-8.07301758 127.0410791 -7.19291016 126.7930957 -6.28613281 126.53759766 C-4 126 -4 126 -1 126 C-1.33 84.75 -1.66 43.5 -2 1 C-1.34 0.67 -0.68 0.34 0 0 Z " fill="#BC2C3D" transform="translate(236,156)"/>
<path d="M0 0 C0 43.23 0 86.46 0 131 C2.64 131.33 5.28 131.66 8 132 C9.68588445 132.3883407 11.36330776 132.81787734 13.0234375 133.3046875 C13.9 133.55863281 14.7765625 133.81257812 15.6796875 134.07421875 C17.01386719 134.47060547 17.01386719 134.47060547 18.375 134.875 C19.25671875 135.13152344 20.1384375 135.38804687 21.046875 135.65234375 C24.62201666 136.69553025 28.19228211 137.75076011 31.75097656 138.84887695 C33.0692041 139.25432739 33.0692041 139.25432739 34.4140625 139.66796875 C35.19990723 139.91313232 35.98575195 140.1582959 36.79541016 140.41088867 C38.88966888 140.97051728 40.84324018 141.2642248 43 141.4375 C46.21064649 141.75214336 48.77839606 142.62105885 51.75 143.875 C71.43626413 152.08510102 86.67812165 148.91255329 106 142 C107.57654473 141.44582256 109.15335105 140.8923885 110.73046875 140.33984375 C112.87404935 139.5859815 115.01628885 138.82906636 117.15527344 138.06225586 C122.29862293 136.2204811 127.48432393 134.5780811 132.71875 133.01171875 C137.81252513 131.44113808 142.84433758 129.69197497 147.8828125 127.953125 C151 127 151 127 154 127 C154 85.09 154 43.18 154 0 C159 3 159 3 161 5 C161.24609566 7.22950172 161.24609566 7.22950172 161.24050903 10.06192017 C161.24463303 11.66894051 161.24463303 11.66894051 161.24884033 13.3084259 C161.2380545 15.07895576 161.2380545 15.07895576 161.22705078 16.88525391 C161.22734283 18.12424942 161.22763489 19.36324493 161.22793579 20.63978577 C161.22677904 24.04254594 161.21673071 27.44506512 161.20278788 30.84778261 C161.19030738 34.40188167 161.18911214 37.95598373 161.18673706 41.51010132 C161.18051438 48.2426412 161.16409296 54.97511632 161.14403808 61.70762765 C161.12170353 69.37136433 161.11069181 77.03510407 161.10064721 84.69886518 C161.07972738 100.46594765 161.04453617 116.23296548 161 132 C156.68232895 133.44810631 152.36359817 134.89302699 148.04467773 136.33740234 C146.22254887 136.94859169 146.22254887 136.94859169 144.36360931 137.5721283 C135.650457 140.48367067 126.91434435 143.16510753 118.0625 145.625 C108.36593104 148.35210738 98.77873182 151.2363561 89.41235352 154.96923828 C82.19590729 157.70704771 74.95999227 158.0158695 67.5625 155.625 C63.99706451 154.55089391 60.55308413 153.70370007 56.875 153.125 C51.75948797 152.25506554 46.84666859 150.898659 41.875 149.4375 C41.11558105 149.21529785 40.35616211 148.9930957 39.57373047 148.76416016 C34.13201829 147.13201829 34.13201829 147.13201829 33 146 C31.46876073 145.69675048 29.92884762 145.4371648 28.38671875 145.1953125 C21.060783 143.91762948 13.95915983 141.89511305 6.8125 139.875 C5.46562168 139.49824401 4.11861711 139.12193905 2.77148438 138.74609375 C-0.48694067 137.83513621 -3.74402996 136.91968611 -7 136 C-7.11676621 118.85848093 -7.20495503 101.71708585 -7.25906086 84.57526016 C-7.28485016 76.61611899 -7.32001417 68.65722482 -7.37719727 60.69824219 C-7.42701048 53.76172782 -7.45928575 46.82539232 -7.47044247 39.88870406 C-7.47696492 36.21517151 -7.49230841 32.54215068 -7.52865028 28.86878204 C-7.56887857 24.76938614 -7.5699508 20.67088163 -7.56762695 16.57128906 C-7.58560333 15.35137268 -7.60357971 14.1314563 -7.62210083 12.87457275 C-7.57151873 4.66048468 -7.57151873 4.66048468 -4.58952332 1.21429443 C-2 0 -2 0 0 0 Z " fill="#FDEFF1" transform="translate(88,158)"/>
<path d="M0 0 C5.28 0 10.56 0 16 0 C16.13993831 14.09251763 16.24609304 28.18486593 16.31087303 42.27794075 C16.3419876 48.82421803 16.38409221 55.37001478 16.45263672 61.91601562 C16.51854408 68.25089005 16.5538548 74.58530668 16.56926346 80.92049789 C16.58022307 83.31946886 16.6016182 85.71841903 16.63438034 88.11719131 C16.84204716 103.97432648 16.25901421 120.48197158 9 135 C8.34 135 7.68 135 7 135 C0.90873657 117.8310229 -0.97387419 102.50951864 -0.68359375 84.375 C-0.67049253 81.92066887 -0.66054985 79.46631909 -0.65357971 77.01196289 C-0.62721027 70.63965784 -0.55876564 64.26852013 -0.48065186 57.89666748 C-0.40826074 51.35965759 -0.37690811 44.82245384 -0.34179688 38.28515625 C-0.26735683 25.52293248 -0.14833329 12.76156435 0 0 Z " fill="#FDF3F4" transform="translate(271,169)"/>
<path d="M0 0 C5.28 0 10.56 0 16 0 C16 14.19 16 28.38 16 43 C18.31 43 20.62 43 23 43 C23 46.63 23 50.26 23 54 C20.69 54 18.38 54 16 54 C16 59.61 16 65.22 16 71 C6.72265625 71.09765625 6.72265625 71.09765625 4 71 C3 70 3 70 2.90234375 66.40234375 C2.90808728 64.91402745 2.92110109 63.42573704 2.9375 61.9375 C2.958125 59.318125 2.97875 56.69875 3 54 C-3.93 54 -10.86 54 -18 54 C-18.59689662 44.92717139 -16.81847896 39.14817506 -13 31 C-12.13710452 28.92026688 -11.28278198 26.83695396 -10.4375 24.75 C-9.04977572 21.40645182 -7.61090184 18.14703244 -5.9375 14.9375 C-3.45536564 10.14546101 -1.78045806 5.08702303 0 0 Z " fill="#FCF4F5" transform="translate(44,31)"/>
<path d="M0 0 C3.29164829 -0.02895225 6.58326399 -0.0467823 9.875 -0.0625 C10.81214844 -0.07087891 11.74929687 -0.07925781 12.71484375 -0.08789062 C14.05869141 -0.09272461 14.05869141 -0.09272461 15.4296875 -0.09765625 C16.67081299 -0.10551147 16.67081299 -0.10551147 17.93701172 -0.11352539 C20 0 20 0 22 1 C22.66 1.99 23.32 2.98 24 4 C24.33 3.505 24.66 3.01 25 2.5 C27.58709208 0.55968094 29.79862272 0.63816621 32.96484375 0.6015625 C35.9220907 1.18052447 37.01663738 1.65919621 39 4 C39.61085376 7.3177512 39.55714318 10.57319506 39.5 13.9375 C39.51546875 14.84435547 39.5309375 15.75121094 39.546875 16.68554688 C39.50819604 23.25613503 39.50819604 23.25613503 37.22265625 26.6015625 C33.53749922 28.92016745 31.30361606 28.47817956 27 28 C25.125 26.5625 25.125 26.5625 24 25 C23.34 24.67 22.68 24.34 22 24 C21.67 25.65 21.34 27.3 21 29 C19.02 29 17.04 29 15 29 C14.67 21.08 14.34 13.16 14 5 C12.68 5 11.36 5 10 5 C10 12.59 10 20.18 10 28 C8.02 28 6.04 28 4 28 C4 20.08 4 12.16 4 4 C2.68 4 1.36 4 0 4 C0 2.68 0 1.36 0 0 Z " fill="#C14C58" transform="translate(178,74)"/>
<path d="M0 0 C3.94744879 1.47681848 3.94744879 1.47681848 11.25 1.0625 C11.25 8.9825 11.25 16.9025 11.25 25.0625 C13.23 25.0625 15.21 25.0625 17.25 25.0625 C16.92 26.7125 16.59 28.3625 16.25 30.0625 C12.62 30.0625 8.99 30.0625 5.25 30.0625 C4.92 29.4025 4.59 28.7425 4.25 28.0625 C2.27 28.0625 0.29 28.0625 -1.75 28.0625 C-1.75 26.0825 -1.75 24.1025 -1.75 22.0625 C-3.4 22.0625 -5.05 22.0625 -6.75 22.0625 C-6.75 23.7125 -6.75 25.3625 -6.75 27.0625 C-8.4 27.3925 -10.05 27.7225 -11.75 28.0625 C-11.13277416 18.49549944 -8.9298659 9.37002043 -6.75 0.0625 C-3.87062561 -0.81730884 -2.96122875 -1.0095098 0 0 Z " fill="#C0414F" transform="translate(142.75,29.9375)"/>
<path d="M0 0 C2.19921875 1.453125 2.19921875 1.453125 4 4 C4.53719383 7.03456162 4.46773575 9.99001818 4.375 13.0625 C4.37371094 13.87783203 4.37242188 14.69316406 4.37109375 15.53320312 C4.28169643 21.57745536 4.28169643 21.57745536 2 25 C1.92094936 27.33199388 1.91201231 29.66832622 2 32 C-1 31 -1 31 -3 28 C-3.969375 27.71125 -4.93875 27.4225 -5.9375 27.125 C-9 26 -9 26 -10.671875 23.93359375 C-12.35178951 20.22295906 -12.40393945 16.92791754 -12.3125 12.9375 C-12.31572266 12.23044922 -12.31894531 11.52339844 -12.32226562 10.79492188 C-12.2522965 4.02063845 -12.2522965 4.02063845 -10 1 C-6.40735548 -0.19754817 -3.77282526 -0.33094958 0 0 Z " fill="#FAE4E7" transform="translate(106,31)"/>
<path d="M0 0 C10.63157895 0 10.63157895 0 14 2 C15.27346955 5.82040866 15.26233806 9.45464226 15.3125 13.4375 C15.34150391 14.20126953 15.37050781 14.96503906 15.40039062 15.75195312 C15.46422706 21.3941119 15.46422706 21.3941119 13.10546875 24.47265625 C8.14330814 28.07229409 7.8867494 27 0 27 C0 18.09 0 9.18 0 0 Z " fill="#FCE5E8" transform="translate(109,75)"/>
<path d="M0 0 C2.41750371 0.03726403 4.0425512 0.49183116 6.28515625 1.41015625 C9.27894502 4.93032547 8.63821495 8.97978223 8.5625 13.4375 C8.57796875 14.34435547 8.5934375 15.25121094 8.609375 16.18554688 C8.57068278 22.75838821 8.57068278 22.75838821 6.28515625 26.09375 C2.53887745 28.46397912 0.44455999 28.12600857 -3.9375 27.5 C-7.51654666 23.33661919 -7.39352882 19.21285423 -7.3125 14 C-7.32410156 13.25363281 -7.33570313 12.50726563 -7.34765625 11.73828125 C-7.31531059 5.6465161 -6.8773728 0.87331718 0 0 Z " fill="#FBE4E5" transform="translate(208.9375,74.5)"/>
<path d="M0 0 C-3.465 1.485 -3.465 1.485 -7 3 C-2.71 2.67 1.58 2.34 6 2 C-3.07058967 6.53529484 -12.88283538 9.37412983 -22.6484375 12.0078125 C-25.7682993 12.93140795 -28.75863767 14.00670711 -31.79492188 15.16601562 C-44.84981866 20.10351866 -56.90321116 24.38332975 -71 23 C-71 22.67 -71 22.34 -71 22 C-66.38 22 -61.76 22 -57 22 C-57 21.34 -57 20.68 -57 20 C-55.68 20 -54.36 20 -53 20 C-53 19.01 -53 18.02 -53 17 C-55.31 17 -57.62 17 -60 17 C-60 16.67 -60 16.34 -60 16 C-59.16339844 15.76925781 -58.32679688 15.53851563 -57.46484375 15.30078125 C-51.29413692 13.57188997 -45.19073202 11.76207652 -39.125 9.6875 C-29.28644594 6.34904772 -19.29148605 3.53756087 -9.30566406 0.67675781 C-3.4024815 -1.05594253 -3.4024815 -1.05594253 0 0 Z " fill="#BE3C4C" transform="translate(228,285)"/>
<path d="M0 0 C2.95857409 -0.05379226 5.91617721 -0.09357093 8.875 -0.125 C9.71675781 -0.14175781 10.55851563 -0.15851562 11.42578125 -0.17578125 C12.23144531 -0.18222656 13.03710938 -0.18867188 13.8671875 -0.1953125 C14.98262939 -0.21102295 14.98262939 -0.21102295 16.12060547 -0.22705078 C18 0 18 0 20 2 C20.40047444 4.32275177 20.7397104 6.65739357 21 9 C21.66 9 22.32 9 23 9 C23.33 6.03 23.66 3.06 24 0 C25.65 0 27.3 0 29 0 C27.26842105 8.28947368 27.26842105 8.28947368 25.9375 11.8125 C24.47734957 16.77701146 24.31654961 21.85190365 24 27 C22.35 27 20.7 27 19 27 C18.92652344 25.64068359 18.92652344 25.64068359 18.8515625 24.25390625 C18.42420873 17.29098709 17.74718596 10.75578571 16 4 C13.69 4 11.38 4 9 4 C9 11.59 9 19.18 9 27 C7.35 27 5.7 27 4 27 C4 19.41 4 11.82 4 4 C2.68 4 1.36 4 0 4 C0 2.68 0 1.36 0 0 Z " fill="#F8D5D8" transform="translate(170,31)"/>
<path d="M0 0 C1.32 0 2.64 0 4 0 C5.65 3.96 7.3 7.92 9 12 C9.33 8.04 9.66 4.08 10 0 C11.32 0 12.64 0 14 0 C14 8.91 14 17.82 14 27 C12.68 27 11.36 27 10 27 C8.35 23.04 6.7 19.08 5 15 C4.67 18.96 4.34 22.92 4 27 C2.68 27 1.36 27 0 27 C0 18.09 0 9.18 0 0 Z " fill="#FCE6EA" transform="translate(221,75)"/>
<path d="M0 0 C1.65 0 3.3 0 5 0 C5.33 7.26 5.66 14.52 6 22 C7.32 22.33 8.64 22.66 10 23 C10 15.41 10 7.82 10 0 C11.65 0 13.3 0 15 0 C15.11594584 3.93725326 15.18716464 7.87406923 15.25 11.8125 C15.30027344 13.49182617 15.30027344 13.49182617 15.3515625 15.20507812 C15.36445313 16.27822266 15.37734375 17.35136719 15.390625 18.45703125 C15.41157227 19.44678955 15.43251953 20.43654785 15.45410156 21.45629883 C15 24 15 24 13.1027832 25.81933594 C9.51419912 27.83424278 7.0765566 27.45295073 3 27 C0.7946305 24.84480211 0.06655667 23.50134588 -0.34057617 20.43457031 C-0.32486572 19.49194336 -0.30915527 18.54931641 -0.29296875 17.578125 C-0.28330078 16.55332031 -0.27363281 15.52851562 -0.26367188 14.47265625 C-0.23853516 13.40917969 -0.21339844 12.34570312 -0.1875 11.25 C-0.17396484 10.17105469 -0.16042969 9.09210937 -0.14648438 7.98046875 C-0.11116584 5.3198058 -0.06184199 2.66015704 0 0 Z " fill="#F0B6BF" transform="translate(113,31)"/>
<path d="M0 0 C1.65 0 3.3 0 5 0 C5.33 7.26 5.66 14.52 6 22 C6.99 22 7.98 22 9 22 C9.33 14.74 9.66 7.48 10 0 C11.65 0 13.3 0 15 0 C15.02900455 3.6041498 15.04680018 7.20826962 15.0625 10.8125 C15.07087891 11.83666016 15.07925781 12.86082031 15.08789062 13.91601562 C15.09111328 14.89892578 15.09433594 15.88183594 15.09765625 16.89453125 C15.10289307 17.80050049 15.10812988 18.70646973 15.11352539 19.63989258 C15 22 15 22 14 25 C10.30513897 27.46324069 8.36706908 27.38991688 4 27 C1.38406847 25.16884793 1.03010545 24.09031634 0 21 C-0.08143855 19.37280518 -0.1075302 17.74248281 -0.09765625 16.11328125 C-0.09443359 15.17548828 -0.09121094 14.23769531 -0.08789062 13.27148438 C-0.07532227 11.80678711 -0.07532227 11.80678711 -0.0625 10.3125 C-0.05798828 9.32443359 -0.05347656 8.33636719 -0.04882812 7.31835938 C-0.03704303 4.87884526 -0.02059011 2.43945311 0 0 Z " fill="#FADCDE" transform="translate(127,75)"/>
<path d="M0 0 C0.7734375 -0.00773437 1.546875 -0.01546875 2.34375 -0.0234375 C5.02244468 0.47153869 5.91670512 1.1784925 7.5 3.375 C7.6875 7.0625 7.6875 7.0625 7.5 10.375 C5.85 10.375 4.2 10.375 2.5 10.375 C2.5 8.395 2.5 6.415 2.5 4.375 C1.18 4.375 -0.14 4.375 -1.5 4.375 C-1.17 10.645 -0.84 16.915 -0.5 23.375 C0.49 23.375 1.48 23.375 2.5 23.375 C2.83 21.395 3.16 19.415 3.5 17.375 C4.82 17.375 6.14 17.375 7.5 17.375 C7.81785906 20.87144963 7.89644605 22.772402 5.9375 25.75 C2.54129157 28.01413895 0.49900698 28.01769755 -3.5 27.375 C-5.94140961 25.22081505 -7.31045941 23.48877298 -7.86474609 20.23168945 C-8.00214378 17.72558623 -7.99642326 15.25899035 -7.9375 12.75 C-7.94813477 11.46222656 -7.94813477 11.46222656 -7.95898438 10.1484375 C-7.89521412 3.86952007 -7.89521412 3.86952007 -6.10766602 1.6328125 C-3.99120566 -0.02307265 -2.663266 -0.02663266 0 0 Z " fill="#FBE5E7" transform="translate(152.5,74.625)"/>
<path d="M0 0 C1.98 0 3.96 0 6 0 C7.25482729 2.50965458 7.50857734 4.78690957 7.9375 7.5625 C8.66463945 12.11668921 9.53043118 16.58513588 10.6328125 21.0625 C11 23 11 23 11 27 C9.35 26.67 7.7 26.34 6 26 C6 24.35 6 22.7 6 21 C4.02 21 2.04 21 0 21 C0 22.65 0 24.3 0 26 C-1.32 26 -2.64 26 -4 26 C-3.46588214 17.14101063 -1.85710087 8.65479083 0 0 Z " fill="#E4B6BC" transform="translate(167,75)"/>
<path d="M0 0 C1.98 0 3.96 0 6 0 C6.67079695 3.77011077 7.33592803 7.54119936 8 11.3125 C8.19078125 12.38435547 8.3815625 13.45621094 8.578125 14.56054688 C8.75859375 15.58857422 8.9390625 16.61660156 9.125 17.67578125 C9.29257813 18.62364502 9.46015625 19.57150879 9.6328125 20.5480957 C10 23 10 23 10 26 C8.68 26 7.36 26 6 26 C5.67 24.35 5.34 22.7 5 21 C3.35 21 1.7 21 0 21 C0 22.65 0 24.3 0 26 C-1.65 26.33 -3.3 26.66 -5 27 C-3.65667575 7.3133515 -3.65667575 7.3133515 0 0 Z " fill="#FDF2F5" transform="translate(136,31)"/>
<path d="M0 0 C3.5625 0.625 3.5625 0.625 6.5 2.4375 C9.59999396 7.22839976 8.90220869 10.98583576 8.5625 16.625 C3.2825 16.625 -1.9975 16.625 -7.4375 16.625 C-7.92016784 6.60964239 -7.92016784 6.60964239 -5.875 2.4375 C-3.4375 0.625 -3.4375 0.625 0 0 Z " fill="#FCECED" transform="translate(278.4375,146.375)"/>
<path d="M0 0 C3.63 0 7.26 0 11 0 C11 0.99 11 1.98 11 3 C9.02 3 7.04 3 5 3 C5 5.64 5 8.28 5 11 C6.65 11 8.3 11 10 11 C10 12.32 10 13.64 10 15 C8.68 15 7.36 15 6 15 C6 17.64 6 20.28 6 23 C7.65 23 9.3 23 11 23 C11.33 24.32 11.66 25.64 12 27 C10.18757948 27.02687279 8.37504767 27.04633715 6.5625 27.0625 C5.55316406 27.07410156 4.54382813 27.08570312 3.50390625 27.09765625 C1 27 1 27 0 26 C-0.08748207 24.07332493 -0.10697334 22.14348139 -0.09765625 20.21484375 C-0.09443359 19.04501953 -0.09121094 17.87519531 -0.08789062 16.66992188 C-0.07951172 15.43822266 -0.07113281 14.20652344 -0.0625 12.9375 C-0.05798828 11.70193359 -0.05347656 10.46636719 -0.04882812 9.19335938 C-0.03699608 6.12885883 -0.02051173 3.06445279 0 0 Z " fill="#FDE5E7" transform="translate(95,75)"/>
<path d="M0 0 C1.98 0 3.96 0 6 0 C6.33 1.98 6.66 3.96 7 6 C7.66 6 8.32 6 9 6 C9.33 4.68 9.66 3.36 10 2 C10.33 2 10.66 2 11 2 C11 6.29 11 10.58 11 15 C8.19438607 13.59719304 7.99319493 11.9490995 6.875 9.0625 C6.52179688 8.16660156 6.16859375 7.27070312 5.8046875 6.34765625 C5 4 5 4 5 2 C3.68 2 2.36 2 1 2 C1 10.91 1 19.82 1 29 C2.32 29 3.64 29 5 29 C5 24.38 5 19.76 5 15 C8.34905453 18.34905453 8.89470285 20.49378854 10 25 C8.68 24.67 7.36 24.34 6 24 C6 25.98 6 27.96 6 30 C3.69 30 1.38 30 -1 30 C-1 29.01 -1 28.02 -1 27 C-1.66 27 -2.32 27 -3 27 C-3.33 27.99 -3.66 28.98 -4 30 C-5.32 29.67 -6.64 29.34 -8 29 C-7.35546875 28.55140625 -6.7109375 28.1028125 -6.046875 27.640625 C-2.9388695 23.63106065 -3.32615308 19.69302721 -3.25 14.75 C-3.22035156 13.81414062 -3.19070312 12.87828125 -3.16015625 11.9140625 C-3.08960196 9.60928908 -3.03683748 7.30551832 -3 5 C-2.34 5 -1.68 5 -1 5 C-0.67 3.35 -0.34 1.7 0 0 Z " fill="#BA3B4C" transform="translate(220,73)"/>
<path d="M0 0 C8.23381194 1.42421408 16.13537547 3.70416087 24.125 6.125 C25.36765625 6.49753906 26.6103125 6.87007813 27.890625 7.25390625 C30.92832829 8.16521724 33.96471808 9.08066287 37 10 C32.84096631 11.26630741 30.39175916 10.40540663 26.25 9.0625 C20.87884816 7.43097058 16.577858 6.55377136 11 7 C11 7.66 11 8.32 11 9 C11.969375 9.0825 12.93875 9.165 13.9375 9.25 C18.67119101 9.8999125 22.73984407 11.92305323 27 14 C23.36314677 15.30619377 21.22969811 14.66966893 17.625 13.4375 C11.19555915 11.33854165 4.71689257 9.51324027 -1.8125 7.75 C-2.81007324 7.47986084 -3.80764648 7.20972168 -4.83544922 6.93139648 C-7.22315577 6.28580679 -9.61131471 5.64195716 -12 5 C-12 4.67 -12 4.34 -12 4 C-10.741875 3.979375 -9.48375 3.95875 -8.1875 3.9375 C-7.47980469 3.92589844 -6.77210937 3.91429687 -6.04296875 3.90234375 C-4 4 -4 4 -1 5 C-0.67 3.35 -0.34 1.7 0 0 Z " fill="#BC3444" transform="translate(104,285)"/>
<path d="M0 0 C0.66 0 1.32 0 2 0 C2 9.57 2 19.14 2 29 C-1.63 29 -5.26 29 -9 29 C-9 24.16103697 -8.40228825 22.70692841 -6.22265625 18.66796875 C-3.49292542 12.71139955 -1.85727576 6.27211158 0 0 Z " fill="#C6606B" transform="translate(46,46)"/>
<path d="M0 0 C0.66 0 1.32 0 2 0 C2 42.57 2 85.14 2 129 C-5.76518219 132.32793522 -5.76518219 132.32793522 -9.0625 133 C-11.72535613 133.60473259 -13.36792044 134.20440024 -15.8125 135.5625 C-20.41361726 137.63751366 -25.00312228 137.742154 -30 138 C-25.90137105 135.86745447 -21.68811405 134.45254567 -17.3125 133 C-16.54744141 132.73960937 -15.78238281 132.47921875 -14.99414062 132.2109375 C-14.22908203 131.95570313 -13.46402344 131.70046875 -12.67578125 131.4375 C-11.99427002 131.20933594 -11.31275879 130.98117187 -10.6105957 130.74609375 C-6.78672009 129.65325134 -2.88227143 128.86272698 1 128 C0.67 85.76 0.34 43.52 0 0 Z " fill="#BE5865" transform="translate(248,162)"/>
<path d="M0 0 C5.38643371 1.3735406 10.78777334 2.53531136 16.25 3.5625 C16.25 4.2225 16.25 4.8825 16.25 5.5625 C18.23 5.8925 20.21 6.2225 22.25 6.5625 C21.59 6.8925 20.93 7.2225 20.25 7.5625 C20.25 8.2225 20.25 8.8825 20.25 9.5625 C11.05931786 9.31741514 3.64645623 8.4367491 -4.75 4.5625 C-6.78507457 3.79479284 -8.82688713 3.04471338 -10.875 2.3125 C-12.27105469 1.80976563 -12.27105469 1.80976563 -13.6953125 1.296875 C-14.37335938 1.05453125 -15.05140625 0.8121875 -15.75 0.5625 C-15.75 -0.0975 -15.75 -0.7575 -15.75 -1.4375 C-10.46302807 -3.26760567 -5.23195515 -1.36455047 0 0 Z " fill="#BE2436" transform="translate(130.75,293.4375)"/>
<path d="M0 0 C1.93742341 -0.02703381 3.87495479 -0.04641125 5.8125 -0.0625 C6.89144531 -0.07410156 7.97039062 -0.08570312 9.08203125 -0.09765625 C12 0 12 0 15 1 C14.67 1.66 14.34 2.32 14 3 C8.06 2.01 8.06 2.01 2 1 C2 9.91 2 18.82 2 28 C1.67 28 1.34 28 1 28 C0.67 26.02 0.34 24.04 0 22 C-0.66 22 -1.32 22 -2 22 C-1.34 22.33 -0.68 22.66 0 23 C-0.33 23.66 -0.66 24.32 -1 25 C-2.65 24.67 -4.3 24.34 -6 24 C-6 21.36 -6 18.72 -6 16 C-4.68 16 -3.36 16 -2 16 C-2 14.68 -2 13.36 -2 12 C-3.65 12 -5.3 12 -7 12 C-7 9.36 -7 6.72 -7 4 C-5.02 4 -3.04 4 -1 4 C-0.67 2.68 -0.34 1.36 0 0 Z " fill="#C02B40" transform="translate(107,74)"/>
<path d="M0 0 C0.66 0 1.32 0 2 0 C2 35.31 2 70.62 2 107 C-2.455 107.495 -2.455 107.495 -7 108 C-7 108.66 -7 109.32 -7 110 C-5.68 110.66 -4.36 111.32 -3 112 C-15.25806452 110.16129032 -15.25806452 110.16129032 -20 107 C-16.37 107.33 -12.74 107.66 -9 108 C-9 107.34 -9 106.68 -9 106 C-10.9600281 104.36323743 -10.9600281 104.36323743 -13 103 C-11.41642541 103.31127516 -9.83315007 103.62407289 -8.25 103.9375 C-7.36828125 104.11152344 -6.4865625 104.28554688 -5.578125 104.46484375 C-3.37349297 104.92247191 -1.18439943 105.45390014 1 106 C0.67 71.02 0.34 36.04 0 0 Z " fill="#B94F5A" transform="translate(160,195)"/>
<path d="M0 0 C4.29 0 8.58 0 13 0 C13 0.99 13 1.98 13 3 C11.68 3 10.36 3 9 3 C9 10.92 9 18.84 9 27 C7.35 27 5.7 27 4 27 C4 19.08 4 11.16 4 3 C2.68 3 1.36 3 0 3 C0 2.01 0 1.02 0 0 Z " fill="#FCE1E6" transform="translate(178,75)"/>
<path d="M0 0 C1.65 0 3.3 0 5 0 C5 7.92 5 15.84 5 24 C6.98 24 8.96 24 11 24 C11 24.99 11 25.98 11 27 C7.37 27 3.74 27 0 27 C0 18.09 0 9.18 0 0 Z " fill="#FDE2E5" transform="translate(149,31)"/>
<path d="M0 0 C1.65 0 3.3 0 5 0 C5 8.91 5 17.82 5 27 C3.35 27 1.7 27 0 27 C0 18.09 0 9.18 0 0 Z " fill="#FCE0E5" transform="translate(163,31)"/>
<path d="M0 0 C1.98 0.99 1.98 0.99 4 2 C3.34 2.66 2.68 3.32 2 4 C1.68569421 6.25712515 1.68569421 6.25712515 1.7215271 8.9100647 C1.71036362 9.94775497 1.69920013 10.98544525 1.68769836 12.05458069 C1.68553818 13.19753098 1.68337799 14.34048126 1.68115234 15.51806641 C1.67110672 16.71804764 1.6610611 17.91802887 1.65071106 19.15437317 C1.62506751 22.44964201 1.60824391 25.74473766 1.59528303 29.04006624 C1.57967895 32.48211381 1.55288012 35.92407344 1.5272522 39.36605835 C1.48041602 45.88603832 1.44369543 52.40603475 1.41057932 58.92609727 C1.37239203 66.34806391 1.32297305 73.76994234 1.27259517 81.19183469 C1.16920339 96.46115941 1.07996666 111.73053355 1 127 C0.67 127 0.34 127 0 127 C0 85.09 0 43.18 0 0 Z " fill="#FFD8DD" transform="translate(242,158)"/>
<path d="M0 0 C1.98 0 3.96 0 6 0 C6 0.33 6 0.66 6 1 C4.35 1 2.7 1 1 1 C1.1395053 4.39612414 1.28772322 7.79181458 1.4375 11.1875 C1.47681641 12.14720703 1.51613281 13.10691406 1.55664062 14.09570312 C1.59853516 15.02705078 1.64042969 15.95839844 1.68359375 16.91796875 C1.72025146 17.77156982 1.75690918 18.6251709 1.79467773 19.50463867 C2.00531094 22.06454594 2.44841536 24.49333243 3 27 C5.64 27.33 8.28 27.66 11 28 C11 28.33 11 28.66 11 29 C6.81475251 29.08206368 3.08918864 28.84189178 -1 28 C-1.33 28.33 -1.66 28.66 -2 29 C-4.53049402 29.07313567 -7.03304837 29.09247527 -9.5625 29.0625 C-10.27341797 29.05798828 -10.98433594 29.05347656 -11.71679688 29.04882812 C-13.47790013 29.03700864 -15.23896036 29.01907263 -17 29 C-17 28.67 -17 28.34 -17 28 C-16.09507813 27.92652344 -16.09507813 27.92652344 -15.171875 27.8515625 C-14.37265625 27.77679688 -13.5734375 27.70203125 -12.75 27.625 C-11.96109375 27.55539063 -11.1721875 27.48578125 -10.359375 27.4140625 C-7.87914019 26.9787895 -6.14017625 26.31630309 -4 25 C-2.82573736 22.65147472 -2.88491827 21.26225935 -2.90234375 18.6484375 C-2.90556641 17.79765625 -2.90878906 16.946875 -2.91210938 16.0703125 C-2.92048828 15.18085937 -2.92886719 14.29140625 -2.9375 13.375 C-2.94201172 12.4778125 -2.94652344 11.580625 -2.95117188 10.65625 C-2.96297409 8.43743352 -2.97943845 6.21874982 -3 4 C-2.01 4.33 -1.02 4.66 0 5 C0 3.35 0 1.7 0 0 Z " fill="#B93A4A" transform="translate(126,74)"/>
<path d="M0 0 C3.3 0 6.6 0 10 0 C10 7.92 10 15.84 10 24 C8.35 23.67 6.7 23.34 5 23 C5 15.74 5 8.48 5 1 C3.35 1 1.7 1 0 1 C0 0.67 0 0.34 0 0 Z " fill="#BA2F3F" transform="translate(113,30)"/>
<path d="M0 0 C1.65 0 3.3 0 5 0 C5.33 8.25 5.66 16.5 6 25 C1 24 1 24 0 23 C-0.08713831 21.29227642 -0.10700007 19.58101351 -0.09765625 17.87109375 C-0.09443359 16.83662109 -0.09121094 15.80214844 -0.08789062 14.73632812 C-0.07951172 13.64771484 -0.07113281 12.55910156 -0.0625 11.4375 C-0.05798828 10.34501953 -0.05347656 9.25253906 -0.04882812 8.12695312 C-0.03699826 5.41791505 -0.02051543 2.70898401 0 0 Z " fill="#FADCE1" transform="translate(113,31)"/>
<path d="M0 0 C1.65 0 3.3 0 5 0 C5.33 8.25 5.66 16.5 6 25 C4.35 24.67 2.7 24.34 1 24 C0.01956036 21.05868109 -0.11621202 19.17498335 -0.09765625 16.11328125 C-0.09443359 15.17548828 -0.09121094 14.23769531 -0.08789062 13.27148438 C-0.07532227 11.80678711 -0.07532227 11.80678711 -0.0625 10.3125 C-0.05798828 9.32443359 -0.05347656 8.33636719 -0.04882812 7.31835938 C-0.03704303 4.87884526 -0.02059011 2.43945311 0 0 Z " fill="#FDE5E8" transform="translate(127,75)"/>
<path d="M0 0 C1.44826172 -0.02126953 1.44826172 -0.02126953 2.92578125 -0.04296875 C5.70269158 0.18876776 7.32223141 0.76609156 9.6875 2.1875 C9.3575 3.1775 9.0275 4.1675 8.6875 5.1875 C8.6875 4.5275 8.6875 3.8675 8.6875 3.1875 C6.89616022 3.13358007 5.10436101 3.09474429 3.3125 3.0625 C2.31476563 3.03929688 1.31703125 3.01609375 0.2890625 2.9921875 C-2.47512173 2.91533152 -2.47512173 2.91533152 -4.3125 5.1875 C-4.6219379 7.15473978 -4.6219379 7.15473978 -4.578125 9.3984375 C-4.58070313 10.23117188 -4.58328125 11.06390625 -4.5859375 11.921875 C-4.57820312 12.79328125 -4.57046875 13.6646875 -4.5625 14.5625 C-4.57023438 15.42617187 -4.57796875 16.28984375 -4.5859375 17.1796875 C-4.58335937 18.015 -4.58078125 18.8503125 -4.578125 19.7109375 C-4.57586914 20.47325684 -4.57361328 21.23557617 -4.57128906 22.02099609 C-4.28197961 24.4430075 -3.51589101 26.08246199 -2.3125 28.1875 C-2.9725 28.5175 -3.6325 28.8475 -4.3125 29.1875 C-4.6425 28.1975 -4.9725 27.2075 -5.3125 26.1875 C-5.9725 25.8575 -6.6325 25.5275 -7.3125 25.1875 C-7.3125 25.8475 -7.3125 26.5075 -7.3125 27.1875 C-7.9725 27.1875 -8.6325 27.1875 -9.3125 27.1875 C-8.9825 18.9375 -8.6525 10.6875 -8.3125 2.1875 C-9.9625 2.1875 -11.6125 2.1875 -13.3125 2.1875 C-13.3125 1.8575 -13.3125 1.5275 -13.3125 1.1875 C-12.178125 1.208125 -11.04375 1.22875 -9.875 1.25 C-6.17439574 1.18507712 -3.88798361 0.02574824 0 0 Z " fill="#B93949" transform="translate(150.3125,72.8125)"/>
<path d="M0 0 C0.78375 0.185625 1.5675 0.37125 2.375 0.5625 C4.97089775 1.25962266 4.97089775 1.25962266 7 0 C7.01981934 0.67579102 7.03963867 1.35158203 7.06005859 2.04785156 C7.15543238 5.11562044 7.26506165 8.18271998 7.375 11.25 C7.4059375 12.31347656 7.436875 13.37695312 7.46875 14.47265625 C7.50742188 15.49746094 7.54609375 16.52226563 7.5859375 17.578125 C7.6173584 18.52075195 7.6487793 19.46337891 7.68115234 20.43457031 C8.00600977 23.04835429 8.67676162 24.74353034 10 27 C9.34 27.33 8.68 27.66 8 28 C7.67 27.34 7.34 26.68 7 26 C6.34 26 5.68 26 5 26 C5 27.32 5 28.64 5 30 C4.34 30.99 3.68 31.98 3 33 C1.35 32.67 -0.3 32.34 -2 32 C-2.33 30.68 -2.66 29.36 -3 28 C-2.34 28.33 -1.68 28.66 -1 29 C-1 29.66 -1 30.32 -1 31 C-0.34 31 0.32 31 1 31 C0.95875 30.071875 0.9175 29.14375 0.875 28.1875 C1 25 1 25 3 22 C3.27478373 19.77514259 3.27478373 19.77514259 3.1953125 17.33203125 C3.18886719 16.43935547 3.18242188 15.54667969 3.17578125 14.62695312 C3.15902344 13.69818359 3.14226562 12.76941406 3.125 11.8125 C3.11146484 10.40194336 3.11146484 10.40194336 3.09765625 8.96289062 C3.07409056 6.64167032 3.04119116 4.32096356 3 2 C2.01 1.67 1.02 1.34 0 1 C0 0.67 0 0.34 0 0 Z " fill="#B83546" transform="translate(106,31)"/>
<path d="M0 0 C0.33 0 0.66 0 1 0 C1 1.65 1 3.3 1 5 C2.32 5 3.64 5 5 5 C5 8.63 5 12.26 5 16 C3.68 16 2.36 16 1 16 C1 16.66 1 17.32 1 18 C2.65 18 4.3 18 6 18 C6 18.33 6 18.66 6 19 C4.35 19 2.7 19 1 19 C1 20.65 1 22.3 1 24 C-0.65 24.33 -2.3 24.66 -4 25 C-3.42029353 16.50430168 -1.76198299 8.31124051 0 0 Z " fill="#FBE1E3" transform="translate(135,33)"/>
<path d="M0 0 C2.64 0 5.28 0 8 0 C8 0.33 8 0.66 8 1 C6.02 1 4.04 1 2 1 C1.87882813 1.95519531 1.75765625 2.91039063 1.6328125 3.89453125 C0.62846719 11.64344162 -0.50066153 19.32785312 -2 27 C-0.68 27.33 0.64 27.66 2 28 C0.02 28 -1.96 28 -4 28 C-4 27.34 -4 26.68 -4 26 C-5.32 26.33 -6.64 26.66 -8 27 C-7.34 26.01 -6.68 25.02 -6 24 C-5.60986284 22.0103005 -5.26797351 20.00980131 -5 18 C-6.32 18 -7.64 18 -9 18 C-9 19.98 -9 21.96 -9 24 C-10.32 24.33 -11.64 24.66 -13 25 C-13 24.01 -13 23.02 -13 22 C-12.34 22 -11.68 22 -11 22 C-11.33 20.02 -11.66 18.04 -12 16 C-10.72125 15.87625 -9.4425 15.7525 -8.125 15.625 C-4.65209064 15.30957601 -4.65209064 15.30957601 -2 13 C-1.54337847 10.80708918 -1.179588 8.59414111 -0.875 6.375 C-0.70742187 5.18648438 -0.53984375 3.99796875 -0.3671875 2.7734375 C-0.24601563 1.85820313 -0.12484375 0.94296875 0 0 Z " fill="#BD4454" transform="translate(165,74)"/>
<path d="M0 0 C1.65 0 3.3 0 5 0 C3.27600722 8.25315695 3.27600722 8.25315695 1.9375 11.875 C0.54860472 16.50465094 0.32502791 21.19300831 0 26 C-1.32 26 -2.64 26 -4 26 C-4 20.72 -4 15.44 -4 10 C-3.01 10 -2.02 10 -1 10 C-0.67 6.7 -0.34 3.4 0 0 Z " fill="#FEF2F4" transform="translate(194,31)"/>
<path d="M0 0 C1.98 0 3.96 0 6 0 C6 5.94 6 11.88 6 18 C4.35 18.33 2.7 18.66 1 19 C0 18 0 18 -0.11352539 16.23413086 C-0.10828857 15.48526611 -0.10305176 14.73640137 -0.09765625 13.96484375 C-0.09443359 13.15595703 -0.09121094 12.34707031 -0.08789062 11.51367188 C-0.07951172 10.66353516 -0.07113281 9.81339844 -0.0625 8.9375 C-0.05798828 8.08349609 -0.05347656 7.22949219 -0.04882812 6.34960938 C-0.03700373 4.23304337 -0.01906769 2.11651315 0 0 Z " fill="#BC4051" transform="translate(99,35)"/>
<path d="M0 0 C0.33 1.32 0.66 2.64 1 4 C2.32 3.67 3.64 3.34 5 3 C5.48032656 11.71703754 4.07313419 19.54704214 2 28 C1.67 28 1.34 28 1 28 C1 26.02 1 24.04 1 22 C0.34 22 -0.32 22 -1 22 C-1.02895225 18.70835171 -1.0467823 15.41673601 -1.0625 12.125 C-1.07506836 10.71927734 -1.07506836 10.71927734 -1.08789062 9.28515625 C-1.09111328 8.38925781 -1.09433594 7.49335937 -1.09765625 6.5703125 C-1.10289307 5.74289551 -1.10812988 4.91547852 -1.11352539 4.06298828 C-1 2 -1 2 0 0 Z " fill="#C03D4D" transform="translate(129,30)"/>
<path d="M0 0 C1.66666667 0 3.33333333 0 5 0 C5 7.26 5 14.52 5 22 C3.68 22.33 2.36 22.66 1 23 C0 22 0 22 -0.11352539 19.86694336 C-0.10828857 18.95050049 -0.10305176 18.03405762 -0.09765625 17.08984375 C-0.09443359 16.10048828 -0.09121094 15.11113281 -0.08789062 14.09179688 C-0.07951172 13.05087891 -0.07113281 12.00996094 -0.0625 10.9375 C-0.05798828 9.89271484 -0.05347656 8.84792969 -0.04882812 7.77148438 C-0.03699913 5.1809334 -0.02051689 2.59049441 0 0 Z " fill="#B82D3F" transform="translate(132,75)"/>
<path d="M0 0 C0.33 0 0.66 0 1 0 C1 3.3 1 6.6 1 10 C7.93 10 14.86 10 22 10 C22 15.28 22 20.56 22 26 C25.3 25.67 28.6 25.34 32 25 C32 20.38 32 15.76 32 11 C32.66 11 33.32 11 34 11 C34 16.61 34 22.22 34 28 C24.72265625 28.09765625 24.72265625 28.09765625 22 28 C21 27 21 27 20.90234375 23.40234375 C20.90808728 21.91402745 20.92110109 20.42573704 20.9375 18.9375 C20.958125 16.318125 20.97875 13.69875 21 11 C14.07 11 7.14 11 0 11 C0 7.37 0 3.74 0 0 Z " fill="#EAA4AA" transform="translate(26,74)"/>
<path d="M0 0 C1.32 0 2.64 0 4 0 C9.76595745 17.14893617 9.76595745 17.14893617 10 26 C8.35 25.67 6.7 25.34 5 25 C4.91959473 24.39937744 4.83918945 23.79875488 4.75634766 23.17993164 C4.38860538 20.47275043 4.0069977 17.76770485 3.625 15.0625 C3.49867188 14.11697266 3.37234375 13.17144531 3.2421875 12.19726562 C3.11328125 11.29814453 2.984375 10.39902344 2.8515625 9.47265625 C2.67874756 8.22367554 2.67874756 8.22367554 2.50244141 6.94946289 C2.33663574 6.30614014 2.17083008 5.66281738 2 5 C1.34 4.67 0.68 4.34 0 4 C0 2.68 0 1.36 0 0 Z " fill="#FEF3F5" transform="translate(168,76)"/>
<path d="M0 0 C1.32 0 2.64 0 4 0 C4 8.58 4 17.16 4 26 C2.68 26 1.36 26 0 26 C0 17.42 0 8.84 0 0 Z " fill="#FFF1F5" transform="translate(194,75)"/>
<path d="M0 0 C2.95857409 -0.05379226 5.91617721 -0.09357093 8.875 -0.125 C9.71675781 -0.14175781 10.55851563 -0.15851562 11.42578125 -0.17578125 C12.23144531 -0.18222656 13.03710938 -0.18867188 13.8671875 -0.1953125 C14.98262939 -0.21102295 14.98262939 -0.21102295 16.12060547 -0.22705078 C18 0 18 0 20 2 C20.2475 3.7634375 20.2475 3.7634375 20.5 5.5625 C20.7475 7.2640625 20.7475 7.2640625 21 9 C21.66 9.33 22.32 9.66 23 10 C22.01 10 21.02 10 20 10 C20 15.28 20 20.56 20 26 C21.32 26.33 22.64 26.66 24 27 C22.35 27 20.7 27 19 27 C18.92652344 25.64068359 18.92652344 25.64068359 18.8515625 24.25390625 C18.42420873 17.29098709 17.74718596 10.75578571 16 4 C13.69 4 11.38 4 9 4 C10.32 3.67 11.64 3.34 13 3 C13 2.34 13 1.68 13 1 C9.7 1 6.4 1 3 1 C3.33 1.99 3.66 2.98 4 4 C2.68 4 1.36 4 0 4 C0 2.68 0 1.36 0 0 Z " fill="#F8D3D7" transform="translate(170,31)"/>
<path d="M0 0 C1.98 0.495 1.98 0.495 4 1 C4 6.94 4 12.88 4 19 C2.68 19.33 1.36 19.66 0 20 C-1.5220959 18.4779041 -1.12959521 17.11789918 -1.1328125 15 C-1.13410156 14.195625 -1.13539063 13.39125 -1.13671875 12.5625 C-1.13285156 11.716875 -1.12898437 10.87125 -1.125 10 C-1.12886719 9.154375 -1.13273438 8.30875 -1.13671875 7.4375 C-1.13542969 6.633125 -1.13414062 5.82875 -1.1328125 5 C-1.13168457 4.2575 -1.13055664 3.515 -1.12939453 2.75 C-1 1 -1 1 0 0 Z " fill="#BA4759" transform="translate(208,78)"/>
<path d="M0 0 C2.475 0.495 2.475 0.495 5 1 C5 6.61 5 12.22 5 18 C3.35 18.33 1.7 18.66 0 19 C0 12.73 0 6.46 0 0 Z " fill="#BB3D4D" transform="translate(114,79)"/>
<path d="M0 0 C0.99 0 1.98 0 3 0 C3 9.57 3 19.14 3 29 C2.01 28.67 1.02 28.34 0 28 C0 27.01 0 26.02 0 25 C-1.98 25 -3.96 25 -6 25 C-6 17.08 -6 9.16 -6 1 C-5.67 1 -5.34 1 -5 1 C-5 8.59 -5 16.18 -5 24 C-3.02 24 -1.04 24 1 24 C0.67 16.08 0.34 8.16 0 0 Z " fill="#B94453" transform="translate(160,30)"/>
<path d="M0 0 C0.98043964 2.94131891 1.11621202 4.82501665 1.09765625 7.88671875 C1.09282227 9.2934082 1.09282227 9.2934082 1.08789062 10.72851562 C1.07951172 11.70498047 1.07113281 12.68144531 1.0625 13.6875 C1.05798828 14.67556641 1.05347656 15.66363281 1.04882812 16.68164062 C1.03704303 19.12115474 1.02059011 21.56054689 1 24 C-0.9375 23.625 -0.9375 23.625 -3 23 C-4.63305288 19.73389423 -4.14276152 16.14736773 -4.125 12.5625 C-4.12886719 11.78583984 -4.13273438 11.00917969 -4.13671875 10.20898438 C-4.13099989 6.88918828 -4.05668831 4.17006494 -3 1 C-2.01 0.67 -1.02 0.34 0 0 Z " fill="#FEF1F3" transform="translate(206,76)"/>
<path d="M0 0 C0.79148438 -0.02578125 1.58296875 -0.0515625 2.3984375 -0.078125 C4.625 0.25 4.625 0.25 6.40234375 1.53515625 C8.36079034 4.28198709 7.80945512 6.99129285 7.625 10.25 C5.975 10.25 4.325 10.25 2.625 10.25 C2.625 8.27 2.625 6.29 2.625 4.25 C1.305 4.25 -0.015 4.25 -1.375 4.25 C-1.375 10.19 -1.375 16.13 -1.375 22.25 C-1.705 22.25 -2.035 22.25 -2.375 22.25 C-2.375 15.65 -2.375 9.05 -2.375 2.25 C-3.365 1.92 -4.355 1.59 -5.375 1.25 C-3.79577594 -0.32922406 -2.18056126 0.042341 0 0 Z " fill="#F7CFD3" transform="translate(152.375,74.75)"/>
<path d="M0 0 C6.6 0 13.2 0 20 0 C18.68 0.33 17.36 0.66 16 1 C16 9.58 16 18.16 16 27 C17.32 27.33 18.64 27.66 20 28 C18.35 28 16.7 28 15 28 C14.67 20.41 14.34 12.82 14 5 C12.68 5 11.36 5 10 5 C10 12.59 10 20.18 10 28 C9.67 28 9.34 28 9 28 C9 20.08 9 12.16 9 4 C10.32 4 11.64 4 13 4 C13 3.01 13 2.02 13 1 C8.71 1 4.42 1 0 1 C0 0.67 0 0.34 0 0 Z " fill="#CA6773" transform="translate(178,74)"/>
<path d="M0 0 C2.3590074 2.3590074 2.25566879 2.8296234 2.265625 6.02734375 C2.26820312 6.81947266 2.27078125 7.61160156 2.2734375 8.42773438 C2.26570313 9.25595703 2.25796875 10.08417969 2.25 10.9375 C2.25773437 11.76185547 2.26546875 12.58621094 2.2734375 13.43554688 C2.27085938 14.22896484 2.26828125 15.02238281 2.265625 15.83984375 C2.26336914 16.56550537 2.26111328 17.29116699 2.25878906 18.03881836 C2 20 2 20 0 23 C-0.07905064 25.33199388 -0.08798769 27.66832622 0 30 C-3 29 -3 29 -5 26 C-5.04345703 23.73168945 -5.04345703 23.73168945 -4.7578125 21.11328125 C-4.66113281 20.17548828 -4.56445312 19.23769531 -4.46484375 18.27148438 C-4.35269531 17.29501953 -4.24054688 16.31855469 -4.125 15.3125 C-4.02058594 14.32443359 -3.91617188 13.33636719 -3.80859375 12.31835938 C-3.54919225 9.87762703 -3.27928555 7.4385238 -3 5 C-2.67 5 -2.34 5 -2 5 C-1.67 8.96 -1.34 12.92 -1 17 C-0.34 17 0.32 17 1 17 C0.67 11.39 0.34 5.78 0 0 Z " fill="#FBDADD" transform="translate(108,33)"/>
<path d="M0 0 C0 2.97 0 5.94 0 9 C-0.66 8.67 -1.32 8.34 -2 8 C-1.67 6.35 -1.34 4.7 -1 3 C-2.65 3 -4.3 3 -6 3 C-6.33 5.97 -6.66 8.94 -7 12 C-7.66 12 -8.32 12 -9 12 C-9.99 9.36 -10.98 6.72 -12 4 C-17.94 3.67 -23.88 3.34 -30 3 C-30 2.67 -30 2.34 -30 2 C-29.02389771 2.01571045 -29.02389771 2.01571045 -28.02807617 2.03173828 C-25.0812567 2.07329835 -22.13449889 2.09932608 -19.1875 2.125 C-18.16333984 2.14175781 -17.13917969 2.15851562 -16.08398438 2.17578125 C-15.10107422 2.18222656 -14.11816406 2.18867188 -13.10546875 2.1953125 C-12.19949951 2.20578613 -11.29353027 2.21625977 -10.36010742 2.22705078 C-6.36156228 1.84237643 -4.33126772 -0.23412258 0 0 Z " fill="#BA3F4D" transform="translate(200,28)"/>
<path d="M0 0 C1.98 0 3.96 0 6 0 C6.33 1.98 6.66 3.96 7 6 C7.66 6 8.32 6 9 6 C9.33 4.68 9.66 3.36 10 2 C10.33 2 10.66 2 11 2 C11 6.29 11 10.58 11 15 C8.19438607 13.59719304 7.99319493 11.9490995 6.875 9.0625 C6.52179688 8.16660156 6.16859375 7.27070312 5.8046875 6.34765625 C5 4 5 4 5 2 C3.68 2 2.36 2 1 2 C1 10.91 1 19.82 1 29 C0.67 29 0.34 29 0 29 C0 19.43 0 9.86 0 0 Z " fill="#BA515E" transform="translate(220,73)"/>
<path d="M0 0 C0.33 0 0.66 0 1 0 C1 8.25 1 16.5 1 25 C2.32 25 3.64 25 5 25 C5 21.37 5 17.74 5 14 C6.65 14 8.3 14 10 14 C8.68 14.33 7.36 14.66 6 15 C6 17.64 6 20.28 6 23 C7.65 23 9.3 23 11 23 C11.33 24.32 11.66 25.64 12 27 C10.18757948 27.02687279 8.37504767 27.04633715 6.5625 27.0625 C5.55316406 27.07410156 4.54382813 27.08570312 3.50390625 27.09765625 C1 27 1 27 0 26 C-0.08748207 24.07332493 -0.10697334 22.14348139 -0.09765625 20.21484375 C-0.09443359 19.04501953 -0.09121094 17.87519531 -0.08789062 16.66992188 C-0.07951172 15.43822266 -0.07113281 14.20652344 -0.0625 12.9375 C-0.05798828 11.70193359 -0.05347656 10.46636719 -0.04882812 9.19335938 C-0.03699608 6.12885883 -0.02051173 3.06445279 0 0 Z " fill="#EFB1B7" transform="translate(95,75)"/>
<path d="M0 0 C0.99 0.33 1.98 0.66 3 1 C2.67 1.66 2.34 2.32 2 3 C1.77141886 5.0374763 1.58975722 7.08040303 1.4375 9.125 C1.293125 11.06375 1.14875 13.0025 1 15 C5.95 15 10.9 15 16 15 C16 15.33 16 15.66 16 16 C9.565 16.495 9.565 16.495 3 17 C4.93875 17.12375 6.8775 17.2475 8.875 17.375 C14.75 17.75 14.75 17.75 17 20 C11.39 20 5.78 20 0 20 C0 13.4 0 6.8 0 0 Z " fill="#B83344" transform="translate(270,149)"/>
<path d="M0 0 C3.96 0 7.92 0 12 0 C12 0.33 12 0.66 12 1 C8.7 1 5.4 1 2 1 C2.33 10.24 2.66 19.48 3 29 C2.34 29 1.68 29 1 29 C1 28.34 1 27.68 1 27 C0.34 27 -0.32 27 -1 27 C-0.67 18.09 -0.34 9.18 0 0 Z " fill="#B73646" transform="translate(93,73)"/>
<path d="M0 0 C1.32 0 2.64 0 4 0 C4 8.91 4 17.82 4 27 C2.68 26.67 1.36 26.34 0 26 C0.99 26 1.98 26 3 26 C2.88617347 24.04098546 2.75858875 22.0827662 2.625 20.125 C2.55539063 19.03445312 2.48578125 17.94390625 2.4140625 16.8203125 C2.26746509 13.86953526 2.26746509 13.86953526 0 12 C-0.1953125 9.1796875 -0.1953125 9.1796875 -0.125 5.875 C-0.10695312 4.77929688 -0.08890625 3.68359375 -0.0703125 2.5546875 C-0.04710937 1.71164063 -0.02390625 0.86859375 0 0 Z " fill="#FDD3D9" transform="translate(231,75)"/>
<path d="M0 0 C1.93742341 -0.02703381 3.87495479 -0.04641125 5.8125 -0.0625 C6.89144531 -0.07410156 7.97039062 -0.08570312 9.08203125 -0.09765625 C12 0 12 0 15 1 C14.67 1.66 14.34 2.32 14 3 C8.06 2.01 8.06 2.01 2 1 C2 9.91 2 18.82 2 28 C1.67 28 1.34 28 1 28 C1 20.41 1 12.82 1 5 C-1.31 5 -3.62 5 -6 5 C-6 6.98 -6 8.96 -6 11 C-4.02 11.495 -4.02 11.495 -2 12 C-3.65 12 -5.3 12 -7 12 C-7 9.36 -7 6.72 -7 4 C-5.02 4 -3.04 4 -1 4 C-0.67 2.68 -0.34 1.36 0 0 Z " fill="#C05B68" transform="translate(107,74)"/>
<path d="M0 0 C0 5.61 0 11.22 0 17 C-1.65 17 -3.3 17 -5 17 C-4.91297874 14.72844502 -4.80480478 12.45769257 -4.6875 10.1875 C-4.62949219 8.92292969 -4.57148437 7.65835938 -4.51171875 6.35546875 C-4 3 -4 3 -2.51953125 1.05078125 C-1 0 -1 0 0 0 Z " fill="#BE2335" transform="translate(46,56)"/>
<path d="M0 0 C0.99 0 1.98 0 3 0 C3 7.59 3 15.18 3 23 C2.01 23 1.02 23 0 23 C0 15.41 0 7.82 0 0 Z " fill="#FEF9FA" transform="translate(124,32)"/>
<path d="M0 0 C0.66 0 1.32 0 2 0 C3.18681726 3.56045177 3.09689832 6.43808337 3.0625 10.1875 C3.05347656 11.45980469 3.04445313 12.73210937 3.03515625 14.04296875 C3.02355469 15.01878906 3.01195313 15.99460937 3 17 C1.02 17.99 1.02 17.99 -1 19 C-1.02683987 16.02077407 -1.04676037 13.04178705 -1.0625 10.0625 C-1.07087891 9.21236328 -1.07925781 8.36222656 -1.08789062 7.48632812 C-1.09111328 6.67744141 -1.09433594 5.86855469 -1.09765625 5.03515625 C-1.10289307 4.2862915 -1.10812988 3.53742676 -1.11352539 2.76586914 C-1 1 -1 1 0 0 Z " fill="#FFF8F9" transform="translate(120,78)"/>
<path d="M0 0 C3.27085785 3.27085785 2.96661974 7.52036882 3 12 C2.56198553 14.50862833 1.88747846 16.59858769 1 19 C-0.32 19 -1.64 19 -3 19 C-2.54240047 12.4491015 -1.7899856 6.3246158 0 0 Z " fill="#FDEBEE" transform="translate(166,82)"/>
<path d="M0 0 C1.32 0 2.64 0 4 0 C4 1.98 4 3.96 4 6 C5.65 6 7.3 6 9 6 C9 4.35 9 2.7 9 1 C9.33 1 9.66 1 10 1 C10 2.98 10 4.96 10 7 C7.69 7.33 5.38 7.66 3 8 C3 10.97 3 13.94 3 17 C2.01 17.33 1.02 17.66 0 18 C0 12.06 0 6.12 0 0 Z " fill="#B62E3F" transform="translate(151,79)"/>
<path d="M0 0 C1.65 0 3.3 0 5 0 C5 1.98 5 3.96 5 6 C6.98 6 8.96 6 11 6 C11 4.35 11 2.7 11 1 C11.33 1 11.66 1 12 1 C12.144375 2.11375 12.28875 3.2275 12.4375 4.375 C12.78372035 7.82142047 12.78372035 7.82142047 14 10 C12.02 10.66 10.04 11.32 8 12 C8 11.34 8 10.68 8 10 C7.01 9.67 6.02 9.34 5 9 C3.8125 6.4375 3.8125 6.4375 3 4 C2.34 4 1.68 4 1 4 C0.67 4.99 0.34 5.98 0 7 C-1.65 7 -3.3 7 -5 7 C-4.0409375 6.6596875 -4.0409375 6.6596875 -3.0625 6.3125 C-0.72806339 5.14749104 -0.72806339 5.14749104 -0.25 2.375 C-0.1675 1.59125 -0.085 0.8075 0 0 Z " fill="#BC263A" transform="translate(136,52)"/>
<path d="M0 0 C2.31 0 4.62 0 7 0 C9.29342747 5.89738492 10.34548714 10.66606918 10 17 C9.67 17 9.34 17 9 17 C9 14.69 9 12.38 9 10 C8.34 10 7.68 10 7 10 C7 8.68 7 7.36 7 6 C6.34 6 5.68 6 5 6 C5 4.35 5 2.7 5 1 C3.68 1 2.36 1 1 1 C1 8.26 1 15.52 1 23 C0.67 23 0.34 23 0 23 C0 15.41 0 7.82 0 0 Z " fill="#C45865" transform="translate(179,35)"/>
<path d="M0 0 C1.32 0.33 2.64 0.66 4 1 C5.13480527 4.60993172 5.10015767 7.9842327 5.0625 11.75 C5.05347656 12.92046875 5.04445313 14.0909375 5.03515625 15.296875 C5.02355469 16.18890625 5.01195313 17.0809375 5 18 C4.01 18.33 3.02 18.66 2 19 C1.93941406 18.13117187 1.87882812 17.26234375 1.81640625 16.3671875 C1.73261719 15.21476562 1.64882812 14.06234375 1.5625 12.875 C1.48128906 11.73804688 1.40007812 10.60109375 1.31640625 9.4296875 C1.02269035 6.2459522 0.56875687 3.14489093 0 0 Z " fill="#FEF8F8" transform="translate(104,32)"/>
<path d="M0 0 C0.33 0.66 0.66 1.32 1 2 C1.99 2 2.98 2 4 2 C4 2.99 4 3.98 4 5 C5.32 5 6.64 5 8 5 C8 12.92 8 20.84 8 29 C7.67 29 7.34 29 7 29 C7 21.41 7 13.82 7 6 C5.02 6 3.04 6 1 6 C1.33 9.3 1.66 12.6 2 16 C-0.42130331 12.36804504 -0.21022785 10.61650652 -0.125 6.3125 C-0.09792969 4.54326172 -0.09792969 4.54326172 -0.0703125 2.73828125 C-0.04710937 1.83464844 -0.02390625 0.93101563 0 0 Z " fill="#C24B5A" transform="translate(174,73)"/>
<path d="M0 0 C0.99 0.66 1.98 1.32 3 2 C3.29296875 4.8203125 3.29296875 4.8203125 3.1875 8.125 C3.16042969 9.22070312 3.13335937 10.31640625 3.10546875 11.4453125 C3.07066406 12.28835937 3.03585938 13.13140625 3 14 C2.01 14 1.02 14 0 14 C-3.07692308 7.6 -3.07692308 7.6 -2.6875 4.5625 C-2.460625 4.046875 -2.23375 3.53125 -2 3 C-1.34 3 -0.68 3 0 3 C0 2.01 0 1.02 0 0 Z " fill="#FEF2F6" transform="translate(231,87)"/>
<path d="M0 0 C0.33 0 0.66 0 1 0 C1 1.65 1 3.3 1 5 C2.32 5 3.64 5 5 5 C5 8.63 5 12.26 5 16 C3.68 16 2.36 16 1 16 C0.7834375 14.63875 0.7834375 14.63875 0.5625 13.25 C0.10440943 10.18058227 0.10440943 10.18058227 -0.625 8 C-1.15211371 5.18872687 -0.56791744 2.77648527 0 0 Z " fill="#F4D4D7" transform="translate(135,33)"/>
<path d="M0 0 C0 0.66 0 1.32 0 2 C1.32 2.66 2.64 3.32 4 4 C0.70158734 5.64920633 -2.9962313 5.66486707 -6.625 6.0625 C-7.42679688 6.15337891 -8.22859375 6.24425781 -9.0546875 6.33789062 C-11.03607868 6.56197653 -13.01799305 6.7814275 -15 7 C-12.75592792 3.63389189 -11.72741802 3.21711616 -8.0625 1.8125 C-6.74958984 1.29623047 -6.74958984 1.29623047 -5.41015625 0.76953125 C-3 0 -3 0 0 0 Z " fill="#BC2235" transform="translate(235,282)"/>
<path d="M0 0 C1.98 0 3.96 0 6 0 C6.36463732 1.74784829 6.7163078 3.49840502 7.0625 5.25 C7.25972656 6.22453125 7.45695313 7.1990625 7.66015625 8.203125 C7.98397535 10.868119 7.85503199 12.48871723 7 15 C6.34 12.69 5.68 10.38 5 8 C3.35 7.67 1.7 7.34 0 7 C0 4.69 0 2.38 0 0 Z " fill="#FADADD" transform="translate(136,31)"/>
<path d="M0 0 C1.32 0.33 2.64 0.66 4 1 C3.34 1.66 2.68 2.32 2 3 C4.64 3 7.28 3 10 3 C10 2.34 10 1.68 10 1 C11.98 1 13.96 1 16 1 C12.7410945 3.17260367 9.67850305 4.35021087 6 5.6875 C4.7625 6.14511719 3.525 6.60273438 2.25 7.07421875 C-1 8 -1 8 -4 7 C-2.68 4.69 -1.36 2.38 0 0 Z " fill="#C04352" transform="translate(195,293)"/>
<path d="M0 0 C0.33 0 0.66 0 1 0 C1.33 1.98 1.66 3.96 2 6 C2.33 6 2.66 6 3 6 C3.04898438 7.10859375 3.09796875 8.2171875 3.1484375 9.359375 C3.22349215 10.82294065 3.29903881 12.28648112 3.375 13.75 C3.4059375 14.47960937 3.436875 15.20921875 3.46875 15.9609375 C3.6748494 19.73942656 3.91512843 22.77946668 6 26 C5.34 26.33 4.68 26.66 4 27 C3.67 26.01 3.34 25.02 3 24 C2.34 23.67 1.68 23.34 1 23 C1 23.66 1 24.32 1 25 C0.34 25 -0.32 25 -1 25 C-0.67 16.75 -0.34 8.5 0 0 Z " fill="#BE4858" transform="translate(142,75)"/>
<path d="M0 0 C0.33 0 0.66 0 1 0 C1 6.27 1 12.54 1 19 C0.01 19 -0.98 19 -2 19 C-2.05380578 16.20807795 -2.09357669 13.4171859 -2.125 10.625 C-2.14175781 9.8309375 -2.15851563 9.036875 -2.17578125 8.21875 C-2.19335473 6.14507985 -2.10335168 4.07116759 -2 2 C-1.34 1.34 -0.68 0.68 0 0 Z " fill="#FEF9FA" transform="translate(177,38)"/>
<path d="M0 0 C8.08877476 0.68305209 8.08877476 0.68305209 11.875 2 C15.81616422 3.26117255 19.58946393 3.43397916 23.70703125 3.65625 C24.46371094 3.7696875 25.22039062 3.883125 26 4 C26.33 4.66 26.66 5.32 27 6 C22.05 6 17.1 6 12 6 C11.67 5.34 11.34 4.68 11 4 C9.906875 3.855625 8.81375 3.71125 7.6875 3.5625 C4.05389072 3.00822062 2.64048966 2.42925049 0 0 Z " fill="#CC5E6D" transform="translate(146,311)"/>
<path d="M0 0 C1.64767247 0.28109113 3.29313145 0.57518526 4.9375 0.875 C5.85402344 1.03742188 6.77054688 1.19984375 7.71484375 1.3671875 C8.46894531 1.57601563 9.22304687 1.78484375 10 2 C10.33 2.66 10.66 3.32 11 4 C9.35 4.33 7.7 4.66 6 5 C6 5.66 6 6.32 6 7 C7.32 7.66 8.64 8.32 10 9 C-2.25806452 7.16129032 -2.25806452 7.16129032 -7 4 C-3.37 4.33 0.26 4.66 4 5 C4 4.34 4 3.68 4 3 C2.0399719 1.36323743 2.0399719 1.36323743 0 0 Z " fill="#BE4353" transform="translate(147,298)"/>
<path d="M0 0 C2.31 0 4.62 0 7 0 C7.1953125 6.0546875 7.1953125 6.0546875 7 8 C6.34 8.66 5.68 9.32 5 10 C4.67 9.01 4.34 8.02 4 7 C1.98491642 6.26676204 1.98491642 6.26676204 0 6 C0 4.02 0 2.04 0 0 Z " fill="#B92436" transform="translate(101,79)"/>
<path d="M0 0 C-2.94514122 1.28849928 -5.81341718 2.2239379 -8.9375 2.9375 C-11.62282616 3.56640538 -13.35264792 4.19591551 -15.8125 5.5625 C-20.41361726 7.63751366 -25.00312228 7.742154 -30 8 C-27.3198697 6.60008362 -24.68159151 5.47815493 -21.8125 4.52734375 C-21.03132812 4.26759766 -20.25015625 4.00785156 -19.4453125 3.74023438 C-18.63835937 3.47533203 -17.83140625 3.21042969 -17 2.9375 C-16.19304687 2.66873047 -15.38609375 2.39996094 -14.5546875 2.12304688 C-4.12776981 -1.32678315 -4.12776981 -1.32678315 0 0 Z " fill="#BB4554" transform="translate(248,292)"/>
<path d="M0 0 C1.98 0 3.96 0 6 0 C6.0825 0.78375 6.165 1.5675 6.25 2.375 C6.72806339 5.14749104 6.72806339 5.14749104 9.0625 6.3125 C9.701875 6.539375 10.34125 6.76625 11 7 C8.69 7.66 6.38 8.32 4 9 C3.67 8.34 3.34 7.68 3 7 C2.01 6.67 1.02 6.34 0 6 C0 4.02 0 2.04 0 0 Z " fill="#BB3545" transform="translate(167,96)"/>
<path d="M0 0 C0.33 0.66 0.66 1.32 1 2 C4.3 2 7.6 2 11 2 C10.67 3.65 10.34 5.3 10 7 C7.36 6.67 4.72 6.34 2 6 C2 5.34 2 4.68 2 4 C1.01 4 0.02 4 -1 4 C-0.67 2.68 -0.34 1.36 0 0 Z " fill="#C12033" transform="translate(93,283)"/>
<path d="M0 0 C0.99 0.33 1.98 0.66 3 1 C3 5.95 3 10.9 3 16 C2.34 16 1.68 16 1 16 C-0.14077657 12.57767028 -0.09815117 9.91326783 -0.0625 6.3125 C-0.05347656 5.13300781 -0.04445312 3.95351562 -0.03515625 2.73828125 C-0.02355469 1.83464844 -0.01195312 0.93101563 0 0 Z " fill="#BA2335" transform="translate(208,80)"/>
<path d="M0 0 C1.23556641 0.01740234 1.23556641 0.01740234 2.49609375 0.03515625 C3.32238281 0.04417969 4.14867187 0.05320312 5 0.0625 C5.63808594 0.07410156 6.27617187 0.08570312 6.93359375 0.09765625 C6.60359375 1.08765625 6.27359375 2.07765625 5.93359375 3.09765625 C4.61359375 3.42765625 3.29359375 3.75765625 1.93359375 4.09765625 C1.60359375 10.03765625 1.27359375 15.97765625 0.93359375 22.09765625 C0.60359375 22.09765625 0.27359375 22.09765625 -0.06640625 22.09765625 C-0.06640625 15.49765625 -0.06640625 8.89765625 -0.06640625 2.09765625 C-1.05640625 1.76765625 -2.04640625 1.43765625 -3.06640625 1.09765625 C-2.06640625 0.09765625 -2.06640625 0.09765625 0 0 Z " fill="#F8C4CC" transform="translate(150.06640625,74.90234375)"/>
<path d="M0 0 C-2.31 0 -4.62 0 -7 0 C-7 0.66 -7 1.32 -7 2 C-11.455 2.495 -11.455 2.495 -16 3 C-13.84864165 -0.22703753 -12.73379356 -1.7903447 -8.9375 -2.875 C-5.00822017 -3.0422034 -3.27291966 -2.18194644 0 0 Z " fill="#BD2233" transform="translate(212,294)"/>
<path d="M0 0 C0.33 0 0.66 0 1 0 C1.33 5.94 1.66 11.88 2 18 C3.32 18 4.64 18 6 18 C6 18.66 6 19.32 6 20 C5.34 20 4.68 20 4 20 C4 20.66 4 21.32 4 22 C4.99 22.33 5.98 22.66 7 23 C4.36 23 1.72 23 -1 23 C-0.505 21.515 -0.505 21.515 0 20 C0.08106686 18.44578271 0.10756898 16.88832973 0.09765625 15.33203125 C0.09443359 14.43935547 0.09121094 13.54667969 0.08789062 12.62695312 C0.07951172 11.69818359 0.07113281 10.76941406 0.0625 9.8125 C0.05573242 8.40194336 0.05573242 8.40194336 0.04882812 6.96289062 C0.03704626 4.64186288 0.02059558 2.32096356 0 0 Z " fill="#F9C6C8" transform="translate(206,79)"/>
<path d="M0 0 C1.2879632 3.8638896 1.18415915 7.53677722 1.1875 11.5625 C1.19974609 12.34302734 1.21199219 13.12355469 1.22460938 13.92773438 C1.22985217 15.95320035 1.12234328 17.97822552 1 20 C0.34 20.66 -0.32 21.32 -1 22 C-1 15.07 -1 8.14 -1 1 C-2.98 1.99 -2.98 1.99 -5 3 C-7.25 2.625 -7.25 2.625 -9 2 C-9 1.34 -9 0.68 -9 0 C-5.67465243 -1.10844919 -3.37817425 -0.84454356 0 0 Z " fill="#F4C3C7" transform="translate(123,77)"/>
<path d="M0 0 C6.0018137 -0.21824777 11.19233704 0.4943096 17 2 C17 2.66 17 3.32 17 4 C18.32 4.66 19.64 5.32 21 6 C16.27826731 5.30130124 11.72224651 4.19817903 7.125 2.9375 C6.43664062 2.75123047 5.74828125 2.56496094 5.0390625 2.37304688 C3.35867486 1.91794189 1.67923678 1.45933322 0 1 C0 0.67 0 0.34 0 0 Z " fill="#C55865" transform="translate(92,289)"/>
<path d="M0 0 C0.33 0.99 0.66 1.98 1 3 C1.66 3 2.32 3 3 3 C3.33 6.96 3.66 10.92 4 15 C2.68 15 1.36 15 0 15 C0 10.05 0 5.1 0 0 Z " fill="#FEF9FB" transform="translate(96,85)"/>
<path d="M0 0 C1.65 0 3.3 0 5 0 C3.9318153 5.11365014 2.76892524 10.07227969 1 15 C-0.10844919 11.67465243 0.15545644 9.37817425 1 6 C0.01 6.495 0.01 6.495 -1 7 C-0.67 4.69 -0.34 2.38 0 0 Z " fill="#FACDD1" transform="translate(194,31)"/>
<path d="M0 0 C5.94 0 11.88 0 18 0 C17.01 0.33 16.02 0.66 15 1 C15 1.99 15 2.98 15 4 C13.02 4 11.04 4 9 4 C10.32 3.67 11.64 3.34 13 3 C13 2.34 13 1.68 13 1 C9.7 1 6.4 1 3 1 C3.33 1.99 3.66 2.98 4 4 C2.68 4 1.36 4 0 4 C0 2.68 0 1.36 0 0 Z " fill="#F3B5B9" transform="translate(170,31)"/>
<path d="M0 0 C7.77232205 1.30048696 15.37726245 3.00451897 23 5 C23 5.33 23 5.66 23 6 C18.05 5.67 13.1 5.34 8 5 C8 4.67 8 4.34 8 4 C5.03 3.505 5.03 3.505 2 3 C2 2.34 2 1.68 2 1 C1.34 0.67 0.68 0.34 0 0 Z " fill="#B43242" transform="translate(81,294)"/>
<path d="M0 0 C2.98479194 4.47718792 4 8.63824093 4 14 C4.66 14 5.32 14 6 14 C6 14.66 6 15.32 6 16 C4.125 15.875 4.125 15.875 2 15 C-0.43029078 10.13941843 -0.2118651 5.29662758 0 0 Z " fill="#C95565" transform="translate(274,290)"/>
<path d="M0 0 C1.65 0 3.3 0 5 0 C5.66 3.3 6.32 6.6 7 10 C8.32 10.33 9.64 10.66 11 11 C9.02 11 7.04 11 5 11 C5 10.34 5 9.68 5 9 C3.68 9.33 2.36 9.66 1 10 C1.66 9.01 2.32 8.02 3 7 C3.39013716 5.0103005 3.73202649 3.00980131 4 1 C2.68 0.67 1.36 0.34 0 0 Z " fill="#CD636F" transform="translate(156,91)"/>
<path d="M0 0 C0.99 0 1.98 0 3 0 C1.1668733 5.99932374 -1.07321751 11.44920563 -4 17 C-4.33 17 -4.66 17 -5 17 C-4.67 14.36 -4.34 11.72 -4 9 C-3.34 9 -2.68 9 -2 9 C-2 7.35 -2 5.7 -2 4 C-1.34 4 -0.68 4 0 4 C0 2.68 0 1.36 0 0 Z " fill="#BE4353" transform="translate(41,33)"/>
<path d="M0 0 C1.32 0 2.64 0 4 0 C5.49821059 3.37097383 6 5.20442119 6 9 C5.34 9 4.68 9 4 9 C3.67 9.66 3.34 10.32 3 11 C2.87625 10.030625 2.7525 9.06125 2.625 8.0625 C2.41875 7.051875 2.2125 6.04125 2 5 C1.34 4.67 0.68 4.34 0 4 C0 2.68 0 1.36 0 0 Z " fill="#FEF1F3" transform="translate(168,76)"/>
<path d="M0 0 C3.96 0 7.92 0 12 0 C12.66 1.65 13.32 3.3 14 5 C13.505 4.67 13.01 4.34 12.5 4 C8.8644803 2.54579212 5.91137561 2.81073989 2 3 C1.01 3.495 1.01 3.495 0 4 C0 2.68 0 1.36 0 0 Z " fill="#C04758" transform="translate(203,73)"/>
<path d="M0 0 C3.34905453 3.34905453 3.89470285 5.49378854 5 10 C3.68 9.67 2.36 9.34 1 9 C1 10.65 1 12.3 1 14 C0.67 14 0.34 14 0 14 C0 9.38 0 4.76 0 0 Z " fill="#B74C59" transform="translate(225,88)"/>
<path d="M0 0 C0.90650749 2.71952248 1.64484971 5.15879766 2 8 C1.01 9.485 1.01 9.485 0 11 C-1.65 10.67 -3.3 10.34 -5 10 C-5.33 8.68 -5.66 7.36 -6 6 C-5.01 6.495 -5.01 6.495 -4 7 C-4 7.66 -4 8.32 -4 9 C-3.34 9 -2.68 9 -2 9 C-2.04125 8.071875 -2.0825 7.14375 -2.125 6.1875 C-2 3 -2 3 0 0 Z " fill="#C14B59" transform="translate(109,53)"/>
<path d="M0 0 C2.31 0.33 4.62 0.66 7 1 C7 1.66 7 2.32 7 3 C7.598125 3.12375 8.19625 3.2475 8.8125 3.375 C11 4 11 4 14 6 C14 6.66 14 7.32 14 8 C8.76481294 6.56032356 4.36973991 4.18303389 0 1 C0 0.67 0 0.34 0 0 Z " fill="#C35060" transform="translate(127,176)"/>
<path d="M0 0 C1.65 0 3.3 0 5 0 C5 1.65 5 3.3 5 5 C3.68 4.67 2.36 4.34 1 4 C0.67 4.99 0.34 5.98 0 7 C-1.65 7 -3.3 7 -5 7 C-4.0409375 6.6596875 -4.0409375 6.6596875 -3.0625 6.3125 C-0.72806339 5.14749104 -0.72806339 5.14749104 -0.25 2.375 C-0.1675 1.59125 -0.085 0.8075 0 0 Z " fill="#B63C4B" transform="translate(136,52)"/>
<path d="M0 0 C1.07336426 3.49221329 0.66950706 5.4362923 -0.453125 8.91796875 C-1.48944457 12.86338539 -1.68981853 16.94315292 -2 21 C-2.33 21 -2.66 21 -3 21 C-3.34855655 13.37048445 -3.0017506 7.07555499 0 0 Z " fill="#BA4655" transform="translate(197,37)"/>
<path d="M0 0 C0.33 0 0.66 0 1 0 C1 6.93 1 13.86 1 21 C0.34 21 -0.32 21 -1 21 C-1.33 19.68 -1.66 18.36 -2 17 C-1.34 17 -0.68 17 0 17 C0 11.39 0 5.78 0 0 Z " fill="#B22739" transform="translate(147,31)"/>
<path d="M0 0 C1.32 0 2.64 0 4 0 C4 0.66 4 1.32 4 2 C4.763125 1.938125 5.52625 1.87625 6.3125 1.8125 C9 2 9 2 10.8125 3.375 C12 5 12 5 12 7 C7.39104317 5.68315519 3.85859765 3.84801255 0 1 C0 0.67 0 0.34 0 0 Z " fill="#C14F5F" transform="translate(115,169)"/>
<path d="M0 0 C0.99 0 1.98 0 3 0 C3 2.64 3 5.28 3 8 C1.68 8.33 0.36 8.66 -1 9 C-1 8.01 -1 7.02 -1 6 C-0.34 6 0.32 6 1 6 C0.67 4.02 0.34 2.04 0 0 Z " fill="#C0495A" transform="translate(153,90)"/>
<path d="M0 0 C-0.99 0.495 -0.99 0.495 -2 1 C-2 1.99 -2 2.98 -2 4 C-3.32 4 -4.64 4 -6 4 C-6 3.34 -6 2.68 -6 2 C-7.32 2.33 -8.64 2.66 -10 3 C-10 2.34 -10 1.68 -10 1 C-6.52674819 -0.1577506 -3.63932552 -0.06866652 0 0 Z " fill="#F6CFD2" transform="translate(106,31)"/>
<path d="M0 0 C-1.70828921 2.10633718 -2.52148416 2.93801608 -5.26171875 3.29296875 C-6.06222656 3.25816406 -6.86273438 3.22335937 -7.6875 3.1875 C-8.49574219 3.16042969 -9.30398437 3.13335937 -10.13671875 3.10546875 C-10.75160156 3.07066406 -11.36648437 3.03585937 -12 3 C-11.38125 2.69449219 -10.7625 2.38898438 -10.125 2.07421875 C-8.72553168 1.36676694 -7.34835523 0.61308592 -6 -0.1875 C-3.57136965 -1.17413108 -2.42552909 -0.86626039 0 0 Z " fill="#BF4456" transform="translate(186,311)"/>
<path d="M0 0 C2.64 0 5.28 0 8 0 C8.33 1.65 8.66 3.3 9 5 C5.22454612 3.90931332 2.52956528 3.0916909 0 0 Z " fill="#BE4151" transform="translate(146,187)"/>
<path d="M0 0 C2.10827055 3.16240582 2.33817465 4.50657469 2.625 8.1875 C2.69976562 9.08855469 2.77453125 9.98960938 2.8515625 10.91796875 C2.90054688 11.60503906 2.94953125 12.29210937 3 13 C1.35 12.67 -0.3 12.34 -2 12 C-1.67 11.34 -1.34 10.68 -1 10 C-0.34 10.33 0.32 10.66 1 11 C0.67 7.37 0.34 3.74 0 0 Z " fill="#F4B0B9" transform="translate(175,89)"/>
<path d="M0 0 C1.93833996 0.08715017 3.8757429 0.19532964 5.8125 0.3125 C7.43091797 0.39951172 7.43091797 0.39951172 9.08203125 0.48828125 C12.17497517 1.03068507 13.13022903 1.55289624 15 4 C9.76119922 3.44854729 5.02649303 2.57077907 0 1 C0 0.67 0 0.34 0 0 Z " fill="#EBAFB6" transform="translate(81,293)"/>
<path d="M0 0 C2.475 0.99 2.475 0.99 5 2 C5 2.99 5 3.98 5 5 C6.32 5.33 7.64 5.66 9 6 C6.625 6.125 6.625 6.125 4 6 C3.34 5.34 2.68 4.68 2 4 C1.01 4.495 1.01 4.495 0 5 C0 3.35 0 1.7 0 0 Z " fill="#B62F3C" transform="translate(226,97)"/>
<path d="M0 0 C0.33 0 0.66 0 1 0 C1.33 3.3 1.66 6.6 2 10 C0.68 10 -0.64 10 -2 10 C-2.33 8.35 -2.66 6.7 -3 5 C-2.01 5.33 -1.02 5.66 0 6 C0 4.02 0 2.04 0 0 Z " fill="#FDDDDF" transform="translate(144,47)"/>
<path d="M0 0 C3.96 0 7.92 0 12 0 C9.09907498 1.93395001 8.10325263 2.30131941 4.8125 2.625 C3.554375 2.74875 2.29625 2.8725 1 3 C0.67 2.01 0.34 1.02 0 0 Z " fill="#B83747" transform="translate(212,290)"/>
<path d="M0 0 C0 1.32 0 2.64 0 4 C-1.65 4.33 -3.3 4.66 -5 5 C-5 4.34 -5 3.68 -5 3 C-5.99 2.67 -6.98 2.34 -8 2 C-2.25 0 -2.25 0 0 0 Z " fill="#FCE4E3" transform="translate(122,96)"/>
<path d="M0 0 C0.33 0 0.66 0 1 0 C1.33 3.96 1.66 7.92 2 12 C2.66 12 3.32 12 4 12 C4 12.66 4 13.32 4 14 C2.68 13.67 1.36 13.34 0 13 C0 8.71 0 4.42 0 0 Z " fill="#AC3946" transform="translate(207,84)"/>
<path d="M0 0 C0 0.66 0 1.32 0 2 C1.32 2.66 2.64 3.32 4 4 C1.8125 4.75 1.8125 4.75 -1 5 C-3.8125 3.0625 -3.8125 3.0625 -6 1 C-3 0 -3 0 0 0 Z " fill="#BD3C4D" transform="translate(235,282)"/>
<path d="M0 0 C0 0.66 0 1.32 0 2 C-3.07115285 4.95303159 -5.8333396 5.52651586 -10 6 C-4.4 0 -4.4 0 0 0 Z " fill="#F0BEC5" transform="translate(228,162)"/>
<path d="M0 0 C1.98 0.99 1.98 0.99 4 2 C3.34 2.66 2.68 3.32 2 4 C1.53709779 6.66242821 1.53709779 6.66242821 1.375 9.625 C1.30023438 10.62789062 1.22546875 11.63078125 1.1484375 12.6640625 C1.09945312 13.43492187 1.05046875 14.20578125 1 15 C0.67 15 0.34 15 0 15 C0 10.05 0 5.1 0 0 Z " fill="#FCCED5" transform="translate(242,158)"/>
<path d="M0 0 C2 0.25 2 0.25 4 1 C4.33 1.99 4.66 2.98 5 4 C5.66 4 6.32 4 7 4 C7 4.66 7 5.32 7 6 C3.62496331 4.8141763 1.35277269 3.72426311 -1 1 C-0.67 0.67 -0.34 0.34 0 0 Z " fill="#BB3B49" transform="translate(96,156)"/>
<path d="M0 0 C2.46278801 2.46278801 2.99771255 4.70676982 4 8 C2.68 8.33 1.36 8.66 0 9 C-0.33 8.01 -0.66 7.02 -1 6 C-0.34 6 0.32 6 1 6 C0.67 4.02 0.34 2.04 0 0 Z " fill="#F0CDCF" transform="translate(227,82)"/>
<path d="M0 0 C-0.3125 1.9375 -0.3125 1.9375 -1 4 C-1.99 4.33 -2.98 4.66 -4 5 C-4 4.34 -4 3.68 -4 3 C-5.65 3 -7.3 3 -9 3 C-3 0 -3 0 0 0 Z " fill="#C23A4C" transform="translate(187,296)"/>
<path d="M0 0 C4.455 0.99 4.455 0.99 9 2 C9 2.33 9 2.66 9 3 C2.9453125 3.9765625 2.9453125 3.9765625 1 4 C0.34 3.34 -0.32 2.68 -1 2 C-0.67 1.34 -0.34 0.68 0 0 Z " fill="#B8313F" transform="translate(95,282)"/>
<path d="M0 0 C-0.33 1.32 -0.66 2.64 -1 4 C-3.375 4.1875 -3.375 4.1875 -6 4 C-6.66 3.01 -7.32 2.02 -8 1 C-5.10765685 0.17361624 -3.11257569 0 0 0 Z " fill="#F6D4DA" transform="translate(104,54)"/>
<path d="M0 0 C-5.14285714 4.42857143 -5.14285714 4.42857143 -9 5 C-7.35234966 0.05704899 -4.76872479 -0.25776891 0 0 Z " fill="#BA374A" transform="translate(185,186)"/>
<path d="M0 0 C0.99 0.66 1.98 1.32 3 2 C1.9375 3.5 1.9375 3.5 0 5 C-3.6875 5.1875 -3.6875 5.1875 -7 5 C-7 4.67 -7 4.34 -7 4 C-5.824375 3.8453125 -5.824375 3.8453125 -4.625 3.6875 C-1.66954819 3.22404978 -1.66954819 3.22404978 0 0 Z " fill="#F3CACA" transform="translate(156,97)"/>
<path d="M0 0 C2.1519437 3.22791555 2.20086443 4.28400809 2 8 C1.01 8 0.02 8 -1 8 C-0.67 5.36 -0.34 2.72 0 0 Z " fill="#B75B67" transform="translate(138,41)"/>
<path d="M0 0 C0.99 0.33 1.98 0.66 3 1 C0.47211993 3.79872437 -1.20411134 5.45773019 -5 6 C-5 5.34 -5 4.68 -5 4 C-4.01 4 -3.02 4 -2 4 C-2 3.34 -2 2.68 -2 2 C-1.34 2 -0.68 2 0 2 C0 1.34 0 0.68 0 0 Z " fill="#B83547" transform="translate(219,163)"/>
</svg>
