<?xml version="1.0" standalone="no"?>
<!DOCTYPE svg PUBLIC "-//W3C//DTD SVG 20010904//EN"
 "http://www.w3.org/TR/2001/REC-SVG-20010904/DTD/svg10.dtd">
<svg version="1.0" xmlns="http://www.w3.org/2000/svg"
 width="365.000000pt" height="364.000000pt" viewBox="0 0 365.000000 364.000000"
 preserveAspectRatio="xMidYMid meet">

<g transform="translate(0.000000,364.000000) scale(0.100000,-0.100000)"
fill="#000000" stroke="none">
<path d="M0 1820 l0 -1820 1825 0 1825 0 0 1813 0 1814 -187 6 c-104 4 -925 7
-1825 7 l-1638 0 0 -1820z m765 1509 c57 -16 95 -46 116 -93 33 -74 23 -160
-26 -211 l-32 -34 28 -27 c15 -14 32 -45 38 -69 44 -174 -59 -313 -215 -289
-93 14 -154 89 -154 191 l0 53 70 0 70 0 0 -41 c0 -56 14 -79 51 -79 22 0 32
6 39 26 20 52 7 147 -23 166 -7 4 -24 8 -39 8 -27 0 -28 2 -28 55 l0 55 34 0
c46 0 66 29 66 93 0 64 -13 87 -50 87 -36 0 -50 -23 -50 -79 l0 -41 -70 0 -70
0 0 50 c0 89 40 148 117 175 47 17 76 18 128 4z m-315 -354 l0 -355 -70 0 -70
0 0 280 0 280 -36 -15 c-58 -24 -64 -21 -64 33 0 47 0 47 56 77 30 17 60 36
66 43 6 7 33 12 64 12 l54 0 0 -355z m848 339 c16 -11 22 -25 22 -55 0 -35 -3
-39 -24 -39 -21 0 -25 6 -28 33 -2 20 -8 32 -18 32 -12 0 -15 -17 -15 -95 0
-78 3 -95 15 -95 10 0 16 12 18 33 3 26 7 32 28 32 21 0 24 -5 24 -35 0 -46
-29 -75 -75 -75 -60 0 -75 28 -75 136 0 77 3 95 21 118 24 30 72 35 107 10z
m102 -104 l0 -120 30 0 c23 0 30 -4 30 -20 0 -18 -7 -20 -60 -20 l-60 0 0 140
0 140 30 0 30 0 0 -120z m128 -17 l-3 -138 -27 -3 -28 -3 0 140 0 141 30 0 31
0 -3 -137z m86 120 c3 -10 10 -47 17 -82 14 -72 21 -66 40 32 12 64 14 67 41
67 l28 0 0 -140 c0 -133 -1 -140 -20 -140 -18 0 -20 7 -21 78 l-1 77 -16 -75
c-12 -54 -22 -76 -34 -78 -13 -3 -19 10 -29 60 -11 52 -14 59 -20 38 -4 -14
-7 -42 -8 -62 -1 -31 -5 -38 -21 -38 -19 0 -20 7 -20 133 0 74 3 137 7 140 13
14 52 7 57 -10z m275 -100 c12 -65 25 -128 28 -140 4 -20 1 -23 -21 -23 -21 0
-28 6 -32 30 -5 23 -12 30 -30 30 -20 0 -24 -5 -24 -30 0 -25 -4 -30 -25 -30
-31 0 -31 7 -5 136 31 153 27 144 58 144 28 0 28 -1 51 -117z m151 92 c0 -18
-5 -25 -20 -25 -19 0 -20 -7 -20 -115 l0 -115 -25 0 -25 0 0 115 c0 69 -4 115
-10 116 -5 1 -16 2 -22 3 -7 0 -14 11 -16 24 -3 21 0 22 67 22 69 0 71 -1 71
-25z m130 5 c0 -16 -7 -20 -30 -20 -28 0 -30 -3 -30 -34 0 -28 4 -35 22 -38
34 -5 37 -38 4 -38 -24 0 -26 -3 -26 -45 0 -43 1 -45 30 -45 23 0 30 -4 30
-20 0 -18 -7 -20 -60 -20 l-60 0 0 140 0 140 60 0 c53 0 60 -2 60 -20z m-895
-442 c16 -70 45 -223 45 -240 0 -30 -43 -20 -50 12 -4 15 -14 26 -27 28 -17 2
-23 -4 -28 -27 -5 -24 -12 -31 -31 -31 -13 0 -24 3 -24 8 0 4 12 67 26 140
l27 132 28 0 c21 0 30 -6 34 -22z m187 5 c10 -9 18 -30 18 -50 0 -28 -3 -33
-24 -33 -19 0 -25 6 -28 27 -2 17 -10 29 -20 31 -16 3 -18 -7 -18 -98 0 -91 2
-101 18 -98 11 2 18 14 20 36 3 26 7 32 28 32 21 0 24 -5 24 -35 0 -69 -76
-100 -125 -50 -23 22 -25 32 -25 120 0 82 3 98 20 115 25 25 86 27 112 3z
m168 -3 c0 -13 -7 -20 -20 -20 -18 0 -20 -8 -22 -117 l-3 -118 -25 0 -25 0 -3
118 c-2 109 -4 117 -22 117 -13 0 -20 7 -20 20 0 18 7 20 70 20 63 0 70 -2 70
-20z m60 -120 l0 -140 -25 0 -25 0 0 140 0 140 25 0 25 0 0 -140z m160 120
c17 -17 20 -33 20 -115 0 -88 -2 -98 -25 -120 -29 -30 -74 -32 -106 -6 -22 17
-24 29 -27 113 -3 83 -1 96 18 121 27 34 89 38 120 7z m111 -50 l28 -65 1 68
c0 65 1 67 25 67 l26 0 -3 -137 c-3 -118 -5 -138 -19 -141 -13 -2 -24 16 -45
70 l-29 73 -3 -73 c-3 -69 -4 -73 -25 -70 -21 3 -22 7 -25 141 -3 138 -2 138
19 135 17 -2 29 -20 50 -68z m221 -829 c398 -82 744 -295 1007 -618 l42 -52
-69 -83 c-299 -358 -697 -565 -1169 -609 -479 -45 -1007 151 -1342 500 -69 71
-161 182 -161 194 0 20 94 128 197 228 218 211 478 352 778 425 154 37 224 43
430 39 139 -3 216 -9 287 -24z"/>
<path d="M1830 3219 c0 -13 -3 -34 -6 -46 -5 -17 -2 -23 9 -23 12 0 14 9 10
43 -7 48 -13 62 -13 26z"/>
<path d="M1230 2740 c0 -16 5 -30 10 -30 6 0 10 14 10 30 0 17 -4 30 -10 30
-5 0 -10 -13 -10 -30z"/>
<path d="M1774 2837 c-3 -8 -4 -52 -2 -98 2 -67 6 -84 18 -84 12 0 16 19 18
98 2 83 0 97 -13 97 -9 0 -18 -6 -21 -13z"/>
<path d="M1790 1880 c-61 -8 -137 -31 -188 -58 l-33 -18 64 4 c72 5 107 -8
107 -39 0 -11 12 -31 26 -44 14 -13 23 -29 19 -35 -9 -15 -101 -60 -109 -53
-12 12 -6 21 24 33 43 18 38 34 -7 26 -21 -4 -67 -11 -103 -17 -64 -10 -110
-30 -110 -50 0 -11 60 -39 84 -39 8 0 27 11 41 24 15 14 33 22 41 19 21 -8 17
-15 -23 -45 -27 -21 -42 -26 -62 -21 -14 4 -39 7 -54 7 -36 -1 -96 -34 -90
-50 6 -17 -16 -29 -57 -29 -29 0 -36 -4 -38 -24 -4 -22 -2 -23 35 -17 21 4 55
16 75 26 40 21 37 22 77 -30 19 -24 20 -24 14 -2 -6 25 14 31 23 7 4 -9 13
-13 24 -10 9 3 23 -2 31 -11 11 -14 10 -19 -10 -35 -30 -25 -50 -24 -133 6
-94 34 -121 33 -149 -6 -20 -28 -21 -39 -16 -118 6 -95 35 -187 58 -184 8 1
28 7 46 14 28 11 34 11 52 -6 12 -10 21 -24 21 -30 0 -7 9 -15 20 -18 11 -3
20 -14 20 -25 0 -11 7 -25 15 -32 8 -7 15 -27 15 -45 0 -50 9 -65 40 -65 37 0
76 39 90 89 6 22 15 41 20 41 11 0 30 65 30 103 0 16 10 38 25 53 34 34 32 45
-14 82 -37 30 -62 84 -47 100 4 3 24 -13 45 -36 21 -23 43 -42 48 -42 15 0 63
40 63 51 0 5 -21 32 -46 59 -25 27 -44 54 -42 59 5 15 108 -58 118 -83 10 -28
27 -41 72 -55 20 -7 49 -21 63 -33 32 -25 45 -16 52 40 5 41 21 56 47 46 8 -3
24 -32 36 -65 15 -40 35 -70 59 -89 51 -43 66 -39 41 10 -18 35 -19 44 -8 68
11 22 45 46 92 65 6 2 5 16 -3 35 -16 39 -6 60 19 37 10 -9 29 -15 42 -13 63
9 -11 189 -126 304 -127 127 -290 185 -466 164z"/>
<path d="M1426 1703 c-15 -16 -22 -31 -17 -36 15 -15 66 16 69 41 5 31 -21 29
-52 -5z"/>
<path d="M1384 1622 c-15 -9 -57 -92 -47 -92 5 1 32 23 62 50 54 50 55 50 25
50 -16 0 -34 -4 -40 -8z"/>
<path d="M2382 1334 c-11 -41 -10 -50 9 -92 l22 -47 9 69 c9 67 1 116 -20 116
-4 0 -13 -21 -20 -46z"/>
<path d="M1967 1263 c-11 -11 -8 -20 9 -27 23 -9 37 3 23 20 -13 15 -22 18
-32 7z"/>
<path d="M2252 1258 c3 -7 13 -15 24 -17 16 -3 17 -1 5 13 -16 19 -34 21 -29
4z"/>
<path d="M2277 1204 c-11 -11 3 -24 24 -24 12 0 19 5 17 13 -5 14 -31 21 -41
11z"/>
<path d="M1755 1151 c-9 -16 -24 -105 -18 -115 5 -7 29 45 49 107 6 18 -20 25
-31 8z"/>
<path d="M2310 1139 c-25 -10 -65 -24 -89 -30 -84 -21 -117 -79 -90 -158 12
-33 27 -39 47 -19 9 9 15 10 20 2 4 -6 20 -13 35 -16 23 -5 34 1 63 36 52 59
96 150 88 181 -7 29 -14 29 -74 4z"/>
<path d="M2110 863 c-8 -4 -29 -17 -47 -30 l-32 -24 -81 25 c-126 40 -210 33
-245 -21 -21 -31 -14 -39 46 -52 71 -15 175 -14 244 4 67 17 187 75 193 93 4
13 -50 16 -78 5z"/>
</g>
</svg>
