<?xml version="1.0" standalone="no"?>
<!DOCTYPE svg PUBLIC "-//W3C//DTD SVG 20010904//EN"
 "http://www.w3.org/TR/2001/REC-SVG-20010904/DTD/svg10.dtd">
<svg version="1.0" xmlns="http://www.w3.org/2000/svg"
 width="366.000000pt" height="363.000000pt" viewBox="0 0 366.000000 363.000000"
 preserveAspectRatio="xMidYMid meet">

<g transform="translate(0.000000,363.000000) scale(0.100000,-0.100000)"
fill="#000000" stroke="none">
<path d="M0 1815 l0 -1815 1825 0 1825 0 0 1815 0 1815 -1825 0 -1825 0 0
-1815z m430 1170 l0 -355 -70 0 -70 0 0 279 0 279 -50 -19 -50 -19 0 54 c0 52
1 53 38 70 21 10 52 28 68 41 22 19 41 24 82 25 l52 0 0 -355z m390 135 l0
-220 35 0 c35 0 35 0 35 -45 0 -25 1 -48 3 -52 1 -5 -15 -9 -35 -11 l-38 -3 0
-80 0 -79 -60 0 -60 0 0 80 0 80 -77 1 c-43 1 -90 0 -105 -1 -28 -1 -28 -1
-28 62 0 57 8 82 91 276 l91 212 74 0 74 0 0 -220z m390 100 l0 -120 30 0 c23
0 30 -4 30 -20 0 -18 -7 -20 -60 -20 l-60 0 0 133 c0 74 3 137 7 140 3 4 17 7
30 7 23 0 23 -1 23 -120z m128 -22 l3 -138 -31 0 -30 0 0 133 c0 74 3 137 7
141 4 4 16 6 28 4 19 -3 20 -11 23 -140z m140 120 c3 -14 -3 -18 -27 -18 -29
0 -31 -2 -31 -40 0 -36 3 -40 25 -40 18 0 25 -5 25 -20 0 -15 -7 -20 -25 -20
-24 0 -25 -3 -25 -60 l0 -60 -30 0 -30 0 0 133 c0 74 3 137 7 141 4 4 30 6 58
4 38 -2 51 -7 53 -20z m127 -3 c0 -13 -7 -21 -20 -21 -11 -1 -26 -2 -32 -3 -8
-1 -13 -15 -13 -36 0 -31 3 -35 25 -35 18 0 25 -5 25 -20 0 -15 -7 -20 -25
-20 -22 0 -25 -4 -25 -40 0 -39 1 -40 36 -40 28 0 35 -3 32 -17 -2 -14 -15
-19 -61 -21 l-57 -3 0 141 0 141 58 -3 c49 -3 57 -6 57 -23z m-321 -434 c19
-16 22 -81 5 -98 -9 -9 -8 -16 5 -28 22 -22 20 -77 -3 -106 -16 -20 -28 -23
-77 -24 l-59 0 -3 139 -3 138 60 -4 c33 -2 66 -10 75 -17z m164 -3 c3 -15 -4
-18 -32 -18 -34 0 -36 -2 -36 -35 0 -31 3 -35 25 -35 18 0 25 -5 25 -20 0 -15
-7 -20 -25 -20 -23 0 -25 -4 -25 -45 0 -45 0 -45 36 -45 28 0 35 -3 32 -17 -2
-14 -15 -19 -61 -21 l-57 -3 0 141 0 141 57 -3 c46 -2 59 -7 61 -20z m62 -98
l0 -120 36 0 c28 0 35 -3 32 -17 -2 -14 -15 -19 -61 -21 l-57 -3 0 141 0 140
25 0 25 0 0 -120z m209 94 c18 -23 21 -41 21 -116 0 -81 -2 -91 -25 -113 -29
-30 -74 -32 -106 -6 -22 17 -24 29 -27 113 -3 83 -1 96 18 121 30 38 90 38
119 1z m86 -31 c11 -94 17 -94 30 0 6 44 26 70 42 53 3 -3 11 -39 18 -78 l11
-73 10 75 c8 67 11 75 32 78 27 4 27 1 4 -158 -16 -104 -19 -115 -39 -118 -23
-3 -25 0 -42 113 l-7 50 -15 -80 c-12 -69 -17 -80 -36 -83 -24 -4 -23 -6 -43
143 -6 44 -13 92 -16 108 -5 24 -3 27 19 27 24 0 26 -5 32 -57z m299 -23 l10
-75 8 55 c13 89 17 100 37 100 15 0 21 -10 26 -52 13 -92 21 -98 29 -20 7 68
8 72 32 72 23 0 25 -3 20 -27 -3 -16 -10 -64 -16 -108 -20 -149 -19 -147 -43
-143 -18 3 -23 13 -33 71 -6 37 -13 69 -16 72 -3 3 -8 -18 -12 -47 -12 -89
-16 -99 -40 -96 -19 3 -23 15 -38 118 -23 159 -23 162 5 158 20 -3 23 -11 31
-78z m271 58 c25 -111 45 -216 45 -236 0 -19 -5 -23 -22 -20 -17 2 -24 11 -26
31 -3 21 -9 27 -26 27 -18 0 -25 -7 -29 -30 -5 -24 -12 -30 -32 -30 -14 0 -25
2 -25 4 0 8 51 252 55 264 2 6 16 12 29 12 18 0 27 -6 31 -22z m175 2 c0 -13
-7 -20 -20 -20 -18 0 -20 -8 -22 -117 l-3 -118 -27 -3 -28 -3 0 120 c0 114 -1
121 -20 121 -13 0 -20 7 -20 20 0 18 7 20 70 20 63 0 70 -2 70 -20z m128 -2
c3 -15 -4 -18 -32 -18 -34 0 -36 -2 -36 -35 0 -31 3 -35 25 -35 18 0 25 -5 25
-20 0 -15 -7 -20 -25 -20 -23 0 -25 -4 -25 -45 0 -45 0 -45 36 -45 28 0 35 -3
32 -17 -2 -14 -15 -19 -61 -21 l-57 -3 0 141 0 141 57 -3 c46 -2 59 -7 61 -20z
m148 -3 c18 -24 18 -90 1 -107 -12 -10 -11 -22 4 -73 24 -77 24 -77 -8 -73
-22 3 -28 11 -40 53 -23 81 -27 83 -33 15 -5 -62 -6 -65 -32 -68 l-28 -3 0
142 0 141 61 -4 c45 -3 65 -10 75 -23z m-1474 -724 c89 -47 162 -65 238 -58
61 5 148 42 188 80 19 18 26 19 40 9 50 -35 122 -73 157 -83 85 -24 222 6 316
68 28 18 45 24 53 17 50 -37 99 -64 140 -78 66 -23 173 -21 240 5 31 11 60 18
66 14 5 -3 10 -26 10 -50 0 -38 -4 -47 -33 -69 -113 -86 -259 -77 -387 24
l-39 31 -45 -35 c-68 -52 -128 -71 -221 -71 -65 1 -91 6 -140 28 -32 15 -74
39 -91 52 -18 14 -35 25 -37 25 -3 0 -28 -16 -57 -35 -74 -50 -176 -79 -254
-73 -68 6 -154 42 -199 83 l-28 26 -38 -31 c-129 -102 -274 -111 -388 -24 -30
22 -33 30 -33 75 0 57 3 57 78 29 105 -40 247 -20 338 50 22 16 42 29 46 29 3
1 39 -17 80 -38z m-15 -296 c77 -47 141 -65 227 -65 77 0 123 16 201 70 l46
31 31 -26 c57 -48 109 -68 189 -73 92 -5 159 12 243 63 l60 36 25 -21 c87 -69
204 -100 303 -80 35 6 76 19 92 27 37 19 48 7 44 -51 -3 -46 -5 -49 -59 -83
-106 -65 -221 -55 -342 30 l-58 40 -27 -21 c-85 -68 -186 -96 -286 -81 -59 10
-151 50 -195 86 l-25 20 -60 -39 c-144 -93 -311 -94 -432 -2 -24 19 -47 34
-50 34 -3 0 -24 -15 -47 -33 -58 -45 -112 -68 -177 -74 -69 -6 -123 8 -184 48
-47 31 -47 32 -44 83 3 57 5 58 78 30 102 -39 260 -13 340 55 19 17 38 30 42
31 4 0 33 -16 65 -35z m-406 -465 c116 -36 260 -153 322 -261 12 -21 24 -39
27 -39 3 0 46 29 95 65 98 70 265 161 368 200 269 101 524 66 774 -107 75 -52
194 -162 266 -247 42 -49 46 -37 -43 -140 -68 -79 -199 -188 -288 -240 -222
-129 -428 -153 -657 -77 -136 46 -292 126 -415 215 l-95 68 -42 -62 c-85 -127
-224 -227 -356 -256 -79 -17 -86 -7 -42 66 95 158 127 348 90 533 -10 49 -35
115 -68 182 -29 57 -53 108 -55 112 -6 14 55 8 119 -12z"/>
<path d="M651 3048 c-24 -68 -46 -129 -49 -135 -3 -9 10 -13 47 -13 l51 0 0
135 c0 74 -1 135 -3 135 -2 0 -23 -55 -46 -122z"/>
<path d="M1210 2825 c0 -40 22 -48 40 -14 9 15 8 24 -1 35 -21 26 -39 16 -39
-21z"/>
<path d="M1210 2710 c0 -34 3 -40 20 -40 25 0 34 21 26 55 -4 16 -13 25 -26
25 -17 0 -20 -7 -20 -40z"/>
<path d="M1644 2847 c-3 -8 -4 -52 -2 -98 2 -67 6 -84 18 -84 12 0 16 19 18
98 2 83 0 97 -13 97 -9 0 -18 -6 -21 -13z"/>
<path d="M2336 2774 c-10 -27 -7 -54 7 -54 9 0 12 11 9 35 -5 39 -7 42 -16 19z"/>
<path d="M2740 2821 c0 -26 5 -41 13 -41 25 0 39 18 35 46 -2 21 -9 30 -25 32
-21 3 -23 -1 -23 -37z"/>
<path d="M2223 1135 c-81 -35 -83 -169 -3 -210 63 -32 139 -4 167 63 21 50 2
107 -46 139 -39 26 -72 28 -118 8z"/>
</g>
</svg>
