<?xml version="1.0" encoding="UTF-8"?>
<svg version="1.1" xmlns="http://www.w3.org/2000/svg" width="370" height="369">
<path d="M0 0 C122.1 0 244.2 0 370 0 C370 121.77 370 243.54 370 369 C247.9 369 125.8 369 0 369 C0 247.23 0 125.46 0 0 Z " fill="#EA1E2E" transform="translate(0,0)"/>
<path d="M0 0 C2.20628112 0.00847917 4.40994334 -0.02020919 6.6159668 -0.05200195 C8.03328374 -0.05361515 9.45060521 -0.05303417 10.86791992 -0.05004883 C12.78568237 -0.05282837 12.78568237 -0.05282837 14.7421875 -0.05566406 C19.41680419 0.58360773 21.59090203 1.66188856 25.41088867 4.44604492 C28.41216762 8.82979824 28.77105371 12.35317209 28.70385742 17.59448242 C28.69961258 18.25187408 28.69536774 18.90926575 28.69099426 19.58657837 C28.67433844 21.66516883 28.63671487 23.74275266 28.59838867 25.82104492 C28.58332473 27.23899957 28.56963932 28.65696957 28.55737305 30.07495117 C28.52447905 33.53230382 28.47279032 36.98907595 28.41088867 40.44604492 C29.20817383 40.56842529 30.00545898 40.69080566 30.8269043 40.81689453 C33.41088867 41.44604492 33.41088867 41.44604492 34.75463867 43.51245117 C35.13620117 44.33616211 35.51776367 45.15987305 35.91088867 46.00854492 C37.89233852 49.21808088 38.82133071 50.26406402 42.47338867 51.39135742 C46.17228982 51.65196182 48.87224226 51.5789534 52.41088867 50.44604492 C54.61401261 47.95462157 55.80541298 45.70260742 57.06713867 42.63354492 C57.51057617 41.91166992 57.95401367 41.18979492 58.41088867 40.44604492 C61.06713867 40.13354492 61.06713867 40.13354492 63.41088867 40.44604492 C63.68288086 39.16084961 63.95487305 37.8756543 64.23510742 36.55151367 C65.35042432 31.54874453 66.71892234 26.65689876 68.22338867 21.75854492 C68.45864258 20.94321289 68.69389648 20.12788086 68.9362793 19.2878418 C72.15072065 8.85145348 72.15072065 8.85145348 76.41088867 6.44604492 C81.07382694 5.5873179 85.6205619 5.65508612 90.34838867 5.75854492 C91.61102539 5.7437207 92.87366211 5.72889648 94.17456055 5.71362305 C104.44915353 5.80579618 104.44915353 5.80579618 108.02026367 8.22338867 C111.89472349 12.36745342 113.14677404 18.39712711 114.72338867 23.69604492 C115.40499544 25.88937173 116.08848439 28.08211481 116.77416992 30.27416992 C117.06590088 31.24257812 117.35763184 32.21098633 117.65820312 33.20874023 C118.20785534 35.39125337 118.20785534 35.39125337 119.41088867 36.44604492 C119.68403682 42.18215603 119.68403682 42.18215603 119.41088867 44.44604492 C117.41088867 46.44604492 117.41088867 46.44604492 115.03588867 46.63354492 C111.3860116 44.98241005 110.82569103 42.96836028 109.39135742 39.33276367 C104.41088867 24.66915249 104.41088867 24.66915249 104.41088867 19.44604492 C103.75088867 19.44604492 103.09088867 19.44604492 102.41088867 19.44604492 C105.51594851 33.00663809 108.98678747 46.39905971 112.93945312 59.73803711 C113.41088867 61.44604492 113.41088867 61.44604492 113.41088867 62.44604492 C108.46088867 62.94104492 108.46088867 62.94104492 103.41088867 63.44604492 C103.39106934 64.37465332 103.37125 65.30326172 103.35083008 66.26000977 C103.27280254 69.70055013 103.18611405 73.14064383 103.09350586 76.58081055 C103.0551887 78.07063381 103.02034059 79.56055047 102.98901367 81.05053711 C102.94342138 83.1905254 102.88541994 85.32986928 102.82495117 87.46948242 C102.79353027 88.75773926 102.76210937 90.04599609 102.72973633 91.37329102 C102.41088867 94.44604492 102.41088867 94.44604492 100.41088867 96.44604492 C97.97338867 96.82104492 97.97338867 96.82104492 95.41088867 96.44604492 C92.9514385 94.06595545 92.43469084 92.67024599 92.0703125 89.23803711 C92.08602295 88.00214844 92.1017334 86.76625977 92.11791992 85.49291992 C92.12216476 84.83269836 92.12640961 84.17247681 92.13078308 83.49224854 C92.14751433 81.39309101 92.18515316 79.29490996 92.22338867 77.19604492 C92.23844283 75.7689755 92.25212996 74.34189096 92.2644043 72.91479492 C92.29739866 69.42489676 92.34914124 65.93556622 92.41088867 62.44604492 C91.75088867 62.44604492 91.09088867 62.44604492 90.41088867 62.44604492 C90.4213623 63.3694165 90.43183594 64.29278809 90.44262695 65.24414062 C90.47672057 68.6714121 90.50179313 72.09850325 90.52075195 75.52587891 C90.53080688 77.00898076 90.54445271 78.4920628 90.56176758 79.97509766 C90.58603874 82.10739024 90.59737667 84.23942062 90.60620117 86.37182617 C90.6166748 87.65484619 90.62714844 88.93786621 90.63793945 90.25976562 C90.41088867 93.44604492 90.41088867 93.44604492 88.41088867 96.44604492 C84.91088867 96.82104492 84.91088867 96.82104492 81.41088867 96.44604492 C78.92728426 92.7206383 79.17930198 90.81541519 79.21557617 86.37182617 C79.21840607 85.68799362 79.22123596 85.00416107 79.22415161 84.29960632 C79.23533184 82.11907327 79.26043176 79.93895347 79.28588867 77.75854492 C79.29592129 76.27873315 79.30504665 74.79891493 79.31323242 73.3190918 C79.33526386 69.69460892 79.36977865 66.07036726 79.41088867 62.44604492 C76.11088867 62.44604492 72.81088867 62.44604492 69.41088867 62.44604492 C69.98129931 56.68360109 71.11772405 51.50587533 72.91088867 46.00854492 C73.13647461 45.28989258 73.36206055 44.57124023 73.59448242 43.83081055 C75.26730554 38.58962805 75.26730554 38.58962805 76.41088867 37.44604492 C76.76297848 35.95484104 77.06714339 34.452218 77.34838867 32.94604492 C78.27914682 28.08930689 79.3216907 23.26963592 80.41088867 18.44604492 C78.17640267 19.27754792 78.17640267 19.27754792 77.57299805 21.73095703 C77.30293945 22.71845947 77.03288086 23.70596191 76.75463867 24.72338867 C76.30411133 26.32923828 76.30411133 26.32923828 75.84448242 27.9675293 C75.53639648 29.09481445 75.22831055 30.22209961 74.91088867 31.38354492 C74.30232131 33.60265143 73.68801285 35.82019393 73.06713867 38.03588867 C72.79708008 39.02451904 72.52702148 40.01314941 72.2487793 41.03173828 C71.41088867 43.44604492 71.41088867 43.44604492 69.41088867 45.44604492 C66.28588867 45.57104492 66.28588867 45.57104492 63.41088867 45.44604492 C57.58872879 55.05557922 55.03527892 61.14477539 57.34838867 72.25854492 C57.69225888 73.65695044 58.04597555 75.05298242 58.41088867 76.44604492 C58.74476376 77.7792427 59.07826048 79.1125355 59.41088867 80.44604492 C58.09088867 80.44604492 56.77088867 80.44604492 55.41088867 80.44604492 C55.4340918 81.42186523 55.45729492 82.39768555 55.48120117 83.40307617 C55.49924805 84.67538086 55.51729492 85.94768555 55.53588867 87.25854492 C55.5590918 88.52311523 55.58229492 89.78768555 55.60620117 91.09057617 C55.41088867 94.44604492 55.41088867 94.44604492 53.41088867 97.44604492 C50.91088867 97.82104492 50.91088867 97.82104492 48.41088867 97.44604492 C45.91969914 93.70926063 46.20436607 91.70152673 46.28588867 87.25854492 C46.30393555 85.98624023 46.32198242 84.71393555 46.34057617 83.40307617 C46.3637793 82.42725586 46.38698242 81.45143555 46.41088867 80.44604492 C45.75088867 80.44604492 45.09088867 80.44604492 44.41088867 80.44604492 C44.4340918 81.5056543 44.45729492 82.56526367 44.48120117 83.65698242 C44.49995812 85.04499622 44.5181584 86.43301763 44.53588867 87.82104492 C44.55264648 88.5197168 44.5694043 89.21838867 44.58666992 89.93823242 C44.60433134 91.77501978 44.51392128 93.61206455 44.41088867 95.44604492 C43.75088867 96.10604492 43.09088867 96.76604492 42.41088867 97.44604492 C37.85533312 96.89048937 37.85533312 96.89048937 36.41088867 95.44604492 C36.33775301 92.9155509 36.3184134 90.41299655 36.34838867 87.88354492 C36.35290039 87.17262695 36.35741211 86.46170898 36.36206055 85.72924805 C36.37388003 83.96814479 36.39181604 82.20708456 36.41088867 80.44604492 C35.09088867 80.44604492 33.77088867 80.44604492 32.41088867 80.44604492 C32.81600483 76.52992207 33.18142578 73.10743797 34.47338867 69.38354492 C36.05538438 64.42662504 35.96034682 60.71176102 33.87963867 55.91870117 C32.90510742 54.23067383 32.90510742 54.23067383 31.91088867 52.50854492 C31.26120117 51.36514648 30.61151367 50.22174805 29.94213867 49.04370117 C29.43682617 48.18647461 28.93151367 47.32924805 28.41088867 46.44604492 C27.46213867 46.48729492 26.51338867 46.52854492 25.53588867 46.57104492 C22.41088867 46.44604492 22.41088867 46.44604492 20.41088867 44.44604492 C20.09204102 41.64868164 20.09204102 41.64868164 19.99682617 38.12573242 C19.93881836 36.24047852 19.93881836 36.24047852 19.87963867 34.31713867 C19.84870117 32.99842773 19.81776367 31.6797168 19.78588867 30.32104492 C19.74770839 28.98117574 19.70865662 27.64133109 19.66870117 26.30151367 C19.57416837 23.01649874 19.48861712 19.73149354 19.41088867 16.44604492 C18.75088867 16.44604492 18.09088867 16.44604492 17.41088867 16.44604492 C17.40502243 17.41657303 17.39915619 18.38710114 17.39311218 19.38703918 C17.33594571 28.52499377 17.26321622 37.66270899 17.17517376 46.80041981 C17.13041028 51.49843958 17.09116749 56.19637143 17.06445312 60.89453125 C17.03847957 65.42694157 16.99811983 69.95901462 16.94770241 74.49121666 C16.93099331 76.22195942 16.91950427 77.95276057 16.91327477 79.68357277 C16.90367735 82.10451396 16.87567196 84.52458441 16.84326172 86.9453125 C16.84469681 87.66388428 16.8461319 88.38245605 16.84761047 89.12280273 C16.792576 92.02166082 16.73770263 93.98224085 15.04011536 96.3914032 C12.68727282 97.91446069 11.15342772 97.85742578 8.41088867 97.44604492 C6.27807219 95.83824657 5.49767172 94.96204854 5.05012512 92.30097961 C5.05678696 91.4726915 5.06344879 90.64440338 5.0703125 89.79101562 C5.07065239 88.3798925 5.07065239 88.3798925 5.07099915 86.94026184 C5.086483 85.92767807 5.10196686 84.9150943 5.11791992 83.87182617 C5.12216476 82.8328569 5.12640961 81.79388763 5.13078308 80.72343445 C5.14759019 77.40154216 5.18524671 74.08025417 5.22338867 70.75854492 C5.23843286 68.50790263 5.25212172 66.25725085 5.2644043 64.0065918 C5.29750031 58.48620295 5.34771998 52.9661671 5.41088867 47.44604492 C4.09088867 47.44604492 2.77088867 47.44604492 1.41088867 47.44604492 C1.4153299 48.04073074 1.41977112 48.63541656 1.42434692 49.24812317 C1.46853742 55.42841188 1.49873725 61.60865582 1.52075195 67.7890625 C1.53081975 70.09669823 1.54447491 72.40432117 1.56176758 74.71191406 C1.58598155 78.02566684 1.59736393 81.33925119 1.60620117 84.65307617 C1.61652374 85.68753372 1.62684631 86.72199127 1.63748169 87.78779602 C1.63763275 88.74856552 1.63778381 89.70933502 1.63793945 90.69921875 C1.64238068 91.54527176 1.6468219 92.39132477 1.65139771 93.26301575 C1.41088867 95.44604492 1.41088867 95.44604492 -0.58911133 98.44604492 C-4.08911133 98.82104492 -4.08911133 98.82104492 -7.58911133 98.44604492 C-10.01926572 94.80081334 -9.89544571 92.07013991 -9.90795898 87.85351562 C-9.91800461 87.08254547 -9.92805023 86.31157532 -9.93840027 85.51724243 C-9.96929238 82.96877793 -9.986284 80.42041877 -10.00317383 77.87182617 C-10.02188064 76.10490509 -10.04145369 74.33799298 -10.06185913 72.5710907 C-10.11323779 67.9203317 -10.15283278 63.26954372 -10.19000244 58.61865234 C-10.23000618 53.87289222 -10.28111506 49.12725326 -10.33129883 44.3815918 C-10.42812598 35.06982788 -10.51250902 25.75799564 -10.58911133 16.44604492 C-11.24911133 16.44604492 -11.90911133 16.44604492 -12.58911133 16.44604492 C-12.60893066 17.30883057 -12.62875 18.17161621 -12.64916992 19.06054688 C-12.72730777 22.26441449 -12.81400215 25.46790386 -12.90649414 28.67138672 C-12.94475483 30.05736399 -12.97961289 31.44343957 -13.01098633 32.82958984 C-13.05669832 34.82306132 -13.11570058 36.81621406 -13.17504883 38.80932617 C-13.20646973 40.00855713 -13.23789062 41.20778809 -13.27026367 42.44335938 C-13.58911133 45.44604492 -13.58911133 45.44604492 -15.58911133 48.44604492 C-16.21515396 50.94693202 -16.75882346 53.41032439 -17.24536133 55.93823242 C-17.46705994 57.05090988 -17.46705994 57.05090988 -17.6932373 58.18606567 C-18.00561251 59.76070643 -18.31473389 61.33599565 -18.62084961 62.91186523 C-19.08092222 65.27891244 -19.55084971 67.64382167 -20.02270508 70.00854492 C-21.76221092 78.79415913 -23.32528643 87.57768354 -24.58911133 96.44604492 C-26.52661133 97.00854492 -26.52661133 97.00854492 -28.58911133 97.44604492 C-29.58911133 96.44604492 -29.58911133 96.44604492 -29.59326172 94.74755859 C-29.08145061 89.32304552 -28.13553527 84.0631686 -26.96020508 78.74682617 C-22.85442386 59.94249016 -20.85177965 42.32692876 -21.58496094 23.05273438 C-21.60918121 22.26005661 -21.63340149 21.46737885 -21.65835571 20.65068054 C-21.70670212 19.17976026 -21.77354858 17.7092666 -21.86361694 16.24031067 C-22.05227794 10.71456022 -20.68307364 7.8542418 -17.58911133 3.44604492 C-13.04886962 -1.36340294 -6.13857162 -0.03603326 0 0 Z " fill="#FEF7F8" transform="translate(63.589111328125,190.553955078125)"/>
<path d="M0 0 C1.03557541 -0.00218285 1.03557541 -0.00218285 2.09207153 -0.00440979 C3.54954251 -0.00275355 5.00703146 0.00877729 6.46435547 0.02954102 C8.68143087 0.05841298 10.89609991 0.05016321 13.11328125 0.03710938 C25.69111248 0.09236633 25.69111248 0.09236633 30.8203125 3.49609375 C34.77670194 8.00991829 35.39595848 11.85441102 35.28125 17.66796875 C35.27987534 18.81341156 35.27987534 18.81341156 35.2784729 19.98199463 C35.27246145 21.58555368 35.25678966 23.1891028 35.23193359 24.79248047 C35.19521396 27.25269618 35.19091602 29.71141268 35.19140625 32.171875 C35.1815819 33.73308599 35.16992788 35.29428677 35.15625 36.85546875 C35.15402435 37.59190613 35.15179871 38.32834351 35.14950562 39.08709717 C35.05253972 44.26386653 35.05253972 44.26386653 32.8203125 46.49609375 C28.26475694 45.94053819 28.26475694 45.94053819 26.8203125 44.49609375 C26.73255645 42.35050548 26.71336031 40.20204954 26.72265625 38.0546875 C26.72587891 36.74951172 26.72910156 35.44433594 26.73242188 34.09960938 C26.74077849 32.71093685 26.74924345 31.32226498 26.7578125 29.93359375 C26.76282584 28.54101719 26.76738903 27.14843894 26.77148438 25.75585938 C26.78331816 22.33589505 26.7998037 18.91601531 26.8203125 15.49609375 C25.8303125 15.49609375 24.8403125 15.49609375 23.8203125 15.49609375 C23.82919495 16.45187317 23.83807739 17.40765259 23.847229 18.39239502 C23.92829694 27.39736234 23.9882692 36.40225567 24.02756119 45.40750504 C24.04844076 50.03728691 24.07676499 54.66677432 24.12207031 59.29638672 C24.16551513 63.76381069 24.18944682 68.23095134 24.19982147 72.69857025 C24.20721533 74.4034547 24.22165382 76.10832355 24.24323273 77.81308746 C24.27224944 80.20027739 24.27626936 82.58629505 24.27441406 84.97363281 C24.29598572 86.03207146 24.29598572 86.03207146 24.31799316 87.1118927 C24.28967676 90.47664369 24.01369753 92.23508545 21.98724365 94.97015381 C19.8203125 96.49609375 19.8203125 96.49609375 16.6953125 96.43359375 C13.8203125 95.49609375 13.8203125 95.49609375 11.8203125 92.49609375 C11.57980347 90.42695618 11.57980347 90.42695618 11.59326172 88.0246582 C11.59341278 87.12395096 11.59356384 86.22324371 11.59371948 85.29524231 C11.60404205 84.3264061 11.61436462 83.35756989 11.625 82.359375 C11.6278299 81.36479782 11.63065979 80.37022064 11.63357544 79.34550476 C11.64477761 76.16641245 11.66988236 72.98760103 11.6953125 69.80859375 C11.70534225 67.65430094 11.71446811 65.50000372 11.72265625 63.34570312 C11.74471704 58.06240403 11.77819494 52.77926896 11.8203125 47.49609375 C10.8303125 47.49609375 9.8403125 47.49609375 8.8203125 47.49609375 C8.82697433 48.06350281 8.83363617 48.63091187 8.84049988 49.21551514 C8.90686146 55.12018163 8.95211644 61.02474221 8.98510742 66.9296875 C9.00019541 69.13350731 9.02066826 71.3372971 9.04663086 73.54101562 C9.08301308 76.70840872 9.10003882 79.87540486 9.11328125 83.04296875 C9.12876511 84.02851746 9.14424896 85.01406616 9.16020203 86.02947998 C9.16042862 86.95013245 9.16065521 87.87078491 9.16088867 88.81933594 C9.16755051 89.62763855 9.17421234 90.43594116 9.18107605 91.26873779 C8.72537272 94.08225243 7.7807074 95.45011772 5.8203125 97.49609375 C2.8203125 97.99609375 2.8203125 97.99609375 -0.1796875 97.49609375 C-2.77570894 95.07278855 -3.16707635 93.61642212 -3.54045105 90.05389404 C-3.54911698 88.66321873 -3.54124082 87.27238004 -3.52026367 85.88183594 C-3.52092079 84.73979202 -3.52092079 84.73979202 -3.52159119 83.57467651 C-3.51950496 81.06384433 -3.49618233 78.55368396 -3.47265625 76.04296875 C-3.46705969 74.29991012 -3.46278987 72.55684677 -3.45979309 70.81378174 C-3.44834901 66.2302544 -3.41888563 61.6470131 -3.38568115 57.06359863 C-3.35497083 52.38488637 -3.3412857 47.7061278 -3.32617188 43.02734375 C-3.29401549 33.85013487 -3.24282442 24.67313812 -3.1796875 15.49609375 C-4.1696875 15.82609375 -5.1596875 16.15609375 -6.1796875 16.49609375 C-6.20474365 17.33382324 -6.2297998 18.17155273 -6.25561523 19.03466797 C-6.35069107 22.13961631 -6.44992775 25.24439556 -6.55200195 28.34912109 C-6.61667001 30.35504182 -6.67651856 32.36111603 -6.73632812 34.3671875 C-6.77822266 35.62402344 -6.82011719 36.88085938 -6.86328125 38.17578125 C-6.91826782 39.91964111 -6.91826782 39.91964111 -6.97436523 41.69873047 C-7.1796875 44.49609375 -7.1796875 44.49609375 -8.1796875 46.49609375 C-10.5546875 46.68359375 -10.5546875 46.68359375 -13.1796875 46.49609375 C-15.5604824 42.92490141 -15.50226227 40.32321787 -15.515625 36.1953125 C-15.5222818 35.4813179 -15.5289386 34.7673233 -15.53579712 34.0316925 C-15.54591567 32.52123588 -15.55061438 31.01073462 -15.55029297 29.50024414 C-15.55465282 27.20187547 -15.59093863 24.90544909 -15.62890625 22.60742188 C-15.63477753 21.13672528 -15.63874484 19.66601961 -15.640625 18.1953125 C-15.65499603 17.51385666 -15.66936707 16.83240082 -15.68417358 16.1302948 C-15.63669921 11.11110335 -14.28895586 8.37191398 -11.1796875 4.49609375 C-10.58526855 3.72257568 -9.99084961 2.94905762 -9.37841797 2.15209961 C-6.23439727 -0.21586535 -3.90270071 -0.00564329 0 0 Z " fill="#FEF6F7" transform="translate(285.1796875,190.50390625)"/>
<path d="M0 0 C1.26650391 0.00644531 2.53300781 0.01289063 3.83789062 0.01953125 C14.31911431 0.20778355 14.31911431 0.20778355 18.9375 3.625 C21.87670375 8.28742486 23.12626644 13.40490943 24.5 18.6875 C25.76041393 23.46770763 27.08649059 28.03516671 28.9375 32.625 C29.1875 35.8125 29.1875 35.8125 28.9375 38.625 C28.2775 39.285 27.6175 39.945 26.9375 40.625 C24.4375 40.4375 24.4375 40.4375 21.9375 39.625 C20.07966739 36.83825108 19.32498774 34.9726866 18.4296875 31.80859375 C18.16542969 30.87982422 17.90117187 29.95105469 17.62890625 28.99414062 C17.35949219 28.02669922 17.09007812 27.05925781 16.8125 26.0625 C16.53535156 25.09119141 16.25820312 24.11988281 15.97265625 23.11914062 C13.9375 15.90586515 13.9375 15.90586515 13.9375 13.625 C13.2775 13.625 12.6175 13.625 11.9375 13.625 C13.01569187 17.85549399 14.10102734 22.08412579 15.1875 26.3125 C15.48785156 27.49134766 15.78820312 28.67019531 16.09765625 29.88476562 C17.92114045 36.96531598 19.91994659 43.9440948 22.19433594 50.89379883 C22.9375 53.625 22.9375 53.625 22.9375 57.625 C19.6375 57.625 16.3375 57.625 12.9375 57.625 C12.95321045 58.5128418 12.9689209 59.40068359 12.98510742 60.31542969 C13.03631686 63.61789821 13.07388856 66.9199432 13.10229492 70.22265625 C13.11735681 71.65045846 13.13781062 73.0782146 13.16381836 74.50585938 C13.20031842 76.56131373 13.21725166 78.61615505 13.23046875 80.671875 C13.2461792 81.90776367 13.26188965 83.14365234 13.27807617 84.41699219 C12.91361163 87.85001305 12.3907095 89.23943751 9.9375 91.625 C7.15432395 92.11205581 5.68334268 92.11292719 3.29956055 90.5534668 C1.25133676 87.65349912 1.56725455 84.74811364 1.64453125 81.33203125 C1.64877609 80.62600266 1.65302094 79.91997406 1.65739441 79.19255066 C1.67416966 76.94047697 1.71181757 74.68930258 1.75 72.4375 C1.76504843 70.90951815 1.77873656 69.38152224 1.79101562 67.85351562 C1.82406911 64.11033128 1.87584168 60.36781804 1.9375 56.625 C0.9475 56.625 -0.0425 56.625 -1.0625 56.625 C-1.05202637 57.54837158 -1.04155273 58.47174316 -1.03076172 59.4230957 C-0.9966681 62.85036718 -0.97159554 66.27745833 -0.95263672 69.70483398 C-0.94258179 71.18793583 -0.92893596 72.67101788 -0.91162109 74.15405273 C-0.88734994 76.28634531 -0.87601201 78.41837569 -0.8671875 80.55078125 C-0.85671387 81.83380127 -0.84624023 83.11682129 -0.83544922 84.4387207 C-1.0625 87.625 -1.0625 87.625 -3.0625 90.625 C-6.0625 91 -6.0625 91 -9.0625 90.625 C-11.54610441 86.89959338 -11.2940867 84.99437027 -11.2578125 80.55078125 C-11.2549826 79.8669487 -11.25215271 79.18311615 -11.24923706 78.4785614 C-11.23805684 76.29802835 -11.21295691 74.11790855 -11.1875 71.9375 C-11.17746738 70.45768823 -11.16834202 68.97787001 -11.16015625 67.49804688 C-11.13812481 63.873564 -11.10361002 60.24932234 -11.0625 56.625 C-14.3625 56.625 -17.6625 56.625 -21.0625 56.625 C-20.7323125 50.46149991 -19.4058229 44.98294585 -17.5625 39.125 C-17.33667236 38.40634766 -17.11084473 37.68769531 -16.87817383 36.94726562 C-15.20450278 31.76700278 -15.20450278 31.76700278 -14.0625 30.625 C-13.71165908 29.11255135 -13.40704538 27.5892746 -13.125 26.0625 C-12.25819163 21.53293748 -11.21972887 17.08859709 -10.0625 12.625 C-12.27641789 13.45107349 -12.27641789 13.45107349 -12.90039062 15.80224609 C-13.17044922 16.74148926 -13.44050781 17.68073242 -13.71875 18.6484375 C-14.01910156 19.669375 -14.31945312 20.6903125 -14.62890625 21.7421875 C-14.93699219 22.81726563 -15.24507812 23.89234375 -15.5625 25 C-16.17250055 27.11330736 -16.78689688 29.22535218 -17.40625 31.3359375 C-17.67630859 32.27743652 -17.94636719 33.21893555 -18.22460938 34.18896484 C-19.0625 36.625 -19.0625 36.625 -21.0625 39.625 C-23.625 39.875 -23.625 39.875 -26.0625 39.625 C-27.0625 38.625 -27.0625 38.625 -27.3203125 35.28515625 C-27.2419691 29.61536868 -25.59170426 24.44561429 -23.9375 19.0625 C-23.51210937 17.55913086 -23.51210937 17.55913086 -23.078125 16.02539062 C-18.90605927 2.24850401 -14.42817687 -0.51555507 0 0 Z " fill="#FEF8F8" transform="translate(213.0625,196.375)"/>
<path d="M0 0 C1.20462891 0.00277954 1.20462891 0.00277954 2.43359375 0.00561523 C3.31273437 0.0049707 4.191875 0.00432617 5.09765625 0.00366211 C6.47050781 0.03363281 6.47050781 0.03363281 7.87109375 0.06420898 C9.24394531 0.05357422 9.24394531 0.05357422 10.64453125 0.04272461 C17.35959287 0.10672446 17.35959287 0.10672446 19.5559082 1.80273438 C21.76568401 4.65735287 22.83331189 8.01852907 24.05859375 11.37670898 C24.33123047 12.0844043 24.60386719 12.79209961 24.88476562 13.52124023 C26.28981088 17.30324175 27.23286332 20.40165385 26.87109375 24.50170898 C24.515625 24.31811523 24.515625 24.31811523 21.87109375 23.50170898 C20.5078125 21.21655273 20.5078125 21.21655273 19.55859375 18.43920898 C19.06939453 17.06055664 19.06939453 17.06055664 18.5703125 15.65405273 C18.33957031 14.9437793 18.10882813 14.23350586 17.87109375 13.50170898 C17.85127441 14.45537354 17.83145508 15.40903809 17.81103516 16.39160156 C17.73494361 19.93093197 17.64623214 23.46985315 17.55371094 27.00878906 C17.51543577 28.54028238 17.48058026 30.07186514 17.44921875 31.60351562 C17.40353568 33.80558228 17.34554838 36.00703394 17.28515625 38.20874023 C17.26782944 39.23545586 17.26782944 39.23545586 17.25015259 40.28291321 C17.13835631 43.88631735 16.92714822 45.41762728 14.87109375 48.50170898 C9.99609375 47.62670898 9.99609375 47.62670898 8.87109375 46.50170898 C8.79784207 43.63903331 8.7787117 40.80098999 8.80859375 37.93920898 C8.81310547 37.13290039 8.81761719 36.3265918 8.82226562 35.49584961 C8.83408857 33.49777142 8.85202461 31.49973115 8.87109375 29.50170898 C7.88109375 29.50170898 6.89109375 29.50170898 5.87109375 29.50170898 C5.89429688 30.6219043 5.9175 31.74209961 5.94140625 32.89624023 C5.96016612 34.36888982 5.97836609 35.84154661 5.99609375 37.31420898 C6.01285156 38.05219727 6.02960938 38.79018555 6.046875 39.55053711 C6.08184003 43.41417324 6.0650693 45.21074567 3.87109375 48.50170898 C-1.00390625 47.62670898 -1.00390625 47.62670898 -2.12890625 46.50170898 C-2.28886791 43.91017791 -2.38829322 41.34218878 -2.4453125 38.74780273 C-2.4660936 37.97235611 -2.48687469 37.19690948 -2.50828552 36.39796448 C-2.57386427 33.9118059 -2.63270424 31.42553853 -2.69140625 28.93920898 C-2.73458358 27.25755694 -2.77819761 25.57591605 -2.82226562 23.89428711 C-2.92955404 19.76354028 -3.03079757 15.63268363 -3.12890625 11.50170898 C-4.44890625 15.79170898 -5.76890625 20.08170898 -7.12890625 24.50170898 C-8.77890625 24.83170898 -10.42890625 25.16170898 -12.12890625 25.50170898 C-11.84537539 18.27167201 -8.09245554 1.90710965 0 0 Z " fill="#FEF7F8" transform="translate(249.12890625,239.498291015625)"/>
<path d="M0 0 C0 23.43 0 46.86 0 71 C-4.29 71 -8.58 71 -13 71 C-13 52.52 -13 34.04 -13 15 C-15.64 15.99 -18.28 16.98 -21 18 C-21.99 18 -22.98 18 -24 18 C-24.28521607 14.6217741 -24.42132909 11.37063271 -24 8 C-22 6.1875 -22 6.1875 -19 5 C-17.78945642 4.10715564 -16.58132382 3.2110375 -15.375 2.3125 C-11 0 -11 0 0 0 Z " fill="#FEFAFB" transform="translate(44,31)"/>
<path d="M0 0 C0.99 0.01546875 0.99 0.01546875 2 0.03125 C4.8640601 0.70251409 6.03650984 1.24434938 8 3.5 C8.63626211 6.60895444 8.60309104 9.64878651 8.5625 12.8125 C8.58634766 13.65490234 8.61019531 14.49730469 8.63476562 15.36523438 C8.62469776 19.65750188 8.36750034 22.63083053 5.65625 26.06640625 C3 28.5 3 28.5 -0.0625 29.125 C-3.58562834 28.37539823 -4.78540025 27.28875524 -7 24.5 C-8.62062503 21.25874994 -8.26791352 17.74550138 -8.3125 14.1875 C-8.34150391 13.42759766 -8.37050781 12.66769531 -8.40039062 11.88476562 C-8.44457686 7.97258397 -8.25667 5.93684894 -6.23046875 2.48828125 C-3.87070345 0.38474265 -3.09091696 -0.14488673 0 0 Z " fill="#FCE1E3" transform="translate(99,30.5)"/>
<path d="M0 0 C3.56871381 0.50981626 5.03160265 0.93666429 7.5 3.5 C8.71950118 7.15850355 8.72253359 10.56403569 8.75 14.375 C8.770625 15.08269531 8.79125 15.79039063 8.8125 16.51953125 C8.84620196 21.04401959 8.30743987 23.91574425 5.5 27.5 C2.65916359 28.92041821 0.64522722 28.81452272 -2.5 28.5 C-4.80275556 26.6329009 -6.17823871 25.14352259 -7.5 22.5 C-7.67759374 19.71381629 -7.7775623 16.97552812 -7.8125 14.1875 C-7.84150391 13.42759766 -7.87050781 12.66769531 -7.90039062 11.88476562 C-7.94481439 7.95155387 -7.76474505 5.94277317 -5.69921875 2.48828125 C-3.5 0.5 -3.5 0.5 0 0 Z " fill="#FCE7E9" transform="translate(98.5,74.5)"/>
<path d="M0 0 C6.27 0 12.54 0 19 0 C19.99 2.64 20.98 5.28 22 8 C22.99 5.69 23.98 3.38 25 1 C26.32 1 27.64 1 29 1 C28.68950274 2.43793392 28.3765224 3.8753318 28.0625 5.3125 C27.80146484 6.51326172 27.80146484 6.51326172 27.53515625 7.73828125 C27 10 27 10 26 13 C25.77281504 15.56634861 25.58391816 18.11678107 25.4375 20.6875 C25.39431641 21.38939453 25.35113281 22.09128906 25.30664062 22.81445312 C25.2008264 24.54275206 25.09993419 26.2713511 25 28 C23.35 28 21.7 28 20 28 C19.96261719 27.18917969 19.92523438 26.37835938 19.88671875 25.54296875 C19.43935528 18.00796443 18.29142088 11.19131457 16 4 C14.02 4 12.04 4 10 4 C10 11.92 10 19.84 10 28 C8.35 28 6.7 28 5 28 C5 20.08 5 12.16 5 4 C3.35 4 1.7 4 0 4 C0 2.68 0 1.36 0 0 Z " fill="#FBD8DB" transform="translate(158,75)"/>
<path d="M0 0 C0 0.66 0 1.32 0 2 C0.61875 2.2475 1.2375 2.495 1.875 2.75 C4.49443701 4.2908453 5.13480643 5.08980346 6 8 C5.92441378 12.08165615 5.2681375 15.10689303 2.9375 18.4375 C-0.4962794 21.43292458 -0.4962794 21.43292458 -4 21.625 C-8.00713373 21.31501418 -10.18009084 19.90284766 -13 17 C-15.10941388 13.83587918 -15.55239572 11.8549166 -15.43359375 8.07421875 C-14.76939836 4.89685161 -13.33106122 3.18193681 -10.93359375 1.0546875 C-7.43315763 -0.85464129 -3.85960172 -0.46315221 0 0 Z " fill="#FDF0F1" transform="translate(300,166)"/>
<path d="M0 0 C3.03797677 0.53611355 4.4472038 1.34003275 6.65625 3.46875 C7.87387731 7.12163193 8.04700851 9.62629136 7.65625 13.46875 C5.88021702 16.44426795 3.80114623 18.89630188 0.65625 20.46875 C-2.77787731 20.99707728 -5.21698749 21.27393106 -8.13671875 19.1875 C-11.03306117 16.16044379 -12.73475817 13.58787764 -12.96875 9.34375 C-11.5872984 0.77875007 -7.96678417 -0.08754708 0 0 Z " fill="#FEF5F5" transform="translate(69.34375,166.53125)"/>
<path d="M0 0 C11 0 11 0 13.75 1.5625 C15.52085409 5.01566548 14.90592816 7.3066006 14 11 C13.67 11.33 13.34 11.66 13 12 C13.0644267 13.60773906 13.20168314 15.21283223 13.375 16.8125 C13.51035156 18.12154297 13.51035156 18.12154297 13.6484375 19.45703125 C13.95888489 21.70260073 14.39949645 23.81681337 15 26 C13.35 26 11.7 26 10 26 C8.19682779 22.03302114 7.50797009 18.3177458 7 14 C6.34 14 5.68 14 5 14 C5 18.29 5 22.58 5 27 C3.35 27 1.7 27 0 27 C0 18.09 0 9.18 0 0 Z " fill="#FCE7E9" transform="translate(142,76)"/>
<path d="M0 0 C2.3125 0.515625 2.3125 0.515625 4.875 2.578125 C6.60412595 6.11155629 7.3125 8.56563933 7.3125 12.515625 C4.37579114 17.98397943 4.37579114 17.98397943 1.3125 19.515625 C-1.74436964 19.92871549 -4.63868586 20.01471913 -7.6875 19.515625 C-10.76802833 16.58912308 -12.48843018 13.97547033 -13.0625 9.765625 C-12.66455461 6.31676493 -11.82151534 4.23637519 -9.44921875 1.66015625 C-6.41820959 -0.30899161 -3.52755346 -0.23097076 0 0 Z " fill="#FEF6F6" transform="translate(157.6875,171.484375)"/>
<path d="M0 0 C2.96349122 0.25867286 5.09554807 0.95703723 7.5625 2.625 C10.48253298 6.2020404 10.91621888 8.02304105 10.5703125 12.52734375 C9.69177537 16.26450553 8.27129247 17.65744762 5.0625 19.6875 C1.87874146 20.43594233 -0.76106481 20.49166081 -3.9375 19.6875 C-7.5369734 16.67569573 -8.73834148 14.80278769 -9.5625 10.1875 C-8.47731863 4.11048431 -6.16486524 1.07640504 0 0 Z " fill="#FEF9F9" transform="translate(212.9375,171.3125)"/>
<path d="M0 0 C1.32 0 2.64 0 4 0 C5.65 3.63 7.3 7.26 9 11 C9.33 7.37 9.66 3.74 10 0 C11.32 0 12.64 0 14 0 C14 8.58 14 17.16 14 26 C12.68 25.67 11.36 25.34 10 25 C8.9349985 23.03384339 7.93166826 21.03273074 7 19 C6.34 18.67 5.68 18.34 5 18 C5 20.97 5 23.94 5 27 C3.35 27 1.7 27 0 27 C0 18.09 0 9.18 0 0 Z " fill="#FDEFF0" transform="translate(74,31)"/>
<path d="M0 0 C3.96 0 7.92 0 12 0 C15.63157895 6.05263158 15.63157895 6.05263158 15 11 C13.9375 13.375 13.9375 13.375 12 15 C8.3125 15.25 8.3125 15.25 5 15 C5 18.96 5 22.92 5 27 C3.35 27 1.7 27 0 27 C0 18.09 0 9.18 0 0 Z " fill="#FCE8E9" transform="translate(74,75)"/>
<path d="M0 0 C1.51400391 0.01740234 1.51400391 0.01740234 3.05859375 0.03515625 C4.07050781 0.04417969 5.08242187 0.05320312 6.125 0.0625 C7.29869141 0.07990234 7.29869141 0.07990234 8.49609375 0.09765625 C8.49609375 1.41765625 8.49609375 2.73765625 8.49609375 4.09765625 C6.51609375 4.09765625 4.53609375 4.09765625 2.49609375 4.09765625 C2.49609375 6.40765625 2.49609375 8.71765625 2.49609375 11.09765625 C3.81609375 11.09765625 5.13609375 11.09765625 6.49609375 11.09765625 C6.49609375 12.41765625 6.49609375 13.73765625 6.49609375 15.09765625 C4.84609375 15.09765625 3.19609375 15.09765625 1.49609375 15.09765625 C1.49609375 18.06765625 1.49609375 21.03765625 1.49609375 24.09765625 C3.80609375 24.09765625 6.11609375 24.09765625 8.49609375 24.09765625 C8.49609375 25.41765625 8.49609375 26.73765625 8.49609375 28.09765625 C4.53609375 28.09765625 0.57609375 28.09765625 -3.50390625 28.09765625 C-3.53072784 23.61845028 -3.55065802 19.13940274 -3.56640625 14.66015625 C-3.57478516 13.38076172 -3.58316406 12.10136719 -3.59179688 10.78320312 C-3.59501953 9.56826172 -3.59824219 8.35332031 -3.6015625 7.1015625 C-3.60679932 5.97564697 -3.61203613 4.84973145 -3.61743164 3.68969727 C-3.4669638 0.25417675 -3.42982521 0.13376853 0 0 Z " fill="#F7B1B6" transform="translate(130.50390625,74.90234375)"/>
<path d="M0 0 C2.475 0.495 2.475 0.495 5 1 C7.29612756 12.52164009 7.29612756 12.52164009 7 18 C7.66 18 8.32 18 9 18 C8.938125 16.0509375 8.938125 16.0509375 8.875 14.0625 C8.85944948 9.16408698 9.7507282 4.71823189 11 0 C12.65 0 14.3 0 16 0 C14.5670802 9.05268156 12.83957765 18.02286105 11 27 C9.35 27 7.7 27 6 27 C4.21497501 22.00675443 3.00696183 16.98179237 1.875 11.8125 C1.69324219 11.00619141 1.51148437 10.19988281 1.32421875 9.36914062 C1.15277344 8.59376953 0.98132813 7.81839844 0.8046875 7.01953125 C0.64983887 6.31932861 0.49499023 5.61912598 0.33544922 4.89770508 C0 3 0 3 0 0 Z " fill="#FCE5E7" transform="translate(109,75)"/>
<path d="M0 0 C3.8425303 0.72047443 5.45767292 1.57152696 8 4.5625 C8.94237143 8.56143269 8.61136591 11.54355682 6.5 15.0625 C2.98105682 17.17386591 -0.00106731 17.50487143 -4 16.5625 C-6.99097304 14.02017292 -7.84202557 12.4050303 -8.5625 8.5625 C-7.62098494 3.54108633 -5.02141367 0.94151506 0 0 Z " fill="#FDF2F3" transform="translate(109,219.4375)"/>
<path d="M0 0 C1.9375 1.0625 1.9375 1.0625 3 3 C3.75 9.75 3.75 9.75 1.5 13.5 C-2.01894318 15.61136591 -5.00106731 15.94237143 -9 15 C-11.98202078 12.46528234 -12.83065071 10.81287661 -13.625 7 C-12.90369687 3.53774496 -11.63683741 1.94637188 -8.7890625 -0.15234375 C-5.62495258 -1.65149627 -3.24078271 -0.9783495 0 0 Z " fill="#FDF2F3" transform="translate(261,221)"/>
<path d="M0 0 C3.96 0 7.92 0 12 0 C12 0.33 12 0.66 12 1 C8.37 1 4.74 1 1 1 C1 9.58 1 18.16 1 27 C0.34 26.67 -0.32 26.34 -1 26 C-1 25.34 -1 24.68 -1 24 C-3.64 24 -6.28 24 -9 24 C-9 21.03 -9 18.06 -9 15 C-7.35 15 -5.7 15 -4 15 C-4 13.68 -4 12.36 -4 11 C-5.32 11 -6.64 11 -8 11 C-8 8.69 -8 6.38 -8 4 C-4.535 3.505 -4.535 3.505 -1 3 C-0.67 2.01 -0.34 1.02 0 0 Z " fill="#EC3A48" transform="translate(141,75)"/>
<path d="M0 0 C4.29 0 8.58 0 13 0 C13 0.66 13 1.32 13 2 C11.68 2 10.36 2 9 2 C9 10.25 9 18.5 9 27 C7.35 27 5.7 27 4 27 C4 18.75 4 10.5 4 2 C2.68 2 1.36 2 0 2 C0 1.34 0 0.68 0 0 Z " fill="#FDEFF0" transform="translate(159,76)"/>
<path d="M0 0 C5.625 -0.25 5.625 -0.25 9 2 C9.38818359 3.90771484 9.38818359 3.90771484 9.3984375 6.2109375 C9.40230469 7.04367188 9.40617187 7.87640625 9.41015625 8.734375 C9.39855469 9.60578125 9.38695313 10.4771875 9.375 11.375 C9.38660156 12.23867188 9.39820312 13.10234375 9.41015625 13.9921875 C9.39307485 17.68176934 9.37591565 20.28283527 7.64453125 23.5859375 C6 25 6 25 3.3125 25.25 C2.549375 25.1675 1.78625 25.085 1 25 C1.32379639 24.42709229 1.64759277 23.85418457 1.98120117 23.26391602 C3.64180649 19.57381461 3.32834785 15.92798884 3.3125 11.9375 C3.32861328 11.12216797 3.34472656 10.30683594 3.36132812 9.46679688 C3.36197266 8.68240234 3.36261719 7.89800781 3.36328125 7.08984375 C3.36626221 6.37691162 3.36924316 5.66397949 3.37231445 4.92944336 C2.8995277 2.47932289 1.87631266 1.58049341 0 0 Z " fill="#FDECED" transform="translate(98,32)"/>
<path d="M0 0 C1.2065625 0.0309375 1.2065625 0.0309375 2.4375 0.0625 C2.46439449 3.02089355 2.48428741 5.97904427 2.5 8.9375 C2.50837891 9.77925781 2.51675781 10.62101562 2.52539062 11.48828125 C2.52861328 12.29394531 2.53183594 13.09960938 2.53515625 13.9296875 C2.54039307 14.67331543 2.54562988 15.41694336 2.55102539 16.18310547 C2.4375 18.0625 2.4375 18.0625 1.4375 20.0625 C0.1175 20.0625 -1.2025 20.0625 -2.5625 20.0625 C-4.21088944 16.76572112 -3.70522738 13.11933956 -3.6875 9.5 C-3.69136719 8.70658203 -3.69523437 7.91316406 -3.69921875 7.09570312 C-3.6872533 0.08993301 -3.6872533 0.08993301 0 0 Z " fill="#EC3846" transform="translate(99.5625,34.9375)"/>
<path d="M0 0 C1.67542976 0.28604898 3.34385343 0.61781233 5 1 C5.02690104 3.79173055 5.04679053 6.58320348 5.0625 9.375 C5.07087891 10.1690625 5.07925781 10.963125 5.08789062 11.78125 C5.11328125 17.7734375 5.11328125 17.7734375 4 20 C2.68 20 1.36 20 0 20 C-1.64838944 16.70322112 -1.14272738 13.05683956 -1.125 9.4375 C-1.12886719 8.64408203 -1.13273437 7.85066406 -1.13671875 7.03320312 C-1.12663067 1.12663067 -1.12663067 1.12663067 0 0 Z " fill="#EC3543" transform="translate(97,79)"/>
<path d="M0 0 C2.97 0 5.94 0 9 0 C9 0.66 9 1.32 9 2 C7.02 2 5.04 2 3 2 C3 4.97 3 7.94 3 11 C4.65 11 6.3 11 8 11 C8 11.99 8 12.98 8 14 C6.35 14 4.7 14 3 14 C3 17.3 3 20.6 3 24 C4.98 24 6.96 24 9 24 C9 24.33 9 24.66 9 25 C6.03 25 3.06 25 0 25 C0 16.75 0 8.5 0 0 Z " fill="#FEFCFC" transform="translate(129,76)"/>
<path d="M0 0 C0.66 0.33 1.32 0.66 2 1 C1.50434036 1.38907028 1.00868073 1.77814056 0.4980011 2.17900085 C-3.18931111 5.39029581 -5.4355092 7.71718049 -5.85473633 12.71020508 C-5.88175266 14.47979043 -5.87247256 16.2502018 -5.83203125 18.01953125 C-5.84335335 19.42920418 -5.84335335 19.42920418 -5.85490417 20.86735535 C-5.87333939 23.85006177 -5.84502111 26.82995263 -5.8125 29.8125 C-5.80649629 32.81219595 -5.81023678 35.81153223 -5.82365417 38.811203 C-5.82915915 40.67311883 -5.82182586 42.53512515 -5.80049133 44.39692688 C-5.79776718 45.23507431 -5.79504303 46.07322174 -5.79223633 46.93676758 C-5.78444656 47.6751033 -5.7766568 48.41343903 -5.76863098 49.17414856 C-6 51 -6 51 -8 53 C-8.09920868 47.00436173 -8.17162945 41.009206 -8.21972656 35.01293945 C-8.23978632 32.97509432 -8.26704099 30.93730634 -8.30175781 28.8996582 C-8.35052434 25.96290953 -8.37302541 23.02692482 -8.390625 20.08984375 C-8.41127014 19.18540024 -8.43191528 18.28095673 -8.45318604 17.34910583 C-8.45528848 11.36194859 -7.47518916 7.91088971 -4 3 C-1.75 1.0625 -1.75 1.0625 0 0 Z " fill="#F9C4C9" transform="translate(50,191)"/>
<path d="M0 0 C0.99 0 1.98 0 3 0 C3 8.25 3 16.5 3 25 C-1 24 -1 24 -2.25 22.25 C-3.0957901 19.71262971 -3.14764761 17.65765704 -3 15 C-2.34 15 -1.68 15 -1 15 C-0.67 10.05 -0.34 5.1 0 0 Z " fill="#FEF9F9" transform="translate(85,32)"/>
<path d="M0 0 C0.66 0 1.32 0 2 0 C0.35849057 16.96226415 0.35849057 16.96226415 -3 22 C-3.38499891 23.65549531 -3.72793135 25.3222433 -4 27 C-4.99 26.34 -5.98 25.68 -7 25 C-2.41048825 2.41048825 -2.41048825 2.41048825 0 0 Z " fill="#EF5763" transform="translate(142,209)"/>
<path d="M0 0 C0.66 0 1.32 0 2 0 C3.05077601 2.96942691 4.05976905 5.95154065 5.0625 8.9375 C5.35705078 9.76830078 5.65160156 10.59910156 5.95507812 11.45507812 C7.93912861 17.45391312 8.0998211 21.7718702 7 28 C4.81148632 23.85193556 3.62582339 19.62650977 2.375 15.125 C2.14554688 14.33480469 1.91609375 13.54460937 1.6796875 12.73046875 C0.4611511 8.37129985 -0.27940344 4.57339322 0 0 Z " fill="#EE505C" transform="translate(166,210)"/>
<path d="M0 0 C0.66 0 1.32 0 2 0 C3.03810444 2.91080728 4.05237641 5.82937658 5.0625 8.75 C5.35705078 9.575 5.65160156 10.4 5.95507812 11.25 C6.22900391 12.04921875 6.50292969 12.8484375 6.78515625 13.671875 C7.17006226 14.77160645 7.17006226 14.77160645 7.56274414 15.89355469 C8.0641688 18.3091281 7.6559091 19.65192131 7 22 C7.27313343 24.34114367 7.59802999 26.67750658 8 29 C5.62436727 26.62436727 5.33013573 25.14086382 4.4921875 21.9140625 C4.22792969 20.90085938 3.96367187 19.88765625 3.69140625 18.84375 C3.42199219 17.7815625 3.15257812 16.719375 2.875 15.625 C2.59785156 14.57054687 2.32070312 13.51609375 2.03515625 12.4296875 C0.92540224 8.12187389 0 4.47355194 0 0 Z " fill="#ED4654" transform="translate(225,210)"/>
<path d="M0 0 C1.32 0.33 2.64 0.66 4 1 C3.01 1 2.02 1 1 1 C1 9.25 1 17.5 1 26 C1.99 26 2.98 26 4 26 C4 21.38 4 16.76 4 12 C6.8290723 14.8290723 7.37611108 15.38144425 8 19 C7.01 18.67 6.02 18.34 5 18 C5 20.97 5 23.94 5 27 C3.35 27 1.7 27 0 27 C0 18.09 0 9.18 0 0 Z " fill="#F8B7BD" transform="translate(74,31)"/>
<path d="M0 0 C0.66 0 1.32 0 2 0 C1.49884352 4.5104083 0.87841247 8.97246721 0.0625 13.4375 C-0.09089844 14.28183594 -0.24429688 15.12617188 -0.40234375 15.99609375 C-0.59957031 16.65738281 -0.79679688 17.31867188 -1 18 C-1.66 18.33 -2.32 18.66 -3 19 C-3 18.01 -3 17.02 -3 16 C-3.99 16.99 -4.98 17.98 -6 19 C-4.47214176 12.40095271 -2.92382423 6.12610791 0 0 Z " fill="#EF5C67" transform="translate(201,209)"/>
<path d="M0 0 C0.33 0 0.66 0 1 0 C1 11.55 1 23.1 1 35 C0.67 35 0.34 35 0 35 C-0.33 26.75 -0.66 18.5 -1 10 C-1.99 10.495 -1.99 10.495 -3 11 C-2.53199289 6.94393835 -2.12046792 3.53411321 0 0 Z " fill="#EF5965" transform="translate(246,250)"/>
<path d="M0 0 C1.65 0 3.3 0 5 0 C5 2.64 5 5.28 5 8 C3.35 8 1.7 8 0 8 C0 5.36 0 2.72 0 0 Z " fill="#EC3D4A" transform="translate(79,79)"/>
<path d="M0 0 C0.83265381 0.00523682 1.66530762 0.01047363 2.52319336 0.01586914 C3.42231445 0.0190918 4.32143555 0.02231445 5.24780273 0.02563477 C6.66609375 0.03820312 6.66609375 0.03820312 8.11303711 0.05102539 C9.06243164 0.05553711 10.01182617 0.06004883 10.98999023 0.06469727 C13.34356776 0.07652429 15.69702188 0.09300514 18.05053711 0.11352539 C18.05053711 0.44352539 18.05053711 0.77352539 18.05053711 1.11352539 C16.79756836 1.13930664 15.54459961 1.16508789 14.25366211 1.19165039 C12.60258588 1.24793708 10.95154556 1.3052843 9.30053711 1.36352539 C8.47553711 1.37770508 7.65053711 1.39188477 6.80053711 1.40649414 C1.80916293 1.58202415 1.80916293 1.58202415 -2.44946289 4.01977539 C-3.86371465 5.99383514 -4.99339707 7.88270515 -5.94946289 10.11352539 C-6.27946289 9.45352539 -6.60946289 8.79352539 -6.94946289 8.11352539 C-6.20727539 6.42211914 -6.20727539 6.42211914 -5.07446289 4.55102539 C-4.70579102 3.93098633 -4.33711914 3.31094727 -3.95727539 2.67211914 C-2.31667374 0.13490962 -2.31667374 0.13490962 0 0 Z " fill="#F9C1C6" transform="translate(248.949462890625,239.886474609375)"/>
<path d="M0 0 C2.475 0.495 2.475 0.495 5 1 C4.67 3.31 4.34 5.62 4 8 C2.68 8 1.36 8 0 8 C0 5.36 0 2.72 0 0 Z " fill="#EC3543" transform="translate(147,79)"/>
<path d="M0 0 C-0.639375 0.165 -1.27875 0.33 -1.9375 0.5 C-4.16119241 1.781786 -4.16119241 1.781786 -4.48828125 3.9140625 C-4.7275978 5.93575155 -4.86893028 7.96841939 -5 10 C-3.68 10.33 -2.36 10.66 -1 11 C-2.98 11.33 -4.96 11.66 -7 12 C-7.28528741 8.62092912 -7.44949482 5.36850337 -7 2 C-3.12962963 -1.56481481 -3.12962963 -1.56481481 0 0 Z " fill="#F6A4AB" transform="translate(27,37)"/>
<path d="M0 0 C1.07310858 3.27185553 0.89263102 5.42947592 0.0625 8.75 C-0.22947266 9.94882813 -0.22947266 9.94882813 -0.52734375 11.171875 C-0.68332031 11.77515625 -0.83929688 12.3784375 -1 13 C-1.99 12.34 -2.98 11.68 -4 11 C-3.71890887 9.35232753 -3.42481474 7.70686855 -3.125 6.0625 C-2.96257812 5.14597656 -2.80015625 4.22945312 -2.6328125 3.28515625 C-2.42398438 2.53105469 -2.21515625 1.77695313 -2 1 C-1.34 0.67 -0.68 0.34 0 0 Z " fill="#ED3F4D" transform="translate(139,223)"/>
<path d="M0 0 C1.07310858 3.27185553 0.89263102 5.42947592 0.0625 8.75 C-0.13214844 9.54921875 -0.32679688 10.3484375 -0.52734375 11.171875 C-0.76130859 12.07679688 -0.76130859 12.07679688 -1 13 C-2.65 13.33 -4.3 13.66 -6 14 C-5.73445312 13.40832031 -5.46890625 12.81664062 -5.1953125 12.20703125 C-3.38863385 8.1650823 -1.59873147 4.1300563 0 0 Z " fill="#EC3645" transform="translate(198,222)"/>
<path d="M0 0 C1.216875 0.12375 2.43375 0.2475 3.6875 0.375 C3.6875 0.705 3.6875 1.035 3.6875 1.375 C2.615 1.6225 1.5425 1.87 0.4375 2.125 C-3.39667714 3.40305905 -4.97629925 4.1402605 -7.3125 7.375 C-8.11565654 10.51981791 -8.11565654 10.51981791 -8.3125 13.375 C-8.6425 13.375 -8.9725 13.375 -9.3125 13.375 C-9.75244133 8.97558672 -9.56387777 6.80705555 -7.3125 2.9375 C-4.21757037 0.29391428 -3.77941273 0.00671299 0 0 Z " fill="#FACBCF" transform="translate(213.3125,171.625)"/>
<path d="M0 0 C-0.95762693 2.13624468 -1.7473814 3.76350599 -3.46875 5.375 C-5.22089604 7.23442029 -5.86010323 8.78410937 -6.6875 11.1875 C-6.93886719 11.90292969 -7.19023437 12.61835938 -7.44921875 13.35546875 C-7.72185547 14.16951172 -7.72185547 14.16951172 -8 15 C-8.82707306 12.63011757 -9.12634 11.38269269 -8.328125 8.96484375 C-7.79445312 7.96130859 -7.79445312 7.96130859 -7.25 6.9375 C-6.90453125 6.26589844 -6.5590625 5.59429687 -6.203125 4.90234375 C-3.1026694 0 -3.1026694 0 0 0 Z " fill="#F8BDC2" transform="translate(142,197)"/>
<path d="M0 0 C2.8290723 2.8290723 3.37611108 3.38144425 4 7 C3.01 6.67 2.02 6.34 1 6 C1 8.97 1 11.94 1 15 C0.67 15 0.34 15 0 15 C0 10.05 0 5.1 0 0 Z " fill="#F27982" transform="translate(78,43)"/>
<path d="M0 0 C0.90492188 0.02320313 1.80984375 0.04640625 2.7421875 0.0703125 C4.10730469 0.09738281 4.10730469 0.09738281 5.5 0.125 C6.19867188 0.14820313 6.89734375 0.17140625 7.6171875 0.1953125 C7.6171875 0.5253125 7.6171875 0.8553125 7.6171875 1.1953125 C6.3796875 1.2778125 5.1421875 1.3603125 3.8671875 1.4453125 C-0.13091586 1.91858622 -1.76242429 3.07100348 -4.3828125 6.1953125 C-5.0428125 6.1953125 -5.7028125 6.1953125 -6.3828125 6.1953125 C-3.63053977 0.29758523 -3.63053977 0.29758523 0 0 Z " fill="#FAC9CD" transform="translate(152.3828125,171.8046875)"/>
<path d="M0 0 C1.5625 1.4375 1.5625 1.4375 3 4 C2.96846324 7.05380927 2.53266629 9.99653222 2 13 C0.21590198 9.93753253 -0.22880021 7.77920727 -0.125 4.25 C-0.10695312 3.45078125 -0.08890625 2.6515625 -0.0703125 1.828125 C-0.04710937 1.22484375 -0.02390625 0.6215625 0 0 Z " fill="#ED4552" transform="translate(171,225)"/>
<path d="M0 0 C0.66 0 1.32 0 2 0 C2.38922918 1.28745036 2.76098036 2.58019597 3.125 3.875 C3.33382812 4.59429687 3.54265625 5.31359375 3.7578125 6.0546875 C3.83773437 6.69664062 3.91765625 7.33859375 4 8 C3.34 8.66 2.68 9.32 2 10 C0.68373308 6.38026598 0 3.90432869 0 0 Z " fill="#ED4552" transform="translate(225,210)"/>
<path d="M0 0 C0.66 0.33 1.32 0.66 2 1 C1.51789062 1.47050781 1.03578125 1.94101563 0.5390625 2.42578125 C-0.40839844 3.35970703 -0.40839844 3.35970703 -1.375 4.3125 C-2.00148438 4.92738281 -2.62796875 5.54226562 -3.2734375 6.17578125 C-5.18086607 8.08812528 -5.18086607 8.08812528 -7 11 C-6.58485103 6.1565954 -4.53791301 4.18412171 -1 1 C-0.67 0.67 -0.34 0.34 0 0 Z " fill="#F9C7CB" transform="translate(50,191)"/>
<path d="M0 0 C0.66 0 1.32 0 2 0 C0.4169423 4.2742558 -2.50568404 6.26531794 -6 9 C-4.4722133 5.56247993 -2.49818944 2.81046312 0 0 Z " fill="#F8BEC3" transform="translate(199,197)"/>
<path d="M0 0 C0.66 0 1.32 0 2 0 C2 3.96 2 7.92 2 12 C0.185964 8.37192801 -0.56942261 5.96131197 -1 2 C-0.67 1.34 -0.34 0.68 0 0 Z " fill="#EF5C67" transform="translate(228,218)"/>
<path d="M0 0 C0.99 0.33 1.98 0.66 3 1 C2.38125 1.5775 1.7625 2.155 1.125 2.75 C-0.81347053 4.80249821 -1.90014249 6.43366582 -3 9 C-3.33 8.34 -3.66 7.68 -4 7 C-3.22265625 5.2734375 -3.22265625 5.2734375 -2.0625 3.375 C-1.381875 2.26125 -0.70125 1.1475 0 0 Z " fill="#FACFD2" transform="translate(246,241)"/>
</svg>
