<?xml version="1.0" standalone="no"?>
<!DOCTYPE svg PUBLIC "-//W3C//DTD SVG 20010904//EN"
 "http://www.w3.org/TR/2001/REC-SVG-20010904/DTD/svg10.dtd">
<svg version="1.0" xmlns="http://www.w3.org/2000/svg"
 width="366.000000pt" height="363.000000pt" viewBox="0 0 366.000000 363.000000"
 preserveAspectRatio="xMidYMid meet">

<g transform="translate(0.000000,363.000000) scale(0.100000,-0.100000)"
fill="#000000" stroke="none">
<path d="M0 1815 l0 -1815 1830 0 1830 0 0 1815 0 1815 -1830 0 -1830 0 0
-1815z m450 1170 l0 -355 -70 0 -71 0 1 276 c1 152 -1 278 -3 280 -2 2 -20 -3
-40 -11 -53 -22 -57 -20 -57 33 0 47 1 50 40 67 22 10 55 29 72 42 23 16 45
23 80 23 l48 0 0 -355z m400 303 c0 -31 -30 -178 -72 -355 l-73 -303 -66 0
-67 0 14 58 c29 121 125 508 130 525 5 15 -4 17 -90 17 l-96 0 0 55 0 55 160
0 160 0 0 -52z m450 27 c31 -28 27 -88 -6 -114 -15 -12 -37 -21 -50 -21 -22 0
-24 -4 -24 -55 0 -52 -1 -55 -25 -55 l-25 0 0 136 0 136 55 -4 c34 -3 62 -12
75 -23z m120 21 c0 -2 11 -58 25 -126 14 -68 25 -127 25 -131 0 -5 -11 -9 -25
-9 -20 0 -25 5 -25 25 0 20 -5 25 -24 25 -17 0 -26 -7 -30 -25 -5 -18 -13 -25
-32 -25 -19 0 -24 4 -20 18 3 9 15 64 26 122 27 135 25 130 55 130 14 0 25 -2
25 -4z m200 -21 c24 -22 27 -81 5 -105 -13 -15 -13 -22 0 -66 20 -66 19 -74
-8 -74 -20 0 -25 8 -38 57 -21 79 -39 81 -39 4 0 -58 -1 -61 -25 -61 l-25 0 0
136 0 136 55 -4 c34 -3 62 -12 75 -23z m170 5 c0 -13 -7 -20 -20 -20 -19 0
-20 -7 -20 -115 l0 -115 -25 0 c-24 0 -24 0 -27 113 -3 108 -4 112 -25 115
-15 2 -23 10 -23 23 0 17 8 19 70 19 63 0 70 -2 70 -20z m78 -52 l31 -73 3 70
c2 57 6 70 21 73 15 3 17 -8 17 -133 0 -123 -2 -136 -17 -133 -11 2 -27 28
-43 68 l-25 65 -3 -67 c-3 -65 -4 -68 -27 -68 l-25 0 0 128 c0 71 3 132 7 135
17 18 34 1 61 -65z m222 52 c0 -16 -7 -20 -30 -20 -28 0 -30 -2 -30 -40 0 -36
3 -40 25 -40 16 0 25 -6 25 -15 0 -9 -9 -15 -25 -15 -23 0 -25 -4 -25 -45 0
-43 1 -45 30 -45 20 0 30 -5 30 -15 0 -12 -13 -15 -55 -15 l-55 0 0 135 0 135
55 0 c48 0 55 -2 55 -20z m150 -5 c24 -22 27 -81 5 -105 -12 -14 -13 -23 0
-70 19 -71 19 -70 -9 -70 -21 0 -26 7 -38 57 -19 79 -38 81 -38 4 0 -58 -1
-61 -25 -61 l-25 0 0 136 0 136 55 -4 c34 -3 62 -12 75 -23z m166 -3 c7 -9 14
-25 14 -34 0 -26 -40 -23 -47 2 -3 12 -12 20 -22 18 -30 -6 -22 -37 22 -82 25
-24 48 -57 51 -71 13 -51 -41 -97 -93 -80 -23 7 -55 60 -46 75 12 19 44 11 47
-12 2 -15 10 -23 23 -23 35 0 29 34 -13 73 -68 64 -77 98 -36 139 20 20 32 24
56 19 17 -3 37 -14 44 -24z m92 -34 c3 -54 5 -58 27 -58 24 0 25 3 25 60 0 57
1 60 25 60 l25 0 0 -134 c0 -99 -3 -135 -12 -139 -28 -9 -38 6 -38 59 0 51 -1
54 -25 54 -24 0 -25 -3 -25 -55 0 -52 -1 -55 -25 -55 l-25 0 0 136 c0 135 0
135 23 132 19 -3 22 -10 25 -60z m182 -73 l0 -135 -25 0 -25 0 0 128 c0 71 3
132 7 135 3 4 15 7 25 7 17 0 18 -11 18 -135z m150 122 c60 -30 45 -125 -23
-141 -37 -10 -37 -10 -37 -63 0 -50 -1 -53 -25 -53 l-25 0 0 135 0 135 43 0
c23 0 53 -6 67 -13z m158 -4 c30 -25 32 -57 6 -61 -15 -2 -23 4 -27 19 -3 12
-12 19 -19 17 -28 -10 -18 -40 26 -88 34 -36 46 -57 46 -80 0 -37 -31 -70 -67
-70 -34 0 -73 36 -73 67 0 32 33 30 49 -3 13 -29 34 -28 39 2 2 12 -14 36 -43
64 -34 33 -45 52 -45 75 0 64 62 97 108 58z m-1708 -443 c0 -16 -7 -20 -30
-20 -28 0 -30 -3 -30 -35 0 -31 3 -35 25 -35 18 0 25 -5 25 -20 0 -15 -7 -20
-25 -20 -24 0 -25 -3 -25 -60 0 -57 -1 -60 -25 -60 l-25 0 0 135 0 135 55 0
c48 0 55 -2 55 -20z m149 -6 c18 -23 21 -41 21 -116 0 -81 -2 -91 -25 -113
-27 -27 -51 -31 -89 -14 -35 16 -49 66 -44 156 3 64 7 78 27 94 35 28 85 25
110 -7z m178 3 c21 -21 21 -84 0 -104 -13 -13 -12 -22 4 -76 10 -34 19 -63 19
-65 0 -2 -12 -2 -27 0 -24 3 -29 10 -41 61 -8 31 -18 57 -23 57 -5 0 -9 -27
-9 -60 l0 -60 -30 0 -30 0 0 128 c0 71 3 132 8 136 13 14 112 0 129 -17z m233
3 c0 -13 -7 -20 -20 -20 -19 0 -20 -7 -20 -115 l0 -115 -25 0 -25 0 0 115 0
115 -25 0 c-18 0 -25 5 -25 20 0 18 7 20 70 20 63 0 70 -2 70 -20z m60 -35 c0
-54 0 -55 30 -55 30 0 30 0 30 56 0 52 1 55 23 52 21 -3 22 -7 25 -135 l3
-133 -25 0 c-23 0 -25 4 -28 58 -3 53 -5 57 -28 57 -23 0 -25 -4 -28 -57 -3
-54 -5 -58 -27 -58 l-25 0 0 135 0 135 25 0 c24 0 25 -3 25 -55z m250 35 c0
-16 -7 -20 -30 -20 -28 0 -30 -3 -30 -34 0 -28 4 -35 22 -38 34 -5 37 -38 4
-38 -24 0 -26 -3 -26 -45 0 -43 1 -45 30 -45 20 0 30 -5 30 -15 0 -12 -13 -15
-55 -15 l-55 0 0 135 0 135 55 0 c48 0 55 -2 55 -20z m214 4 c21 -21 31 -63
18 -76 -16 -16 -40 -3 -44 24 -2 15 -10 23 -23 23 -18 0 -20 -8 -23 -75 -2
-41 0 -85 3 -97 6 -27 40 -31 49 -7 11 28 6 54 -9 54 -8 0 -15 7 -15 15 0 10
11 15 35 15 l35 0 0 -70 c0 -56 -3 -70 -15 -70 -8 0 -15 4 -15 10 0 6 -9 5
-24 -1 -64 -30 -106 22 -106 130 0 66 13 110 37 129 23 17 78 15 97 -4z m176
-2 c19 -15 24 -31 28 -94 5 -90 -9 -140 -44 -157 -38 -17 -62 -13 -89 14 -23
22 -25 32 -25 113 0 75 3 93 21 116 25 32 75 35 109 8z m166 -88 c12 -56 24
-116 27 -133 6 -28 4 -31 -17 -31 -19 0 -26 7 -31 31 -9 41 -48 38 -53 -3 -3
-22 -9 -28 -28 -28 -13 0 -24 4 -24 9 0 4 11 63 25 131 14 68 25 125 25 127 0
2 12 3 28 1 26 -3 28 -7 48 -104z m94 -14 l0 -120 35 0 c24 0 35 -5 35 -14 0
-18 -20 -22 -77 -17 l-43 3 0 127 c0 70 3 131 7 134 3 4 15 7 25 7 16 0 18
-10 18 -120z m188 104 c28 -19 30 -64 3 -64 -10 0 -21 9 -24 20 -3 11 -12 20
-21 20 -30 0 -16 -42 29 -91 33 -35 45 -56 45 -78 0 -35 -33 -71 -66 -71 -32
0 -74 37 -74 66 0 33 33 32 49 -2 13 -29 34 -28 39 2 2 12 -14 36 -43 64 -37
37 -45 50 -45 82 0 40 27 68 65 68 11 0 31 -7 43 -16z m-956 -693 c111 -43
236 -163 269 -261 9 -23 17 -30 37 -30 80 0 202 -55 279 -124 106 -96 156
-209 156 -356 0 -140 -45 -250 -141 -343 -38 -37 -39 -41 -30 -75 15 -53 4
-188 -19 -254 -54 -148 -193 -273 -343 -307 -108 -25 -262 -4 -345 47 -30 19
-30 19 -100 -14 -246 -117 -524 -15 -643 234 -37 77 -37 78 -37 209 l-1 133
-33 32 c-84 82 -131 187 -139 310 -15 242 156 460 392 501 l68 11 30 60 c56
110 174 206 298 242 70 21 232 12 302 -15z"/>
<path d="M1220 3260 c0 -37 2 -41 23 -38 18 2 22 9 22 38 0 29 -4 36 -22 38
-21 3 -23 -1 -23 -38z"/>
<path d="M1386 3219 c-9 -47 -7 -59 9 -59 12 0 14 8 9 43 -9 53 -10 55 -18 16z"/>
<path d="M1540 3259 c0 -36 2 -40 23 -37 42 6 33 77 -10 78 -8 0 -13 -15 -13
-41z"/>
<path d="M2160 3259 c0 -36 2 -40 23 -37 42 6 33 77 -10 78 -8 0 -13 -15 -13
-41z"/>
<path d="M2770 3261 c0 -28 4 -41 14 -41 40 0 48 73 9 78 -21 3 -23 -1 -23
-37z"/>
<path d="M1355 2847 c-3 -7 -5 -52 -3 -98 3 -76 5 -84 23 -84 19 0 20 7 20 95
0 82 -2 95 -18 98 -9 2 -19 -3 -22 -11z"/>
<path d="M1530 2820 c0 -43 17 -53 40 -25 18 21 4 65 -20 65 -17 0 -20 -7 -20
-40z"/>
<path d="M2467 2853 c-10 -10 -8 -166 2 -182 5 -8 16 -11 25 -8 13 5 16 24 16
102 0 85 -2 95 -18 95 -10 0 -22 -3 -25 -7z"/>
<path d="M2650 2778 c0 -14 -3 -33 -6 -42 -4 -11 -1 -16 10 -16 18 0 22 45 6
70 -8 12 -10 9 -10 -12z"/>
<path d="M1719 2097 c-68 -29 -107 -55 -148 -102 -29 -34 -66 -95 -59 -99 2
-1 29 -10 60 -19 103 -32 221 -126 267 -216 l18 -33 32 50 c63 99 189 189 289
208 17 3 32 9 32 13 0 16 -64 102 -98 132 -67 59 -135 84 -242 87 -81 2 -103
-1 -151 -21z"/>
<path d="M1301 1784 c-99 -35 -177 -106 -225 -204 -28 -59 -31 -74 -31 -160 0
-81 4 -103 26 -150 14 -31 41 -72 58 -93 l32 -36 47 61 c71 93 170 155 295
183 l29 6 -40 43 c-72 78 -112 184 -112 298 0 77 -2 79 -79 52z"/>
<path d="M1480 1728 c1 -162 110 -307 266 -351 l52 -15 4 29 c7 48 -9 135 -35
193 -44 96 -157 187 -259 210 l-28 6 0 -72z"/>
<path d="M2183 1785 c-157 -49 -263 -188 -267 -350 -1 -69 -1 -70 24 -67 48 6
130 51 180 98 72 68 112 153 118 255 3 43 1 79 -4 78 -5 0 -28 -6 -51 -14z"/>
<path d="M2340 1743 c0 -110 -44 -227 -117 -312 l-33 -39 39 -7 c99 -17 236
-108 292 -195 l34 -52 28 33 c73 87 109 214 88 316 -31 157 -155 287 -294 310
l-37 6 0 -60z"/>
<path d="M1485 1276 c-55 -17 -114 -50 -151 -83 -43 -38 -87 -100 -80 -112 12
-19 101 -41 166 -41 82 0 145 18 211 61 54 34 132 124 126 143 -6 18 -108 45
-172 45 -33 0 -78 -6 -100 -13z"/>
<path d="M2014 1276 c-64 -21 -67 -23 -47 -58 29 -48 109 -117 171 -146 50
-24 69 -27 157 -27 125 0 183 21 164 57 -25 46 -106 121 -164 151 -52 26 -73
31 -150 34 -56 2 -105 -2 -131 -11z"/>
<path d="M1821 1140 c-97 -135 -98 -326 0 -458 17 -23 35 -42 39 -42 16 0 72
90 92 148 30 85 22 199 -20 284 -17 35 -42 74 -56 87 l-24 23 -31 -42z"/>
<path d="M2068 926 c2 -45 -3 -97 -13 -137 -17 -65 -63 -156 -90 -179 -46 -38
37 -75 170 -75 77 0 98 4 147 27 79 37 152 108 189 184 25 51 32 80 37 150 l5
87 -24 -6 c-13 -3 -51 -13 -84 -21 -33 -9 -82 -16 -110 -16 -57 0 -163 23
-203 44 l-27 14 3 -72z"/>
<path d="M1580 968 c-104 -38 -194 -36 -349 8 l-23 7 4 -89 c3 -70 9 -101 30
-146 37 -79 98 -142 177 -181 56 -27 78 -32 156 -35 73 -3 101 0 148 18 l58
22 -34 46 c-74 101 -97 171 -98 292 0 44 -4 80 -7 79 -4 0 -32 -10 -62 -21z"/>
</g>
</svg>
