<?xml version="1.0" encoding="UTF-8"?>
<svg version="1.1" xmlns="http://www.w3.org/2000/svg" width="367" height="368">
<path d="M0 0 C121.11 0 242.22 0 367 0 C367 121.44 367 242.88 367 368 C245.89 368 124.78 368 0 368 C0 246.56 0 125.12 0 0 Z " fill="#8E1838" transform="translate(0,0)"/>
<path d="M0 0 C0.66 0 1.32 0 2 0 C2.02332788 18.75799498 2.04097863 37.51598703 2.05181217 56.27399349 C2.05697537 64.9830416 2.06401851 73.69208071 2.07543945 82.40112305 C2.08538558 89.98913741 2.09185326 97.57714526 2.09408849 105.16516596 C2.09539572 109.18547119 2.09848234 113.20575778 2.10573006 117.22605705 C2.11248915 121.00573984 2.11461719 124.7853962 2.11310768 128.56508446 C2.11338406 129.95630283 2.11538985 131.34752203 2.11920547 132.7387352 C2.12414091 134.63013326 2.12239798 136.52154532 2.12025452 138.41294861 C2.12117631 139.47393233 2.1220981 140.53491606 2.12304783 141.6280508 C2 144 2 144 1 145 C-2.01808063 145.101137 -5.01280513 145.13968909 -8.03125 145.1328125 C-8.93750122 145.13376923 -9.84375244 145.13472595 -10.77746582 145.13571167 C-12.69751047 145.13639353 -14.61755741 145.13453882 -16.53759766 145.13037109 C-19.48735704 145.12502292 -22.43696414 145.13031588 -25.38671875 145.13671875 C-27.24739617 145.13605797 -29.1080735 145.13477681 -30.96875 145.1328125 C-32.30153992 145.13584885 -32.30153992 145.13584885 -33.66125488 145.13894653 C-39.88505012 145.11494988 -39.88505012 145.11494988 -41 144 C-41.12758084 142.66889128 -41.18828033 141.33128003 -41.22119141 139.99447632 C-41.24424347 139.13129288 -41.26729553 138.26810944 -41.29104614 137.37876892 C-41.31101654 136.42410233 -41.33098694 135.46943573 -41.3515625 134.48583984 C-41.37580292 133.4856633 -41.40004333 132.48548676 -41.42501831 131.45500183 C-41.63720604 122.17917045 -41.76141702 112.90182573 -41.85931396 103.62415123 C-41.92618162 97.39354204 -42.02145978 91.16634626 -42.18652344 84.9375 C-42.34548401 78.91239491 -42.42923346 72.8903981 -42.46209717 66.86333084 C-42.48712475 64.57543089 -42.53809431 62.28764999 -42.61651611 60.00095749 C-43.26272501 40.25283272 -43.26272501 40.25283272 -35.74511719 32.17542458 C-32.64547254 29.23709835 -29.38929897 26.59291276 -26 24 C-24.51159822 22.69798218 -23.0288392 21.3893156 -21.5625 20.0625 C-20.96566406 19.55847656 -20.36882812 19.05445313 -19.75390625 18.53515625 C-17.03879407 16.15867721 -14.55361002 13.56236275 -12.0234375 10.9921875 C-9.3411705 8.35134548 -6.52192612 5.89328333 -3.6640625 3.4453125 C-2.39833536 2.34597202 -1.1854566 1.1854566 0 0 Z " fill="#FEFDFD" transform="translate(254,187)"/>
<path d="M0 0 C0.99 0.33 1.98 0.66 3 1 C3.02312215 12.71726788 3.04091443 24.43453037 3.05181217 36.15181637 C3.05704128 41.59202312 3.06413943 47.03221431 3.07543945 52.47241211 C3.08626735 57.71785702 3.09227662 62.96328692 3.09487724 68.20874214 C3.09673167 70.21470946 3.10035262 72.22067592 3.10573006 74.22663689 C3.11293919 77.02602824 3.113991 79.82535679 3.11352539 82.62475586 C3.11712067 83.46272705 3.12071594 84.30069824 3.12442017 85.1640625 C3.11405216 90.88594784 3.11405216 90.88594784 2 92 C-1.09081465 92.1011692 -4.15882555 92.13968558 -7.25 92.1328125 C-8.17844727 92.13376923 -9.10689453 92.13472595 -10.06347656 92.13571167 C-12.03059965 92.13639355 -13.99772496 92.13453872 -15.96484375 92.13037109 C-18.98703026 92.12502295 -22.00906815 92.13031582 -25.03125 92.13671875 C-26.93750033 92.13605797 -28.84375057 92.13477681 -30.75 92.1328125 C-32.11560059 92.13584885 -32.11560059 92.13584885 -33.50878906 92.13894653 C-39.88505031 92.11494969 -39.88505031 92.11494969 -41 91 C-41.09517803 88.23061034 -41.12554265 85.48622841 -41.11352539 82.71655273 C-41.11367142 81.84833893 -41.11381744 80.98012512 -41.1139679 80.08560181 C-41.11326846 77.20157414 -41.10547463 74.3176102 -41.09765625 71.43359375 C-41.09579218 69.43962133 -41.09436823 67.44564845 -41.09336853 65.45167542 C-41.08954248 60.19254298 -41.07971145 54.93343797 -41.06866455 49.67431641 C-41.0584523 44.31217825 -41.05387131 38.95003569 -41.04882812 33.58789062 C-41.03808926 23.05858167 -41.0210118 12.52929311 -41 2 C-39.68 2 -38.36 2 -37 2 C-37 2.66 -37 3.32 -37 4 C-36.43410156 4.22816406 -35.86820313 4.45632812 -35.28515625 4.69140625 C-32.38325139 6.35318083 -30.62613556 8.41556969 -28.4375 10.9375 C-24.83064366 15.07412468 -24.83064366 15.07412468 -21 19 C-17.63664406 17.54254576 -15.45465995 15.68882146 -12.890625 13.0859375 C-12.13652344 12.32539063 -11.38242188 11.56484375 -10.60546875 10.78125 C-9.82816406 9.9871875 -9.05085938 9.193125 -8.25 8.375 C-7.45722656 7.57320312 -6.66445312 6.77140625 -5.84765625 5.9453125 C-3.89385507 3.96797154 -1.94487897 1.98611091 0 0 Z " fill="#FCF8FA" transform="translate(200,240)"/>
<path d="M0 0 C-1.77369558 10.39058545 -3.70078736 20.71061577 -6 31 C-9 31 -9 31 -16 26 C-40.09 50.09 -64.18 74.18 -89 99 C-93.25595755 96.87202123 -96.01794739 94.23675128 -99.296875 90.8984375 C-99.89050842 90.30197418 -100.48414185 89.70551086 -101.09576416 89.0909729 C-102.98526627 87.1903019 -104.86768392 85.28278526 -106.75 83.375 C-108.03209065 82.08287532 -109.31463761 80.79120324 -110.59765625 79.5 C-113.73708432 76.33855521 -116.87017801 73.1709539 -120 70 C-124.97309568 74.16447517 -129.62936384 78.50559801 -134.18359375 83.12109375 C-134.84279312 83.78407974 -135.50199249 84.44706573 -136.1811676 85.13014221 C-138.97009346 87.93524066 -141.7529851 90.74629681 -144.53637695 93.55688477 C-146.58332833 95.62207178 -148.63339306 97.68413321 -150.68359375 99.74609375 C-151.29843124 100.36922958 -151.91326874 100.99236542 -152.54673767 101.63438416 C-163.70136115 112.85068057 -163.70136115 112.85068057 -170 116 C-172.64 113.36 -175.28 110.72 -178 108 C-176.05557846 104.11115692 -173.89012297 101.58779828 -170.87939453 98.57299805 C-170.35883484 98.04411484 -169.83827515 97.51523163 -169.30194092 96.97032166 C-167.58432165 95.22865919 -165.85918474 93.49470285 -164.1328125 91.76171875 C-162.93448319 90.55442309 -161.73623192 89.34704998 -160.53805542 88.13960266 C-158.02827254 85.61334574 -155.51414282 83.09150206 -152.99755859 80.57202148 C-149.76850893 77.33757105 -146.5559475 74.08725232 -143.34707832 70.83279705 C-140.87970279 68.33574308 -138.40121321 65.84995465 -135.9194603 63.36719704 C-134.72960388 62.17312469 -133.54388393 60.97491597 -132.36236954 59.77258873 C-130.71291414 58.09639396 -129.04852392 56.43660124 -127.37939453 54.7800293 C-126.89197784 54.27777832 -126.40456116 53.77552734 -125.90237427 53.25805664 C-124.51760864 51.90287781 -124.51760864 51.90287781 -122 50 C-118.78708738 50.05013968 -117.17318342 51.45627317 -114.97558594 53.68383789 C-114.13516754 54.52459618 -114.13516754 54.52459618 -113.277771 55.38233948 C-112.68595032 55.98964401 -112.09412964 56.59694855 -111.484375 57.22265625 C-110.86854553 57.84273056 -110.25271606 58.46280487 -109.6182251 59.10166931 C-107.65499365 61.08167905 -105.70245564 63.07186919 -103.75 65.0625 C-102.41996252 66.40758535 -101.08924121 67.75199488 -99.7578125 69.09570312 C-96.49722463 72.38934906 -93.24618812 75.69216339 -90 79 C-85.46479694 75.20301491 -81.13986003 71.28288646 -76.97290039 67.08642578 C-76.41592468 66.5295961 -75.85894897 65.97276642 -75.28509521 65.39906311 C-73.47023101 63.58351 -71.65892089 61.76445606 -69.84765625 59.9453125 C-68.57992626 58.67571469 -67.31197327 57.40633952 -66.04380798 56.13717651 C-62.72575224 52.81532426 -59.41071211 49.49047867 -56.09631348 46.16497803 C-52.70601645 42.76440491 -49.31284494 39.36670263 -45.91992188 35.96875 C-39.27714838 29.31528981 -32.63756054 22.65866041 -26 16 C-27.05109472 13.77442119 -27.83707287 12.1566607 -29.625 10.4375 C-31 9 -31 9 -31 6 C-26.77293349 4.99097851 -22.54303585 3.99436629 -18.3125 3 C-16.51522461 2.57074219 -16.51522461 2.57074219 -14.68164062 2.1328125 C-13.52470703 1.86210937 -12.36777344 1.59140625 -11.17578125 1.3125 C-10.11270752 1.06113281 -9.04963379 0.80976563 -7.9543457 0.55078125 C-5.2169712 0.04045013 -2.77478308 -0.10767145 0 0 Z " fill="#FCF7F9" transform="translate(270,144)"/>
<path d="M0 0 C0.99 0.33 1.98 0.66 3 1 C3.02312143 13.499571 3.04091406 25.99913695 3.05181217 38.49872494 C3.05704144 44.30213613 3.06413987 50.10553275 3.07543945 55.90893555 C3.08626678 61.50450853 3.0922765 67.10006745 3.09487724 72.6956501 C3.09673177 74.83558944 3.10035291 76.97552796 3.10573006 79.11546135 C3.11293844 82.10164966 3.11399103 85.08777907 3.11352539 88.07397461 C3.11712067 88.96805023 3.12071594 89.86212585 3.12442017 90.78329468 C3.11405216 96.88594784 3.11405216 96.88594784 2 98 C-1.01808063 98.101137 -4.01280513 98.13968909 -7.03125 98.1328125 C-7.93750122 98.13376923 -8.84375244 98.13472595 -9.77746582 98.13571167 C-11.69751047 98.13639353 -13.61755741 98.13453882 -15.53759766 98.13037109 C-18.48735704 98.12502292 -21.43696414 98.13031588 -24.38671875 98.13671875 C-26.24739617 98.13605797 -28.1080735 98.13477681 -29.96875 98.1328125 C-31.30153992 98.13584885 -31.30153992 98.13584885 -32.66125488 98.13894653 C-38.88505012 98.11494988 -38.88505012 98.11494988 -40 97 C-40.14613895 95.21338563 -40.2229246 93.42105379 -40.2722168 91.62915039 C-40.30441818 90.48027847 -40.33661957 89.33140656 -40.36979675 88.14772034 C-40.46586091 83.55138717 -40.54676565 78.95507323 -40.60025311 74.35805607 C-40.64107857 70.87295535 -40.7010375 67.39069579 -40.80932617 63.90698242 C-40.93386036 59.88684901 -40.9750849 55.86956395 -41.01171875 51.84765625 C-41.06019455 50.61185318 -41.10867035 49.37605011 -41.15861511 48.10279846 C-41.14383424 41.06478635 -40.22042507 37.44019054 -35.19067383 32.35717773 C-33.48959072 30.87076 -31.76073611 29.41524901 -30 28 C-28.64297072 26.81577234 -27.28817383 25.62897129 -25.9375 24.4375 C-25.29683594 23.88964844 -24.65617187 23.34179688 -23.99609375 22.77734375 C-20.9388163 20.0551104 -18.10809769 17.11648524 -15.234375 14.203125 C-12.5248638 11.53150907 -9.68354774 9.05098396 -6.796875 6.57421875 C-4.41401353 4.48662489 -2.20473601 2.27363401 0 0 Z " fill="#FEFCFD" transform="translate(145,234)"/>
<path d="M0 0 C5.34514767 5.75631287 5.49205655 10.48733758 5.3671875 18.1328125 C4.87312631 23.3362229 3.12601177 26.88036306 0 31 C1.2065625 32.3921875 1.2065625 32.3921875 2.4375 33.8125 C6.88857202 38.94835233 6.40302854 44.7423118 6.28125 51.25 C5.80806041 57.55919459 3.95873591 61.18117379 -0.625 65.4375 C-4.7041744 68.12116737 -7.3332496 68.22091347 -12.25 68.3125 C-13.55453125 68.34988281 -14.8590625 68.38726562 -16.203125 68.42578125 C-21.28591072 67.85579808 -24.29801715 65.82355305 -27.75 62.125 C-31.64357517 55.50592221 -31.75559105 48.46487546 -31 41 C-29.56908185 36.46053552 -27.44204327 33.2546541 -24 30 C-24.928125 28.948125 -24.928125 28.948125 -25.875 27.875 C-30.32706071 21.85162374 -31.01475809 15.31040013 -30 8 C-27.97343675 2.89172074 -25.12038021 -0.76803939 -20 -3 C-12.8797524 -5.70078357 -6.07161163 -4.18685414 0 0 Z " fill="#FBF6F8" transform="translate(58,42)"/>
<path d="M0 0 C3.51208638 1.17069546 5.18603034 2.79066906 7 6 C7.49887933 9.17068898 7.50966708 12.2953623 7.5 15.5 C7.52835937 16.35464844 7.55671875 17.20929687 7.5859375 18.08984375 C7.59850845 22.11883225 7.54600536 24.28658217 5.05078125 27.546875 C0.89321038 29.52717764 -2.75704273 29.67089972 -7.3125 29.75 C-8.14845703 29.77964844 -8.98441406 29.80929688 -9.84570312 29.83984375 C-11.89662485 29.91016107 -13.94831562 29.95738973 -16 30 C-16.66 28.35 -17.32 26.7 -18 25 C-17.67 27.64 -17.34 30.28 -17 33 C-17.99 33 -18.98 33 -20 33 C-20.33 32.34 -20.66 31.68 -21 31 C-24.63 31 -28.26 31 -32 31 C-32.66 29.35 -33.32 27.7 -34 26 C-34.66 26 -35.32 26 -36 26 C-36.33 27.32 -36.66 28.64 -37 30 C-38.65 30 -40.3 30 -42 30 C-43.17829199 26.46512404 -42.75665474 24.85514595 -42.00390625 21.23828125 C-41.77509766 20.12001953 -41.54628906 19.00175781 -41.31054688 17.84960938 C-40.94026367 16.09874023 -40.94026367 16.09874023 -40.5625 14.3125 C-40.31951172 13.13365234 -40.07652344 11.95480469 -39.82617188 10.74023438 C-39.22430828 7.82532636 -38.61531981 4.91209196 -38 2 C-36.02 2 -34.04 2 -32 2 C-31.32810344 4.91555115 -30.66230692 7.83226951 -30 10.75 C-29.80921875 11.575 -29.6184375 12.4 -29.421875 13.25 C-29.24140625 14.04921875 -29.0609375 14.8484375 -28.875 15.671875 C-28.70742188 16.4050293 -28.53984375 17.13818359 -28.3671875 17.89355469 C-28 20 -28 20 -28 24 C-27.34 24 -26.68 24 -26 24 C-26 16.74 -26 9.48 -26 2 C-24.35 2 -22.7 2 -21 2 C-20.71125 2.804375 -20.4225 3.60875 -20.125 4.4375 C-19.26737432 7.1326468 -19.26737432 7.1326468 -17 8 C-17 5.69 -17 3.38 -17 1 C-14.98177083 1.03255208 -12.96354167 1.06510417 -10.9453125 1.09765625 C-7.14959829 0.90710835 -4.08685431 -0.21138902 0 0 Z " fill="#7C203B" transform="translate(314,37)"/>
<path d="M0 0 C2.375 0.25 2.375 0.25 5 1 C7.31554384 4.32362502 7.23269851 7.3339579 7.1953125 11.296875 C7.18886719 12.50214844 7.18242187 13.70742188 7.17578125 14.94921875 C7.15902344 16.20347656 7.14226562 17.45773438 7.125 18.75 C7.11597656 20.01972656 7.10695312 21.28945313 7.09765625 22.59765625 C7.07409005 25.73196093 7.04118832 28.86588541 7 32 C4.36 31.67 1.72 31.34 -1 31 C-1.33 31.66 -1.66 32.32 -2 33 C-8.27 32.67 -14.54 32.34 -21 32 C-21.33 27.05 -21.66 22.1 -22 17 C-23.98 16.67 -25.96 16.34 -28 16 C-28 13.69 -28 11.38 -28 9 C-29.65 9 -31.3 9 -33 9 C-32.67 15.27 -32.34 21.54 -32 28 C-31.01 28 -30.02 28 -29 28 C-28.67 26.02 -28.34 24.04 -28 22 C-26.35 22 -24.7 22 -23 22 C-22.53544837 25.99514406 -22.71317821 27.59149623 -25.0625 30.9375 C-28 33 -28 33 -31.625 33.0625 C-35 32 -35 32 -36.6875 30.51953125 C-38.7078268 26.64122535 -38.43408098 22.93134718 -38.375 18.625 C-38.38660156 17.78710938 -38.39820312 16.94921875 -38.41015625 16.0859375 C-38.38599194 10.96310459 -37.7556121 7.47604717 -35 3 C-33.56163249 3.11458693 -32.12429034 3.24209116 -30.6875 3.375 C-29.48673828 3.47941406 -29.48673828 3.47941406 -28.26171875 3.5859375 C-26 4 -26 4 -23 6 C-22.67 5.34 -22.34 4.68 -22 4 C-20.73542969 3.93941406 -19.47085938 3.87882812 -18.16796875 3.81640625 C-16.50780129 3.73199096 -14.84764563 3.64734345 -13.1875 3.5625 C-12.35412109 3.52318359 -11.52074219 3.48386719 -10.66210938 3.44335938 C-9.85966797 3.40146484 -9.05722656 3.35957031 -8.23046875 3.31640625 C-7.49207764 3.27974854 -6.75368652 3.24309082 -5.99291992 3.20532227 C-3.792505 3.05157859 -3.792505 3.05157859 -1 2 C-0.67 1.34 -0.34 0.68 0 0 Z " fill="#851B39" transform="translate(160,34)"/>
<path d="M0 0 C0 3.1474213 -0.600266 4.28801537 -2 7 C-2 7.66 -2 8.32 -2 9 C-2.66 9 -3.32 9 -4 9 C-4 9.66 -4 10.32 -4 11 C-4.928125 11.12375 -4.928125 11.12375 -5.875 11.25 C-8.67505419 12.23825442 -8.74113932 13.40359985 -10 16 C-12.125 17.25 -12.125 17.25 -14 18 C-14 18.66 -14 19.32 -14 20 C-13.34 20.66 -12.68 21.32 -12 22 C-12 22.99 -12 23.98 -12 25 C-11.01 25 -10.02 25 -9 25 C-8.67 23.68 -8.34 22.36 -8 21 C-6.68 21.33 -5.36 21.66 -4 22 C-8.48553788 26.59290448 -13.05985299 30.97094542 -17.93359375 35.1484375 C-20.22219871 37.19909677 -22.3550499 39.36236251 -24.5 41.5625 C-28.37894625 45.50216019 -32.46405807 48.84832373 -37 52 C-37.495 50.515 -37.495 50.515 -38 49 C-38.66 48.525625 -39.32 48.05125 -40 47.5625 C-42 46 -42 46 -43.0625 44.125 C-42.96072461 40.66463669 -40.44333995 39.30561296 -38 37 C-36.19008717 35.33912102 -34.37186878 33.68726226 -32.546875 32.04296875 C-25.55736381 25.68872464 -18.90309953 19.01517971 -12.25 12.3125 C-11.05232198 11.10978835 -9.8544064 9.90731321 -8.65625 8.70507812 C-5.76810121 5.806091 -2.88313815 2.90397007 0 0 Z " fill="#8C1D3B" transform="translate(146,216)"/>
<path d="M0 0 C10 0 10 0 14 2 C15.6877634 5.3755268 15.18459799 9.16623711 15.1875 12.875 C15.19974609 13.69097656 15.21199219 14.50695313 15.22460938 15.34765625 C15.22750977 16.53294922 15.22750977 16.53294922 15.23046875 17.7421875 C15.23457764 18.4626123 15.23868652 19.18303711 15.24291992 19.92529297 C14.95635362 22.37277079 14.34648864 23.93809294 13 26 C10 27 10 27 0 27 C0 18.09 0 9.18 0 0 Z " fill="#FCF2F7" transform="translate(91,39)"/>
<path d="M0 0 C10 0 10 0 14 2 C15.75954931 5.51909862 15.31190375 9.49744856 15.375 13.375 C15.41238281 14.23867188 15.44976562 15.10234375 15.48828125 15.9921875 C15.54453998 20.04281575 15.53433733 22.26775996 13.1015625 25.6015625 C10 27 10 27 0 27 C0 18.09 0 9.18 0 0 Z " fill="#FBF0F4" transform="translate(306,39)"/>
<path d="M0 0 C2.1875 0.90625 2.1875 0.90625 4 3 C4.61430885 6.31687403 4.5571371 9.57355342 4.5 12.9375 C4.51546875 13.84435547 4.5309375 14.75121094 4.546875 15.68554688 C4.50812625 22.26799091 4.50812625 22.26799091 2.19140625 25.60546875 C-0.97701744 27.62173837 -3.32648256 27.40074736 -7 27 C-10 25 -10 25 -11 22 C-11.27287085 19.02551952 -11.27709694 16.04815843 -11.3125 13.0625 C-11.34150391 12.25103516 -11.37050781 11.43957031 -11.40039062 10.60351562 C-11.46383908 4.65400304 -11.46383908 4.65400304 -9.19921875 1.4609375 C-5.99813109 -0.66553991 -3.75741707 -0.46967713 0 0 Z " fill="#F7E7ED" transform="translate(277,83)"/>
<path d="M0 0 C2.1953125 1.46875 2.1953125 1.46875 4 4 C4.53845301 7.01352691 4.46762957 9.94809929 4.375 13 C4.37371094 13.80695312 4.37242187 14.61390625 4.37109375 15.4453125 C4.31053539 19.52290851 4.18066455 22.44303809 2 26 C-1.10920609 27.55460305 -4.63083028 27.72720693 -8 27 C-10.16466987 25.21243325 -10.89502316 23.72514503 -11.29614258 20.9543457 C-11.44126373 18.46202524 -11.45820849 15.996314 -11.4375 13.5 C-11.45748047 12.64535156 -11.47746094 11.79070313 -11.49804688 10.91015625 C-11.49320182 4.69879134 -11.49320182 4.69879134 -9.19140625 1.4375 C-5.96517032 -0.67881875 -3.76908836 -0.53844119 0 0 Z " fill="#FAEBEF" transform="translate(224,39)"/>
<path d="M0 0 C3.13353271 0.76383619 4.17897779 1.85256927 6.03515625 4.49609375 C6.62053386 7.48789793 6.59375356 10.39385829 6.53515625 13.43359375 C6.550625 14.23216797 6.56609375 15.03074219 6.58203125 15.85351562 C6.55553324 19.85140262 6.31386717 22.02997376 4.22265625 25.52734375 C2.03515625 27.49609375 2.03515625 27.49609375 -1.46484375 28.05859375 C-4.96484375 27.49609375 -4.96484375 27.49609375 -7.15625 26.08984375 C-9.95657897 22.07382122 -9.50755239 18.20870855 -9.40234375 13.43359375 C-9.40943359 12.52287109 -9.41652344 11.61214844 -9.42382812 10.67382812 C-9.36025725 4.03800694 -9.36025725 4.03800694 -7.68383789 1.74047852 C-5.26920348 -0.00748223 -2.90836605 0.08405682 0 0 Z " fill="#FDF4F8" transform="translate(130.96484375,82.50390625)"/>
<path d="M0 0 C2.17439599 1.57405146 2.89703055 2.4615102 3.40405273 5.11303711 C3.43597843 7.72223715 3.45781382 10.32809713 3.4375 12.9375 C3.45748047 13.84435547 3.47746094 14.75121094 3.49804688 15.68554688 C3.49318509 22.2927108 3.49318509 22.2927108 1.19140625 25.59375 C-2.06957403 27.68635767 -4.21698365 27.60798477 -8 27 C-11.16868455 24.14818391 -12.25373307 21.86993893 -12.53125 17.71484375 C-12.54180474 16.12239674 -12.53084132 14.52968331 -12.5 12.9375 C-12.51546875 12.13505859 -12.5309375 11.33261719 -12.546875 10.50585938 C-12.5216882 6.71209709 -12.44296082 4.63085409 -10.22265625 1.46875 C-6.55829251 -0.95269247 -4.33267903 -0.48140878 0 0 Z " fill="#FBF0F4" transform="translate(169,83)"/>
<path d="M0 0 C1.65 0 3.3 0 5 0 C5.66 3.3 6.32 6.6 7 10 C7.66 6.7 8.32 3.4 9 0 C10.32 0 11.64 0 13 0 C13.66 3.63 14.32 7.26 15 11 C16.14814997 8.70370006 16.30769809 6.92301914 16.5625 4.375 C16.64628906 3.55773438 16.73007813 2.74046875 16.81640625 1.8984375 C16.90728516 0.95871094 16.90728516 0.95871094 17 0 C18.65 0 20.3 0 22 0 C20.68 8.91 19.36 17.82 18 27 C16.68 27 15.36 27 14 27 C13.01 22.38 12.02 17.76 11 13 C10.690625 14.93875 10.38125 16.8775 10.0625 18.875 C9.125 24.75 9.125 24.75 8 27 C6.68 27 5.36 27 4 27 C2.71750035 24.4350007 2.57745736 22.18854597 2.24609375 19.3359375 C2.11396484 18.21445312 1.98183594 17.09296875 1.84570312 15.9375 C1.71099609 14.761875 1.57628906 13.58625 1.4375 12.375 C1.29892578 11.19164062 1.16035156 10.00828125 1.01757812 8.7890625 C0.67503734 5.85974822 0.33599414 2.93007121 0 0 Z " fill="#F9ECF0" transform="translate(189,39)"/>
<path d="M0 0 C1.65 0 3.3 0 5 0 C6.32 5.28 7.64 10.56 9 16 C9.99 10.72 10.98 5.44 12 0 C13.98 0 15.96 0 18 0 C18 8.91 18 17.82 18 27 C17.01 27 16.02 27 15 27 C14.67 21.72 14.34 16.44 14 11 C13.01 16.28 12.02 21.56 11 27 C9.68 27 8.36 27 7 27 C6.34 24.03 5.68 21.06 5 18 C4.67 20.97 4.34 23.94 4 27 C2.68 27 1.36 27 0 27 C0 18.09 0 9.18 0 0 Z " fill="#F6DFE6" transform="translate(176,83)"/>
<path d="M0 0 C1.32 0 2.64 0 4 0 C4.66 4.29 5.32 8.58 6 13 C6.66 8.71 7.32 4.42 8 0 C9.32 0 10.64 0 12 0 C12.13277344 0.71027344 12.26554687 1.42054687 12.40234375 2.15234375 C12.57894531 3.07144531 12.75554687 3.99054688 12.9375 4.9375 C13.11152344 5.85402344 13.28554688 6.77054687 13.46484375 7.71484375 C13.77714988 9.95289844 13.77714988 9.95289844 15 11 C15.66 7.37 16.32 3.74 17 0 C18.32 0 19.64 0 21 0 C20.01 8.91 19.02 17.82 18 27 C16.35 27 14.7 27 13 27 C12.86722656 26.15695313 12.73445313 25.31390625 12.59765625 24.4453125 C12.42105469 23.34960938 12.24445313 22.25390625 12.0625 21.125 C11.88847656 20.03445312 11.71445312 18.94390625 11.53515625 17.8203125 C11.14448841 15.06178454 11.14448841 15.06178454 10 13 C9.34 17.62 8.68 22.24 8 27 C6.35 27 4.7 27 3 27 C2.49295891 23.62601911 1.99563464 20.25067379 1.5 16.875 C1.35691406 15.92367187 1.21382813 14.97234375 1.06640625 13.9921875 C0.38038663 9.28805294 -0.19271007 4.7695743 0 0 Z " fill="#F9EAF0" transform="translate(284,83)"/>
<path d="M0 0 C10 0 10 0 13.1875 2.0625 C15 5 15 5 14.875 8.5 C14.38411286 10.46354857 13.89042879 12.42642046 13.38671875 14.38671875 C12.95228045 17.32246847 13.28380243 19.42854011 13.9375 22.3125 C14.22947266 23.63701172 14.22947266 23.63701172 14.52734375 24.98828125 C14.68332031 25.65214844 14.83929688 26.31601563 15 27 C13.35 27 11.7 27 10 27 C9.80664062 26.21753906 9.61328125 25.43507813 9.4140625 24.62890625 C9.15367187 23.61699219 8.89328125 22.60507812 8.625 21.5625 C8.36976563 20.55316406 8.11453125 19.54382813 7.8515625 18.50390625 C7.27426046 15.84429676 7.27426046 15.84429676 5 15 C5 18.96 5 22.92 5 27 C3.35 27 1.7 27 0 27 C0 18.09 0 9.18 0 0 Z " fill="#F9EDF1" transform="translate(231,39)"/>
<path d="M0 0 C10 0 10 0 14 3 C14.390625 5.26171875 14.390625 5.26171875 14.25 7.6875 C14.21390625 8.49574219 14.1778125 9.30398437 14.140625 10.13671875 C14.07101562 11.05904297 14.07101562 11.05904297 14 12 C13.01 12.33 12.02 12.66 11 13 C11.28875 13.84304687 11.5775 14.68609375 11.875 15.5546875 C12.24625 16.65039062 12.6175 17.74609375 13 18.875 C13.556875 20.51082031 13.556875 20.51082031 14.125 22.1796875 C15 25 15 25 15 27 C13.35 27 11.7 27 10 27 C9.01 23.04 8.02 19.08 7 15 C6.01 15 5.02 15 4 15 C4 18.96 4 22.92 4 27 C2.68 27 1.36 27 0 27 C0 18.09 0 9.18 0 0 Z " fill="#F9E9EF" transform="translate(249,83)"/>
<path d="M0 0 C1.65 0 3.3 0 5 0 C5 3.63 5 7.26 5 11 C6.65 11 8.3 11 10 11 C10 7.37 10 3.74 10 0 C11.65 0 13.3 0 15 0 C15 8.91 15 17.82 15 27 C13.35 27 11.7 27 10 27 C10 23.04 10 19.08 10 15 C8.35 15 6.7 15 5 15 C5 18.96 5 22.92 5 27 C3.35 27 1.7 27 0 27 C0 18.09 0 9.18 0 0 Z " fill="#FCEFF4" transform="translate(321,83)"/>
<path d="M0 0 C1.32 0 2.64 0 4 0 C5.65 3.96 7.3 7.92 9 12 C9.33 8.04 9.66 4.08 10 0 C11.32 0 12.64 0 14 0 C14 8.91 14 17.82 14 27 C12.68 27 11.36 27 10 27 C8.35 22.71 6.7 18.42 5 14 C4.67 18.29 4.34 22.58 4 27 C2.68 27 1.36 27 0 27 C0 18.09 0 9.18 0 0 Z " fill="#FCEFF5" transform="translate(289,39)"/>
<path d="M0 0 C1.32 0 2.64 0 4 0 C5.65 3.96 7.3 7.92 9 12 C9.33 8.04 9.66 4.08 10 0 C11.32 0 12.64 0 14 0 C14 8.91 14 17.82 14 27 C12.68 27 11.36 27 10 27 C8.35 22.71 6.7 18.42 5 14 C4.67 18.29 4.34 22.58 4 27 C2.68 27 1.36 27 0 27 C0 18.09 0 9.18 0 0 Z " fill="#FCF3F6" transform="translate(140,83)"/>
<path d="M0 0 C1.32 0.33 2.64 0.66 4 1 C6.1005746 4.85289604 7.44058131 8.88486734 9 13 C9.33 8.71 9.66 4.42 10 0 C11.32 0 12.64 0 14 0 C14 8.91 14 17.82 14 27 C12.68 27 11.36 27 10 27 C8.35 23.04 6.7 19.08 5 15 C4.67 18.96 4.34 22.92 4 27 C2.68 27 1.36 27 0 27 C0 18.09 0 9.18 0 0 Z " fill="#FCEDF2" transform="translate(153,39)"/>
<path d="M0 0 C1.98 0 3.96 0 6 0 C6.84015157 3.74850603 7.67093219 7.49902832 8.5 11.25 C8.73847656 12.31347656 8.97695313 13.37695312 9.22265625 14.47265625 C9.44824219 15.49746094 9.67382812 16.52226563 9.90625 17.578125 C10.11572266 18.52075195 10.32519531 19.46337891 10.54101562 20.43457031 C11 23 11 23 11 27 C9.35 27 7.7 27 6 27 C6 25.02 6 23.04 6 21 C4.35 21 2.7 21 1 21 C0.67 22.98 0.34 24.96 0 27 C-1.65 27 -3.3 27 -5 27 C-1.92482916 7.99544419 -1.92482916 7.99544419 0 0 Z " fill="#F5E4EA" transform="translate(276,39)"/>
<path d="M0 0 C2.91568095 0.20126902 3.97417595 0.54571437 6.5 2.1875 C8.37956836 5.16348323 8.31424507 7.10580418 8 10.5625 C6.35 10.5625 4.7 10.5625 3 10.5625 C3 8.5825 3 6.6025 3 4.5625 C1.35 4.5625 -0.3 4.5625 -2 4.5625 C-1.67 10.8325 -1.34 17.1025 -1 23.5625 C-0.34 23.5625 0.32 23.5625 1 23.5625 C1.33 21.5825 1.66 19.6025 2 17.5625 C3.65 17.5625 5.3 17.5625 7 17.5625 C7.2145758 20.70961179 7.23318878 23.00867664 6 25.9375 C3.4535215 28.00651378 1.25729656 28.08586408 -1.96484375 28.19140625 C-5.26416988 27.17184482 -6.25961745 25.49628773 -8 22.5625 C-8.56152054 19.71000462 -8.56008667 16.96168177 -8.5 14.0625 C-8.51546875 13.31613281 -8.5309375 12.56976563 -8.546875 11.80078125 C-8.51968444 7.96011427 -8.2226741 5.93704174 -6.21875 2.56640625 C-3.88028371 0.45437595 -3.08552814 -0.10244918 0 0 Z " fill="#FDFCFC" transform="translate(112,82.4375)"/>
<path d="M0 0 C3.9375 0.5 3.9375 0.5 5.9375 1.625 C7.35848605 4.28934884 7.13517261 6.53491085 6.9375 9.5 C5.6175 9.5 4.2975 9.5 2.9375 9.5 C2.9375 7.85 2.9375 6.2 2.9375 4.5 C1.2875 4.5 -0.3625 4.5 -2.0625 4.5 C-1.7325 10.77 -1.4025 17.04 -1.0625 23.5 C-0.0725 23.5 0.9175 23.5 1.9375 23.5 C2.9275 20.035 2.9275 20.035 3.9375 16.5 C2.6175 16.5 1.2975 16.5 -0.0625 16.5 C-0.0625 15.84 -0.0625 15.18 -0.0625 14.5 C2.2475 14.5 4.5575 14.5 6.9375 14.5 C6.9375 18.79 6.9375 23.08 6.9375 27.5 C5.6175 27.17 4.2975 26.84 2.9375 26.5 C2.6075 26.83 2.2775 27.16 1.9375 27.5 C-3.44547872 27.96808511 -3.44547872 27.96808511 -5.875 26.125 C-8.61719546 22.372522 -8.31882639 18.67015386 -8.375 14.1875 C-8.40400391 13.42759766 -8.43300781 12.66769531 -8.46289062 11.88476562 C-8.50704722 7.97520877 -8.31816389 5.93609925 -6.296875 2.48828125 C-3.9184801 0.37184244 -3.11547724 -0.14406831 0 0 Z " fill="#FAEBEF" transform="translate(238.0625,82.5)"/>
<path d="M0 0 C1.32 0 2.64 0 4 0 C4.33 3.3 4.66 6.6 5 10 C6.32 6.7 7.64 3.4 9 0 C10.65 0 12.3 0 14 0 C13.79503906 0.60328125 13.59007812 1.2065625 13.37890625 1.828125 C13.10949219 2.62734375 12.84007812 3.4265625 12.5625 4.25 C12.29566406 5.03890625 12.02882813 5.8278125 11.75390625 6.640625 C11.38072266 7.80851562 11.38072266 7.80851562 11 9 C10.7525 9.63164063 10.505 10.26328125 10.25 10.9140625 C9.86873861 14.09521222 11.13054423 16.24190517 12.4375 19.125 C15 24.83651226 15 24.83651226 15 27 C13.35 27 11.7 27 10 27 C8.68 23.7 7.36 20.4 6 17 C5.67 20.3 5.34 23.6 5 27 C3.35 27 1.7 27 0 27 C0 18.09 0 9.18 0 0 Z " fill="#FAEBF0" transform="translate(249,39)"/>
<path d="M0 0 C2.4375 1.625 2.4375 1.625 4 4 C4.25 7.25 4.25 7.25 4 10 C2.35 10 0.7 10 -1 10 C-1 8.02 -1 6.04 -1 4 C-2.65 4 -4.3 4 -6 4 C-5.67 10.27 -5.34 16.54 -5 23 C-4.01 23 -3.02 23 -2 23 C-1.67 21.02 -1.34 19.04 -1 17 C0.65 17 2.3 17 4 17 C4.46455163 20.99514406 4.28682179 22.59149623 1.9375 25.9375 C-1 28 -1 28 -4.625 28.0625 C-8 27 -8 27 -9.68359375 25.52734375 C-11.72115257 21.61547267 -11.47354142 17.84462927 -11.4375 13.5 C-11.45748047 12.64535156 -11.47746094 11.79070313 -11.49804688 10.91015625 C-11.49320182 4.69879134 -11.49320182 4.69879134 -9.19140625 1.4375 C-5.96517032 -0.67881875 -3.76908836 -0.53844119 0 0 Z " fill="#FDF5F9" transform="translate(133,39)"/>
<path d="M0 0 C1.875 0.27734375 1.875 0.27734375 3.875 1.33984375 C5.40190415 4.29822053 5.05968872 7.01450974 4.875 10.27734375 C3.555 10.27734375 2.235 10.27734375 0.875 10.27734375 C0.545 8.62734375 0.215 6.97734375 -0.125 5.27734375 C-1.445 4.94734375 -2.765 4.61734375 -4.125 4.27734375 C-3.795 10.54734375 -3.465 16.81734375 -3.125 23.27734375 C-2.135 23.27734375 -1.145 23.27734375 -0.125 23.27734375 C0.205 21.29734375 0.535 19.31734375 0.875 17.27734375 C2.525 17.27734375 4.175 17.27734375 5.875 17.27734375 C6.33955163 21.27248781 6.16182179 22.86883998 3.8125 26.21484375 C0.875 28.27734375 0.875 28.27734375 -2.75 28.27734375 C-6.08085184 27.29042469 -7.10578276 26.94562191 -9.125 24.27734375 C-9.51318359 22.05664062 -9.51318359 22.05664062 -9.5234375 19.49609375 C-9.52730469 18.57183594 -9.53117188 17.64757812 -9.53515625 16.6953125 C-9.52355469 15.73238281 -9.51195312 14.76945312 -9.5 13.77734375 C-9.51160156 12.81441406 -9.52320313 11.85148437 -9.53515625 10.859375 C-9.53128906 9.93511719 -9.52742187 9.01085937 -9.5234375 8.05859375 C-9.52005371 7.21361328 -9.51666992 6.36863281 -9.51318359 5.49804688 C-8.55640422 0.02454679 -4.76071587 -0.2187829 0 0 Z " fill="#FDF8FB" transform="translate(215.125,82.72265625)"/>
<path d="M0 0 C2.9375 -0.4375 2.9375 -0.4375 6 0 C8.16978916 2.19006757 8.93779451 3.55118404 9.36328125 6.62109375 C9.34652344 7.55050781 9.32976563 8.47992188 9.3125 9.4375 C9.30863281 10.36433594 9.30476563 11.29117188 9.30078125 12.24609375 C8.9540593 15.42062593 8.33408028 18.66591972 6 21 C4.00041636 21.04080783 1.99954746 21.04254356 0 21 C-2.30598416 17.34885841 -2.26789474 14.1919743 -2.25 9.9375 C-2.25515625 8.70902344 -2.2603125 7.48054688 -2.265625 6.21484375 C-2 3 -2 3 0 0 Z " fill="#8A1F3D" transform="translate(43,79)"/>
<path d="M0 0 C3.96 0 7.92 0 12 0 C12 1.32 12 2.64 12 4 C9.69 4 7.38 4 5 4 C5 6.31 5 8.62 5 11 C6.65 11 8.3 11 10 11 C10 12.32 10 13.64 10 15 C8.35 15 6.7 15 5 15 C5 17.97 5 20.94 5 24 C7.31 24 9.62 24 12 24 C12 24.99 12 25.98 12 27 C8.04 27 4.08 27 0 27 C0 18.09 0 9.18 0 0 Z " fill="#F8E5EB" transform="translate(139,39)"/>
<path d="M0 0 C3.63 0 7.26 0 11 0 C11 0.99 11 1.98 11 3 C9.02 3 7.04 3 5 3 C5 5.64 5 8.28 5 11 C6.65 11 8.3 11 10 11 C10 12.32 10 13.64 10 15 C8.35 15 6.7 15 5 15 C5 17.64 5 20.28 5 23 C6.98 23 8.96 23 11 23 C11 24.32 11 25.64 11 27 C7.37 27 3.74 27 0 27 C0 18.09 0 9.18 0 0 Z " fill="#F9E5EC" transform="translate(91,83)"/>
<path d="M0 0 C3.63 0 7.26 0 11 0 C11 1.32 11 2.64 11 4 C9.02 4 7.04 4 5 4 C5 6.31 5 8.62 5 11 C6.65 11 8.3 11 10 11 C10 12.32 10 13.64 10 15 C8.35 15 6.7 15 5 15 C5 17.97 5 20.94 5 24 C6.98 24 8.96 24 11 24 C11 24.99 11 25.98 11 27 C7.37 27 3.74 27 0 27 C0 18.09 0 9.18 0 0 Z " fill="#FAEFF2" transform="translate(109,39)"/>
<path d="M0 0 C0.66 0 1.32 0 2 0 C2 8.91 2 17.82 2 27 C1.67 27 1.34 27 1 27 C0.67 23.04 0.34 19.08 0 15 C-0.33 18.96 -0.66 22.92 -1 27 C-1.33 27 -1.66 27 -2 27 C-2 22.71 -2 18.42 -2 14 C-4.31 14 -6.62 14 -9 14 C-9 14.66 -9 15.32 -9 16 C-7.68 16 -6.36 16 -5 16 C-5.33 18.31 -5.66 20.62 -6 23 C-7.9375 23.5625 -7.9375 23.5625 -10 24 C-11 23 -11 23 -11.11352539 21.14233398 C-11.10828857 20.35157471 -11.10305176 19.56081543 -11.09765625 18.74609375 C-11.09443359 17.89208984 -11.09121094 17.03808594 -11.08789062 16.15820312 C-11.07951172 15.26037109 -11.07113281 14.36253906 -11.0625 13.4375 C-11.05798828 12.53580078 -11.05347656 11.63410156 -11.04882812 10.70507812 C-11.03700225 8.46998686 -11.0205222 6.23502563 -11 4 C-9.35 4 -7.7 4 -6 4 C-6 5.65 -6 7.3 -6 9 C-4.68 9 -3.36 9 -2 9 C-2.33 6.69 -2.66 4.38 -3 2 C-2.34 2 -1.68 2 -1 2 C-0.67 1.34 -0.34 0.68 0 0 Z " fill="#86203D" transform="translate(247,83)"/>
<path d="M0 0 C2.475 0.495 2.475 0.495 5 1 C5.495 2.485 5.495 2.485 6 4 C5.01 4.33 4.02 4.66 3 5 C3 9.95 3 14.9 3 20 C0.01572344 16.02096459 -1.31764218 12.75437664 -2.9375 8.14453125 C-3.288125 7.43683594 -3.63875 6.72914062 -4 6 C-4.99 5.67 -5.98 5.34 -7 5 C-7 13.91 -7 22.82 -7 32 C-7.33 32 -7.66 32 -8 32 C-8.33 23.09 -8.66 14.18 -9 5 C-12.96 5 -16.92 5 -21 5 C-21 8.96 -21 12.92 -21 17 C-23.31 16.67 -25.62 16.34 -28 16 C-28 15.67 -28 15.34 -28 15 C-26.35 15 -24.7 15 -23 15 C-23.28151087 13.68528432 -23.57553339 12.37324233 -23.875 11.0625 C-24.03742188 10.33160156 -24.19984375 9.60070312 -24.3671875 8.84765625 C-24.82961523 6.79299706 -24.82961523 6.79299706 -27 6 C-28.54023996 5.93049459 -30.08334988 5.91547643 -31.625 5.9375 C-32.44226563 5.94652344 -33.25953125 5.95554687 -34.1015625 5.96484375 C-34.72804688 5.97644531 -35.35453125 5.98804688 -36 6 C-35.67 5.01 -35.34 4.02 -35 3 C-33.56163249 3.11458693 -32.12429034 3.24209116 -30.6875 3.375 C-29.48673828 3.47941406 -29.48673828 3.47941406 -28.26171875 3.5859375 C-26 4 -26 4 -23 6 C-22.67 5.34 -22.34 4.68 -22 4 C-20.73542969 3.93941406 -19.47085938 3.87882812 -18.16796875 3.81640625 C-16.50780129 3.73199096 -14.84764563 3.64734345 -13.1875 3.5625 C-12.35412109 3.52318359 -11.52074219 3.48386719 -10.66210938 3.44335938 C-9.85966797 3.40146484 -9.05722656 3.35957031 -8.23046875 3.31640625 C-7.49207764 3.27974854 -6.75368652 3.24309082 -5.99291992 3.20532227 C-3.792505 3.05157859 -3.792505 3.05157859 -1 2 C-0.67 1.34 -0.34 0.68 0 0 Z " fill="#8C4055" transform="translate(160,34)"/>
<path d="M0 0 C0.33 0.99 0.66 1.98 1 3 C1.99 3 2.98 3 4 3 C4 11.91 4 20.82 4 30 C5.32 30.33 6.64 30.66 8 31 C7.34773438 31.10957031 6.69546875 31.21914062 6.0234375 31.33203125 C0.82874115 32.27443191 -3.29264632 33.52863932 -8 36 C-8.66 35.67 -9.32 35.34 -10 35 C-8.625 32.5 -8.625 32.5 -7 30 C-6.34 30 -5.68 30 -5 30 C-4.67 29.01 -4.34 28.02 -4 27 C-4 27.99 -4 28.98 -4 30 C-2.35 30 -0.7 30 1 30 C0.77183594 29.33613281 0.54367188 28.67226562 0.30859375 27.98828125 C0.02113281 27.10527344 -0.26632813 26.22226562 -0.5625 25.3125 C-0.85253906 24.44238281 -1.14257812 23.57226562 -1.44140625 22.67578125 C-2.06161492 19.7048516 -1.77924087 17.90789885 -1 15 C0.22117412 10.15117128 0.22117412 10.15117128 -1.3125 5.625 C-5.32581439 3.19834479 -9.3834385 3.17620464 -14 3 C-9.49025212 0.56176269 -5.1101988 0 0 0 Z " fill="#85203D" transform="translate(245,36)"/>
<path d="M0 0 C1.65 0 3.3 0 5 0 C5 1.98 5 3.96 5 6 C6.65 6 8.3 6 10 6 C10.33 4.35 10.66 2.7 11 1 C11.33 1 11.66 1 12 1 C12.33 7.6 12.66 14.2 13 21 C12.01 21 11.02 21 10 21 C9.67 21.99 9.34 22.98 9 24 C7 21 7 21 7.2421875 18.95703125 C7.828125 16.97135417 8.4140625 14.98567708 9 13 C7.35 13 5.7 13 4 13 C4 14.98 4 16.96 4 19 C2.68 19 1.36 19 0 19 C0 12.73 0 6.46 0 0 Z " fill="#841C39" transform="translate(110,87)"/>
<path d="M0 0 C4.62 0 9.24 0 14 0 C14 1.32 14 2.64 14 4 C12.35 4 10.7 4 9 4 C9 11.59 9 19.18 9 27 C7.35 27 5.7 27 4 27 C4 19.41 4 11.82 4 4 C2.68 4 1.36 4 0 4 C0 2.68 0 1.36 0 0 Z " fill="#F7E5EB" transform="translate(168,39)"/>
<path d="M0 0 C1.65 0 3.3 0 5 0 C5 2.31 5 4.62 5 7 C5.969375 6.979375 6.93875 6.95875 7.9375 6.9375 C11 7 11 7 12 8 C12.07313567 10.53049402 12.09247527 13.03304837 12.0625 15.5625 C12.05798828 16.27341797 12.05347656 16.98433594 12.04882812 17.71679688 C12.03700864 19.47790013 12.01907263 21.23896036 12 23 C10.35 23 8.7 23 7 23 C7.309375 22.46375 7.61875 21.9275 7.9375 21.375 C9.17827439 18.6015043 9.5909675 15.99957163 10 13 C8.35 13 6.7 13 5 13 C5 14.98 5 16.96 5 19 C3.0625 19.5625 3.0625 19.5625 1 20 C0 19 0 19 -0.11352539 17.14233398 C-0.10828857 16.35157471 -0.10305176 15.56081543 -0.09765625 14.74609375 C-0.09443359 13.89208984 -0.09121094 13.03808594 -0.08789062 12.15820312 C-0.07951172 11.26037109 -0.07113281 10.36253906 -0.0625 9.4375 C-0.05798828 8.53580078 -0.05347656 7.63410156 -0.04882812 6.70507812 C-0.03700225 4.46998686 -0.0205222 2.23502563 0 0 Z " fill="#81243E" transform="translate(127,43)"/>
<path d="M0 0 C4.29 0 8.58 0 13 0 C13 0.99 13 1.98 13 3 C11.68 3 10.36 3 9 3 C9 10.92 9 18.84 9 27 C7.35 27 5.7 27 4 27 C4 19.08 4 11.16 4 3 C2.68 3 1.36 3 0 3 C0 2.01 0 1.02 0 0 Z " fill="#FDF1F6" transform="translate(306,83)"/>
<path d="M0 0 C2.4375 0.5 2.4375 0.5 4.4375 3.5 C5.05382454 8.22248671 5.00894789 12.30948357 2.9375 16.625 C2.4425 17.24375 1.9475 17.8625 1.4375 18.5 C-0.9375 18.1875 -0.9375 18.1875 -3.5625 17.5 C-6.26287837 13.44943244 -6.0950637 10.25146675 -5.5625 5.5 C-3.71058831 0.72401723 -3.71058831 0.72401723 0 0 Z " fill="#8B2340" transform="translate(46.5625,48.5)"/>
<path d="M0 0 C1.98 0 3.96 0 6 0 C5.67 0.66 5.34 1.32 5 2 C4.84824451 3.59262066 4.75099675 5.19064856 4.68359375 6.7890625 C4.64169922 7.73007812 4.59980469 8.67109375 4.55664062 9.640625 C4.49766602 11.11789063 4.49766602 11.11789063 4.4375 12.625 C4.39431641 13.61757813 4.35113281 14.61015625 4.30664062 15.6328125 C4.20038931 18.08839838 4.09835036 20.54408703 4 23 C5.32 22.67 6.64 22.34 8 22 C8.33 19.69 8.66 17.38 9 15 C9.99 16.485 9.99 16.485 11 18 C11.66 17.67 12.32 17.34 13 17 C13.47792208 22.37662338 13.47792208 22.37662338 11.5625 24.875 C9 26 9 26 0 26 C0 17.42 0 8.84 0 0 Z " fill="#FEF8FB" transform="translate(307,40)"/>
<path d="M0 0 C2.475 0.495 2.475 0.495 5 1 C5 2.65 5 4.3 5 6 C6.65 6 8.3 6 10 6 C9.01 7.485 9.01 7.485 8 9 C9.65 10.65 11.3 12.3 13 14 C12.01 14.495 12.01 14.495 11 15 C11 16.65 11 18.3 11 20 C10.34 20.33 9.68 20.66 9 21 C9.33 18.36 9.66 15.72 10 13 C8.35 13 6.7 13 5 13 C5 14.98 5 16.96 5 19 C3.0625 19.5625 3.0625 19.5625 1 20 C0 19 0 19 -0.11352539 17.14233398 C-0.10828857 16.35157471 -0.10305176 15.56081543 -0.09765625 14.74609375 C-0.09443359 13.89208984 -0.09121094 13.03808594 -0.08789062 12.15820312 C-0.07951172 11.26037109 -0.07113281 10.36253906 -0.0625 9.4375 C-0.05798828 8.53580078 -0.05347656 7.63410156 -0.04882812 6.70507812 C-0.03700225 4.46998686 -0.0205222 2.23502563 0 0 Z M10 2 C10.66 2 11.32 2 12 2 C11.67 3.32 11.34 4.64 11 6 C10.67 4.68 10.34 3.36 10 2 Z " fill="#87203D" transform="translate(211,87)"/>
<path d="M0 0 C6.26656794 -0.48204369 6.26656794 -0.48204369 9.2109375 1.453125 C11.85391234 5.2156132 11.51111349 8.51541866 11.375 13 C11.37371094 13.80695312 11.37242187 14.61390625 11.37109375 15.4453125 C11.26548828 22.55608102 11.26548828 22.55608102 9 26 C5.875 26.75 5.875 26.75 3 27 C3 26.01 3 25.02 3 24 C3.66 23.67 4.32 23.34 5 23 C5.33 16.73 5.66 10.46 6 4 C4.35 3.67 2.7 3.34 1 3 C0.67 2.01 0.34 1.02 0 0 Z " fill="#FBECF2" transform="translate(217,39)"/>
<path d="M0 0 C6.93 0 13.86 0 21 0 C21 0.33 21 0.66 21 1 C16.05 1 11.1 1 6 1 C6 2.32 6 3.64 6 5 C7.32 5 8.64 5 10 5 C10 12.59 10 20.18 10 28 C9.34 28.33 8.68 28.66 8 29 C7.01 28.67 6.02 28.34 5 28 C5 19.09 5 10.18 5 1 C3.35 1 1.7 1 0 1 C0 0.67 0 0.34 0 0 Z " fill="#821D3A" transform="translate(162,38)"/>
<path d="M0 0 C1.65 0 3.3 0 5 0 C5 8.91 5 17.82 5 27 C3.35 27 1.7 27 0 27 C-0.89191731 17.84755626 -0.98753178 9.14606357 0 0 Z " fill="#F7E7EC" transform="translate(331,83)"/>
<path d="M0 0 C1.65 0 3.3 0 5 0 C5 8.91 5 17.82 5 27 C3.35 27 1.7 27 0 27 C0 18.09 0 9.18 0 0 Z " fill="#F6E5EB" transform="translate(198,83)"/>
<path d="M0 0 C8.81026439 -0.76982893 8.81026439 -0.76982893 13.1875 2.0625 C15 5 15 5 14.875 8.5 C14.58625 9.655 14.2975 10.81 14 12 C13.814375 12.928125 13.62875 13.85625 13.4375 14.8125 C13.293125 15.534375 13.14875 16.25625 13 17 C13 17.66 13 18.32 13 19 C12.01 18.67 11.02 18.34 10 18 C10.33 16.35 10.66 14.7 11 13 C8.69 12.67 6.38 12.34 4 12 C4 8.7 4 5.4 4 2 C2.68 1.34 1.36 0.68 0 0 Z " fill="#F3DBE3" transform="translate(231,39)"/>
<path d="M0 0 C0.33 0 0.66 0 1 0 C1 8.91 1 17.82 1 27 C2.32 27 3.64 27 5 27 C5 22.05 5 17.1 5 12 C7.40804568 14.40804568 8.00768759 16.42203775 9.125 19.625 C9.47820312 20.62789062 9.83140625 21.63078125 10.1953125 22.6640625 C10.46085937 23.43492188 10.72640625 24.20578125 11 25 C10.34 25 9.68 25 9 25 C8.67 24.34 8.34 23.68 8 23 C8.33 25.64 8.66 28.28 9 31 C8.01 31 7.02 31 6 31 C5.67 30.34 5.34 29.68 5 29 C1.37 29 -2.26 29 -6 29 C-6.66 27.35 -7.32 25.7 -8 24 C-8.66 24 -9.32 24 -10 24 C-10.33 25.32 -10.66 26.64 -11 28 C-12.65 28 -14.3 28 -16 28 C-14.68 27.67 -13.36 27.34 -12 27 C-11.67 25.02 -11.34 23.04 -11 21 C-9.35 21 -7.7 21 -6 21 C-6 22.98 -6 24.96 -6 27 C-4.35 27 -2.7 27 -1 27 C-1.33 25.35 -1.66 23.7 -2 22 C-1.34 22 -0.68 22 0 22 C0 14.74 0 7.48 0 0 Z " fill="#832D46" transform="translate(288,39)"/>
<path d="M0 0 C1.32 0 2.64 0 4 0 C4 8.91 4 17.82 4 27 C2.68 27 1.36 27 0 27 C-3.42857143 19.71428571 -3.42857143 19.71428571 -3 15 C-2.34 14.67 -1.68 14.34 -1 14 C-0.52998967 10.72444392 -0.52998967 10.72444392 -0.375 6.9375 C-0.30023438 5.64714844 -0.22546875 4.35679688 -0.1484375 3.02734375 C-0.09945312 2.02832031 -0.05046875 1.02929688 0 0 Z " fill="#F4DAE2" transform="translate(163,39)"/>
<path d="M0 0 C1.65 0 3.3 0 5 0 C3.68 8.91 2.36 17.82 1 27 C-0.32 27 -1.64 27 -3 27 C-3.98248524 22.9472484 -4.08159574 19.16138263 -4 15 C-3.01 15 -2.02 15 -1 15 C-0.67 10.05 -0.34 5.1 0 0 Z " fill="#F6E3E9" transform="translate(206,39)"/>
<path d="M0 0 C1.65 0 3.3 0 5 0 C4.67 3.96 4.34 7.92 4 12 C5.32 12.33 6.64 12.66 8 13 C6.68 13.33 5.36 13.66 4 14 C4 18.29 4 22.58 4 27 C2.68 27 1.36 27 0 27 C0 18.09 0 9.18 0 0 Z " fill="#FEF7FC" transform="translate(249,83)"/>
<path d="M0 0 C1.98 0 3.96 0 6 0 C6 8.91 6 17.82 6 27 C5.01 27 4.02 27 3 27 C2.67 21.39 2.34 15.78 2 10 C1.34 10 0.68 10 0 10 C-0.33 10.66 -0.66 11.32 -1 12 C-1.08159574 7.83861737 -0.98248524 4.0527516 0 0 Z " fill="#FDF5F9" transform="translate(188,83)"/>
<path d="M0 0 C1.32 0.66 2.64 1.32 4 2 C4 7.61 4 13.22 4 19 C2.35 19.33 0.7 19.66 -1 20 C-2 19 -2 19 -2.11352539 17.23413086 C-2.10828857 16.48526611 -2.10305176 15.73640137 -2.09765625 14.96484375 C-2.09443359 14.15595703 -2.09121094 13.34707031 -2.08789062 12.51367188 C-2.07951172 11.66353516 -2.07113281 10.81339844 -2.0625 9.9375 C-2.05798828 9.08349609 -2.05347656 8.22949219 -2.04882812 7.34960938 C-2.03700373 5.23304337 -2.01906769 3.11651315 -2 1 C-1.34 0.67 -0.68 0.34 0 0 Z " fill="#902F4B" transform="translate(164,86)"/>
<path d="M0 0 C0.01458252 0.62567871 0.02916504 1.25135742 0.04418945 1.89599609 C0.11852804 4.72296402 0.21523234 7.54873208 0.3125 10.375 C0.33505859 11.35984375 0.35761719 12.3446875 0.38085938 13.359375 C0.41630859 14.30039063 0.45175781 15.24140625 0.48828125 16.2109375 C0.51446533 17.08024902 0.54064941 17.94956055 0.56762695 18.84521484 C0.81345218 21.38600027 0.81345218 21.38600027 4 23 C3 24 3 24 -0.0625 24.0625 C-1.031875 24.041875 -2.00125 24.02125 -3 24 C-5.46043369 20.22077386 -5.36710224 16.35956434 -5.375 12 C-5.39949219 11.2884375 -5.42398437 10.576875 -5.44921875 9.84375 C-5.46935222 6.2465702 -5.28895878 4.36839367 -3.0390625 1.5 C-1 0 -1 0 0 0 Z " fill="#FDF5F9" transform="translate(271,85)"/>
<path d="M0 0 C0.33 0 0.66 0 1 0 C1.04898438 1.05960937 1.09796875 2.11921875 1.1484375 3.2109375 C1.22346709 4.59898497 1.29901485 5.98700451 1.375 7.375 C1.4059375 8.07367188 1.436875 8.77234375 1.46875 9.4921875 C1.59499498 13.70185827 1.59499498 13.70185827 4 17 C4.33 11.39 4.66 5.78 5 0 C5.33 0 5.66 0 6 0 C6.33 5.94 6.66 11.88 7 18 C7.66 18 8.32 18 9 18 C9.33 16.02 9.66 14.04 10 12 C11.65 12 13.3 12 15 12 C15.2145758 15.14711179 15.23318878 17.44617664 14 20.375 C11.4535215 22.44401378 9.25729656 22.52336408 6.03515625 22.62890625 C2.71785586 21.60379039 1.73167976 19.96420571 0 17 C-0.4639755 14.04057894 -0.38015285 11.17350672 -0.25 8.1875 C-0.23195313 7.39923828 -0.21390625 6.61097656 -0.1953125 5.79882812 C-0.14844048 3.86535739 -0.0767041 1.93251715 0 0 Z " fill="#F6E2E7" transform="translate(104,88)"/>
<path d="M0 0 C1.65 0 3.3 0 5 0 C6.26237731 2.52475462 6.09856404 4.31200466 6.0625 7.125 C6.05347656 8.03507812 6.04445312 8.94515625 6.03515625 9.8828125 C6.02355469 10.58148438 6.01195312 11.28015625 6 12 C5.34 11.34 4.68 10.68 4 10 C3.67 15.61 3.34 21.22 3 27 C2.01 27 1.02 27 0 27 C0 18.09 0 9.18 0 0 Z " fill="#FDF5F9" transform="translate(176,83)"/>
<path d="M0 0 C1.98 0.495 1.98 0.495 4 1 C4 7.27 4 13.54 4 20 C2.68 20.33 1.36 20.66 0 21 C-1.55606751 19.44393249 -1.12970769 17.94042629 -1.1328125 15.78125 C-1.13410156 14.93175781 -1.13539063 14.08226563 -1.13671875 13.20703125 C-1.13285156 12.31371094 -1.12898438 11.42039062 -1.125 10.5 C-1.12886719 9.60667969 -1.13273437 8.71335937 -1.13671875 7.79296875 C-1.13542969 6.94347656 -1.13414062 6.09398438 -1.1328125 5.21875 C-1.13168457 4.43435547 -1.13055664 3.64996094 -1.12939453 2.84179688 C-1 1 -1 1 0 0 Z " fill="#82263F" transform="translate(272,86)"/>
<path d="M0 0 C1.98 0.495 1.98 0.495 4 1 C4 7.27 4 13.54 4 20 C2.68 20.33 1.36 20.66 0 21 C-1.55606751 19.44393249 -1.12970769 17.94042629 -1.1328125 15.78125 C-1.13410156 14.93175781 -1.13539062 14.08226563 -1.13671875 13.20703125 C-1.13285156 12.31371094 -1.12898438 11.42039062 -1.125 10.5 C-1.12886719 9.60667969 -1.13273437 8.71335937 -1.13671875 7.79296875 C-1.13542969 6.94347656 -1.13414063 6.09398438 -1.1328125 5.21875 C-1.13168457 4.43435547 -1.13055664 3.64996094 -1.12939453 2.84179688 C-1 1 -1 1 0 0 Z " fill="#8A2541" transform="translate(128,86)"/>
<path d="M0 0 C2.475 0.495 2.475 0.495 5 1 C5 6.94 5 12.88 5 19 C3.35 19.33 1.7 19.66 0 20 C0 13.4 0 6.8 0 0 Z " fill="#861B3A" transform="translate(96,43)"/>
<path d="M0 0 C2.475 0.495 2.475 0.495 5 1 C5 6.94 5 12.88 5 19 C3.35 19.33 1.7 19.66 0 20 C0 13.4 0 6.8 0 0 Z " fill="#892E47" transform="translate(311,43)"/>
<path d="M0 0 C1.65 0 3.3 0 5 0 C5 6.27 5 12.54 5 19 C3.68 19.33 2.36 19.66 1 20 C0 19 0 19 -0.11352539 17.14233398 C-0.10828857 16.35157471 -0.10305176 15.56081543 -0.09765625 14.74609375 C-0.09443359 13.89208984 -0.09121094 13.03808594 -0.08789062 12.15820312 C-0.07951172 11.26037109 -0.07113281 10.36253906 -0.0625 9.4375 C-0.05798828 8.53580078 -0.05347656 7.63410156 -0.04882812 6.70507812 C-0.03700225 4.46998686 -0.0205222 2.23502563 0 0 Z " fill="#851B39" transform="translate(218,43)"/>
<path d="M0 0 C5.61 0 11.22 0 17 0 C17 0.33 17 0.66 17 1 C16.43410156 1.12117188 15.86820313 1.24234375 15.28515625 1.3671875 C14.18494141 1.61855469 14.18494141 1.61855469 13.0625 1.875 C12.33160156 2.03742188 11.60070312 2.19984375 10.84765625 2.3671875 C8.79299706 2.82961523 8.79299706 2.82961523 8 5 C7.84932786 6.4465242 7.75138964 7.8987934 7.68359375 9.3515625 C7.64169922 10.20234375 7.59980469 11.053125 7.55664062 11.9296875 C7.51732422 12.81914063 7.47800781 13.70859375 7.4375 14.625 C7.39431641 15.5221875 7.35113281 16.419375 7.30664062 17.34375 C7.20043139 19.56234283 7.09838806 21.7810488 7 24 C6.34 24 5.68 24 5 24 C4.67 25.32 4.34 26.64 4 28 C4 19.09 4 10.18 4 1 C2.68 0.67 1.36 0.34 0 0 Z " fill="#7E1F3A" transform="translate(150,82)"/>
<path d="M0 0 C0.33 0 0.66 0 1 0 C1.33 5.94 1.66 11.88 2 18 C2.99 18 3.98 18 5 18 C5.33 16.02 5.66 14.04 6 12 C7.65 12 9.3 12 11 12 C11.46455163 15.99514406 11.28682179 17.59149623 8.9375 20.9375 C6 23 6 23 2.1875 22.8125 C1.135625 22.544375 0.08375 22.27625 -1 22 C-1 19.50104795 -0.9151488 17.04464644 -0.78125 14.55078125 C-0.73613281 13.70322266 -0.69101563 12.85566406 -0.64453125 11.98242188 C-0.59683594 11.10134766 -0.54914063 10.22027344 -0.5 9.3125 C-0.45230469 8.41982422 -0.40460938 7.52714844 -0.35546875 6.60742188 C-0.23768731 4.40490896 -0.11917063 2.20243811 0 0 Z " fill="#F5E2E7" transform="translate(210,88)"/>
<path d="M0 0 C1.65 0.33 3.3 0.66 5 1 C5.33 1.99 5.66 2.98 6 4 C5.01 4.33 4.02 4.66 3 5 C3 9.95 3 14.9 3 20 C0.44719274 16.59625699 -0.83179414 14.32698248 -2.25 10.4375 C-2.60578125 9.48746094 -2.9615625 8.53742187 -3.328125 7.55859375 C-4 5 -4 5 -3 2 C-2.34 2 -1.68 2 -1 2 C-0.67 1.34 -0.34 0.68 0 0 Z " fill="#8C1D3C" transform="translate(160,34)"/>
<path d="M0 0 C2.0625 0.4375 2.0625 0.4375 4 1 C3.91932999 4.12607441 3.8064771 7.25016751 3.6875 10.375 C3.66494141 11.26445313 3.64238281 12.15390625 3.61914062 13.0703125 C3.58369141 13.92109375 3.54824219 14.771875 3.51171875 15.6484375 C3.48553467 16.43395996 3.45935059 17.21948242 3.43237305 18.02880859 C3 20 3 20 0 22 C-1.58937556 20.41062444 -1.12981143 18.76100154 -1.1328125 16.5625 C-1.13410156 15.66789062 -1.13539062 14.77328125 -1.13671875 13.8515625 C-1.13091797 12.44003906 -1.13091797 12.44003906 -1.125 11 C-1.12886719 10.05898437 -1.13273437 9.11796875 -1.13671875 8.1484375 C-1.13542969 7.25382812 -1.13414063 6.35921875 -1.1328125 5.4375 C-1.13112061 4.19806641 -1.13112061 4.19806641 -1.12939453 2.93359375 C-1 1 -1 1 0 0 Z " fill="#FDF8FA" transform="translate(123,85)"/>
<path d="M0 0 C0.66 0 1.32 0 2 0 C2 8.91 2 17.82 2 27 C1.67 27 1.34 27 1 27 C0.67 23.04 0.34 19.08 0 15 C-0.33 18.96 -0.66 22.92 -1 27 C-1.33 27 -1.66 27 -2 27 C-2 22.71 -2 18.42 -2 14 C-4.31 14 -6.62 14 -9 14 C-9 13.67 -9 13.34 -9 13 C-6.03 13 -3.06 13 0 13 C0 12.01 0 11.02 0 10 C-1.98 10 -3.96 10 -6 10 C-4.68 9.67 -3.36 9.34 -2 9 C-2.33 6.69 -2.66 4.38 -3 2 C-2.34 2 -1.68 2 -1 2 C-0.67 1.34 -0.34 0.68 0 0 Z " fill="#A96376" transform="translate(247,83)"/>
<path d="M0 0 C0.99 0.33 1.98 0.66 3 1 C3.02505615 1.62044189 3.0501123 2.24088379 3.07592773 2.88012695 C3.19196721 5.69112397 3.31465759 8.50179241 3.4375 11.3125 C3.47681641 12.28896484 3.51613281 13.26542969 3.55664062 14.27148438 C3.59853516 15.20927734 3.64042969 16.14707031 3.68359375 17.11328125 C3.72025146 17.97735596 3.75690918 18.84143066 3.79467773 19.73168945 C3.92747354 22.1647826 3.92747354 22.1647826 5 25 C3.35 24.67 1.7 24.34 0 24 C0 16.08 0 8.16 0 0 Z " fill="#FEFBFC" transform="translate(92,40)"/>
<path d="M0 0 C0.33 0 0.66 0 1 0 C1 8.91 1 17.82 1 27 C2.32 27.33 3.64 27.66 5 28 C4.34773438 28.10957031 3.69546875 28.21914062 3.0234375 28.33203125 C-2.17125885 29.27443191 -6.29264632 30.52863932 -11 33 C-11.66 32.67 -12.32 32.34 -13 32 C-11.625 29.5 -11.625 29.5 -10 27 C-9.34 27 -8.68 27 -8 27 C-7.67 26.01 -7.34 25.02 -7 24 C-7 24.99 -7 25.98 -7 27 C-5.35 27 -3.7 27 -2 27 C-2.33 25.68 -2.66 24.36 -3 23 C-2.01 23 -1.02 23 0 23 C0 15.41 0 7.82 0 0 Z " fill="#98425A" transform="translate(248,39)"/>
<path d="M0 0 C10 0 10 0 13 2 C9.91190305 3.76462683 8.76687864 4 5 4 C5 10.27 5 16.54 5 23 C4.67 23 4.34 23 4 23 C3.67 16.07 3.34 9.14 3 2 C2.34 1.67 1.68 1.34 1 1 C1 9.58 1 18.16 1 27 C0.67 27 0.34 27 0 27 C0 18.09 0 9.18 0 0 Z " fill="#F8D2DD" transform="translate(91,39)"/>
<path d="M0 0 C2.31452922 0.4479734 4.62660039 0.90866461 6.9375 1.375 C8.22527344 1.63023438 9.51304687 1.88546875 10.83984375 2.1484375 C11.88269531 2.42945313 12.92554688 2.71046875 14 3 C14.33 3.66 14.66 4.32 15 5 C15.66 4.34 16.32 3.68 17 3 C17 11.91 17 20.82 17 30 C16.67 30 16.34 30 16 30 C15.67 27.69 15.34 25.38 15 23 C14.67 23 14.34 23 14 23 C13.96261719 21.87980469 13.92523438 20.75960937 13.88671875 19.60546875 C13.82105743 18.1327791 13.75461014 16.66012434 13.6875 15.1875 C13.66494141 14.44951172 13.64238281 13.71152344 13.61914062 12.95117188 C13.41564474 8.7678513 13.41564474 8.7678513 11.75 5 C9.46924082 3.69670904 7.92384267 3.69896336 5.3125 3.8125 C4.10013672 3.85310547 4.10013672 3.85310547 2.86328125 3.89453125 C2.24839844 3.92933594 1.63351563 3.96414062 1 4 C0.67 2.68 0.34 1.36 0 0 Z " fill="#914158" transform="translate(214,36)"/>
<path d="M0 0 C0.33 1.32 0.66 2.64 1 4 C3.31 4 5.62 4 8 4 C8 4.66 8 5.32 8 6 C6.35 6 4.7 6 3 6 C3.01160156 6.58007812 3.02320313 7.16015625 3.03515625 7.7578125 C3.08762174 12.2998246 2.91751063 16.52713569 2 21 C-0.05137315 17.51783717 -0.56818592 14.22724343 -1.125 10.25 C-1.29257813 9.07953125 -1.46015625 7.9090625 -1.6328125 6.703125 C-1.75398437 5.81109375 -1.87515625 4.9190625 -2 4 C-2.99 4 -3.98 4 -5 4 C-5 3.01 -5 2.02 -5 1 C-2 0 -2 0 0 0 Z " fill="#871937" transform="translate(203,33)"/>
<path d="M0 0 C2.31 0 4.62 0 7 0 C7.14285714 8.57142857 7.14285714 8.57142857 6 12 C4.35 12 2.7 12 1 12 C1 14.31 1 16.62 1 19 C2.98 19 4.96 19 7 19 C7 19.33 7 19.66 7 20 C4.69 20 2.38 20 0 20 C0 17.03 0 14.06 0 11 C1.65 11 3.3 11 5 11 C5 9.68 5 8.36 5 7 C3.35 7 1.7 7 0 7 C0 4.69 0 2.38 0 0 Z " fill="#92314C" transform="translate(144,43)"/>
<path d="M0 0 C2.4375 1.625 2.4375 1.625 4 4 C4.25 7.25 4.25 7.25 4 10 C2.35 10 0.7 10 -1 10 C-1 8.02 -1 6.04 -1 4 C-2.32 4 -3.64 4 -5 4 C-5 3.34 -5 2.68 -5 2 C-5.45375 2.495 -5.9075 2.99 -6.375 3.5 C-8 5 -8 5 -10 5 C-10.33 5.99 -10.66 6.98 -11 8 C-10.6875 5.125 -10.6875 5.125 -10 2 C-6.2794164 -0.48038907 -4.40203429 -0.46337203 0 0 Z " fill="#F7E3EA" transform="translate(133,39)"/>
<path d="M0 0 C0 8.91 0 17.82 0 27 C-0.33 27 -0.66 27 -1 27 C-1.33 22.38 -1.66 17.76 -2 13 C-2.33 15.64 -2.66 18.28 -3 21 C-3.33 21 -3.66 21 -4 21 C-4.33 14.4 -4.66 7.8 -5 1 C-1 0 -1 0 0 0 Z " fill="#9E465E" transform="translate(176,83)"/>
<path d="M0 0 C0 8.91 0 17.82 0 27 C-0.33 27 -0.66 27 -1 27 C-1 25.35 -1 23.7 -1 22 C-1.66 22 -2.32 22 -3 22 C-3.06058594 20.73542969 -3.12117188 19.47085938 -3.18359375 18.16796875 C-3.26800904 16.50780129 -3.35265655 14.84764563 -3.4375 13.1875 C-3.47681641 12.35412109 -3.51613281 11.52074219 -3.55664062 10.66210938 C-3.59853516 9.85966797 -3.64042969 9.05722656 -3.68359375 8.23046875 C-3.73858032 7.12288208 -3.73858032 7.12288208 -3.79467773 5.99291992 C-3.94842141 3.792505 -3.94842141 3.792505 -5 1 C-1.125 0 -1.125 0 0 0 Z " fill="#87324A" transform="translate(109,39)"/>
<path d="M0 0 C0.33 0.66 0.66 1.32 1 2 C1.763125 1.95875 2.52625 1.9175 3.3125 1.875 C6 2 6 2 9 4 C9.1875 7.125 9.1875 7.125 9 10 C8.34 10 7.68 10 7 10 C7 8.35 7 6.7 7 5 C5.02 5 3.04 5 1 5 C0.67 6.98 0.34 8.96 0 11 C-1.65 11 -3.3 11 -5 11 C-4.67 8.36 -4.34 5.72 -4 3 C-2.68 2.67 -1.36 2.34 0 2 C0 1.34 0 0.68 0 0 Z " fill="#F9EAEF" transform="translate(276,55)"/>
<path d="M0 0 C2.53301531 0.04993399 3.86807975 0.11351112 6.125 1.3125 C7.65190415 4.27087678 7.30968872 6.98716599 7.125 10.25 C5.805 10.25 4.485 10.25 3.125 10.25 C2.795 8.6 2.465 6.95 2.125 5.25 C-2.40640653 4.31619039 -2.40640653 4.31619039 -6.875 5.25 C-4.47435553 0.2886681 -4.47435553 0.2886681 0 0 Z " fill="#FAEAEF" transform="translate(212.875,82.75)"/>
<path d="M0 0 C2.97 0.495 2.97 0.495 6 1 C6 9.58 6 18.16 6 27 C5.67 27 5.34 27 5 27 C4.67 25.35 4.34 23.7 4 22 C3.67 22 3.34 22 3 22 C2.95101562 20.74703125 2.90203125 19.4940625 2.8515625 18.203125 C2.77651417 16.55206179 2.70096723 14.90102119 2.625 13.25 C2.5940625 12.425 2.563125 11.6 2.53125 10.75 C2.49257812 9.95078125 2.45390625 9.1515625 2.4140625 8.328125 C2.3826416 7.5949707 2.3512207 6.86181641 2.31884766 6.10644531 C1.96227477 3.75077082 1.16337117 2.06549409 0 0 Z " fill="#7E233D" transform="translate(134,83)"/>
<path d="M0 0 C3.125 0.375 3.125 0.375 6 1 C6 1.66 6 2.32 6 3 C6.99 3 7.98 3 9 3 C10.88445017 6.9435212 11.18764736 9.78633923 10.8125 14.125 C10.73644531 15.15882812 10.66039062 16.19265625 10.58203125 17.2578125 C9.94082465 20.2787993 9.21269508 20.99141174 7 23 C6.96261719 21.72382812 6.92523438 20.44765625 6.88671875 19.1328125 C6.82107209 17.46351162 6.7546243 15.79424211 6.6875 14.125 C6.66494141 13.28324219 6.64238281 12.44148438 6.61914062 11.57421875 C6.58369141 10.76855469 6.54824219 9.96289062 6.51171875 9.1328125 C6.48553467 8.38918457 6.45935059 7.64555664 6.43237305 6.87939453 C6.13270409 4.59266174 6.13270409 4.59266174 3 3 C1.34450469 2.61500109 -0.3222433 2.27206865 -2 2 C-1.34 1.34 -0.68 0.68 0 0 Z " fill="#862842" transform="translate(274,81)"/>
<path d="M0 0 C1.65 0 3.3 0 5 0 C5 0.66 5 1.32 5 2 C4.01 2 3.02 2 2 2 C2.03552979 2.6612085 2.07105957 3.32241699 2.10766602 4.00366211 C2.26466247 6.98135288 2.41368634 9.95938957 2.5625 12.9375 C2.61857422 13.97841797 2.67464844 15.01933594 2.73242188 16.09179688 C2.78076172 17.08115234 2.82910156 18.07050781 2.87890625 19.08984375 C2.9260376 20.00628662 2.97316895 20.92272949 3.02172852 21.86694336 C3 24 3 24 2 25 C-0.33944736 24.71269945 -2.6739143 24.38063221 -5 24 C-5 23.67 -5 23.34 -5 23 C-3.35 23 -1.7 23 0 23 C0 15.41 0 7.82 0 0 Z " fill="#8D3B50" transform="translate(177,43)"/>
<path d="M0 0 C3.06243788 0.04948284 4.03476301 0.21322096 6.6875 1.9375 C8.56706836 4.91348323 8.50174507 6.85580418 8.1875 10.3125 C6.5375 10.3125 4.8875 10.3125 3.1875 10.3125 C3.1875 8.3325 3.1875 6.3525 3.1875 4.3125 C1.8675 3.9825 0.5475 3.6525 -0.8125 3.3125 C-0.4825 2.9825 -0.1525 2.6525 0.1875 2.3125 C-2.77425123 2.92527612 -4.19308783 3.56622522 -6.8125 5.3125 C-4.41712555 0.36205947 -4.41712555 0.36205947 0 0 Z " fill="#F5E1E8" transform="translate(111.8125,82.6875)"/>
<path d="M0 0 C0 4.6183778 -2.87224442 6.79935182 -6 10 C-7.32046136 11.16064362 -8.65411363 12.3064378 -10 13.4375 C-13.55682458 16.44134417 -16.21632175 19.68392796 -18.87109375 23.49609375 C-19.24363281 23.99238281 -19.61617188 24.48867188 -20 25 C-20.33 25 -20.66 25 -21 25 C-21.28125 22.8046875 -21.28125 22.8046875 -21 20 C-19.09375 17.5703125 -19.09375 17.5703125 -16.5 15.125 C-15.59121094 14.26003906 -14.68242188 13.39507812 -13.74609375 12.50390625 C-10.76304017 9.78393847 -7.76788383 7.08669879 -4.69140625 4.47265625 C-3.05216211 3.04541597 -1.51774524 1.55487662 0 0 Z " fill="#FAE6ED" transform="translate(126,252)"/>
<path d="M0 0 C0.33 0 0.66 0 1 0 C1.66 1.98 2.32 3.96 3 6 C3.99 5.34 4.98 4.68 6 4 C6.33820166 5.5823006 6.67035939 7.16589375 7 8.75 C7.185625 9.63171875 7.37125 10.5134375 7.5625 11.421875 C8 14 8 14 8 18 C6.35 18 4.7 18 3 18 C3 16.02 3 14.04 3 12 C3.33 12 3.66 12 4 12 C4 13.65 4 15.3 4 17 C4.66 17 5.32 17 6 17 C5.67 15.02 5.34 13.04 5 11 C4.01 10.67 3.02 10.34 2 10 C1.01 9.67 0.02 9.34 -1 9 C-1.09765625 2.84765625 -1.09765625 2.84765625 -1 1 C-0.67 0.67 -0.34 0.34 0 0 Z " fill="#F3DDE3" transform="translate(279,48)"/>
<path d="M0 0 C6.93 0.495 6.93 0.495 14 1 C14 2.65 14 4.3 14 6 C14.66 6.33 15.32 6.66 16 7 C15.67 8.65 15.34 10.3 15 12 C14.67 12 14.34 12 14 12 C13.67 8.7 13.34 5.4 13 2 C11.02 2 9.04 2 7 2 C7 4.31 7 6.62 7 9 C6.67 9 6.34 9 6 9 C5.67 12.3 5.34 15.6 5 19 C4.67 19 4.34 19 4 19 C4 13.39 4 7.78 4 2 C2.35 2 0.7 2 -1 2 C-0.67 1.34 -0.34 0.68 0 0 Z " fill="#7F1F3B" transform="translate(190,81)"/>
<path d="M0 0 C0.33 0 0.66 0 1 0 C1 8.91 1 17.82 1 27 C0.34 25.68 -0.32 24.36 -1 23 C-1.66 24.32 -2.32 25.64 -3 27 C-3.13794954 19.93391809 -2.74805717 13.02639415 -2 6 C-1.67 6 -1.34 6 -1 6 C-0.67 4.02 -0.34 2.04 0 0 Z " fill="#9B3F58" transform="translate(197,83)"/>
<path d="M0 0 C2.31 0 4.62 0 7 0 C7 4.29 7 8.58 7 13 C5.68 12.67 4.36 12.34 3 12 C2.01 12.495 2.01 12.495 1 13 C0.67 12.01 0.34 11.02 0 10 C0.474375 9.608125 0.94875 9.21625 1.4375 8.8125 C3.35179633 6.59191626 3.61266988 4.86624291 4 2 C2.68 2 1.36 2 0 2 C0 1.34 0 0.68 0 0 Z " fill="#FEF2F6" transform="translate(238,97)"/>
<path d="M0 0 C0.99 0 1.98 0 3 0 C3.02505615 0.56509277 3.0501123 1.13018555 3.07592773 1.71240234 C3.19179956 4.26683742 3.31456537 6.8208955 3.4375 9.375 C3.47681641 10.26445313 3.51613281 11.15390625 3.55664062 12.0703125 C3.59853516 12.92109375 3.64042969 13.771875 3.68359375 14.6484375 C3.72025146 15.43395996 3.75690918 16.21948242 3.79467773 17.02880859 C3.890891 19.07523496 3.890891 19.07523496 5 21 C2.525 20.01 2.525 20.01 0 19 C0 12.73 0 6.46 0 0 Z " fill="#903B52" transform="translate(203,88)"/>
<path d="M0 0 C1.32 0 2.64 0 4 0 C4 1.65 4 3.3 4 5 C5.98 5 7.96 5 10 5 C9.67 6.32 9.34 7.64 9 9 C6.03 9 3.06 9 0 9 C0 6.03 0 3.06 0 0 Z " fill="#891A38" transform="translate(128,45)"/>
<path d="M0 0 C0.56170898 0.25322021 1.12341797 0.50644043 1.70214844 0.76733398 C1.14527344 0.95295898 0.58839844 1.13858398 0.01464844 1.32983398 C-2.36705446 2.810352 -3.19338817 3.86354631 -4.73535156 6.14233398 C-6.91394823 9.35394305 -9.15305747 11.44617644 -12.29785156 13.76733398 C-14.09138421 15.366435 -15.87578104 16.97431025 -17.64941406 18.59545898 C-19.29785156 19.76733398 -19.29785156 19.76733398 -22.29785156 19.76733398 C-19.53885072 16.88482415 -16.76375052 14.01893578 -13.97265625 11.16748047 C-13.02536802 10.19503293 -12.08261377 9.21814734 -11.14453125 8.23681641 C-9.79616248 6.82787082 -8.43003263 5.43599025 -7.06347656 4.04467773 C-6.2465332 3.20155029 -5.42958984 2.35842285 -4.58789062 1.48974609 C-2.29785156 -0.23266602 -2.29785156 -0.23266602 0 0 Z " fill="#F2D8E1" transform="translate(150.2978515625,194.232666015625)"/>
<path d="M0 0 C0.33 0 0.66 0 1 0 C1.02692484 2.29160319 1.04636124 4.58329546 1.0625 6.875 C1.07410156 8.15117188 1.08570313 9.42734375 1.09765625 10.7421875 C1 14 1 14 0 16 C-1.32 15.67 -2.64 15.34 -4 15 C-3.67 11.04 -3.34 7.08 -3 3 C-2.01 2.67 -1.02 2.34 0 2 C0 1.34 0 0.68 0 0 Z " fill="#FDF9FB" transform="translate(171,92)"/>
<path d="M0 0 C0.33 0 0.66 0 1 0 C1 5.94 1 11.88 1 18 C2.98 18 4.96 18 7 18 C7 18.66 7 19.32 7 20 C5.39620659 20.05416188 3.79188594 20.09286638 2.1875 20.125 C1.29417969 20.14820312 0.40085938 20.17140625 -0.51953125 20.1953125 C-3 20 -3 20 -6 18 C-5.01 17.34 -4.02 16.68 -3 16 C-1.18222395 12.4200941 -0.66261451 9.16616744 -0.375 5.1875 C-0.26285156 3.72376953 -0.26285156 3.72376953 -0.1484375 2.23046875 C-0.09945312 1.49441406 -0.05046875 0.75835937 0 0 Z " fill="#86233E" transform="translate(229,48)"/>
<path d="M0 0 C1.65 0 3.3 0 5 0 C5.47183746 4.05780213 5.33329645 5.56195324 2.8125 8.875 C0 11 0 11 -2.8125 11.3125 C-3.534375 11.209375 -4.25625 11.10625 -5 11 C-4.01 10.34 -3.02 9.68 -2 9 C-2.33 8.34 -2.66 7.68 -3 7 C-2.34 6.67 -1.68 6.34 -1 6 C-0.34227572 2.97065509 -0.34227572 2.97065509 0 0 Z " fill="#F5DCE4" transform="translate(132,56)"/>
<path d="M0 0 C2.64 0.33 5.28 0.66 8 1 C8 2.65 8 4.3 8 6 C6.35 6 4.7 6 3 6 C3 7.98 3 9.96 3 12 C2.67 11.01 2.34 10.02 2 9 C1.34 9 0.68 9 0 9 C0 6.03 0 3.06 0 0 Z " fill="#8B1938" transform="translate(111,94)"/>
<path d="M0 0 C0.66 0 1.32 0 2 0 C2 5.94 2 11.88 2 18 C1.34 18 0.68 18 0 18 C-0.55808089 16.56879256 -1.09596462 15.12969645 -1.625 13.6875 C-1.92664063 12.88699219 -2.22828125 12.08648437 -2.5390625 11.26171875 C-2.76722656 10.14216797 -2.76722656 10.14216797 -3 9 C-2.34 8.01 -1.68 7.02 -1 6 C-0.60986284 4.0103005 -0.26797351 2.00980131 0 0 Z " fill="#7D213B" transform="translate(264,87)"/>
<path d="M0 0 C1.26977059 3.80931176 0.52074507 5.81618993 -0.4375 9.6875 C-0.72496094 10.86699219 -1.01242188 12.04648438 -1.30859375 13.26171875 C-1.53675781 14.16535156 -1.76492187 15.06898437 -2 16 C-2.33 16 -2.66 16 -3 16 C-3.36644578 14.44033408 -3.71760862 12.87707349 -4.0625 11.3125 C-4.25972656 10.44238281 -4.45695313 9.57226562 -4.66015625 8.67578125 C-5.02509476 5.8024148 -4.84691238 3.7633541 -4 1 C-2 0 -2 0 0 0 Z " fill="#8D374F" transform="translate(187,85)"/>
<path d="M0 0 C1.65 0 3.3 0 5 0 C5.33 3.63 5.66 7.26 6 11 C5.34 10.67 4.68 10.34 4 10 C3.67 11.98 3.34 13.96 3 16 C2.67 16 2.34 16 2 16 C1.34 10.72 0.68 5.44 0 0 Z " fill="#F0D2DB" transform="translate(189,39)"/>
<path d="M0 0 C3.3 0 6.6 0 10 0 C10.66 0.66 11.32 1.32 12 2 C11.34 2 10.68 2 10 2 C9.67 2.99 9.34 3.98 9 5 C7.68 4.34 6.36 3.68 5 3 C5.33 2.67 5.66 2.34 6 2 C4.35 1.67 2.7 1.34 1 1 C1 9.58 1 18.16 1 27 C0.67 27 0.34 27 0 27 C0 18.09 0 9.18 0 0 Z " fill="#F9D7E2" transform="translate(306,39)"/>
<path d="M0 0 C0.33 0 0.66 0 1 0 C1 5.94 1 11.88 1 18 C-0.65 18.33 -2.3 18.66 -4 19 C-3.52464031 16.20763552 -3.0448933 13.41615009 -2.5625 10.625 C-2.42779297 9.8309375 -2.29308594 9.036875 -2.15429688 8.21875 C-1.11328125 2.2265625 -1.11328125 2.2265625 0 0 Z " fill="#944E62" transform="translate(190,92)"/>
<path d="M0 0 C0.33 0 0.66 0 1 0 C1.33 5.94 1.66 11.88 2 18 C3.98 18.66 5.96 19.32 8 20 C7.67 20.66 7.34 21.32 7 22 C0.47692308 22.36923077 0.47692308 22.36923077 -1.9375 20.5 C-2.288125 20.005 -2.63875 19.51 -3 19 C-2.34 18.34 -1.68 17.68 -1 17 C-0.69324768 14.10032243 -0.48826629 11.28216822 -0.375 8.375 C-0.33632812 7.57320313 -0.29765625 6.77140625 -0.2578125 5.9453125 C-0.16346069 3.96392444 -0.08063785 1.98199355 0 0 Z " fill="#F1D2DB" transform="translate(126,88)"/>
<path d="M0 0 C0.33 0 0.66 0 1 0 C1.04898438 1.05960937 1.09796875 2.11921875 1.1484375 3.2109375 C1.22346709 4.59898497 1.29901485 5.98700451 1.375 7.375 C1.4059375 8.07367188 1.436875 8.77234375 1.46875 9.4921875 C1.59499498 13.70185827 1.59499498 13.70185827 4 17 C4.33 11.39 4.66 5.78 5 0 C5.33 0 5.66 0 6 0 C6.33 6.27 6.66 12.54 7 19 C5.35 19.33 3.7 19.66 2 20 C-0.03120707 16.95318939 -0.24659875 16.39881676 -0.1953125 12.98828125 C-0.18886719 12.23095703 -0.18242188 11.47363281 -0.17578125 10.69335938 C-0.15902344 9.90767578 -0.14226562 9.12199219 -0.125 8.3125 C-0.11597656 7.51521484 -0.10695313 6.71792969 -0.09765625 5.89648438 C-0.07411585 3.930861 -0.03824547 1.96539225 0 0 Z " fill="#EFCED7" transform="translate(104,88)"/>
<path d="M0 0 C0.66 0 1.32 0 2 0 C2 0.66 2 1.32 2 2 C2.99 1.67 3.98 1.34 5 1 C5 4.63 5 8.26 5 12 C3.68 12 2.36 12 1 12 C0.01751476 7.9472484 -0.08159574 4.16138263 0 0 Z " fill="#FEF9FB" transform="translate(202,54)"/>
<path d="M0 0 C3.30439099 4.40585465 3.86678482 6.76977608 5 12 C6.65 12 8.3 12 10 12 C10.33 11.34 10.66 10.68 11 10 C11 10.99 11 11.98 11 13 C6.545 13.495 6.545 13.495 2 14 C2 13.34 2 12.68 2 12 C1.34 12 0.68 12 0 12 C0 8.04 0 4.08 0 0 Z " fill="#852741" transform="translate(254,54)"/>
<path d="M0 0 C2.97 0 5.94 0 9 0 C10.33333333 2.66666667 11.66666667 5.33333333 13 8 C12.54109375 7.55527344 12.0821875 7.11054688 11.609375 6.65234375 C10.99578125 6.08644531 10.3821875 5.52054688 9.75 4.9375 C9.14671875 4.36902344 8.5434375 3.80054688 7.921875 3.21484375 C6.09589106 1.79790944 6.09589106 1.79790944 4 2.125 C1.68464074 3.13796968 0.1227682 4.36980566 -1.75 6.0625 C-2.36359375 6.61035156 -2.9771875 7.15820312 -3.609375 7.72265625 C-4.06828125 8.14417969 -4.5271875 8.56570312 -5 9 C-5 7.68 -5 6.36 -5 5 C-4.34 5 -3.68 5 -3 5 C-3 4.01 -3 3.02 -3 2 C-2.01 2 -1.02 2 0 2 C0 1.34 0 0.68 0 0 Z " fill="#84223C" transform="translate(145,193)"/>
<path d="M0 0 C1.98 0 3.96 0 6 0 C6 8.91 6 17.82 6 27 C5.01 27 4.02 27 3 27 C3.15339844 26.22398438 3.30679688 25.44796875 3.46484375 24.6484375 C4.14990714 19.97800532 4.35746477 15.33744915 4.5625 10.625 C4.60568359 9.69816406 4.64886719 8.77132812 4.69335938 7.81640625 C4.79876186 5.54439706 4.90088606 3.27229075 5 1 C1.9254644 1.7763932 1.9254644 1.7763932 0 4 C0 2.68 0 1.36 0 0 Z " fill="#FAE1EA" transform="translate(188,83)"/>
<path d="M0 0 C0.33 0 0.66 0 1 0 C1.22245393 1.60226955 1.42746669 3.20696767 1.625 4.8125 C1.74101562 5.70582031 1.85703125 6.59914063 1.9765625 7.51953125 C2 10 2 10 0 13 C-0.33 12.01 -0.66 11.02 -1 10 C-1.33 12.97 -1.66 15.94 -2 19 C-2.33 19 -2.66 19 -3 19 C-3 13.06 -3 7.12 -3 1 C-2.01 1.495 -2.01 1.495 -1 2 C-0.67 1.34 -0.34 0.68 0 0 Z " fill="#DDBFC8" transform="translate(182,91)"/>
<path d="M0 0 C1.99954746 -0.04254356 4.00041636 -0.04080783 6 0 C7 1 7 1 7.09765625 4.16015625 C7.08605469 5.44792969 7.07445313 6.73570313 7.0625 8.0625 C7.05347656 9.35285156 7.04445313 10.64320312 7.03515625 11.97265625 C7.02355469 12.97167969 7.01195313 13.97070312 7 15 C6.67 15 6.34 15 6 15 C5.67 12.03 5.34 9.06 5 6 C3.35 5.67 1.7 5.34 0 5 C0 3.35 0 1.7 0 0 Z " fill="#932A47" transform="translate(115,44)"/>
<path d="M0 0 C0.33 0 0.66 0 1 0 C1.33 6.6 1.66 13.2 2 20 C1.01 20 0.02 20 -1 20 C-1.33 20.99 -1.66 21.98 -2 23 C-4 20 -4 20 -3.7578125 17.95703125 C-3.171875 15.97135417 -2.5859375 13.98567708 -2 12 C-1.67 12 -1.34 12 -1 12 C-0.67 8.04 -0.34 4.08 0 0 Z " fill="#9B465F" transform="translate(121,88)"/>
<path d="M0 0 C0.33 0 0.66 0 1 0 C1 5.28 1 10.56 1 16 C-1.475 15.01 -1.475 15.01 -4 14 C-3.67 11.69 -3.34 9.38 -3 7 C-2.34 7 -1.68 7 -1 7 C-0.67 4.69 -0.34 2.38 0 0 Z " fill="#954058" transform="translate(212,45)"/>
<path d="M0 0 C0.99 0 1.98 0 3 0 C3 5.61 3 11.22 3 17 C0 14 0 14 -0.29296875 10.64453125 C-0.25816406 9.37996094 -0.22335938 8.11539063 -0.1875 6.8125 C-0.16042969 5.54019531 -0.13335937 4.26789062 -0.10546875 2.95703125 C-0.07066406 1.98121094 -0.03585938 1.00539062 0 0 Z " fill="#FEF6F9" transform="translate(163,39)"/>
<path d="M0 0 C2.23495428 2.23495428 3.0024791 4.02414536 4.1875 6.9375 C4.55230469 7.81277344 4.91710937 8.68804687 5.29296875 9.58984375 C6 12 6 12 5 15 C4.34 14.67 3.68 14.34 3 14 C3.33 13.01 3.66 12.02 4 11 C3.01 11 2.02 11 1 11 C0.67 12.32 0.34 13.64 0 15 C0 10.05 0 5.1 0 0 Z " fill="#89324A" transform="translate(144,95)"/>
<path d="M0 0 C1.65 0 3.3 0 5 0 C5.625 2.875 5.625 2.875 6 6 C5.34 6.66 4.68 7.32 4 8 C2.68 8 1.36 8 0 8 C0 5.36 0 2.72 0 0 Z " fill="#8D3B54" transform="translate(253,87)"/>
<path d="M0 0 C0.66 0.99 1.32 1.98 2 3 C1.360625 3.2475 0.72125 3.495 0.0625 3.75 C-0.618125 4.1625 -1.29875 4.575 -2 5 C-2.12632813 5.62777344 -2.25265625 6.25554687 -2.3828125 6.90234375 C-3.21322762 9.72470401 -4.44952916 10.32331673 -6.9375 11.8125 C-7.64777344 12.25207031 -8.35804687 12.69164062 -9.08984375 13.14453125 C-10.03537109 13.56798828 -10.03537109 13.56798828 -11 14 C-11.66 13.67 -12.32 13.34 -13 13 C-8.71 8.71 -4.42 4.42 0 0 Z " fill="#821C38" transform="translate(126,236)"/>
<path d="M0 0 C1.65 0 3.3 0 5 0 C5 1.98 5 3.96 5 6 C4.34 5.67 3.68 5.34 3 5 C3 4.01 3 3.02 3 2 C2.34 2 1.68 2 1 2 C1 6.62 1 11.24 1 16 C1.66 16 2.32 16 3 16 C3 17.32 3 18.64 3 20 C2.01 19.67 1.02 19.34 0 19 C0 12.73 0 6.46 0 0 Z " fill="#80243D" transform="translate(110,87)"/>
<path d="M0 0 C0 4.62 0 9.24 0 14 C-3.10916259 9.85444988 -4.31562636 6.81249612 -6 2 C-1.125 0 -1.125 0 0 0 Z " fill="#8C2643" transform="translate(150,83)"/>
<path d="M0 0 C2.6296046 3.50613947 3.5748261 5.22318016 4.6875 9.25 C4.93886719 10.14203125 5.19023437 11.0340625 5.44921875 11.953125 C5.72185547 12.96632813 5.72185547 12.96632813 6 14 C4.68 13.34 3.36 12.68 2 12 C1.34 12.66 0.68 13.32 0 14 C0 9.38 0 4.76 0 0 Z " fill="#7B3044" transform="translate(157,52)"/>
<path d="M0 0 C0.99 0.33 1.98 0.66 3 1 C2.03644647 11.55808656 2.03644647 11.55808656 1 16 C0.67 16 0.34 16 0 16 C-0.19389096 13.5211787 -0.38040123 11.04219069 -0.5625 8.5625 C-0.61857422 7.85544922 -0.67464844 7.14839844 -0.73242188 6.41992188 C-0.86190993 4.61572163 -0.93521608 2.80768048 -1 1 C-0.67 0.67 -0.34 0.34 0 0 Z " fill="#832842" transform="translate(195,38)"/>
<path d="M0 0 C1.485 0.99 1.485 0.99 3 2 C3 2.99 3 3.98 3 5 C3.99 5 4.98 5 6 5 C6.33 3.68 6.66 2.36 7 1 C8.32 1.33 9.64 1.66 11 2 C9.6905332 3.33631236 8.37734515 4.66897925 7.0625 6 C6.33160156 6.7425 5.60070312 7.485 4.84765625 8.25 C3 10 3 10 2 10 C0 3.375 0 3.375 0 0 Z " fill="#8D2C47" transform="translate(131,236)"/>
<path d="M0 0 C3.03422003 -0.23340154 5.97288195 -0.35798961 9 0 C11.1875 2 11.1875 2 13 4 C16.167832 4.33448259 16.167832 4.33448259 19 4 C19 4.66 19 5.32 19 6 C17.54263913 6.19491452 16.08405407 6.38069358 14.625 6.5625 C13.81289062 6.66691406 13.00078125 6.77132812 12.1640625 6.87890625 C10 7 10 7 8 6 C8 5.34 8 4.68 8 4 C7.34 4 6.68 4 6 4 C6 3.01 6 2.02 6 1 C4.02 1 2.04 1 0 1 C0 0.67 0 0.34 0 0 Z " fill="#91354F" transform="translate(114,62)"/>
<path d="M0 0 C0.33 0.99 0.66 1.98 1 3 C1.66 3.33 2.32 3.66 3 4 C2.01 4.33 1.02 4.66 0 5 C-0.66 5.66 -1.32 6.32 -2 7 C-4.9093558 7.14517744 -7.719946 7.18630796 -10.625 7.125 C-11.42679688 7.11597656 -12.22859375 7.10695313 -13.0546875 7.09765625 C-15.03658523 7.07406223 -17.01832981 7.03819065 -19 7 C-19 6.67 -19 6.34 -19 6 C-18.20335937 5.97421875 -17.40671875 5.9484375 -16.5859375 5.921875 C-9.57565426 5.5466287 -5.07627905 5.07627905 0 0 Z " fill="#963D55" transform="translate(60,104)"/>
<path d="M0 0 C1.32 0 2.64 0 4 0 C3.88623383 2.12563103 3.75864369 4.2505261 3.625 6.375 C3.52058594 8.15003906 3.52058594 8.15003906 3.4140625 9.9609375 C3 13 3 13 1 15 C0.67 10.05 0.34 5.1 0 0 Z " fill="#832F46" transform="translate(288,83)"/>
<path d="M0 0 C3.16225552 0.03981257 4.03583439 0.20892349 6.75 2.0625 C8.1875 4.3125 8.1875 4.3125 7.9375 6.5625 C7.69 7.14 7.4425 7.7175 7.1875 8.3125 C7.1875 7.3225 7.1875 6.3325 7.1875 5.3125 C5.1129644 4.0888932 5.1129644 4.0888932 2.1875 4.3125 C-2.49821429 3.62678571 -2.49821429 3.62678571 -4.8125 1.3125 C-3.8125 0.3125 -3.8125 0.3125 0 0 Z " fill="#FAE6ED" transform="translate(128.8125,82.6875)"/>
<path d="M0 0 C2.0625 0.4375 2.0625 0.4375 4 1 C3.5359375 1.7734375 3.5359375 1.7734375 3.0625 2.5625 C1.70940713 5.66665423 1.38640576 8.65115007 1 12 C0.01 12 -0.98 12 -2 12 C-1.85962479 10.18706911 -1.71255111 8.3746557 -1.5625 6.5625 C-1.48128906 5.55316406 -1.40007812 4.54382812 -1.31640625 3.50390625 C-1 1 -1 1 0 0 Z " fill="#882E49" transform="translate(211,40)"/>
<path d="M0 0 C0 3 0 3 -1.19335938 4.53393555 C-1.73798828 5.062854 -2.28261719 5.59177246 -2.84375 6.13671875 C-3.72353516 7.00200195 -3.72353516 7.00200195 -4.62109375 7.88476562 C-5.24113281 8.47966797 -5.86117187 9.07457031 -6.5 9.6875 C-7.12003906 10.29400391 -7.74007812 10.90050781 -8.37890625 11.52539062 C-9.91264707 13.02373743 -11.45548198 14.51276493 -13 16 C-13.99 15.67 -14.98 15.34 -16 15 C-15.32626343 14.37170288 -15.32626343 14.37170288 -14.63891602 13.73071289 C-12.61327169 11.84149326 -10.58788262 9.9520002 -8.5625 8.0625 C-7.85544922 7.40314453 -7.14839844 6.74378906 -6.41992188 6.06445312 C-5.74638672 5.43603516 -5.07285156 4.80761719 -4.37890625 4.16015625 C-3.7557251 3.57886963 -3.13254395 2.99758301 -2.49047852 2.39868164 C-1.65000401 1.609971 -0.81500364 0.81500364 0 0 Z " fill="#F7E1E9" transform="translate(240,200)"/>
<path d="M0 0 C1.32 0 2.64 0 4 0 C3.67 2.31 3.34 4.62 3 7 C1.68 7.33 0.36 7.66 -1 8 C-2 6 -2 6 -1.0625 2.875 C-0.5365625 1.451875 -0.5365625 1.451875 0 0 Z " fill="#943E58" transform="translate(238,99)"/>
<path d="M0 0 C0.66 0.99 1.32 1.98 2 3 C1.67 3.99 1.34 4.98 1 6 C0.90456331 8.10241416 0.87014516 10.20792643 0.875 12.3125 C0.87242188 13.42238281 0.86984375 14.53226563 0.8671875 15.67578125 C0.99472665 18.86801125 1.40242227 21.86508827 2 25 C1.34 25 0.68 25 0 25 C-1.18397001 22.63205997 -1.12913001 21.17418691 -1.1328125 18.53515625 C-1.13410156 17.65279297 -1.13539062 16.77042969 -1.13671875 15.86132812 C-1.13091797 14.4759082 -1.13091797 14.4759082 -1.125 13.0625 C-1.12886719 12.14275391 -1.13273437 11.22300781 -1.13671875 10.27539062 C-1.13542969 9.39173828 -1.13414063 8.50808594 -1.1328125 7.59765625 C-1.13168457 6.78820557 -1.13055664 5.97875488 -1.12939453 5.14477539 C-1 3 -1 3 0 0 Z " fill="#81253F" transform="translate(27,77)"/>
<path d="M0 0 C1.65 0 3.3 0 5 0 C4.67 0.66 4.34 1.32 4 2 C3.01 1.67 2.02 1.34 1 1 C1 6.28 1 11.56 1 17 C2.32 16.67 3.64 16.34 5 16 C4.67 17.32 4.34 18.64 4 20 C2.68 19.67 1.36 19.34 0 19 C0 12.73 0 6.46 0 0 Z " fill="#812D46" transform="translate(218,43)"/>
<path d="M0 0 C2.475 0.495 2.475 0.495 5 1 C5.125 3.375 5.125 3.375 5 6 C4.34 6.66 3.68 7.32 3 8 C2.01 8 1.02 8 0 8 C0 5.36 0 2.72 0 0 Z " fill="#822843" transform="translate(236,43)"/>
<path d="M0 0 C0.33 0 0.66 0 1 0 C1.33 7.26 1.66 14.52 2 22 C3.32 22.33 4.64 22.66 6 23 C3.69 22.67 1.38 22.34 -1 22 C-1 19.50104795 -0.9151488 17.04464644 -0.78125 14.55078125 C-0.73613281 13.70322266 -0.69101563 12.85566406 -0.64453125 11.98242188 C-0.59683594 11.10134766 -0.54914063 10.22027344 -0.5 9.3125 C-0.45230469 8.41982422 -0.40460938 7.52714844 -0.35546875 6.60742188 C-0.23768731 4.40490896 -0.11917063 2.20243811 0 0 Z " fill="#F2C9D4" transform="translate(210,88)"/>
<path d="M0 0 C0.99 0 1.98 0 3 0 C3.66 2.64 4.32 5.28 5 8 C4.01 8 3.02 8 2 8 C1.34 9.32 0.68 10.64 0 12 C0 8.04 0 4.08 0 0 Z " fill="#96475E" transform="translate(253,98)"/>
<path d="M0 0 C1.98 0.495 1.98 0.495 4 1 C3.67 5.29 3.34 9.58 3 14 C2.34 14 1.68 14 1 14 C1 10.37 1 6.74 1 3 C0.34 3 -0.32 3 -1 3 C-0.67 2.01 -0.34 1.02 0 0 Z " fill="#8F2743" transform="translate(272,86)"/>
<path d="M0 0 C0.99 0.33 1.98 0.66 3 1 C2.67 5.62 2.34 10.24 2 15 C-1.375 10.5 -1.375 10.5 -2 7 C-1.34 7 -0.68 7 0 7 C0 4.69 0 2.38 0 0 Z " fill="#833149" transform="translate(297,38)"/>
<path d="M0 0 C1.32 0.66 2.64 1.32 4 2 C3.04578192 3.14926266 2.08647955 4.29430541 1.125 5.4375 C0.59132813 6.07558594 0.05765625 6.71367187 -0.4921875 7.37109375 C-2 9 -2 9 -4 10 C-4.1875 7.6875 -4.1875 7.6875 -4 5 C-2.5625 3.3125 -2.5625 3.3125 -1 2 C-0.67 1.34 -0.34 0.68 0 0 Z " fill="#851E3C" transform="translate(122,214)"/>
<path d="M0 0 C0.33 0.99 0.66 1.98 1 3 C1.66 3 2.32 3 3 3 C3.33 2.01 3.66 1.02 4 0 C3.91284983 1.93833996 3.80467036 3.8757429 3.6875 5.8125 C3.62949219 6.89144531 3.57148438 7.97039062 3.51171875 9.08203125 C3 12 3 12 0 15 C0 10.05 0 5.1 0 0 Z " fill="#9D4D64" transform="translate(281,89)"/>
<path d="M0 0 C1.65 0 3.3 0 5 0 C4.55123384 1.64846769 4.09069512 3.29373455 3.625 4.9375 C3.36976563 5.85402344 3.11453125 6.77054688 2.8515625 7.71484375 C2 10 2 10 0 11 C0 7.37 0 3.74 0 0 Z " fill="#8D4258" transform="translate(253,39)"/>
<path d="M0 0 C-0.33 3.3 -0.66 6.6 -1 10 C-1.99 10 -2.98 10 -4 10 C-4 7.03 -4 4.06 -4 1 C-1 0 -1 0 0 0 Z " fill="#FCF0F4" transform="translate(187,100)"/>
<path d="M0 0 C1.98 0 3.96 0 6 0 C6 1.98 6 3.96 6 6 C3.03 5.505 3.03 5.505 0 5 C0 3.35 0 1.7 0 0 Z " fill="#8E1836" transform="translate(97,88)"/>
<path d="M0 0 C0.33 0 0.66 0 1 0 C1 4.95 1 9.9 1 15 C-0.65 15 -2.3 15 -4 15 C-3.69320312 14.45859375 -3.38640625 13.9171875 -3.0703125 13.359375 C-1.84371789 10.65549492 -1.36256224 8.17537342 -0.875 5.25 C-0.70742187 4.26515625 -0.53984375 3.2803125 -0.3671875 2.265625 C-0.24601563 1.51796875 -0.12484375 0.7703125 0 0 Z " fill="#7A273E" transform="translate(138,51)"/>
<path d="M0 0 C0.33 0 0.66 0 1 0 C1 4.95 1 9.9 1 15 C-1.672336 11.43688534 -2.77263971 9.15414253 -4 5 C-3.01 5 -2.02 5 -1 5 C-0.67 3.35 -0.34 1.7 0 0 Z " fill="#9F5A6E" transform="translate(162,39)"/>
<path d="M0 0 C0.66 0.66 1.32 1.32 2 2 C1.7578125 5.2578125 1.7578125 5.2578125 1.125 9.125 C0.92132813 10.40632813 0.71765625 11.68765625 0.5078125 13.0078125 C0.34023437 13.99523438 0.17265625 14.98265625 0 16 C-0.33 16 -0.66 16 -1 16 C-1 13.03 -1 10.06 -1 7 C-1.99 7.495 -1.99 7.495 -3 8 C-2.74438677 5.6568787 -2.40729228 3.32156597 -2 1 C-1.34 0.67 -0.68 0.34 0 0 Z " fill="#ECD6DE" transform="translate(198,48)"/>
<path d="M0 0 C1.485 0.99 1.485 0.99 3 2 C3.375 5 3.375 5 3 8 C2.01 8.66 1.02 9.32 0 10 C-1.49106457 7.01787087 -1.11941467 4.28390342 -1 1 C-0.67 0.67 -0.34 0.34 0 0 Z " fill="#F9EEF3" transform="translate(281,45)"/>
<path d="M0 0 C-0.38878998 2.81872737 -0.70810365 3.77195598 -3 5.5625 C-3.66 6.036875 -4.32 6.51125 -5 7 C-5.33 7.99 -5.66 8.98 -6 10 C-6.99 9.01 -7.98 8.02 -9 7 C-7.88121617 5.82737096 -6.75476949 4.66204862 -5.625 3.5 C-4.68527344 2.52546875 -4.68527344 2.52546875 -3.7265625 1.53125 C-2 0 -2 0 0 0 Z " fill="#8B2945" transform="translate(203,222)"/>
<path d="M0 0 C0.66 0.33 1.32 0.66 2 1 C2 5.62 2 10.24 2 15 C1.01 14.34 0.02 13.68 -1 13 C-0.67 8.71 -0.34 4.42 0 0 Z " fill="#821E3B" transform="translate(173,95)"/>
<path d="M0 0 C0.33 0 0.66 0 1 0 C1 5.94 1 11.88 1 18 C-0.65 18.33 -2.3 18.66 -4 19 C-3.525625 18.278125 -3.05125 17.55625 -2.5625 16.8125 C0.06850117 11.68701187 -0.24258815 5.63808327 0 0 Z " fill="#863E54" transform="translate(100,44)"/>
<path d="M0 0 C0 2.31 0 4.62 0 7 C-1.65 7.33 -3.3 7.66 -5 8 C-5.25 5.6875 -5.25 5.6875 -5 3 C-1.79310345 0 -1.79310345 0 0 0 Z " fill="#891939" transform="translate(49,59)"/>
<path d="M0 0 C0.99 0.66 1.98 1.32 3 2 C1.90716423 3.03295436 0.80029421 4.05107835 -0.3125 5.0625 C-0.92738281 5.63097656 -1.54226562 6.19945312 -2.17578125 6.78515625 C-2.77777344 7.18605469 -3.37976563 7.58695313 -4 8 C-4.99 7.67 -5.98 7.34 -7 7 C-4.69 4.69 -2.38 2.38 0 0 Z " fill="#8B2A46" transform="translate(233,190)"/>
<path d="M0 0 C0.99945096 3.17186869 0.98583023 4.04870857 0 7.4375 C-0.98432198 10.94414706 -1.03446368 12.58626986 0 16 C-0.66 16 -1.32 16 -2 16 C-3.52800174 12.40919591 -4.40862934 10.33120487 -3.2421875 6.53125 C-2.23486269 4.30527349 -1.17523814 2.14165297 0 0 Z " fill="#86354B" transform="translate(262,41)"/>
<path d="M0 0 C1.32 0 2.64 0 4 0 C3.67 3.63 3.34 7.26 3 11 C2.67 11 2.34 11 2 11 C2 9.02 2 7.04 2 5 C1.34 5 0.68 5 0 5 C-0.33 5.66 -0.66 6.32 -1 7 C-0.67 4.69 -0.34 2.38 0 0 Z " fill="#F5E0E8" transform="translate(301,83)"/>
<path d="M0 0 C5.875 0.875 5.875 0.875 7 2 C7.04080783 3.99958364 7.04254356 6.00045254 7 8 C6.34 8 5.68 8 5 8 C5 6.35 5 4.7 5 3 C3.02 3 1.04 3 -1 3 C-0.67 2.01 -0.34 1.02 0 0 Z " fill="#FDFAFA" transform="translate(278,57)"/>
<path d="M0 0 C0.66 0.33 1.32 0.66 2 1 C0.84826645 3.46800047 -0.04783565 5.04783565 -2 7 C-2.33 6.67 -2.66 6.34 -3 6 C-5.33297433 5.95907063 -7.66705225 5.95758277 -10 6 C-10 5.67 -10 5.34 -10 5 C-8.02 5 -6.04 5 -4 5 C-4 4.01 -4 3.02 -4 2 C-2.68 2.33 -1.36 2.66 0 3 C0 2.01 0 1.02 0 0 Z " fill="#A24F66" transform="translate(106,81)"/>
<path d="M0 0 C1.79275866 3.11910856 2.34290718 5.67682428 2.625 9.25 C2.69976562 10.14203125 2.77453125 11.0340625 2.8515625 11.953125 C2.92503906 12.96632813 2.92503906 12.96632813 3 14 C2.34 14 1.68 14 1 14 C1 11.36 1 8.72 1 6 C0.34 6 -0.32 6 -1 6 C-1.042721 4.33388095 -1.04063832 2.66617115 -1 1 C-0.67 0.67 -0.34 0.34 0 0 Z " fill="#914D60" transform="translate(200,51)"/>
<path d="M0 0 C1.65 0 3.3 0 5 0 C4.04578192 1.14926266 3.08647955 2.29430541 2.125 3.4375 C1.59132812 4.07558594 1.05765625 4.71367187 0.5078125 5.37109375 C-1 7 -1 7 -3 8 C-3 6.68 -3 5.36 -3 4 C-2.01 4 -1.02 4 0 4 C0 2.68 0 1.36 0 0 Z " fill="#882943" transform="translate(217,217)"/>
<path d="M0 0 C1.15941038 3.47823115 0.70820884 5.45895578 0 9 C-0.33 9 -0.66 9 -1 9 C-1 7.35 -1 5.7 -1 4 C-1.99 4 -2.98 4 -4 4 C-4.33 4.66 -4.66 5.32 -5 6 C-4.625 3.5625 -4.625 3.5625 -4 1 C-2 0 -2 0 0 0 Z " fill="#902D4A" transform="translate(187,85)"/>
<path d="M0 0 C0 3 0 3 -1.4375 4.5 C-1.953125 4.995 -2.46875 5.49 -3 6 C-3.33 6.99 -3.66 7.98 -4 9 C-5.65 9.33 -7.3 9.66 -9 10 C-8.06409496 8.8944811 -7.12620142 7.79064547 -6.1875 6.6875 C-5.66542969 6.07261719 -5.14335937 5.45773438 -4.60546875 4.82421875 C-3.12827531 3.14575321 -1.59960869 1.56117966 0 0 Z " fill="#89344B" transform="translate(217,206)"/>
<path d="M0 0 C0.33 0 0.66 0 1 0 C1.33 2.97 1.66 5.94 2 9 C1.01 9.495 1.01 9.495 0 10 C-0.66 10.99 -1.32 11.98 -2 13 C-1.85851011 11.3954444 -1.71164314 9.79136233 -1.5625 8.1875 C-1.48128906 7.29417969 -1.40007812 6.40085937 -1.31640625 5.48046875 C-1 3 -1 3 0 0 Z " fill="#945667" transform="translate(294,93)"/>
<path d="M0 0 C2.31 0 4.62 0 7 0 C7.66 1.32 8.32 2.64 9 4 C3.46153846 3.38461538 3.46153846 3.38461538 1.125 1.4375 C0.75375 0.963125 0.3825 0.48875 0 0 Z " fill="#F9E8EC" transform="translate(33,106)"/>
<path d="M0 0 C1.9375 0.375 1.9375 0.375 4 1 C5.26237731 3.52475462 5.09856404 5.31200466 5.0625 8.125 C5.05347656 9.03507812 5.04445313 9.94515625 5.03515625 10.8828125 C5.02355469 11.58148438 5.01195312 12.28015625 5 13 C4.67 13 4.34 13 4 13 C3.67 10.03 3.34 7.06 3 4 C1.68 3.67 0.36 3.34 -1 3 C-0.67 2.01 -0.34 1.02 0 0 Z " fill="#843248" transform="translate(46,49)"/>
<path d="M0 0 C1.98 0 3.96 0 6 0 C5.01 0.33 4.02 0.66 3 1 C3 2.98 3 4.96 3 7 C2.01 7 1.02 7 0 7 C0 4.69 0 2.38 0 0 Z " fill="#842541" transform="translate(144,43)"/>
<path d="M0 0 C1.65 0 3.3 0 5 0 C4.34 1.98 3.68 3.96 3 6 C2.34 6 1.68 6 1 6 C0.67 4.02 0.34 2.04 0 0 Z " fill="#FDFAF9" transform="translate(231,40)"/>
<path d="M0 0 C1.485 0.99 1.485 0.99 3 2 C3 3.32 3 4.64 3 6 C1.68 6.33 0.36 6.66 -1 7 C-0.67 4.69 -0.34 2.38 0 0 Z " fill="#8F2F4B" transform="translate(294,101)"/>
<path d="M0 0 C0.33 0.99 0.66 1.98 1 3 C1.66 3 2.32 3 3 3 C2.67 5.97 2.34 8.94 2 12 C1.67 12 1.34 12 1 12 C0.01751476 7.9472484 -0.08159574 4.16138263 0 0 Z " fill="#84394E" transform="translate(297,86)"/>
<path d="M0 0 C0.33 0 0.66 0 1 0 C1.33 2.97 1.66 5.94 2 9 C1.01 9 0.02 9 -1 9 C-1.09765625 2.84765625 -1.09765625 2.84765625 -1 1 C-0.67 0.67 -0.34 0.34 0 0 Z " fill="#8F4960" transform="translate(279,48)"/>
<path d="M0 0 C0 1.33333333 0 2.66666667 0 4 C-5.75 4.125 -5.75 4.125 -8 3 C-7.67 2.34 -7.34 1.68 -7 1 C-4.67843403 0.59270772 -2.3431213 0.25561323 0 0 Z " fill="#94173B" transform="translate(137,50)"/>
<path d="M0 0 C2.31 1.98 4.62 3.96 7 6 C6.34 6.66 5.68 7.32 5 8 C4.5875 7.38125 4.175 6.7625 3.75 6.125 C1.94426121 3.93231719 0.5909466 3.07211583 -2 2 C-1.34 1.34 -0.68 0.68 0 0 Z " fill="#86334A" transform="translate(149,213)"/>
<path d="M0 0 C0.66 0 1.32 0 2 0 C2.125 5.75 2.125 5.75 1 8 C0.34 8 -0.32 8 -1 8 C-1.125 2.25 -1.125 2.25 0 0 Z " fill="#FEFAFC" transform="translate(301,88)"/>
<path d="M0 0 C1.3921875 0.0928125 1.3921875 0.0928125 2.8125 0.1875 C2.8125 1.1775 2.8125 2.1675 2.8125 3.1875 C-0.1575 3.1875 -3.1275 3.1875 -6.1875 3.1875 C-3.1875 0.1875 -3.1875 0.1875 0 0 Z " fill="#FEF5FA" transform="translate(117.1875,62.8125)"/>
<path d="M0 0 C0.99 0 1.98 0 3 0 C3.66 2.31 4.32 4.62 5 7 C3.0625 6.3125 3.0625 6.3125 1 5 C0.25 2.375 0.25 2.375 0 0 Z " fill="#8B2A45" transform="translate(158,59)"/>
<path d="M0 0 C0.99 0 1.98 0 3 0 C3 0.66 3 1.32 3 2 C4.32 2.33 5.64 2.66 7 3 C5.02 3 3.04 3 1 3 C1 5.31 1 7.62 1 10 C0.67 10 0.34 10 0 10 C0 6.7 0 3.4 0 0 Z " fill="#E7C5D0" transform="translate(113,40)"/>
<path d="M0 0 C1.8871875 0.0309375 1.8871875 0.0309375 3.8125 0.0625 C0.59622163 2.20668558 -1.37840105 2.73832137 -5.1875 3.0625 C-5.8475 2.4025 -6.5075 1.7425 -7.1875 1.0625 C-4.43671116 0.14557039 -2.82801087 -0.04636083 0 0 Z " fill="#8C2C47" transform="translate(247.1875,146.9375)"/>
<path d="M0 0 C0.33 0 0.66 0 1 0 C1 3.63 1 7.26 1 11 C-1.40820361 8.59179639 -1.68097423 7.34977063 -2 4 C-1.0625 1.6875 -1.0625 1.6875 0 0 Z " fill="#8F173A" transform="translate(264,94)"/>
<path d="M0 0 C-0.33 0.66 -0.66 1.32 -1 2 C-1.99 2 -2.98 2 -4 2 C-4 3.98 -4 5.96 -4 8 C-4.33 8 -4.66 8 -5 8 C-5.33 5.36 -5.66 2.72 -6 0 C-3.50907189 -1.24546405 -2.58919267 -0.7767578 0 0 Z " fill="#8D344D" transform="translate(268,85)"/>
<path d="M0 0 C2.125 0.9375 2.125 0.9375 4 2 C2.8125 3.5 2.8125 3.5 1 5 C-1.6875 5.1875 -1.6875 5.1875 -4 5 C-3.01 4.34 -2.02 3.68 -1 3 C-1.33 2.34 -1.66 1.68 -2 1 C-1.34 0.67 -0.68 0.34 0 0 Z " fill="#F3D3DC" transform="translate(131,62)"/>
<path d="M0 0 C0.99 0.33 1.98 0.66 3 1 C2.67 3.97 2.34 6.94 2 10 C0.0044484 6.00889681 -0.19546065 4.30013434 0 0 Z " fill="#7F344A" transform="translate(203,44)"/>
<path d="M0 0 C3.63 0 7.26 0 11 0 C11 0.99 11 1.98 11 3 C9.68 3 8.36 3 7 3 C7 2.34 7 1.68 7 1 C4.69 1 2.38 1 0 1 C0 0.67 0 0.34 0 0 Z " fill="#FFE3EE" transform="translate(109,39)"/>
<path d="M0 0 C2.97 0.33 5.94 0.66 9 1 C8.67 1.66 8.34 2.32 8 3 C5.03 3 2.06 3 -1 3 C-0.67 2.01 -0.34 1.02 0 0 Z " fill="#842942" transform="translate(125,37)"/>
<path d="M0 0 C0 0.99 0 1.98 0 3 C-2.31 3 -4.62 3 -7 3 C-7.33 2.34 -7.66 1.68 -8 1 C-5.07175348 0.02391783 -3.04386724 -0.08226668 0 0 Z " fill="#FEF3F7" transform="translate(115,107)"/>
<path d="M0 0 C3.3 0 6.6 0 10 0 C10 0.33 10 0.66 10 1 C7.98177083 1.45572917 5.96354167 1.91145833 3.9453125 2.3671875 C1.79280036 2.90474428 1.79280036 2.90474428 0 5 C0 3.35 0 1.7 0 0 Z " fill="#8B3249" transform="translate(157,82)"/>
<path d="M0 0 C2.50298434 2.93828597 3.46930939 5.17902761 4 9 C3.34 9 2.68 9 2 9 C0.61061923 7.03852126 -0.7260411 5.03833424 -2 3 C-1.34 2.01 -0.68 1.02 0 0 Z " fill="#843047" transform="translate(59,69)"/>
<path d="M0 0 C0 3.90838866 -1.50567876 5.11594107 -4 8 C-4.99 7.67 -5.98 7.34 -7 7 C-4.69 4.69 -2.38 2.38 0 0 Z " fill="#90344D" transform="translate(241,182)"/>
<path d="M0 0 C1.65 0 3.3 0 5 0 C5 1.98 5 3.96 5 6 C4.34 5.67 3.68 5.34 3 5 C3 4.01 3 3.02 3 2 C2.01 2 1.02 2 0 2 C0 1.34 0 0.68 0 0 Z " fill="#89374E" transform="translate(110,87)"/>
<path d="M0 0 C0.33 0 0.66 0 1 0 C1 3.63 1 7.26 1 11 C-2 7 -2 7 -2 5 C-1.34 5 -0.68 5 0 5 C0 3.35 0 1.7 0 0 Z " fill="#863B51" transform="translate(149,86)"/>
<path d="M0 0 C1.32 0.33 2.64 0.66 4 1 C4 2.65 4 4.3 4 6 C3.01 5.67 2.02 5.34 1 5 C0.67 3.35 0.34 1.7 0 0 Z " fill="#882440" transform="translate(293,39)"/>
<path d="M0 0 C0.66 0 1.32 0 2 0 C2 1.98 2 3.96 2 6 C1.01 6 0.02 6 -1 6 C-1.042721 4.33388095 -1.04063832 2.66617115 -1 1 C-0.67 0.67 -0.34 0.34 0 0 Z " fill="#8D2442" transform="translate(203,38)"/>
</svg>
